<svg width="346" height="141" viewBox="0 0 346 141" fill="none" xmlns="http://www.w3.org/2000/svg">
<g filter="url(#filter0_d_3920_35921)">
<g clip-path="url(#clip0_3920_35921)">
<rect x="8" y="4" width="330" height="125" rx="20" fill="url(#paint0_linear_3920_35921)"/>
<path d="M48.3 66.28C48.0067 66.28 47.7467 66.36 47.52 66.52C47.3067 66.68 47.1933 66.8867 47.18 67.14C48.8067 67.2867 50.1 67.6 51.06 68.08C52.02 68.5467 52.5 69.12 52.5 69.8V73.86C52.5 74.5533 52.2667 75.12 51.8 75.56C51.3467 75.9867 50.7533 76.2 50.02 76.2C49.3267 76.2 48.76 76 48.32 75.6C47.88 75.1867 47.66 74.6667 47.66 74.04C47.66 73.4 47.86 72.8867 48.26 72.5C48.66 72.1 49.1867 71.9 49.84 71.9H49.94V70.22C49.94 69.8333 49.3667 69.5 48.22 69.22C47.0867 68.9267 45.84 68.7467 44.48 68.68C44.4933 67.2933 44.8 66.2133 45.4 65.44C46 64.6667 46.8133 64.28 47.84 64.28C48.2 64.28 48.5133 64.3133 48.78 64.38C49.06 64.4333 49.36 64.5133 49.68 64.62C49.8667 64.6867 50.0533 64.7467 50.24 64.8C50.44 64.84 50.62 64.86 50.78 64.86C50.9933 64.86 51.18 64.8 51.34 64.68C51.5 64.5467 51.6133 64.38 51.68 64.18L53.44 64.72C53.2667 65.4133 52.98 65.9533 52.58 66.34C52.1933 66.7267 51.7467 66.92 51.24 66.92C51.0133 66.92 50.8 66.8933 50.6 66.84C50.4 66.7867 50.1333 66.7067 49.8 66.6C49.16 66.3867 48.66 66.28 48.3 66.28ZM49.82 74.94C50.0867 74.94 50.3 74.86 50.46 74.7C50.6333 74.5267 50.72 74.3067 50.72 74.04C50.72 73.7733 50.6333 73.56 50.46 73.4C50.3 73.2267 50.0867 73.14 49.82 73.14C49.5667 73.14 49.3533 73.2267 49.18 73.4C49.02 73.56 48.94 73.7733 48.94 74.04C48.94 74.3067 49.02 74.5267 49.18 74.7C49.3533 74.86 49.5667 74.94 49.82 74.94ZM56.0506 57.46C56.0506 58.5133 55.804 59.42 55.3106 60.18C54.8306 60.94 54.1773 61.52 53.3506 61.92C52.5106 62.32 51.5706 62.52 50.5306 62.52C49.224 62.52 48.204 62.2667 47.4706 61.76C46.7373 61.2533 46.3706 60.58 46.3706 59.74C46.3706 59.1133 46.5773 58.6133 46.9906 58.24C47.3906 57.8667 47.9106 57.68 48.5506 57.68C49.1906 57.68 49.7173 57.8733 50.1306 58.26C50.544 58.6333 50.7506 59.1333 50.7506 59.76C50.7506 60.2533 50.624 60.68 50.3706 61.04C51.5306 61.04 52.424 60.7 53.0506 60.02C53.664 59.3267 53.9773 58.4733 53.9906 57.46H56.0506ZM47.6506 59.72C47.6506 59.9867 47.7373 60.2067 47.9106 60.38C48.0706 60.54 48.284 60.62 48.5506 60.62C48.804 60.62 49.0173 60.5333 49.1906 60.36C49.364 60.1867 49.4506 59.9733 49.4506 59.72C49.4506 59.4667 49.3706 59.26 49.2106 59.1C49.0373 58.94 48.8173 58.86 48.5506 58.86C48.284 58.86 48.0706 58.94 47.9106 59.1C47.7373 59.26 47.6506 59.4667 47.6506 59.72ZM65.7209 64.46V73.4C65.7209 74.2667 65.3076 74.9533 64.4809 75.46C63.6676 75.9533 62.5476 76.2 61.1209 76.2C59.6943 76.2 58.5676 75.9533 57.7409 75.46C56.9276 74.9533 56.5209 74.2667 56.5209 73.4V68.58H56.4209C55.7676 68.58 55.2343 68.3867 54.8209 68C54.4209 67.6 54.2209 67.08 54.2209 66.44C54.2209 65.8133 54.4409 65.3 54.8809 64.9C55.3209 64.4867 55.8876 64.28 56.5809 64.28C57.3143 64.28 57.9076 64.5 58.3609 64.94C58.8276 65.3667 59.0609 65.92 59.0609 66.6V73.02C59.0609 73.38 59.2409 73.6667 59.6009 73.88C59.9743 74.0933 60.4809 74.2 61.1209 74.2C61.7476 74.2 62.2409 74.0933 62.6009 73.88C62.9743 73.6667 63.1609 73.38 63.1609 73.02V64.46H65.7209ZM56.4009 67.34C56.6676 67.34 56.8809 67.26 57.0409 67.1C57.2143 66.9267 57.3009 66.7067 57.3009 66.44C57.3009 66.1733 57.2143 65.96 57.0409 65.8C56.8809 65.6267 56.6676 65.54 56.4009 65.54C56.1476 65.54 55.9343 65.6267 55.7609 65.8C55.5876 65.96 55.5009 66.1733 55.5009 66.44C55.5009 66.6933 55.5876 66.9067 55.7609 67.08C55.9343 67.2533 56.1476 67.34 56.4009 67.34ZM72.8683 64.28C73.6016 64.28 74.1949 64.5 74.6483 64.94C75.1149 65.3667 75.3483 65.92 75.3483 66.6V76H72.8083L67.2483 70.1L68.6283 68.66L72.8083 73.16V68.58H72.7083C72.0549 68.58 71.5216 68.3867 71.1083 68C70.7083 67.6 70.5083 67.08 70.5083 66.44C70.5083 65.8133 70.7283 65.3 71.1683 64.9C71.6083 64.4867 72.1749 64.28 72.8683 64.28ZM72.6883 67.34C72.9549 67.34 73.1683 67.26 73.3283 67.1C73.5016 66.9267 73.5883 66.7067 73.5883 66.44C73.5883 66.1733 73.5016 65.96 73.3283 65.8C73.1683 65.6267 72.9549 65.54 72.6883 65.54C72.4349 65.54 72.2216 65.6267 72.0483 65.8C71.8749 65.96 71.7883 66.1733 71.7883 66.44C71.7883 66.6933 71.8749 66.9067 72.0483 67.08C72.2216 67.2533 72.4349 67.34 72.6883 67.34ZM83.0167 67.84C83.0167 67.3467 82.8634 66.9667 82.5567 66.7C82.2501 66.42 81.8301 66.28 81.2967 66.28C80.6967 66.28 80.2301 66.4533 79.8967 66.8C79.5634 67.1333 79.3967 67.6 79.3967 68.2H76.9367C76.9367 66.9733 77.3234 66.0133 78.0967 65.32C78.8701 64.6267 79.9367 64.28 81.2967 64.28C82.6301 64.28 83.6701 64.58 84.4167 65.18C85.1767 65.78 85.5567 66.6133 85.5567 67.68V76H83.0167V67.84ZM97.592 71.96C98.0187 72.1467 98.3454 72.4067 98.572 72.74C98.812 73.0733 98.932 73.4467 98.932 73.86C98.932 74.58 98.7187 75.1533 98.292 75.58C97.8787 75.9933 97.3187 76.2 96.612 76.2C95.9187 76.2 95.3587 76 94.932 75.6C94.5187 75.2 94.3054 74.66 94.292 73.98C93.772 74.2067 93.292 74.5 92.852 74.86C92.412 75.2067 92.0654 75.5867 91.812 76H89.392V68.58H89.292C88.6387 68.58 88.1054 68.3867 87.692 68C87.292 67.6 87.092 67.08 87.092 66.44C87.092 65.8133 87.312 65.3 87.752 64.9C88.192 64.4867 88.7587 64.28 89.452 64.28C90.1854 64.28 90.7787 64.5 91.232 64.94C91.6987 65.3667 91.932 65.92 91.932 66.6V73.44C92.1987 73.0533 92.8987 72.6 94.032 72.08C94.672 71.8 95.132 71.5333 95.412 71.28C95.7054 71.0133 95.852 70.68 95.852 70.28V64.46H98.412V70.22C98.412 70.6067 98.3387 70.9533 98.192 71.26C98.0454 71.5667 97.8454 71.8 97.592 71.96ZM89.272 67.34C89.5387 67.34 89.752 67.26 89.912 67.1C90.0854 66.9267 90.172 66.7067 90.172 66.44C90.172 66.1733 90.0854 65.96 89.912 65.8C89.752 65.6267 89.5387 65.54 89.272 65.54C89.0187 65.54 88.8054 65.6267 88.632 65.8C88.4587 65.96 88.372 66.1733 88.372 66.44C88.372 66.6933 88.4587 66.9067 88.632 67.08C88.8054 67.2533 89.0187 67.34 89.272 67.34ZM96.612 74.94C96.8787 74.94 97.092 74.8533 97.252 74.68C97.4254 74.5067 97.512 74.2933 97.512 74.04C97.512 73.7733 97.4254 73.56 97.252 73.4C97.092 73.2267 96.8787 73.14 96.612 73.14C96.3587 73.14 96.1454 73.2267 95.972 73.4C95.7987 73.56 95.712 73.7733 95.712 74.04C95.712 74.2933 95.7987 74.5067 95.972 74.68C96.1454 74.8533 96.3587 74.94 96.612 74.94Z" fill="#F3F6F9"/>
<path d="M192.748 32.2363H184.716C183.968 32.2363 183.594 31.5782 184.123 31.1927L228.82 -1.36474C230.062 -2.2693 231.746 -2.77734 233.502 -2.77734H241.534C242.282 -2.77734 242.656 -2.11785 242.127 -1.73234L197.43 30.8251C196.188 31.7297 194.504 32.2377 192.748 32.2377V32.2363Z" fill="url(#paint1_linear_3920_35921)"/>
<path d="M167.688 38.262H163.671C163.296 38.262 163.109 37.9318 163.374 37.7383L226.596 -8.46885C227.216 -8.92209 228.059 -9.17773 228.937 -9.17773H232.954C233.329 -9.17773 233.516 -8.84748 233.251 -8.65402L170.029 37.5531C169.409 38.0064 168.566 38.262 167.688 38.262Z" fill="url(#paint2_linear_3920_35921)"/>
<path d="M-4.75 101.517H91.8566C98.6526 101.517 102.056 109.475 97.2506 114.13L36.4266 173.051H-0.15544L-4.75 101.515V101.517Z" fill="url(#paint3_linear_3920_35921)"/>
<path style="mix-blend-mode:overlay" d="M67.06 111.117L72.2725 106.157C72.7582 105.694 72.4147 104.904 71.7278 104.904H61.6116C60.0002 104.904 58.4546 105.513 57.315 106.597L52.1025 111.558C51.6168 112.02 51.9603 112.81 52.6472 112.81H62.7634C64.3748 112.81 65.9204 112.201 67.06 111.117Z" fill="url(#paint4_linear_3920_35921)"/>
<path style="mix-blend-mode:overlay" d="M47.9564 120.529L53.1484 115.569C53.6322 115.107 53.2901 114.316 52.6059 114.316H-5.17665C-6.78177 114.316 -8.32123 114.925 -9.45639 116.01L-14.6484 120.97C-15.1322 121.432 -14.7901 122.223 -14.1059 122.223H43.6749C45.28 122.223 46.8195 121.614 47.9547 120.529H47.9564Z" fill="url(#paint5_linear_3920_35921)"/>
<path style="mix-blend-mode:overlay" d="M77.5813 116.388L82.7734 111.428C83.2572 110.965 82.9151 110.175 82.2309 110.175H24.4486C22.8434 110.175 21.3039 110.784 20.1687 111.868L14.9766 116.829C14.4928 117.291 14.8349 118.081 15.5191 118.081H73.3014C74.9066 118.081 76.4461 117.472 77.5813 116.388Z" fill="url(#paint6_linear_3920_35921)"/>
<g style="mix-blend-mode:screen" opacity="0.5">
<path d="M242.298 -27.7544L141.565 33.0127C135.993 36.3735 128.436 38.262 120.556 38.262H-8.125V-40.4277H251C251 -35.675 247.869 -31.1162 242.298 -27.7544Z" fill="url(#paint7_linear_3920_35921)"/>
</g>
<g style="mix-blend-mode:screen" opacity="0.5">
<path d="M1.25 -35.5332V32.6144H62.7586C70.6453 32.6144 78.21 30.709 83.7886 27.3183L184.621 -33.9888C185.427 -34.4788 186.173 -34.9962 186.875 -35.5332H1.25Z" fill="url(#paint8_linear_3920_35921)"/>
</g>
<ellipse cx="242.18" cy="93.0134" rx="58.18" ry="3.98651" fill="#063063"/>
<path d="M270.94 80.0566C270.443 78.2894 268.605 77.2585 266.833 77.7551L265.494 78.1305L262.773 81.9821C260.621 85.0293 257.096 86.8067 253.428 86.8067C253.284 86.8067 253.14 86.8028 252.996 86.7974C253.934 86.9551 254.888 87.0352 255.851 87.0352C257.507 87.0352 259.191 86.8016 260.86 86.3337L268.634 84.1552C270.405 83.659 271.438 81.8241 270.94 80.0566Z" fill="url(#paint9_linear_3920_35921)"/>
<path d="M270.94 80.0566C270.443 78.2894 268.605 77.2585 266.833 77.7551L265.494 78.1305L262.773 81.9821C260.621 85.0293 257.096 86.8067 253.428 86.8067C253.284 86.8067 253.14 86.8028 252.996 86.7974C253.934 86.9551 254.888 87.0352 255.851 87.0352C257.507 87.0352 259.191 86.8016 260.86 86.3337L268.634 84.1552C270.405 83.659 271.438 81.8241 270.94 80.0566Z" fill="url(#paint10_linear_3920_35921)"/>
<path d="M253.699 88.3221C253.051 88.3156 252.4 88.2537 251.751 88.1333C249.942 87.7982 248.748 86.0633 249.084 84.2584C249.42 82.4537 251.158 81.2617 252.967 81.5972C254.766 81.9306 256.618 81.1884 257.687 79.707L262.118 73.5647C263.192 72.0748 265.274 71.7367 266.767 72.8092C268.259 73.8817 268.598 75.9589 267.524 77.4488L263.093 83.5911C260.91 86.6166 257.367 88.3587 253.699 88.3221Z" fill="url(#paint11_linear_3920_35921)"/>
<path d="M262.342 74.1318L260.079 76.3906L257.687 79.707C257.007 80.6496 256.009 81.2912 254.911 81.5486L249.65 86.7982C250.134 87.4731 250.869 87.9698 251.751 88.1333C252.4 88.2535 253.051 88.3155 253.7 88.322C257.367 88.3586 260.91 86.6164 263.093 83.5909L266.746 78.5265L262.342 74.1318Z" fill="url(#paint12_linear_3920_35921)"/>
<path d="M262.342 74.1318L260.079 76.3906L257.687 79.707C257.007 80.6496 256.009 81.2912 254.911 81.5486L249.65 86.7982C250.134 87.4731 250.869 87.9698 251.751 88.1333C252.4 88.2535 253.051 88.3155 253.7 88.322C257.367 88.3586 260.91 86.6164 263.093 83.5909L266.746 78.5265L262.342 74.1318Z" fill="url(#paint13_linear_3920_35921)"/>
<path d="M247.563 89.4936C247.483 89.4837 247.404 89.473 247.324 89.4615L241.18 88.5702C239.36 88.3062 238.099 86.6194 238.363 84.8028C238.624 83.0103 240.274 81.7609 242.066 81.982C242.09 81.985 242.114 81.9882 242.138 81.9917L248.282 82.8829C250.088 83.1448 251.915 82.3317 252.925 80.8093L257.111 74.4984C258.126 72.9677 260.192 72.548 261.726 73.5614C263.26 74.5747 263.681 76.6371 262.665 78.1678L258.479 84.4789C256.097 88.0695 251.834 90.0202 247.563 89.4936Z" fill="url(#paint14_linear_3920_35921)"/>
<path d="M257.384 75.7905L254.039 79.1287L252.924 80.8093C252.334 81.6985 251.465 82.3433 250.484 82.6757L244.146 89.0007L247.323 89.4615C247.403 89.4732 247.483 89.4839 247.563 89.4936C251.833 90.0202 256.096 88.0695 258.478 84.4789L261.51 79.9086L257.384 75.7905Z" fill="url(#paint15_linear_3920_35921)"/>
<path d="M257.384 75.7905L254.039 79.1287L252.924 80.8093C252.334 81.6985 251.465 82.3433 250.484 82.6757L244.146 89.0007L247.323 89.4615C247.403 89.4732 247.483 89.4839 247.563 89.4936C251.833 90.0202 256.096 88.0695 258.478 84.4789L261.51 79.9086L257.384 75.7905Z" fill="url(#paint16_linear_3920_35921)"/>
<path d="M256.914 75.3292C255.494 74.1636 253.395 74.3674 252.225 75.7856L250.212 78.2275C248.716 77.4431 247.378 76.378 246.217 75.0396L245.835 74.6008C247.731 73.4442 249.563 72.1869 251.32 70.8293C252.998 69.5323 253.263 67.1021 251.915 65.4667C251.759 65.2776 251.589 65.1093 251.408 64.96C250.152 63.9185 248.328 63.7915 246.917 64.7222C244.12 66.5703 240.959 67.8245 237.637 68.3933C237.075 68.4907 236.502 68.5277 235.932 68.5203C233.98 68.4981 229.013 68.4715 227.394 68.7699C227.379 68.7729 227.163 68.8142 227.071 68.8349C225.09 69.2647 223.326 70.3845 222.032 71.9431L219.711 74.7336V91.2617H222.254C225.077 91.2617 227.87 90.684 230.461 89.5643C231.58 89.0413 232.834 88.8213 234.099 88.9513C234.099 88.9513 242.792 90.0031 243.717 90.0031C247.084 90.0031 250.362 88.511 252.553 85.8534L257.369 80.0078C258.539 78.5911 258.335 76.4963 256.914 75.3292Z" fill="url(#paint17_linear_3920_35921)"/>
<path d="M237.756 68.3716C237.716 68.3786 237.677 68.3867 237.637 68.3934C237.075 68.4908 236.502 68.5278 235.932 68.5204C233.98 68.4982 229.013 68.4716 227.394 68.77C227.379 68.773 227.163 68.8143 227.071 68.835C225.09 69.2648 223.326 70.3846 222.032 71.9432L219.711 74.7337V91.2618H222.254C225.077 91.2618 227.87 90.6841 230.461 89.5644C231.58 89.0414 232.834 88.8214 234.099 88.9514C234.099 88.9514 235.788 89.1557 237.756 89.3842V68.3716Z" fill="url(#paint18_linear_3920_35921)"/>
<path d="M251.319 70.8294C249.562 72.187 247.731 73.4443 245.835 74.6009L246.217 75.0397C247.377 76.3781 248.715 77.4432 250.212 78.2276L247.407 81.6298C247.167 81.9207 246.896 82.1779 246.601 82.3994C244.192 76.3696 239.338 71.7358 225.83 72.9993C224.11 73.1603 222.414 73.1545 220.779 73.4484L222.032 71.943C223.325 70.3845 225.09 69.2647 227.07 68.8348C227.162 68.8141 227.378 68.7728 227.393 68.7699C229.013 68.4715 233.979 68.4981 235.932 68.5203C236.501 68.5277 237.074 68.4907 237.637 68.3932C240.959 67.8244 244.119 66.5703 246.917 64.7221C248.328 63.7915 250.151 63.9186 251.408 64.96C251.589 65.1092 251.759 65.2775 251.914 65.4667C253.263 67.1022 252.998 69.5324 251.319 70.8294Z" fill="url(#paint19_linear_3920_35921)"/>
<path d="M243.717 90.0027C242.791 90.0027 241.859 89.8901 240.941 89.658L233.403 87.7535C231.62 87.303 230.54 85.4952 230.991 83.7155C231.443 81.9359 233.255 80.8588 235.038 81.309L242.575 83.2135C244.349 83.6615 246.245 83.0401 247.408 81.6301L252.225 75.7851C253.394 74.3673 255.493 74.1637 256.914 75.3297C258.334 76.4958 258.538 78.5905 257.37 80.0083L252.552 85.8533C250.362 88.5108 247.085 90.0027 243.717 90.0027Z" fill="url(#paint20_linear_3920_35921)"/>
<path d="M251.408 64.9606C250.151 63.9189 248.327 63.7921 246.916 64.7226C244.119 66.5708 240.958 67.8241 237.637 68.3926C237.074 68.4906 236.502 68.5272 235.931 68.5208C235.11 68.5109 233.757 68.5006 232.344 68.5142V81.7857C233.104 81.2684 234.075 81.0658 235.037 81.3088L242.575 83.2133C244.348 83.6614 246.245 83.0399 247.407 81.6299L250.212 78.2274C248.716 77.4428 247.376 76.3772 246.216 75.0401L245.834 74.6002C247.73 73.4442 249.562 72.1863 251.319 70.8289C252.998 69.5324 253.262 67.1013 251.913 65.4663C251.759 65.2781 251.589 65.1095 251.408 64.9606Z" fill="url(#paint21_linear_3920_35921)"/>
<path d="M251.319 70.8297C249.562 72.1873 247.731 73.4446 245.835 74.6013L234.005 81.2136L234.003 81.2151C233.404 81.2519 232.831 81.4559 232.344 81.7868V68.5149C233.757 68.5016 235.112 68.5119 235.932 68.5208C236.502 68.5282 237.075 68.4912 237.637 68.3937C240.959 67.8249 244.119 66.5708 246.917 64.7226C248.328 63.792 250.152 63.919 251.408 64.9604C251.589 65.1097 251.759 65.278 251.915 65.4672C253.263 67.1026 252.998 69.5327 251.319 70.8297Z" fill="url(#paint22_linear_3920_35921)"/>
<path d="M251.319 70.8297C249.562 72.1873 247.731 73.4446 245.835 74.6013L234.005 81.2136L234.003 81.2151C233.404 81.2519 232.831 81.4559 232.344 81.7868V68.5149C233.757 68.5016 235.112 68.5119 235.932 68.5208C236.502 68.5282 237.075 68.4912 237.637 68.3937C240.959 67.8249 244.119 66.5708 246.917 64.7226C248.328 63.792 250.152 63.919 251.408 64.9604C251.589 65.1097 251.759 65.278 251.915 65.4672C253.263 67.1026 252.998 69.5327 251.319 70.8297Z" fill="url(#paint23_linear_3920_35921)"/>
<g clip-path="url(#clip1_3920_35921)">
<path d="M289.93 70.5854H249.541C248.634 70.5854 247.898 69.8513 247.898 68.9459V35.3749C247.898 34.4694 248.634 33.7354 249.541 33.7354H289.93C290.837 33.7354 291.573 34.4694 291.573 35.3749V68.9459C291.573 69.8513 290.837 70.5854 289.93 70.5854Z" fill="url(#paint24_linear_3920_35921)"/>
<path d="M291.574 35.3745V68.9459C291.574 69.8509 290.838 70.585 289.931 70.585H284.57L258.111 44.1797V33.7354H289.931C290.838 33.7354 291.574 34.4695 291.574 35.3745Z" fill="url(#paint25_linear_3920_35921)"/>
<path d="M289.93 33.7354H278.455C279.362 33.7354 280.098 34.4694 280.098 35.3749V68.9459C280.098 69.8513 279.362 70.5854 278.455 70.5854H289.93C290.838 70.5854 291.573 69.8513 291.573 68.9459V35.3749C291.573 34.4694 290.838 33.7354 289.93 33.7354Z" fill="url(#paint26_linear_3920_35921)"/>
<path d="M247.898 61.6973V68.9458C247.898 69.8513 248.634 70.5854 249.541 70.5854H289.93C290.837 70.5854 291.573 69.8513 291.573 68.9458V61.6973H247.898Z" fill="url(#paint27_linear_3920_35921)"/>
<path d="M259.797 44.4609L259.829 44.4805C260.567 44.9279 261.496 44.9204 262.227 44.461C262.974 44.0108 263.909 44.0108 264.656 44.461C265.403 44.9112 266.339 44.9112 267.086 44.461L267.086 44.4609C267.433 44.2609 267.816 44.2565 268.202 44.3287C268.642 44.4111 269.05 44.0818 269.05 43.635V34.069C269.05 33.7505 268.792 33.4922 268.472 33.4922H258.41C258.091 33.4922 257.832 33.7505 257.832 34.069V43.6215C257.832 44.0657 258.237 44.3982 258.674 44.3164C259.064 44.2435 259.451 44.2514 259.797 44.4609Z" fill="url(#paint28_linear_3920_35921)"/>
<path d="M252.59 60.8403H253.641V64.346C253.641 64.4859 253.755 64.5992 253.895 64.5992H255.785C255.926 64.5992 256.039 64.4858 256.039 64.346V60.8403H257.091C257.412 60.8403 257.605 60.4833 257.428 60.2155L255.177 56.8128C255.018 56.5715 254.663 56.5715 254.503 56.8128L252.253 60.2155C252.076 60.4833 252.268 60.8403 252.59 60.8403Z" fill="#C4573A"/>
<path d="M258.102 65.7954H251.577C251.487 65.7954 251.414 65.8684 251.414 65.9585V66.9144C251.414 67.0044 251.487 67.0773 251.577 67.0773H258.102C258.192 67.0773 258.265 67.0044 258.265 66.9144V65.9585C258.265 65.8684 258.192 65.7954 258.102 65.7954Z" fill="#C4573A"/>
<path d="M285.664 62.1209H282.431C282.341 62.1209 282.268 62.0479 282.268 61.9578V61.0019C282.268 60.9119 282.341 60.8389 282.431 60.8389H285.664C285.755 60.8389 285.828 60.9119 285.828 61.0019V61.9578C285.828 62.0479 285.755 62.1209 285.664 62.1209Z" fill="#C4573A"/>
<path d="M289.775 64.5994H282.431C282.341 64.5994 282.268 64.5264 282.268 64.4363V63.4804C282.268 63.3904 282.341 63.3174 282.431 63.3174H289.775C289.865 63.3174 289.938 63.3904 289.938 63.4804V64.4363C289.938 64.5264 289.865 64.5994 289.775 64.5994Z" fill="#C4573A"/>
<path d="M287.548 67.0779H282.431C282.341 67.0779 282.268 67.0049 282.268 66.9149V65.959C282.268 65.8689 282.341 65.7959 282.431 65.7959H287.548C287.639 65.7959 287.712 65.8689 287.712 65.959V66.9149C287.712 67.0049 287.639 67.0779 287.548 67.0779Z" fill="#C4573A"/>
<path d="M291.572 35.3755V57.0436L279.529 45.0259V33.7363H289.93C290.837 33.7363 291.572 34.4705 291.572 35.3755Z" fill="url(#paint29_linear_3920_35921)"/>
<path d="M280.341 27.0016C280.289 27.0005 280.237 27 280.184 27C280.132 27 280.08 27.0005 280.028 27.0016C274.702 27.1093 271.621 33.0921 274.556 37.5291L279.464 44.951C279.805 45.4667 280.564 45.4667 280.905 44.951L285.813 37.5291C288.747 33.0921 285.667 27.1093 280.341 27.0016Z" fill="url(#paint30_linear_3920_35921)"/>
<path d="M280.184 38.4365C282.765 38.4365 284.857 36.3482 284.857 33.7722C284.857 31.1962 282.765 29.1079 280.184 29.1079C277.602 29.1079 275.51 31.1962 275.51 33.7722C275.51 36.3482 277.602 38.4365 280.184 38.4365Z" fill="url(#paint31_linear_3920_35921)"/>
<path d="M280.185 37.1618C282.061 37.1618 283.581 35.6444 283.581 33.7726C283.581 31.9007 282.061 30.3833 280.185 30.3833C278.31 30.3833 276.789 31.9007 276.789 33.7726C276.789 35.6444 278.31 37.1618 280.185 37.1618Z" fill="url(#paint32_linear_3920_35921)"/>
</g>
<path d="M227.258 92.9256H219.453C218.247 92.9256 217.27 91.9501 217.27 90.747V66.2738C217.27 65.0707 218.247 64.0952 219.453 64.0952H227.258C228.463 64.0952 229.441 65.0706 229.441 66.2738V90.7469C229.441 91.9501 228.463 92.9256 227.258 92.9256Z" fill="url(#paint33_linear_3920_35921)"/>
<path d="M229.441 90.7469V74.1621H217.27V90.7469C217.27 91.9502 218.247 92.9255 219.453 92.9255H227.258C228.463 92.9255 229.441 91.9501 229.441 90.7469Z" fill="url(#paint34_linear_3920_35921)"/>
</g>
</g>
<defs>
<filter id="filter0_d_3920_35921" x="0" y="0" width="346" height="141" filterUnits="userSpaceOnUse" color-interpolation-filters="sRGB">
<feFlood flood-opacity="0" result="BackgroundImageFix"/>
<feColorMatrix in="SourceAlpha" type="matrix" values="0 0 0 0 0 0 0 0 0 0 0 0 0 0 0 0 0 0 127 0" result="hardAlpha"/>
<feOffset dy="4"/>
<feGaussianBlur stdDeviation="4"/>
<feComposite in2="hardAlpha" operator="out"/>
<feColorMatrix type="matrix" values="0 0 0 0 0 0 0 0 0 0 0 0 0 0 0 0 0 0 0.15 0"/>
<feBlend mode="normal" in2="BackgroundImageFix" result="effect1_dropShadow_3920_35921"/>
<feBlend mode="normal" in="SourceGraphic" in2="effect1_dropShadow_3920_35921" result="shape"/>
</filter>
<linearGradient id="paint0_linear_3920_35921" x1="8" y1="66.5716" x2="338" y2="66.5716" gradientUnits="userSpaceOnUse">
<stop offset="0.0762668" stop-color="#062143"/>
<stop offset="1" stop-color="#194F91"/>
</linearGradient>
<linearGradient id="paint1_linear_3920_35921" x1="221.414" y1="20.759" x2="205.246" y2="-1.43745" gradientUnits="userSpaceOnUse">
<stop offset="0.08" stop-color="#720000"/>
<stop offset="1" stop-color="#EC1C24"/>
</linearGradient>
<linearGradient id="paint2_linear_3920_35921" x1="202.462" y1="17.5674" x2="194.34" y2="6.45485" gradientUnits="userSpaceOnUse">
<stop offset="0.08" stop-color="#720000"/>
<stop offset="1" stop-color="#EC1C24"/>
</linearGradient>
<linearGradient id="paint3_linear_3920_35921" x1="47.3752" y1="187.887" x2="47.3752" y2="78.2424" gradientUnits="userSpaceOnUse">
<stop offset="0.08" stop-color="#720000"/>
<stop offset="1" stop-color="#EC1C24"/>
</linearGradient>
<linearGradient id="paint4_linear_3920_35921" x1="62.1875" y1="119.083" x2="62.1875" y2="90.284" gradientUnits="userSpaceOnUse">
<stop stop-color="white"/>
<stop offset="1" stop-color="white" stop-opacity="0"/>
</linearGradient>
<linearGradient id="paint5_linear_3920_35921" x1="19.2509" y1="128.497" x2="19.2509" y2="99.6966" gradientUnits="userSpaceOnUse">
<stop stop-color="white"/>
<stop offset="1" stop-color="white" stop-opacity="0"/>
</linearGradient>
<linearGradient id="paint6_linear_3920_35921" x1="48.875" y1="124.356" x2="48.875" y2="95.555" gradientUnits="userSpaceOnUse">
<stop stop-color="white"/>
<stop offset="1" stop-color="white" stop-opacity="0"/>
</linearGradient>
<linearGradient id="paint7_linear_3920_35921" x1="-12.2297" y1="-1.08286" x2="300.195" y2="-1.08286" gradientUnits="userSpaceOnUse">
<stop stop-color="#052143"/>
<stop offset="1" stop-color="#01050D"/>
</linearGradient>
<linearGradient id="paint8_linear_3920_35921" x1="94.0625" y1="30.2168" x2="94.0625" y2="-10.3162" gradientUnits="userSpaceOnUse">
<stop stop-color="#052143"/>
<stop offset="1" stop-color="#01050D"/>
</linearGradient>
<linearGradient id="paint9_linear_3920_35921" x1="261.1" y1="80.6623" x2="262.782" y2="86.0352" gradientUnits="userSpaceOnUse">
<stop stop-color="#FFDFCF"/>
<stop offset="1" stop-color="#FFA78F"/>
</linearGradient>
<linearGradient id="paint10_linear_3920_35921" x1="266.926" y1="85.1736" x2="262.603" y2="83.0956" gradientUnits="userSpaceOnUse">
<stop stop-color="#F89580" stop-opacity="0"/>
<stop offset="0.2859" stop-color="#EE8E79" stop-opacity="0.287"/>
<stop offset="0.7624" stop-color="#D57B65" stop-opacity="0.765"/>
<stop offset="0.9972" stop-color="#C5715A"/>
</linearGradient>
<linearGradient id="paint11_linear_3920_35921" x1="257.961" y1="79.5271" x2="262.121" y2="83.9058" gradientUnits="userSpaceOnUse">
<stop stop-color="#FFDFCF"/>
<stop offset="1" stop-color="#FFA78F"/>
</linearGradient>
<linearGradient id="paint12_linear_3920_35921" x1="263.639" y1="85.5147" x2="256.761" y2="81.0789" gradientUnits="userSpaceOnUse">
<stop stop-color="#F89580" stop-opacity="0"/>
<stop offset="0.2859" stop-color="#EE8E79" stop-opacity="0.287"/>
<stop offset="0.7624" stop-color="#D57B65" stop-opacity="0.765"/>
<stop offset="0.9972" stop-color="#C5715A"/>
</linearGradient>
<linearGradient id="paint13_linear_3920_35921" x1="258.027" y1="82.0266" x2="259.498" y2="87.5043" gradientUnits="userSpaceOnUse">
<stop stop-color="#F89580" stop-opacity="0"/>
<stop offset="0.2859" stop-color="#EE8E79" stop-opacity="0.287"/>
<stop offset="0.7624" stop-color="#D57B65" stop-opacity="0.765"/>
<stop offset="0.9972" stop-color="#C5715A"/>
</linearGradient>
<linearGradient id="paint14_linear_3920_35921" x1="250.933" y1="80.9653" x2="256.251" y2="86.2944" gradientUnits="userSpaceOnUse">
<stop stop-color="#FFDFCF"/>
<stop offset="1" stop-color="#FFA78F"/>
</linearGradient>
<linearGradient id="paint15_linear_3920_35921" x1="255.969" y1="86.5362" x2="250.947" y2="82.5243" gradientUnits="userSpaceOnUse">
<stop stop-color="#F89580" stop-opacity="0"/>
<stop offset="0.2859" stop-color="#EE8E79" stop-opacity="0.287"/>
<stop offset="0.7624" stop-color="#D57B65" stop-opacity="0.765"/>
<stop offset="0.9972" stop-color="#C5715A"/>
</linearGradient>
<linearGradient id="paint16_linear_3920_35921" x1="252.683" y1="83.4475" x2="253.524" y2="89.3104" gradientUnits="userSpaceOnUse">
<stop stop-color="#F89580" stop-opacity="0"/>
<stop offset="0.2859" stop-color="#EE8E79" stop-opacity="0.287"/>
<stop offset="0.7624" stop-color="#D57B65" stop-opacity="0.765"/>
<stop offset="0.9972" stop-color="#C5715A"/>
</linearGradient>
<linearGradient id="paint17_linear_3920_35921" x1="235.178" y1="73.2236" x2="241.697" y2="92.6087" gradientUnits="userSpaceOnUse">
<stop stop-color="#FFDFCF"/>
<stop offset="1" stop-color="#FFA78F"/>
</linearGradient>
<linearGradient id="paint18_linear_3920_35921" x1="232.901" y1="79.8167" x2="225.936" y2="79.8167" gradientUnits="userSpaceOnUse">
<stop stop-color="#F89580" stop-opacity="0"/>
<stop offset="0.2859" stop-color="#EE8E79" stop-opacity="0.287"/>
<stop offset="0.7624" stop-color="#D57B65" stop-opacity="0.765"/>
<stop offset="0.9972" stop-color="#C5715A"/>
</linearGradient>
<linearGradient id="paint19_linear_3920_35921" x1="236.837" y1="71.8652" x2="233.683" y2="81.2416" gradientUnits="userSpaceOnUse">
<stop stop-color="#F89580" stop-opacity="0"/>
<stop offset="0.2859" stop-color="#EE8E79" stop-opacity="0.287"/>
<stop offset="0.7624" stop-color="#D57B65" stop-opacity="0.765"/>
<stop offset="0.9972" stop-color="#C5715A"/>
</linearGradient>
<linearGradient id="paint20_linear_3920_35921" x1="247.005" y1="83.6655" x2="251.428" y2="88.0273" gradientUnits="userSpaceOnUse">
<stop stop-color="#F89580" stop-opacity="0"/>
<stop offset="0.2859" stop-color="#EE8E79" stop-opacity="0.287"/>
<stop offset="0.7624" stop-color="#D57B65" stop-opacity="0.765"/>
<stop offset="0.9972" stop-color="#C5715A"/>
</linearGradient>
<linearGradient id="paint21_linear_3920_35921" x1="242.894" y1="74.0335" x2="252.274" y2="80.2645" gradientUnits="userSpaceOnUse">
<stop stop-color="#F89580" stop-opacity="0"/>
<stop offset="0.2859" stop-color="#EE8E79" stop-opacity="0.287"/>
<stop offset="0.7624" stop-color="#D57B65" stop-opacity="0.765"/>
<stop offset="0.9972" stop-color="#C5715A"/>
</linearGradient>
<linearGradient id="paint22_linear_3920_35921" x1="244.088" y1="74.6547" x2="249.78" y2="78.0348" gradientUnits="userSpaceOnUse">
<stop stop-color="#F89580" stop-opacity="0"/>
<stop offset="0.2859" stop-color="#EE8E79" stop-opacity="0.287"/>
<stop offset="0.7624" stop-color="#D57B65" stop-opacity="0.765"/>
<stop offset="0.9972" stop-color="#C5715A"/>
</linearGradient>
<linearGradient id="paint23_linear_3920_35921" x1="242.541" y1="68.6673" x2="248.79" y2="68.6673" gradientUnits="userSpaceOnUse">
<stop stop-color="#F89580" stop-opacity="0"/>
<stop offset="0.2859" stop-color="#EE8E79" stop-opacity="0.287"/>
<stop offset="0.7624" stop-color="#D57B65" stop-opacity="0.765"/>
<stop offset="0.9972" stop-color="#C5715A"/>
</linearGradient>
<linearGradient id="paint24_linear_3920_35921" x1="255.235" y1="37.689" x2="290.033" y2="72.5574" gradientUnits="userSpaceOnUse">
<stop stop-color="#FEE45A"/>
<stop offset="1" stop-color="#FE860A"/>
</linearGradient>
<linearGradient id="paint25_linear_3920_35921" x1="288.615" y1="52.9416" x2="243.717" y2="20.9781" gradientUnits="userSpaceOnUse">
<stop stop-color="#FE860A" stop-opacity="0"/>
<stop offset="1" stop-color="#FE7701"/>
</linearGradient>
<linearGradient id="paint26_linear_3920_35921" x1="293.025" y1="43.2363" x2="265.575" y2="72.245" gradientUnits="userSpaceOnUse">
<stop stop-color="#FE860A" stop-opacity="0"/>
<stop offset="1" stop-color="#FE7701"/>
</linearGradient>
<linearGradient id="paint27_linear_3920_35921" x1="269.736" y1="64.4321" x2="269.736" y2="72.3113" gradientUnits="userSpaceOnUse">
<stop stop-color="#FE860A" stop-opacity="0"/>
<stop offset="1" stop-color="#FE7701"/>
</linearGradient>
<linearGradient id="paint28_linear_3920_35921" x1="259.269" y1="34.7087" x2="271.666" y2="47.1305" gradientUnits="userSpaceOnUse">
<stop stop-color="#EAF6FF"/>
<stop offset="0.2575" stop-color="#DCE8FA"/>
<stop offset="0.7423" stop-color="#B8C4ED"/>
<stop offset="1" stop-color="#A2AEE6"/>
</linearGradient>
<linearGradient id="paint29_linear_3920_35921" x1="294.933" y1="47.7959" x2="281.474" y2="39.5673" gradientUnits="userSpaceOnUse">
<stop stop-color="#FE860A" stop-opacity="0"/>
<stop offset="1" stop-color="#FE7701"/>
</linearGradient>
<linearGradient id="paint30_linear_3920_35921" x1="279.255" y1="34.0216" x2="286.79" y2="41.572" gradientUnits="userSpaceOnUse">
<stop stop-color="#FD4755"/>
<stop offset="0.1913" stop-color="#F64452"/>
<stop offset="0.4736" stop-color="#E23C4B"/>
<stop offset="0.8106" stop-color="#C22E40"/>
<stop offset="1" stop-color="#AC2538"/>
</linearGradient>
<linearGradient id="paint31_linear_3920_35921" x1="283.85" y1="37.4314" x2="273.983" y2="27.5446" gradientUnits="userSpaceOnUse">
<stop stop-color="#FD4755"/>
<stop offset="0.1913" stop-color="#F64452"/>
<stop offset="0.4736" stop-color="#E23C4B"/>
<stop offset="0.8106" stop-color="#C22E40"/>
<stop offset="1" stop-color="#AC2538"/>
</linearGradient>
<linearGradient id="paint32_linear_3920_35921" x1="279.057" y1="32.6469" x2="282.045" y2="35.6409" gradientUnits="userSpaceOnUse">
<stop stop-color="#EAF6FF"/>
<stop offset="0.2575" stop-color="#DCE8FA"/>
<stop offset="0.7423" stop-color="#B8C4ED"/>
<stop offset="1" stop-color="#A2AEE6"/>
</linearGradient>
<linearGradient id="paint33_linear_3920_35921" x1="218.93" y1="78.5105" x2="228.781" y2="78.5105" gradientUnits="userSpaceOnUse">
<stop stop-color="#B3DAFE"/>
<stop offset="1" stop-color="#0182FC"/>
</linearGradient>
<linearGradient id="paint34_linear_3920_35921" x1="223.355" y1="86.0901" x2="223.355" y2="93.4416" gradientUnits="userSpaceOnUse">
<stop stop-color="#314DC9" stop-opacity="0"/>
<stop offset="0.2761" stop-color="#304BC4" stop-opacity="0.276"/>
<stop offset="0.5628" stop-color="#2B45B8" stop-opacity="0.563"/>
<stop offset="0.8535" stop-color="#243BA3" stop-opacity="0.854"/>
<stop offset="1" stop-color="#1F3596"/>
</linearGradient>
<clipPath id="clip0_3920_35921">
<rect x="8" y="4" width="330" height="125" rx="20" fill="white"/>
</clipPath>
<clipPath id="clip1_3920_35921">
<rect width="43.6743" height="43.5858" fill="white" transform="translate(247.898 27)"/>
</clipPath>
</defs>
</svg>
