<svg width="346" height="141" viewBox="0 0 346 141" fill="none" xmlns="http://www.w3.org/2000/svg">
<g filter="url(#filter0_d_3920_35982)">
<g clip-path="url(#clip0_3920_35982)">
<rect x="8" y="4" width="330" height="125" rx="20" fill="url(#paint0_linear_3920_35982)"/>
<path d="M49.88 64.28C50.6133 64.28 51.2067 64.5 51.66 64.94C52.1267 65.3667 52.36 65.92 52.36 66.6V76H49.82L44.26 70.1L45.64 68.66L49.82 73.16V68.58H49.72C49.0667 68.58 48.5333 68.3867 48.12 68C47.72 67.6 47.52 67.08 47.52 66.44C47.52 65.8133 47.74 65.3 48.18 64.9C48.62 64.4867 49.1867 64.28 49.88 64.28ZM49.7 67.34C49.9667 67.34 50.18 67.26 50.34 67.1C50.5133 66.9267 50.6 66.7067 50.6 66.44C50.6 66.1733 50.5133 65.96 50.34 65.8C50.18 65.6267 49.9667 65.54 49.7 65.54C49.4467 65.54 49.2333 65.6267 49.06 65.8C48.8867 65.96 48.8 66.1733 48.8 66.44C48.8 66.6933 48.8867 66.9067 49.06 67.08C49.2333 67.2533 49.4467 67.34 49.7 67.34ZM60.0284 67.84C60.0284 67.3467 59.8751 66.9667 59.5684 66.7C59.2618 66.42 58.8418 66.28 58.3084 66.28C57.7084 66.28 57.2418 66.4533 56.9084 66.8C56.5751 67.1333 56.4084 67.6 56.4084 68.2H53.9484C53.9484 66.9733 54.3351 66.0133 55.1084 65.32C55.8818 64.6267 56.9484 64.28 58.3084 64.28C59.6418 64.28 60.6818 64.58 61.4284 65.18C62.1884 65.78 62.5684 66.6133 62.5684 67.68V76H60.0284V67.84ZM74.6038 71.96C75.0304 72.1467 75.3571 72.4067 75.5838 72.74C75.8238 73.0733 75.9438 73.4467 75.9438 73.86C75.9438 74.58 75.7304 75.1533 75.3038 75.58C74.8904 75.9933 74.3304 76.2 73.6238 76.2C72.9304 76.2 72.3704 76 71.9438 75.6C71.5304 75.2 71.3171 74.66 71.3038 73.98C70.7838 74.2067 70.3038 74.5 69.8638 74.86C69.4238 75.2067 69.0771 75.5867 68.8238 76H66.4038V68.58H66.3038C65.6504 68.58 65.1171 68.3867 64.7038 68C64.3038 67.6 64.1038 67.08 64.1038 66.44C64.1038 65.8133 64.3238 65.3 64.7638 64.9C65.2038 64.4867 65.7704 64.28 66.4638 64.28C67.1971 64.28 67.7904 64.5 68.2438 64.94C68.7104 65.3667 68.9438 65.92 68.9438 66.6V73.44C69.2104 73.0533 69.9104 72.6 71.0438 72.08C71.6838 71.8 72.1438 71.5333 72.4238 71.28C72.7171 71.0133 72.8638 70.68 72.8638 70.28V64.46H75.4238V70.22C75.4238 70.6067 75.3504 70.9533 75.2038 71.26C75.0571 71.5667 74.8571 71.8 74.6038 71.96ZM66.2838 67.34C66.5504 67.34 66.7638 67.26 66.9238 67.1C67.0971 66.9267 67.1838 66.7067 67.1838 66.44C67.1838 66.1733 67.0971 65.96 66.9238 65.8C66.7638 65.6267 66.5504 65.54 66.2838 65.54C66.0304 65.54 65.8171 65.6267 65.6438 65.8C65.4704 65.96 65.3838 66.1733 65.3838 66.44C65.3838 66.6933 65.4704 66.9067 65.6438 67.08C65.8171 67.2533 66.0304 67.34 66.2838 67.34ZM73.6238 74.94C73.8904 74.94 74.1038 74.8533 74.2638 74.68C74.4371 74.5067 74.5238 74.2933 74.5238 74.04C74.5238 73.7733 74.4371 73.56 74.2638 73.4C74.1038 73.2267 73.8904 73.14 73.6238 73.14C73.3704 73.14 73.1571 73.2267 72.9838 73.4C72.8104 73.56 72.7238 73.7733 72.7238 74.04C72.7238 74.2933 72.8104 74.5067 72.9838 74.68C73.1571 74.8533 73.3704 74.94 73.6238 74.94ZM80.9516 71.9C81.5916 71.9 82.1116 72.1 82.5116 72.5C82.9249 72.9 83.1316 73.4133 83.1316 74.04C83.1316 74.68 82.9116 75.2 82.4716 75.6C82.0316 76 81.4649 76.2 80.7716 76.2C80.0382 76.2 79.4382 75.9867 78.9716 75.56C78.5182 75.12 78.2916 74.5533 78.2916 73.86V64.48H80.8516V71.9H80.9516ZM80.9516 74.94C81.2182 74.94 81.4316 74.86 81.5916 74.7C81.7649 74.5267 81.8516 74.3067 81.8516 74.04C81.8516 73.7733 81.7649 73.56 81.5916 73.4C81.4316 73.2267 81.2182 73.14 80.9516 73.14C80.6982 73.14 80.4849 73.2267 80.3116 73.4C80.1382 73.56 80.0516 73.7733 80.0516 74.04C80.0516 74.2933 80.1382 74.5067 80.3116 74.68C80.4849 74.8533 80.6982 74.94 80.9516 74.94ZM89.235 64.28C90.2083 64.28 91.0617 64.4333 91.795 64.74C92.5417 65.0333 93.115 65.4467 93.515 65.98C93.9283 66.5133 94.135 67.1333 94.135 67.84V73.2C94.135 74.1333 93.7217 74.8667 92.895 75.4C92.0817 75.9333 90.975 76.2 89.575 76.2C88.1617 76.2 87.055 75.9333 86.255 75.4C85.455 74.8533 85.055 74.12 85.055 73.2V70.6C85.055 69.9067 85.2817 69.3533 85.735 68.94C86.1883 68.5133 86.775 68.3 87.495 68.3C88.2017 68.3 88.7683 68.5 89.195 68.9C89.6217 69.2867 89.835 69.7933 89.835 70.42C89.835 71.0467 89.6283 71.5533 89.215 71.94C88.815 72.3133 88.3017 72.5 87.675 72.5H87.575V73.06C87.575 73.42 87.7617 73.7 88.135 73.9C88.5217 74.1 89.015 74.2 89.615 74.2C90.2683 74.2 90.755 74.0867 91.075 73.86C91.4083 73.62 91.575 73.3 91.575 72.9V67.94C91.575 67.4467 91.355 67.0467 90.915 66.74C90.4883 66.4333 89.915 66.28 89.195 66.28C88.5017 66.28 87.9017 66.4267 87.395 66.72C86.9017 67 86.6083 67.38 86.515 67.86H84.035C84.0883 67.14 84.3417 66.5133 84.795 65.98C85.2483 65.4333 85.855 65.0133 86.615 64.72C87.3883 64.4267 88.2617 64.28 89.235 64.28ZM87.695 69.54C87.4283 69.54 87.215 69.62 87.055 69.78C86.895 69.94 86.815 70.1467 86.815 70.4C86.815 70.6667 86.895 70.88 87.055 71.04C87.215 71.2 87.4283 71.28 87.695 71.28C87.9483 71.28 88.155 71.2 88.315 71.04C88.4883 70.88 88.575 70.6667 88.575 70.4C88.575 70.1467 88.4883 69.94 88.315 69.78C88.155 69.62 87.9483 69.54 87.695 69.54ZM96.7067 71.36C96.7067 70.88 96.8267 70.4467 97.0667 70.06C97.3201 69.6733 97.6667 69.38 98.1067 69.18C97.6801 69.06 96.9934 68.94 96.0467 68.82C96.0601 67.9267 96.2867 67.14 96.7267 66.46C97.1667 65.7667 97.7801 65.2333 98.5667 64.86C99.3534 64.4733 100.253 64.28 101.267 64.28C102.213 64.28 103.047 64.4533 103.767 64.8C104.5 65.1467 105.067 65.6333 105.467 66.26C105.867 66.8733 106.067 67.5867 106.067 68.4V76H103.507V68.68C103.507 67.9733 103.28 67.4 102.827 66.96C102.387 66.5067 101.8 66.28 101.067 66.28C100.453 66.28 99.8934 66.4133 99.3867 66.68C98.8934 66.9467 98.5601 67.2933 98.3867 67.72C98.8267 67.8133 99.2534 67.9333 99.6667 68.08C100.093 68.2267 100.44 68.3867 100.707 68.56V69.28C100.24 69.4533 99.8801 69.7067 99.6267 70.04C99.3867 70.3733 99.2667 70.7733 99.2667 71.24V76H96.7067V71.36ZM118.68 63.36C118.64 64.12 118.18 64.9333 117.3 65.8C117.807 66.3867 118.06 67.0667 118.06 67.84V76H115.5V71.78C115.5 71.2867 115.28 70.8933 114.84 70.6C114.414 70.3067 113.887 70.16 113.26 70.16C112.62 70.16 112.107 70.3 111.72 70.58C111.347 70.8467 111.16 71.2133 111.16 71.68V71.9H111.26C111.9 71.9 112.42 72.1 112.82 72.5C113.234 72.8867 113.44 73.4 113.44 74.04C113.44 74.6667 113.22 75.1867 112.78 75.6C112.34 76 111.774 76.2 111.08 76.2C110.347 76.2 109.747 75.9867 109.28 75.56C108.827 75.12 108.6 74.5533 108.6 73.86V71.68C108.6 70.88 108.867 70.2 109.4 69.64C109.947 69.0667 110.667 68.68 111.56 68.48C112.507 67.8267 113.34 67.1267 114.06 66.38C113.754 66.3133 113.42 66.28 113.06 66.28C112.327 66.28 111.714 66.4267 111.22 66.72C110.74 67 110.454 67.38 110.36 67.86H107.88C107.947 66.7667 108.434 65.9 109.34 65.26C110.26 64.6067 111.5 64.28 113.06 64.28C113.98 64.28 114.78 64.4 115.46 64.64C115.727 64.2 115.887 63.7733 115.94 63.36H118.68ZM115.5 67.78C115.5 67.6067 115.46 67.44 115.38 67.28C114.807 67.6533 114.187 68.02 113.52 68.38C114.347 68.4867 115.007 68.7667 115.5 69.22V67.78ZM112.16 74.04C112.16 73.7733 112.074 73.56 111.9 73.4C111.74 73.2267 111.527 73.14 111.26 73.14C111.007 73.14 110.794 73.2267 110.62 73.4C110.447 73.56 110.36 73.7733 110.36 74.04C110.36 74.2933 110.447 74.5067 110.62 74.68C110.794 74.8533 111.007 74.94 111.26 74.94C111.527 74.94 111.74 74.86 111.9 74.7C112.074 74.5267 112.16 74.3067 112.16 74.04ZM125.693 67.84C125.693 67.3467 125.539 66.9667 125.233 66.7C124.926 66.42 124.506 66.28 123.973 66.28C123.373 66.28 122.906 66.4533 122.573 66.8C122.239 67.1333 122.073 67.6 122.073 68.2H119.613C119.613 66.9733 119.999 66.0133 120.773 65.32C121.546 64.6267 122.613 64.28 123.973 64.28C125.306 64.28 126.346 64.58 127.093 65.18C127.853 65.78 128.233 66.6133 128.233 67.68V76H125.693V67.84ZM133.808 66.28C133.514 66.28 133.254 66.36 133.028 66.52C132.814 66.68 132.701 66.8867 132.688 67.14C134.314 67.2867 135.608 67.6 136.568 68.08C137.528 68.5467 138.008 69.12 138.008 69.8V73.86C138.008 74.5533 137.774 75.12 137.308 75.56C136.854 75.9867 136.261 76.2 135.528 76.2C134.834 76.2 134.268 76 133.828 75.6C133.388 75.1867 133.168 74.6667 133.168 74.04C133.168 73.4 133.368 72.8867 133.768 72.5C134.168 72.1 134.694 71.9 135.348 71.9H135.448V70.22C135.448 69.8333 134.874 69.5 133.728 69.22C132.594 68.9267 131.348 68.7467 129.988 68.68C130.001 67.2933 130.308 66.2133 130.908 65.44C131.508 64.6667 132.321 64.28 133.348 64.28C133.708 64.28 134.021 64.3133 134.288 64.38C134.568 64.4333 134.868 64.5133 135.188 64.62C135.374 64.6867 135.561 64.7467 135.748 64.8C135.948 64.84 136.128 64.86 136.288 64.86C136.501 64.86 136.688 64.8 136.848 64.68C137.008 64.5467 137.121 64.38 137.188 64.18L138.948 64.72C138.774 65.4133 138.488 65.9533 138.088 66.34C137.701 66.7267 137.254 66.92 136.748 66.92C136.521 66.92 136.308 66.8933 136.108 66.84C135.908 66.7867 135.641 66.7067 135.308 66.6C134.668 66.3867 134.168 66.28 133.808 66.28ZM135.328 74.94C135.594 74.94 135.808 74.86 135.968 74.7C136.141 74.5267 136.228 74.3067 136.228 74.04C136.228 73.7733 136.141 73.56 135.968 73.4C135.808 73.2267 135.594 73.14 135.328 73.14C135.074 73.14 134.861 73.2267 134.688 73.4C134.528 73.56 134.448 73.7733 134.448 74.04C134.448 74.3067 134.528 74.5267 134.688 74.7C134.861 74.86 135.074 74.94 135.328 74.94Z" fill="#F3F6F9"/>
<path d="M192.748 32.2363H184.716C183.968 32.2363 183.594 31.5782 184.123 31.1927L228.82 -1.36474C230.062 -2.2693 231.746 -2.77734 233.502 -2.77734H241.534C242.282 -2.77734 242.656 -2.11785 242.127 -1.73234L197.43 30.8251C196.188 31.7297 194.504 32.2377 192.748 32.2377V32.2363Z" fill="url(#paint1_linear_3920_35982)"/>
<path d="M167.688 38.262H163.671C163.296 38.262 163.109 37.9318 163.374 37.7383L226.596 -8.46885C227.216 -8.92209 228.059 -9.17773 228.937 -9.17773H232.954C233.329 -9.17773 233.516 -8.84748 233.251 -8.65402L170.029 37.5531C169.409 38.0064 168.566 38.262 167.688 38.262Z" fill="url(#paint2_linear_3920_35982)"/>
<path d="M-4.75 101.517H91.8566C98.6526 101.517 102.056 109.475 97.2506 114.13L36.4266 173.051H-0.15544L-4.75 101.515V101.517Z" fill="url(#paint3_linear_3920_35982)"/>
<path style="mix-blend-mode:overlay" d="M67.06 111.117L72.2725 106.157C72.7582 105.694 72.4147 104.904 71.7278 104.904H61.6116C60.0002 104.904 58.4546 105.513 57.315 106.597L52.1025 111.558C51.6168 112.02 51.9603 112.81 52.6472 112.81H62.7634C64.3748 112.81 65.9204 112.201 67.06 111.117Z" fill="url(#paint4_linear_3920_35982)"/>
<path style="mix-blend-mode:overlay" d="M47.9564 120.529L53.1484 115.569C53.6322 115.107 53.2901 114.316 52.6059 114.316H-5.17665C-6.78177 114.316 -8.32123 114.925 -9.45639 116.01L-14.6484 120.97C-15.1322 121.432 -14.7901 122.223 -14.1059 122.223H43.6749C45.28 122.223 46.8195 121.614 47.9547 120.529H47.9564Z" fill="url(#paint5_linear_3920_35982)"/>
<path style="mix-blend-mode:overlay" d="M77.5813 116.388L82.7734 111.428C83.2572 110.965 82.9151 110.175 82.2309 110.175H24.4486C22.8434 110.175 21.3039 110.784 20.1687 111.868L14.9766 116.829C14.4928 117.291 14.8349 118.081 15.5191 118.081H73.3014C74.9066 118.081 76.4461 117.472 77.5813 116.388Z" fill="url(#paint6_linear_3920_35982)"/>
<g style="mix-blend-mode:screen" opacity="0.5">
<path d="M242.298 -27.7544L141.565 33.0127C135.993 36.3735 128.436 38.262 120.556 38.262H-8.125V-40.4277H251C251 -35.675 247.869 -31.1162 242.298 -27.7544Z" fill="url(#paint7_linear_3920_35982)"/>
</g>
<g style="mix-blend-mode:screen" opacity="0.5">
<path d="M1.25 -35.5332V32.6144H62.7586C70.6453 32.6144 78.21 30.709 83.7886 27.3183L184.621 -33.9888C185.427 -34.4788 186.173 -34.9962 186.875 -35.5332H1.25Z" fill="url(#paint8_linear_3920_35982)"/>
</g>
<ellipse cx="245.181" cy="89.985" rx="58.181" ry="3.985" fill="#063063"/>
<path d="M237.539 24H275.684C276.898 24 277.883 24.9844 277.883 26.1987V79.3927C277.883 81.2565 276.372 82.7675 274.508 82.7675H244.442C239.415 82.7675 235.34 78.6925 235.34 73.6658V26.1987C235.34 24.9844 236.325 24 237.539 24Z" fill="url(#paint9_linear_3920_35982)"/>
<path d="M277.883 58.064V79.3925C277.883 81.2564 276.372 82.7673 274.508 82.7673H244.442C239.415 82.7673 235.34 78.6923 235.34 73.6657V58.064H277.883Z" fill="url(#paint10_linear_3920_35982)"/>
<path d="M237.407 89.9294H267.473C269.337 89.9294 270.848 88.4185 270.848 86.5546V33.3608C270.848 32.1465 269.863 31.1621 268.649 31.1621H230.504C229.29 31.1621 228.305 32.1465 228.305 33.3608V80.8278C228.305 85.8545 232.38 89.9294 237.407 89.9294Z" fill="url(#paint11_linear_3920_35982)"/>
<path d="M252.883 61.3547L253.105 63.1656C253.207 63.9948 252.807 64.746 252.17 65.1562L230.534 86.7915C229.146 85.194 228.304 83.1096 228.304 80.8272V33.3603C228.304 33.1513 228.335 32.9499 228.39 32.7583L248.979 53.3471C251.138 55.5059 252.512 58.3245 252.883 61.3547Z" fill="url(#paint12_linear_3920_35982)"/>
<path d="M270.848 74.249V86.5549C270.848 88.4188 269.337 89.9297 267.473 89.9297H237.407C232.38 89.9297 228.305 85.8548 228.305 80.8281V74.249H270.848Z" fill="url(#paint13_linear_3920_35982)"/>
<path d="M264.098 79.2094V86.5545C264.098 88.4183 265.609 89.9293 267.473 89.9293H230.657C225.63 89.9293 221.555 85.8543 221.555 80.8277V79.2094C221.555 77.9952 222.54 77.0107 223.754 77.0107H261.899C263.114 77.0107 264.098 77.9952 264.098 79.2094Z" fill="url(#paint14_linear_3920_35982)"/>
<path d="M264.098 79.2094V86.5545C264.098 88.4183 265.609 89.9293 267.473 89.9293H230.657C225.63 89.9293 221.555 85.8543 221.555 80.8277V79.2094C221.555 77.9952 222.54 77.0107 223.754 77.0107H261.899C263.114 77.0107 264.098 77.9952 264.098 79.2094Z" fill="url(#paint15_linear_3920_35982)"/>
<path d="M234.416 60.3023H263.231C263.686 60.3023 264.055 59.9333 264.055 59.4782V58.3544C264.055 57.8992 263.686 57.5303 263.231 57.5303H234.416C233.961 57.5303 233.592 57.8992 233.592 58.3544V59.4782C233.592 59.9332 233.961 60.3023 234.416 60.3023Z" fill="url(#paint16_linear_3920_35982)"/>
<path d="M234.416 66.2393H263.231C263.686 66.2393 264.055 65.8703 264.055 65.4152V64.2914C264.055 63.8362 263.686 63.4673 263.231 63.4673H234.416C233.961 63.4673 233.592 63.8362 233.592 64.2914V65.4152C233.592 65.8703 233.961 66.2393 234.416 66.2393Z" fill="url(#paint17_linear_3920_35982)"/>
<path d="M241.759 72.1773H263.231C263.686 72.1773 264.055 71.8083 264.055 71.3532V70.2294C264.055 69.7742 263.686 69.4053 263.231 69.4053H241.759C241.303 69.4053 240.934 69.7742 240.934 70.2294V71.3532C240.934 71.8083 241.304 72.1773 241.759 72.1773Z" fill="url(#paint18_linear_3920_35982)"/>
<path d="M250.071 37.4858H261.872C263.078 37.4858 264.055 38.463 264.055 39.6684V51.4693C264.055 52.6747 263.078 53.6518 261.872 53.6518H250.071C248.866 53.6518 247.889 52.6747 247.889 51.4693V39.6684C247.889 38.463 248.866 37.4858 250.071 37.4858Z" fill="url(#paint19_linear_3920_35982)"/>
<path d="M234.416 57.5298H251.835C252.224 58.4166 252.519 59.3461 252.713 60.3014H234.416C233.961 60.3014 233.592 59.933 233.592 59.4779V58.3545C233.592 57.8995 233.96 57.5298 234.416 57.5298Z" fill="url(#paint20_linear_3920_35982)"/>
<path d="M234.417 63.4678H253.121C253.106 64.1749 252.731 64.798 252.171 65.1574L251.088 66.2407H234.417C233.962 66.2407 233.593 65.871 233.593 65.4159V64.2925C233.593 63.8375 233.961 63.4678 234.417 63.4678Z" fill="url(#paint21_linear_3920_35982)"/>
<path d="M241.759 69.4062H247.922L245.15 72.1779H241.759C241.304 72.1779 240.935 71.8094 240.935 71.3531V70.2297C240.935 69.7747 241.304 69.4062 241.759 69.4062Z" fill="url(#paint22_linear_3920_35982)"/>
<path d="M212.665 25.12L213.122 24.663C214.006 23.779 215.44 23.779 216.324 24.663L223.133 31.4721L219.475 35.1302L212.666 28.3211C211.781 27.4372 211.781 26.0039 212.665 25.12Z" fill="url(#paint23_linear_3920_35982)"/>
<path d="M221.303 33.3006L219.474 35.1297L213.986 29.6421L215.815 27.813L221.303 33.3006Z" fill="url(#paint24_linear_3920_35982)"/>
<path d="M249.175 65.0646L250.985 65.2866C252.318 65.45 253.45 64.318 253.287 62.985L253.065 61.1742C252.694 58.144 251.319 55.3253 249.16 53.1666L248.349 52.3555L222.627 28.0549C221.944 27.3723 220.837 27.3723 220.155 28.0549L215.797 32.1544C215.114 32.837 215.114 33.9438 215.797 34.6264L240.342 60.3352L241.167 61.1601C243.326 63.3188 246.145 64.6932 249.175 65.0646Z" fill="url(#paint25_linear_3920_35982)"/>
<path d="M249.175 65.0648L250.985 65.2867C252.318 65.4502 253.45 64.3181 253.287 62.9852L253.065 61.1743C252.694 58.1441 251.319 55.3255 249.16 53.1667L248.352 52.3584L244.264 56.4465L240.359 60.352L241.167 61.1604C243.326 63.319 246.145 64.6934 249.175 65.0648Z" fill="url(#paint26_linear_3920_35982)"/>
<path d="M214.634 32.1545L220.155 26.633C220.838 25.9505 221.945 25.9505 222.627 26.633L242.078 46.0838L234.085 54.0773L214.634 34.6265C213.951 33.9439 213.951 32.8372 214.634 32.1545Z" fill="url(#paint27_linear_3920_35982)"/>
<path d="M214.633 32.1548L217.394 29.394L230.576 42.576L226.579 46.5728L214.633 34.6268C213.951 33.9442 213.951 32.8375 214.633 32.1548Z" fill="url(#paint28_linear_3920_35982)"/>
<path d="M240.358 60.3515L248.352 52.3579L241.328 45.334L233.334 53.3275L240.358 60.3515Z" fill="url(#paint29_linear_3920_35982)"/>
<path d="M218.101 27.8134L230.577 40.2898C231.209 40.9212 231.209 41.9447 230.577 42.576C229.946 43.2074 228.922 43.2074 228.291 42.576L215.815 30.0996C215.183 29.4682 215.183 28.4446 215.815 27.8134C216.446 27.182 217.469 27.182 218.101 27.8134Z" fill="url(#paint30_linear_3920_35982)"/>
</g>
</g>
<defs>
<filter id="filter0_d_3920_35982" x="0" y="0" width="346" height="141" filterUnits="userSpaceOnUse" color-interpolation-filters="sRGB">
<feFlood flood-opacity="0" result="BackgroundImageFix"/>
<feColorMatrix in="SourceAlpha" type="matrix" values="0 0 0 0 0 0 0 0 0 0 0 0 0 0 0 0 0 0 127 0" result="hardAlpha"/>
<feOffset dy="4"/>
<feGaussianBlur stdDeviation="4"/>
<feComposite in2="hardAlpha" operator="out"/>
<feColorMatrix type="matrix" values="0 0 0 0 0 0 0 0 0 0 0 0 0 0 0 0 0 0 0.15 0"/>
<feBlend mode="normal" in2="BackgroundImageFix" result="effect1_dropShadow_3920_35982"/>
<feBlend mode="normal" in="SourceGraphic" in2="effect1_dropShadow_3920_35982" result="shape"/>
</filter>
<linearGradient id="paint0_linear_3920_35982" x1="8" y1="66.5716" x2="338" y2="66.5716" gradientUnits="userSpaceOnUse">
<stop offset="0.0762668" stop-color="#062143"/>
<stop offset="1" stop-color="#194F91"/>
</linearGradient>
<linearGradient id="paint1_linear_3920_35982" x1="221.414" y1="20.759" x2="205.246" y2="-1.43745" gradientUnits="userSpaceOnUse">
<stop offset="0.08" stop-color="#720000"/>
<stop offset="1" stop-color="#EC1C24"/>
</linearGradient>
<linearGradient id="paint2_linear_3920_35982" x1="202.462" y1="17.5674" x2="194.34" y2="6.45485" gradientUnits="userSpaceOnUse">
<stop offset="0.08" stop-color="#720000"/>
<stop offset="1" stop-color="#EC1C24"/>
</linearGradient>
<linearGradient id="paint3_linear_3920_35982" x1="47.3752" y1="187.887" x2="47.3752" y2="78.2424" gradientUnits="userSpaceOnUse">
<stop offset="0.08" stop-color="#720000"/>
<stop offset="1" stop-color="#EC1C24"/>
</linearGradient>
<linearGradient id="paint4_linear_3920_35982" x1="62.1875" y1="119.083" x2="62.1875" y2="90.284" gradientUnits="userSpaceOnUse">
<stop stop-color="white"/>
<stop offset="1" stop-color="white" stop-opacity="0"/>
</linearGradient>
<linearGradient id="paint5_linear_3920_35982" x1="19.2509" y1="128.497" x2="19.2509" y2="99.6966" gradientUnits="userSpaceOnUse">
<stop stop-color="white"/>
<stop offset="1" stop-color="white" stop-opacity="0"/>
</linearGradient>
<linearGradient id="paint6_linear_3920_35982" x1="48.875" y1="124.356" x2="48.875" y2="95.555" gradientUnits="userSpaceOnUse">
<stop stop-color="white"/>
<stop offset="1" stop-color="white" stop-opacity="0"/>
</linearGradient>
<linearGradient id="paint7_linear_3920_35982" x1="-12.2297" y1="-1.08286" x2="300.195" y2="-1.08286" gradientUnits="userSpaceOnUse">
<stop stop-color="#052143"/>
<stop offset="1" stop-color="#01050D"/>
</linearGradient>
<linearGradient id="paint8_linear_3920_35982" x1="94.0625" y1="30.2168" x2="94.0625" y2="-10.3162" gradientUnits="userSpaceOnUse">
<stop stop-color="#052143"/>
<stop offset="1" stop-color="#01050D"/>
</linearGradient>
<linearGradient id="paint9_linear_3920_35982" x1="280.199" y1="29.4524" x2="253.71" y2="55.9412" gradientUnits="userSpaceOnUse">
<stop stop-color="#E38523"/>
<stop offset="0.7304" stop-color="#DB4735"/>
<stop offset="1" stop-color="#D82F3C"/>
</linearGradient>
<linearGradient id="paint10_linear_3920_35982" x1="256.612" y1="61.1352" x2="256.612" y2="79.9685" gradientUnits="userSpaceOnUse">
<stop stop-color="#8A1958" stop-opacity="0"/>
<stop offset="1" stop-color="#8A1958"/>
</linearGradient>
<linearGradient id="paint11_linear_3920_35982" x1="275.954" y1="33.824" x2="221.613" y2="88.1646" gradientUnits="userSpaceOnUse">
<stop stop-color="#EEF4FF"/>
<stop offset="1" stop-color="#CFE7FD"/>
</linearGradient>
<linearGradient id="paint12_linear_3920_35982" x1="223.362" y1="65.9082" x2="235.709" y2="53.5612" gradientUnits="userSpaceOnUse">
<stop stop-color="#8AAADC" stop-opacity="0"/>
<stop offset="1" stop-color="#8AAADC"/>
</linearGradient>
<linearGradient id="paint13_linear_3920_35982" x1="249.576" y1="74.9068" x2="249.576" y2="91.1991" gradientUnits="userSpaceOnUse">
<stop stop-color="#8AAADC" stop-opacity="0"/>
<stop offset="1" stop-color="#8AAADC"/>
</linearGradient>
<linearGradient id="paint14_linear_3920_35982" x1="244.514" y1="77.0107" x2="244.514" y2="89.5828" gradientUnits="userSpaceOnUse">
<stop stop-color="#EEF4FF"/>
<stop offset="1" stop-color="#CFE7FD"/>
</linearGradient>
<linearGradient id="paint15_linear_3920_35982" x1="244.514" y1="82.9485" x2="244.514" y2="91.8834" gradientUnits="userSpaceOnUse">
<stop stop-color="#8AAADC" stop-opacity="0"/>
<stop offset="1" stop-color="#8AAADC"/>
</linearGradient>
<linearGradient id="paint16_linear_3920_35982" x1="264.055" y1="58.9162" x2="233.592" y2="58.9162" gradientUnits="userSpaceOnUse">
<stop stop-color="#5A5A5A"/>
<stop offset="1" stop-color="#464646"/>
</linearGradient>
<linearGradient id="paint17_linear_3920_35982" x1="264.055" y1="64.8532" x2="233.592" y2="64.8532" gradientUnits="userSpaceOnUse">
<stop stop-color="#5A5A5A"/>
<stop offset="1" stop-color="#464646"/>
</linearGradient>
<linearGradient id="paint18_linear_3920_35982" x1="264.055" y1="70.7912" x2="240.934" y2="70.7912" gradientUnits="userSpaceOnUse">
<stop stop-color="#5A5A5A"/>
<stop offset="1" stop-color="#464646"/>
</linearGradient>
<linearGradient id="paint19_linear_3920_35982" x1="264.002" y1="37.5383" x2="246.915" y2="54.6255" gradientUnits="userSpaceOnUse">
<stop stop-color="#76CCF8"/>
<stop offset="0.833" stop-color="#518EF8"/>
<stop offset="1" stop-color="#4981F8"/>
</linearGradient>
<linearGradient id="paint20_linear_3920_35982" x1="235.246" y1="67.0632" x2="239.735" y2="62.5743" gradientUnits="userSpaceOnUse">
<stop stop-color="#464646" stop-opacity="0"/>
<stop offset="1" stop-color="#202020"/>
</linearGradient>
<linearGradient id="paint21_linear_3920_35982" x1="237.827" y1="69.643" x2="242.315" y2="65.154" gradientUnits="userSpaceOnUse">
<stop stop-color="#464646" stop-opacity="0"/>
<stop offset="1" stop-color="#202020"/>
</linearGradient>
<linearGradient id="paint22_linear_3920_35982" x1="241.13" y1="72.9459" x2="245.619" y2="68.457" gradientUnits="userSpaceOnUse">
<stop stop-color="#464646" stop-opacity="0"/>
<stop offset="1" stop-color="#202020"/>
</linearGradient>
<linearGradient id="paint23_linear_3920_35982" x1="217.406" y1="28.791" x2="215.499" y2="30.6985" gradientUnits="userSpaceOnUse">
<stop stop-color="#F7E07D"/>
<stop offset="1" stop-color="#E69642"/>
</linearGradient>
<linearGradient id="paint24_linear_3920_35982" x1="215.567" y1="33.5483" x2="218.864" y2="30.2517" gradientUnits="userSpaceOnUse">
<stop stop-color="#D52C1C" stop-opacity="0"/>
<stop offset="0.28" stop-color="#D12C1E" stop-opacity="0.28"/>
<stop offset="0.5735" stop-color="#C42C23" stop-opacity="0.574"/>
<stop offset="0.8721" stop-color="#AF2B2C" stop-opacity="0.872"/>
<stop offset="1" stop-color="#A42B31"/>
</linearGradient>
<linearGradient id="paint25_linear_3920_35982" x1="239.335" y1="43.334" x2="231.343" y2="51.3264" gradientUnits="userSpaceOnUse">
<stop stop-color="#EEF4FF"/>
<stop offset="1" stop-color="#CFE7FD"/>
</linearGradient>
<linearGradient id="paint26_linear_3920_35982" x1="252.523" y1="56.522" x2="244.531" y2="64.5143" gradientUnits="userSpaceOnUse">
<stop stop-color="#8AAADC" stop-opacity="0"/>
<stop offset="1" stop-color="#8AAADC"/>
</linearGradient>
<linearGradient id="paint27_linear_3920_35982" x1="231.741" y1="35.7398" x2="223.749" y2="43.7322" gradientUnits="userSpaceOnUse">
<stop stop-color="#E38523"/>
<stop offset="0.7304" stop-color="#DB4735"/>
<stop offset="1" stop-color="#D82F3C"/>
</linearGradient>
<linearGradient id="paint28_linear_3920_35982" x1="217.482" y1="42.4885" x2="223.73" y2="36.2402" gradientUnits="userSpaceOnUse">
<stop stop-color="#D52C1C" stop-opacity="0"/>
<stop offset="1" stop-color="#A42B31"/>
</linearGradient>
<linearGradient id="paint29_linear_3920_35982" x1="244.841" y1="48.8398" x2="236.848" y2="56.8321" gradientUnits="userSpaceOnUse">
<stop stop-color="#5A5A5A"/>
<stop offset="1" stop-color="#464646"/>
</linearGradient>
<linearGradient id="paint30_linear_3920_35982" x1="224.316" y1="34.0751" x2="222.63" y2="35.7606" gradientUnits="userSpaceOnUse">
<stop stop-color="#EEF4FF"/>
<stop offset="1" stop-color="#CFE7FD"/>
</linearGradient>
<clipPath id="clip0_3920_35982">
<rect x="8" y="4" width="330" height="125" rx="20" fill="white"/>
</clipPath>
</defs>
</svg>
