<svg width="171" height="171" viewBox="0 0 171 171" fill="none" xmlns="http://www.w3.org/2000/svg">
<g filter="url(#filter0_d_3943_35404)">
<g clip-path="url(#clip0_3943_35404)">
<rect x="8" y="4" width="155" height="155" rx="20" fill="url(#paint0_linear_3943_35404)"/>
<g style="mix-blend-mode:soft-light">
<path fill-rule="evenodd" clip-rule="evenodd" d="M-6.99808 173.15C-133.472 199.191 -214.89 322.828 -188.85 449.303C-162.81 575.777 -39.1718 657.195 87.3025 631.155C213.777 605.114 295.195 481.477 269.154 355.002C243.114 228.528 119.476 147.11 -6.99808 173.15ZM3.24711 222.911C-95.745 243.293 -159.471 340.065 -139.089 439.057C-118.707 538.05 -21.9355 601.776 77.0567 581.394C176.049 561.012 239.775 464.24 219.393 365.248C199.011 266.256 102.239 202.53 3.24711 222.911Z" fill="url(#paint1_linear_3943_35404)" fill-opacity="0.5"/>
</g>
<g style="mix-blend-mode:screen" opacity="0.5">
<path d="M164.022 -33.0329L65.8223 37.8356C60.3913 41.7551 53.0244 43.9576 45.3422 43.9576H-80.1016V-47.813H172.505C172.505 -42.2701 169.453 -36.9536 164.022 -33.0329Z" fill="url(#paint2_linear_3943_35404)"/>
</g>
<g style="mix-blend-mode:screen" opacity="0.5">
<path d="M-70.9629 -42.105V37.3709H-11.0017C-3.31339 37.3709 4.06098 35.1489 9.49924 31.1945L107.795 -40.3038C108.581 -40.8753 109.308 -41.4787 109.992 -42.105H-70.9629Z" fill="url(#paint3_linear_3943_35404)"/>
</g>
</g>
</g>
<ellipse cx="88.5938" cy="84.8438" rx="58.5938" ry="5.15625" fill="#020202" fill-opacity="0.3"/>
<g clip-path="url(#clip1_3943_35404)">
<path d="M70.8323 74.0669C69.9773 74.0669 69.1669 73.8736 68.4414 73.5298V76.1488C69.1971 76.3844 70 76.5114 70.8323 76.5114C71.5072 76.5114 72.0545 75.9641 72.0545 75.2891C72.0545 74.6141 71.5072 74.0669 70.8323 74.0669Z" fill="url(#paint4_linear_3943_35404)"/>
<path d="M102.109 6.61014V76.8275C102.109 80.4781 99.1496 83.4375 95.4991 83.4375H77.442C73.7915 83.4375 70.832 80.4781 70.832 76.8275V6.61014C70.832 2.95942 73.7915 0 77.442 0H95.4991C99.1496 0 102.109 2.95942 102.109 6.61014Z" fill="url(#paint5_linear_3943_35404)"/>
<path d="M77.4409 83.4375H86.4704V0.000976562H77.4409C73.791 0.000976562 70.832 2.95991 70.832 6.60981V76.8265C70.832 80.4786 73.791 83.4375 77.4409 83.4375Z" fill="url(#paint6_linear_3943_35404)"/>
<path d="M96.9543 11.7322L102.109 6.57767C102.103 5.15939 101.649 3.84379 100.877 2.771L94.4353 9.21312C93.7403 9.90816 93.7403 11.0351 94.4353 11.7321H94.4373C95.1323 12.4273 96.2592 12.4273 96.9543 11.7322Z" fill="url(#paint7_linear_3943_35404)"/>
<path d="M96.9543 25.2434L102.109 20.0888V15.0508L94.4353 22.7243C93.7403 23.4213 93.7403 24.5482 94.4353 25.2432H94.4373C95.1323 25.9384 96.2592 25.9384 96.9543 25.2434Z" fill="url(#paint8_linear_3943_35404)"/>
<path d="M96.9543 38.7541L102.109 33.5995V28.5635L94.4353 36.237C93.7403 36.932 93.7403 38.0589 94.4353 38.7539H94.4373C95.1323 39.4491 96.2592 39.4491 96.9543 38.7541Z" fill="url(#paint9_linear_3943_35404)"/>
<path d="M96.9543 52.2673L102.109 47.1127V42.0747L94.4353 49.7482C93.7403 50.4432 93.7403 51.5721 94.4353 52.2671H94.4373C95.1323 52.9623 96.2592 52.9623 96.9543 52.2673Z" fill="url(#paint10_linear_3943_35404)"/>
<path d="M96.9543 65.7785L102.109 60.624V55.5879L94.4353 63.2614C93.7403 63.9564 93.7403 65.0833 94.4353 65.7783H94.4373C95.1323 66.4735 96.2592 66.4735 96.9543 65.7785Z" fill="url(#paint11_linear_3943_35404)"/>
<path d="M96.9543 79.2893L102.109 74.1347V69.0986L94.4353 76.7721C93.7403 77.4672 93.7403 78.5941 94.4353 79.2891H94.4373C95.1323 79.9863 96.2592 79.9862 96.9543 79.2893Z" fill="url(#paint12_linear_3943_35404)"/>
<path d="M86.4707 0H95.4992C99.1499 0 102.109 2.95942 102.109 6.60998V76.8274C102.109 80.4779 99.1499 83.4373 95.4992 83.4373H86.4707V0Z" fill="url(#paint13_linear_3943_35404)"/>
<path d="M84.6895 0H88.2504V83.4375H84.6895V0Z" fill="url(#paint14_linear_3943_35404)"/>
<path d="M75.9866 11.7322L70.832 6.57767C70.8381 5.15939 71.2921 3.84379 72.0634 2.771L78.5055 9.21312C79.2006 9.90816 79.2006 11.0351 78.5055 11.7321H78.5036C77.8087 12.4273 76.6816 12.4273 75.9866 11.7322Z" fill="url(#paint15_linear_3943_35404)"/>
<path d="M75.9866 25.2434L70.832 20.0888V15.0508L78.5055 22.7243C79.2006 23.4213 79.2006 24.5482 78.5055 25.2432H78.5036C77.8087 25.9384 76.6816 25.9384 75.9866 25.2434Z" fill="url(#paint16_linear_3943_35404)"/>
<path d="M75.9866 38.7541L70.832 33.5995V28.5635L78.5055 36.237C79.2006 36.932 79.2006 38.0589 78.5055 38.7539H78.5036C77.8087 39.4491 76.6816 39.4491 75.9866 38.7541Z" fill="url(#paint17_linear_3943_35404)"/>
<path d="M75.9866 52.2673L70.832 47.1127V42.0747L78.5055 49.7482C79.2006 50.4432 79.2006 51.5721 78.5055 52.2671H78.5036C77.8087 52.9623 76.6816 52.9623 75.9866 52.2673Z" fill="url(#paint18_linear_3943_35404)"/>
<path d="M75.9866 65.7785L70.832 60.624V55.5879L78.5055 63.2614C79.2006 63.9564 79.2006 65.0833 78.5055 65.7783H78.5036C77.8087 66.4735 76.6816 66.4735 75.9866 65.7785Z" fill="url(#paint19_linear_3943_35404)"/>
<path d="M75.9866 79.2893L70.832 74.1347V69.0986L78.5055 76.7721C79.2006 77.4672 79.2006 78.5941 78.5055 79.2891H78.5036C77.8087 79.9863 76.6816 79.9862 75.9866 79.2893Z" fill="url(#paint20_linear_3943_35404)"/>
<path d="M70.832 76.8276V54.21H102.109V76.8276C102.109 80.4781 99.1498 83.4375 95.4991 83.4375H77.442C73.7915 83.4377 70.832 80.4783 70.832 76.8276Z" fill="url(#paint21_linear_3943_35404)"/>
<path d="M98.4689 75.162C95.3302 75.162 92.379 73.9398 90.161 71.7202L79.6026 61.1634C77.2526 58.8119 73.9267 58.072 70.832 59.1818V76.8272C70.832 80.4779 73.7915 83.4373 77.442 83.4373H95.4991C99.1498 83.4373 102.109 80.4779 102.109 76.8272V74.5837C100.962 74.9601 99.74 75.162 98.4689 75.162Z" fill="url(#paint22_linear_3943_35404)"/>
<path d="M110.218 51.4297V64.7618C110.218 69.9701 106.812 74.3979 102.11 75.933C100.963 76.3094 99.7408 76.5115 98.4697 76.5115C95.331 76.5115 92.3797 75.2893 90.1618 73.0697L79.6034 62.5129C77.2534 60.1614 73.9273 59.4215 70.8326 60.5313C70.6974 60.5802 70.5621 60.6323 70.4285 60.6877C67.223 62.0159 65.2316 64.9965 65.2316 68.466C65.2316 71.5542 67.7445 74.0671 70.8326 74.0671V76.5115C66.3968 76.5115 62.7871 72.9019 62.7871 68.466C62.7871 63.9877 65.357 60.1434 69.4931 58.429C69.9363 58.2465 70.3829 58.0933 70.8326 57.9679C74.5841 56.9347 78.505 57.9565 81.3324 60.7839L91.8892 71.3423C93.6476 73.0991 95.9845 74.0671 98.4697 74.0671C99.7604 74.0671 100.992 73.8031 102.11 73.3256C105.436 71.9045 107.773 68.6013 107.773 64.7618V51.4297C107.773 50.7551 108.321 50.2075 108.996 50.2075C109.67 50.2075 110.218 50.7551 110.218 51.4297Z" fill="url(#paint23_linear_3943_35404)"/>
<path d="M108.996 50.2075C108.321 50.2075 107.774 50.7551 107.774 51.4297V64.7618C107.774 68.3516 105.73 71.4723 102.746 73.0246V75.7024C107.115 73.9893 110.218 69.7321 110.218 64.7618V51.4297C110.218 50.7551 109.67 50.2075 108.996 50.2075Z" fill="url(#paint24_linear_3943_35404)"/>
<path d="M108.996 50.2075C108.321 50.2075 107.773 50.7551 107.773 51.4297V59.4818H110.218V51.4297C110.218 50.7551 109.67 50.2075 108.996 50.2075Z" fill="url(#paint25_linear_3943_35404)"/>
<path d="M103.764 46.8589H114.229V50.4917C114.229 51.8184 113.151 52.8956 111.825 52.8956H106.168C104.841 52.8956 103.764 51.8184 103.764 50.4917L103.764 46.8589Z" fill="url(#paint26_linear_3943_35404)"/>
<path d="M103.764 46.8589H114.229V50.4917C114.229 51.8184 113.151 52.8956 111.825 52.8956H106.168C104.841 52.8956 103.764 51.8184 103.764 50.4917L103.764 46.8589Z" fill="url(#paint27_linear_3943_35404)"/>
<path d="M103.764 46.8589H114.229V50.4917C114.229 51.8184 113.151 52.8956 111.825 52.8956H106.168C104.841 52.8956 103.764 51.8184 103.764 50.4917L103.764 46.8589Z" fill="url(#paint28_linear_3943_35404)"/>
<path d="M108.996 52.8956H111.825C113.152 52.8956 114.229 51.8193 114.229 50.4917V46.8589H108.996V52.8956Z" fill="url(#paint29_linear_3943_35404)"/>
<path d="M124.713 27.8727C124.713 19.0622 117.464 11.9447 108.605 12.1595C100.349 12.3596 93.5885 19.0329 93.288 27.2862C93.101 32.4239 95.3818 37.0351 99.0376 40.0317C100.78 41.4601 101.984 43.4398 102.459 45.6424L102.459 45.6432C102.73 46.8985 103.84 47.7947 105.124 47.7947H112.866C114.151 47.7947 115.261 46.8985 115.531 45.6432C116.012 43.4175 117.251 41.4394 119.006 39.9884C122.491 37.1059 124.713 32.7494 124.713 27.8727Z" fill="url(#paint30_linear_3943_35404)"/>
<path d="M108.995 40.8757C116.177 40.8757 121.998 35.0541 121.998 27.8727C121.998 20.6913 116.177 14.8696 108.995 14.8696C101.814 14.8696 95.9922 20.6913 95.9922 27.8727C95.9922 35.0541 101.814 40.8757 108.995 40.8757Z" fill="url(#paint31_linear_3943_35404)"/>
<path d="M108.605 12.1595C107.309 12.191 106.049 12.3825 104.846 12.7141V47.7789C104.938 47.7883 105.031 47.7945 105.125 47.7945H112.867C114.151 47.7945 115.261 46.8984 115.532 45.6431C116.012 43.4173 117.251 41.4392 119.006 39.9882C122.492 37.1057 124.714 32.7494 124.714 27.8727C124.714 19.0622 117.464 11.9447 108.605 12.1595Z" fill="url(#paint32_linear_3943_35404)"/>
<path d="M93.7129 31.5592C94.5261 34.9406 96.4319 37.8963 99.0371 40.0316C100.78 41.4599 101.983 43.4396 102.458 45.6423L102.459 45.6431C102.729 46.8984 103.839 47.7945 105.124 47.7945H112.866C114.15 47.7945 115.26 46.8984 115.531 45.6431C116.011 43.4173 117.25 41.4393 119.005 39.9882C121.583 37.8563 123.469 34.9176 124.276 31.5591L93.7129 31.5592Z" fill="url(#paint33_linear_3943_35404)"/>
<path d="M108.995 39.8762C115.625 39.8762 120.999 34.5021 120.999 27.8729C120.999 21.2437 115.625 15.8696 108.995 15.8696C102.366 15.8696 96.9922 21.2437 96.9922 27.8729C96.9922 34.5021 102.366 39.8762 108.995 39.8762Z" fill="url(#paint34_linear_3943_35404)"/>
<path d="M108.995 39.8762C102.366 39.8762 96.9922 34.5021 96.9922 27.8729C96.9922 21.2437 102.366 15.8696 108.995 15.8696V39.8762Z" fill="url(#paint35_linear_3943_35404)"/>
<path d="M100.508 36.3604C95.8203 31.6729 95.8203 24.0727 100.508 19.3852C105.195 14.6978 112.795 14.6978 117.483 19.3852L100.508 36.3604Z" fill="url(#paint36_linear_3943_35404)"/>
<path d="M96.9922 27.8729C96.9922 21.2437 102.366 15.8696 108.995 15.8696C115.625 15.8696 120.999 21.2437 120.999 27.8729H96.9922Z" fill="url(#paint37_linear_3943_35404)"/>
<path d="M109.254 19.1133V27.8283L108.062 28.6687L116.573 37.1796C118.61 35.519 120.089 33.203 120.694 30.5533L109.254 19.1133Z" fill="url(#paint38_linear_3943_35404)"/>
<path d="M104.161 33.104H113.97C114.36 33.104 114.676 33.42 114.676 33.81V35.3099C114.676 35.6997 114.36 36.0158 113.97 36.0158H104.161C103.771 36.0158 103.455 35.6999 103.455 35.3099V33.81C103.455 33.42 103.771 33.104 104.161 33.104Z" fill="url(#paint39_linear_3943_35404)"/>
<path d="M116.199 22.4137H113.659C112.432 21.2778 110.794 20.5839 108.995 20.5839C107.196 20.5839 105.559 21.2778 104.332 22.4137H104.33L102.008 22.6728V20.2181C103.821 18.4644 106.285 17.3882 108.995 17.3882C111.706 17.3882 114.169 18.4642 115.983 20.2181L116.199 22.4137Z" fill="url(#paint40_linear_3943_35404)"/>
<path d="M111.036 20.895L109.254 19.1133V20.5902C109.872 20.6132 110.469 20.7183 111.036 20.895Z" fill="url(#paint41_linear_3943_35404)"/>
<path d="M102.008 20.2173C100.111 22.0492 98.9277 24.6155 98.9277 27.4547C98.9277 28.3371 99.6431 29.0525 100.526 29.0525C101.408 29.0525 102.123 28.3371 102.123 27.4547C102.123 25.4646 102.975 23.6703 104.331 22.4144L102.008 20.2173Z" fill="url(#paint42_linear_3943_35404)"/>
<path d="M115.982 20.2173L113.658 22.4142C115.015 23.6702 115.866 25.4646 115.866 27.4545C115.866 28.337 116.581 29.0524 117.464 29.0524C118.346 29.0524 119.062 28.337 119.062 27.4545C119.062 24.6157 117.879 22.0492 115.982 20.2173Z" fill="url(#paint43_linear_3943_35404)"/>
<path d="M108.34 22.1763H109.648V27.3522H108.34V22.1763Z" fill="url(#paint44_linear_3943_35404)"/>
<path d="M108.34 22.1763H109.648V27.3522H108.34V22.1763Z" fill="url(#paint45_linear_3943_35404)"/>
<path d="M108.34 22.1763H109.648V27.3522H108.34V22.1763Z" fill="url(#paint46_linear_3943_35404)"/>
<path d="M108.735 19.1135L107.421 21.1059C106.593 22.3595 107.492 24.0304 108.994 24.0304C110.497 24.0304 111.396 22.3597 110.568 21.1059L109.253 19.1135C109.131 18.9277 108.858 18.9277 108.735 19.1135Z" fill="url(#paint47_linear_3943_35404)"/>
<path d="M108.994 24.0304C110.413 24.0304 111.293 22.5385 110.688 21.3164H107.3C106.694 22.5386 107.574 24.0304 108.994 24.0304Z" fill="url(#paint48_linear_3943_35404)"/>
<path d="M109.253 19.1135C109.131 18.9277 108.858 18.9277 108.736 19.1135L108.414 19.6007V23.9406C108.594 23.998 108.789 24.0304 108.995 24.0304C110.497 24.0304 111.396 22.3597 110.568 21.1059L109.253 19.1135Z" fill="url(#paint49_linear_3943_35404)"/>
<path d="M110.051 20.3218L107.334 23.0385C107.643 23.6127 108.243 24.0302 108.994 24.0302C110.496 24.0302 111.396 22.3595 110.568 21.1056L110.051 20.3218Z" fill="url(#paint50_linear_3943_35404)"/>
<path d="M108.994 29.0988C109.671 29.0988 110.22 28.5498 110.22 27.8726C110.22 27.1954 109.671 26.6465 108.994 26.6465C108.317 26.6465 107.768 27.1954 107.768 27.8726C107.768 28.5498 108.317 29.0988 108.994 29.0988Z" fill="url(#paint51_linear_3943_35404)"/>
<path d="M107.768 27.8725C107.768 28.5498 108.317 29.0987 108.994 29.0987C109.671 29.0987 110.22 28.5496 110.22 27.8725C110.22 27.8399 110.219 27.8077 110.216 27.7759H107.771C107.769 27.8078 107.768 27.8399 107.768 27.8725Z" fill="url(#paint52_linear_3943_35404)"/>
<path d="M108.126 28.7397C108.605 29.2185 109.382 29.2185 109.86 28.7397C110.339 28.2609 110.339 27.4844 109.86 27.0056C109.837 26.9826 109.814 26.9606 109.789 26.9399L108.061 28.6687C108.081 28.6929 108.103 28.7166 108.126 28.7397Z" fill="url(#paint53_linear_3943_35404)"/>
<path d="M62.9957 66.2998C62.8591 67.0002 62.7871 67.7241 62.7871 68.4662C62.7871 72.9021 66.3968 76.5118 70.8326 76.5118V74.0673C67.7445 74.0673 65.2316 71.5544 65.2316 68.4662C65.2316 67.7174 65.3248 66.9914 65.5026 66.2998H62.9957Z" fill="url(#paint54_linear_3943_35404)"/>
<path d="M62.9957 66.2998C62.8591 67.0002 62.7871 67.7241 62.7871 68.4662C62.7871 72.9021 66.3968 76.5118 70.8326 76.5118V74.0673C67.7445 74.0673 65.2316 71.5544 65.2316 68.4662C65.2316 67.7174 65.3248 66.9914 65.5026 66.2998H62.9957Z" fill="url(#paint55_linear_3943_35404)"/>
<path d="M107.774 60.4688V64.7619C107.774 68.6013 105.437 71.9046 102.111 73.3256C100.993 73.8031 99.7612 74.0671 98.4705 74.0671C95.9853 74.0671 93.6484 73.0991 91.89 71.3424L81.3332 60.7839C81.2252 60.6759 81.115 60.5714 81.0038 60.4688H76.3594C77.5471 60.877 78.6552 61.5635 79.6042 62.513L90.1626 73.0698C92.3805 75.2893 95.3318 76.5116 98.4705 76.5116C99.7416 76.5116 100.964 76.3095 102.111 75.933C106.813 74.3979 110.219 69.9702 110.219 64.7619V60.4688H107.774Z" fill="url(#paint56_linear_3943_35404)"/>
<path d="M107.774 60.4688V64.7619C107.774 68.6013 105.437 71.9046 102.111 73.3256C100.993 73.8031 99.7612 74.0671 98.4705 74.0671C95.9853 74.0671 93.6484 73.0991 91.89 71.3424L81.3332 60.7839C81.2252 60.6759 81.115 60.5714 81.0038 60.4688H76.3594C77.5471 60.877 78.6552 61.5635 79.6042 62.513L90.1626 73.0698C92.3805 75.2893 95.3318 76.5116 98.4705 76.5116C99.7416 76.5116 100.964 76.3095 102.111 75.933C106.813 74.3979 110.219 69.9702 110.219 64.7619V60.4688H107.774Z" fill="url(#paint57_linear_3943_35404)"/>
<path d="M107.774 60.4688V64.7619C107.774 68.6013 105.437 71.9046 102.111 73.3256C100.993 73.8031 99.7612 74.0671 98.4705 74.0671C95.9853 74.0671 93.6484 73.0991 91.89 71.3424L81.3332 60.7839C81.2252 60.6759 81.115 60.5714 81.0038 60.4688H76.3594C77.5471 60.877 78.6552 61.5635 79.6042 62.513L90.1626 73.0698C92.3805 75.2893 95.3318 76.5116 98.4705 76.5116C99.7416 76.5116 100.964 76.3095 102.111 75.933C106.813 74.3979 110.219 69.9702 110.219 64.7619V60.4688H107.774Z" fill="url(#paint58_linear_3943_35404)"/>
</g>
<path d="M44.4129 122.28C45.3596 122.413 46.1129 122.84 46.6729 123.56C47.2329 124.28 47.5129 125.173 47.5129 126.24V134H44.9529V126.24C44.9529 125.747 44.8929 125.353 44.7729 125.06C44.6662 124.753 44.4796 124.507 44.2129 124.32L42.3129 125.48L40.2329 124.22C39.8996 124.447 39.6529 124.747 39.4929 125.12C39.3462 125.493 39.2729 125.98 39.2729 126.58C39.2729 126.887 39.3062 127.2 39.3729 127.52C39.4396 127.84 39.5396 128.24 39.6729 128.72C39.8062 129.2 39.9062 129.587 39.9729 129.88C40.0396 130.173 40.0729 130.46 40.0729 130.74V130.94C40.2329 130.753 40.5462 130.467 41.0129 130.08L41.5329 129.64C41.1596 129.587 40.8529 129.413 40.6129 129.12C40.3862 128.827 40.2729 128.467 40.2729 128.04C40.2729 127.507 40.4596 127.073 40.8329 126.74C41.2062 126.393 41.6796 126.22 42.2529 126.22C42.8262 126.22 43.2862 126.393 43.6329 126.74C43.9929 127.087 44.1729 127.54 44.1729 128.1C44.1729 128.593 44.0262 129.027 43.7329 129.4C43.4396 129.76 42.9796 130.207 42.3529 130.74C41.6729 131.313 41.1462 131.84 40.7729 132.32C40.4129 132.787 40.2129 133.347 40.1729 134H37.6929V131.04C37.6929 130.813 37.6396 130.487 37.5329 130.06C37.4262 129.633 37.3596 129.373 37.3329 129.28C37.1596 128.627 37.0262 128.107 36.9329 127.72C36.8529 127.32 36.8129 126.96 36.8129 126.64C36.8129 125.547 37.0996 124.607 37.6729 123.82C38.2596 123.033 39.1396 122.52 40.3129 122.28L42.3329 123.66L44.4129 122.28ZM41.3929 128.04C41.3929 128.28 41.4662 128.473 41.6129 128.62C41.7596 128.767 41.9596 128.84 42.2129 128.84C42.4529 128.84 42.6462 128.767 42.7929 128.62C42.9396 128.473 43.0129 128.28 43.0129 128.04C43.0129 127.8 42.9396 127.607 42.7929 127.46C42.6462 127.3 42.4529 127.22 42.2129 127.22C41.9596 127.22 41.7596 127.3 41.6129 127.46C41.4662 127.607 41.3929 127.8 41.3929 128.04ZM53.0715 124.28C52.7782 124.28 52.5182 124.36 52.2915 124.52C52.0782 124.68 51.9648 124.887 51.9515 125.14C53.5782 125.287 54.8715 125.6 55.8315 126.08C56.7915 126.547 57.2715 127.12 57.2715 127.8V131.86C57.2715 132.553 57.0382 133.12 56.5715 133.56C56.1182 133.987 55.5248 134.2 54.7915 134.2C54.0982 134.2 53.5315 134 53.0915 133.6C52.6515 133.187 52.4315 132.667 52.4315 132.04C52.4315 131.4 52.6315 130.887 53.0315 130.5C53.4315 130.1 53.9582 129.9 54.6115 129.9H54.7115V128.22C54.7115 127.833 54.1382 127.5 52.9915 127.22C51.8582 126.927 50.6115 126.747 49.2515 126.68C49.2648 125.293 49.5715 124.213 50.1715 123.44C50.7715 122.667 51.5848 122.28 52.6115 122.28C52.9715 122.28 53.2848 122.313 53.5515 122.38C53.8315 122.433 54.1315 122.513 54.4515 122.62C54.6382 122.687 54.8248 122.747 55.0115 122.8C55.2115 122.84 55.3915 122.86 55.5515 122.86C55.7648 122.86 55.9515 122.8 56.1115 122.68C56.2715 122.547 56.3848 122.38 56.4515 122.18L58.2115 122.72C58.0382 123.413 57.7515 123.953 57.3515 124.34C56.9648 124.727 56.5182 124.92 56.0115 124.92C55.7848 124.92 55.5715 124.893 55.3715 124.84C55.1715 124.787 54.9048 124.707 54.5715 124.6C53.9315 124.387 53.4315 124.28 53.0715 124.28ZM54.5915 132.94C54.8582 132.94 55.0715 132.86 55.2315 132.7C55.4048 132.527 55.4915 132.307 55.4915 132.04C55.4915 131.773 55.4048 131.56 55.2315 131.4C55.0715 131.227 54.8582 131.14 54.5915 131.14C54.3382 131.14 54.1248 131.227 53.9515 131.4C53.7915 131.56 53.7115 131.773 53.7115 132.04C53.7115 132.307 53.7915 132.527 53.9515 132.7C54.1248 132.86 54.3382 132.94 54.5915 132.94ZM63.7124 122.28C65.1258 122.28 66.2191 122.6 66.9924 123.24C67.7658 123.867 68.1524 124.747 68.1524 125.88V131.86C68.1524 132.553 67.9191 133.12 67.4524 133.56C66.9991 133.987 66.4058 134.2 65.6724 134.2C64.9791 134.2 64.4124 134 63.9724 133.6C63.5324 133.187 63.3124 132.667 63.3124 132.04C63.3124 131.4 63.5124 130.887 63.9124 130.5C64.3258 130.1 64.8524 129.9 65.4924 129.9H65.5924V126.02C65.5924 125.46 65.4258 125.033 65.0924 124.74C64.7724 124.433 64.2991 124.28 63.6724 124.28C63.0858 124.28 62.6058 124.453 62.2324 124.8C61.8724 125.133 61.6524 125.6 61.5724 126.2H59.0324C59.0858 124.973 59.5258 124.013 60.3524 123.32C61.1924 122.627 62.3124 122.28 63.7124 122.28ZM65.4924 132.94C65.7591 132.94 65.9724 132.853 66.1324 132.68C66.3058 132.507 66.3924 132.293 66.3924 132.04C66.3924 131.773 66.3058 131.56 66.1324 131.4C65.9724 131.227 65.7591 131.14 65.4924 131.14C65.2258 131.14 65.0058 131.227 64.8324 131.4C64.6724 131.56 64.5924 131.773 64.5924 132.04C64.5924 132.307 64.6724 132.527 64.8324 132.7C65.0058 132.86 65.2258 132.94 65.4924 132.94ZM76.4555 134.2C75.6422 134.2 74.9889 134.04 74.4955 133.72C74.0022 133.4 73.6955 132.927 73.5755 132.3L73.2955 130.72C73.1622 130.747 73.0422 130.76 72.9355 130.76C72.2822 130.76 71.7489 130.573 71.3355 130.2C70.9222 129.813 70.7155 129.32 70.7155 128.72C70.7155 128.093 70.9289 127.6 71.3555 127.24C71.7955 126.88 72.3289 126.7 72.9555 126.7C73.4755 126.7 73.9289 126.84 74.3155 127.12C74.7155 127.4 74.9622 127.78 75.0555 128.26L75.6955 131.7C75.7222 131.873 75.7955 132.007 75.9155 132.1C76.0489 132.193 76.2089 132.24 76.3955 132.24C76.8222 132.24 77.0355 132.04 77.0355 131.64V125.9C77.0355 125.407 76.8289 125.013 76.4155 124.72C76.0155 124.427 75.4822 124.28 74.8155 124.28C74.1622 124.28 73.6089 124.427 73.1555 124.72C72.7022 125.013 72.4289 125.393 72.3355 125.86H69.8155C69.8955 124.78 70.3822 123.913 71.2755 123.26C72.1822 122.607 73.3822 122.28 74.8755 122.28C75.8089 122.28 76.6289 122.42 77.3355 122.7C78.0555 122.967 78.6089 123.353 78.9955 123.86C79.3955 124.367 79.5955 124.947 79.5955 125.6V131.7C79.5955 132.513 79.3289 133.133 78.7955 133.56C78.2622 133.987 77.4822 134.2 76.4555 134.2ZM72.8355 129.54C73.0889 129.54 73.2889 129.467 73.4355 129.32C73.5955 129.16 73.6755 128.953 73.6755 128.7C73.6755 128.447 73.5955 128.247 73.4355 128.1C73.2889 127.94 73.0889 127.86 72.8355 127.86C72.5822 127.86 72.3755 127.94 72.2155 128.1C72.0555 128.247 71.9755 128.447 71.9755 128.7C71.9755 128.953 72.0555 129.16 72.2155 129.32C72.3755 129.467 72.5822 129.54 72.8355 129.54ZM84.9613 129.9C85.6013 129.9 86.1213 130.1 86.5213 130.5C86.9347 130.9 87.1413 131.413 87.1413 132.04C87.1413 132.68 86.9213 133.2 86.4813 133.6C86.0413 134 85.4747 134.2 84.7813 134.2C84.048 134.2 83.448 133.987 82.9813 133.56C82.528 133.12 82.3013 132.553 82.3013 131.86V122.48H84.8613V129.9H84.9613ZM84.9613 132.94C85.228 132.94 85.4413 132.86 85.6013 132.7C85.7747 132.527 85.8613 132.307 85.8613 132.04C85.8613 131.773 85.7747 131.56 85.6013 131.4C85.4413 131.227 85.228 131.14 84.9613 131.14C84.708 131.14 84.4947 131.227 84.3213 131.4C84.148 131.56 84.0613 131.773 84.0613 132.04C84.0613 132.293 84.148 132.507 84.3213 132.68C84.4947 132.853 84.708 132.94 84.9613 132.94ZM97.8448 124.86C98.2448 125.02 98.5514 125.267 98.7648 125.6C98.9914 125.933 99.1048 126.347 99.1048 126.84V131.16C99.1048 132.12 98.7581 132.867 98.0648 133.4C97.3714 133.933 96.4114 134.2 95.1848 134.2C93.9581 134.2 92.9981 133.933 92.3048 133.4C91.6248 132.867 91.2848 132.12 91.2848 131.16V129.8C91.2848 129.4 91.3514 129.053 91.4848 128.76C91.6181 128.467 91.8248 128.113 92.1048 127.7C92.3981 127.26 92.6114 126.88 92.7448 126.56C92.8914 126.24 92.9648 125.853 92.9648 125.4C92.9648 124.92 92.8248 124.56 92.5448 124.32C92.2648 124.067 91.8781 123.94 91.3848 123.94C90.9448 123.94 90.5914 124 90.3248 124.12C90.8314 124.147 91.2581 124.333 91.6048 124.68C91.9648 125.013 92.1448 125.487 92.1448 126.1C92.1448 126.687 91.9514 127.187 91.5648 127.6C91.1781 128.013 90.6381 128.22 89.9448 128.22C89.2248 128.22 88.6581 127.993 88.2448 127.54C87.8314 127.087 87.6248 126.447 87.6248 125.62C87.6248 124.62 87.9714 123.813 88.6648 123.2C89.3581 122.587 90.3048 122.28 91.5048 122.28C92.6648 122.28 93.5514 122.533 94.1648 123.04C94.7914 123.533 95.1048 124.24 95.1048 125.16C95.1048 125.707 95.0448 126.173 94.9248 126.56C94.8048 126.933 94.6248 127.353 94.3848 127.82C94.1981 128.167 94.0581 128.473 93.9648 128.74C93.8714 129.007 93.8248 129.3 93.8248 129.62V131.18C93.8248 131.5 93.9448 131.753 94.1848 131.94C94.4381 132.113 94.7781 132.2 95.2048 132.2C95.6314 132.2 95.9581 132.113 96.1848 131.94C96.4248 131.753 96.5448 131.5 96.5448 131.18V126.98C96.5448 126.567 96.4648 126.253 96.3048 126.04C96.1581 125.827 95.8914 125.667 95.5048 125.56V124.32C96.0248 124.093 96.4048 123.787 96.6448 123.4C96.8848 123.013 97.0181 122.473 97.0448 121.78H99.6648C99.6114 122.473 99.3981 123.107 99.0248 123.68C98.6514 124.24 98.2581 124.633 97.8448 124.86ZM90.8248 126.14C90.8248 125.873 90.7448 125.66 90.5848 125.5C90.4248 125.34 90.2114 125.26 89.9448 125.26C89.6781 125.26 89.4581 125.34 89.2848 125.5C89.1248 125.66 89.0448 125.873 89.0448 126.14C89.0448 126.407 89.1248 126.62 89.2848 126.78C89.4581 126.94 89.6781 127.02 89.9448 127.02C90.2114 127.02 90.4248 126.94 90.5848 126.78C90.7448 126.62 90.8248 126.407 90.8248 126.14ZM96.9326 117.02C97.4392 117.02 97.8526 117.16 98.1726 117.44C98.4792 117.707 98.6326 118.087 98.6326 118.58C98.6326 119.1 98.4592 119.52 98.1126 119.84C97.7526 120.16 97.2592 120.32 96.6326 120.32C96.1392 120.32 95.6259 120.2 95.0926 119.96C94.5592 119.72 94.0926 119.387 93.6926 118.96C93.2659 119.267 92.8059 119.78 92.3126 120.5C91.6326 120.3 91.1192 119.947 90.7726 119.44C90.4259 118.92 90.2526 118.327 90.2526 117.66C90.2526 117.153 90.3926 116.693 90.6726 116.28C90.9526 115.867 91.3459 115.547 91.8526 115.32C92.3459 115.08 92.9192 114.96 93.5726 114.96H95.6926C96.4259 114.96 96.8059 114.407 96.8326 113.3H98.6726C98.6726 115.5 97.7326 116.6 95.8526 116.6H93.4526C93.0926 116.6 92.7992 116.707 92.5726 116.92C92.3326 117.12 92.2126 117.38 92.2126 117.7C92.2126 117.86 92.2392 118.02 92.2926 118.18C92.3459 118.34 92.4059 118.473 92.4726 118.58C92.8459 118.06 93.3659 117.653 94.0326 117.36C94.3259 117.747 94.7326 118.147 95.2526 118.56V118.52C95.2526 118.067 95.4126 117.707 95.7326 117.44C96.0392 117.16 96.4392 117.02 96.9326 117.02ZM96.9326 119.24C97.1059 119.24 97.2526 119.187 97.3726 119.08C97.4792 118.96 97.5326 118.813 97.5326 118.64C97.5326 118.453 97.4792 118.3 97.3726 118.18C97.2526 118.06 97.1059 118 96.9326 118C96.7592 118 96.6192 118.06 96.5126 118.18C96.3926 118.3 96.3326 118.453 96.3326 118.64C96.3326 118.813 96.3926 118.96 96.5126 119.08C96.6192 119.187 96.7592 119.24 96.9326 119.24ZM106.393 122.28C108.006 122.28 109.279 122.633 110.213 123.34C111.146 124.033 111.613 124.987 111.613 126.2V134H109.053V126.46C109.053 125.78 108.813 125.247 108.333 124.86C107.866 124.473 107.219 124.28 106.393 124.28C105.486 124.28 104.766 124.487 104.233 124.9C103.713 125.313 103.453 125.887 103.453 126.62C103.453 127.047 103.526 127.7 103.673 128.58C103.899 127.793 104.239 127.187 104.693 126.76C105.159 126.32 105.719 126.1 106.373 126.1C107.026 126.1 107.533 126.267 107.893 126.6C108.266 126.933 108.453 127.4 108.453 128C108.453 128.587 108.279 129.047 107.933 129.38C107.586 129.713 107.113 129.88 106.513 129.88C106.206 129.88 105.919 129.827 105.653 129.72C105.399 129.613 105.199 129.46 105.053 129.26C104.839 129.567 104.666 129.947 104.533 130.4C104.399 130.84 104.333 131.28 104.333 131.72V134H101.853V131C101.853 130.707 101.726 130.107 101.473 129.2C101.313 128.56 101.193 128.053 101.113 127.68C101.033 127.307 100.993 126.96 100.993 126.64C100.993 125.307 101.466 124.247 102.413 123.46C103.373 122.673 104.699 122.28 106.393 122.28ZM106.473 127.18C106.233 127.18 106.033 127.253 105.873 127.4C105.726 127.547 105.653 127.74 105.653 127.98C105.653 128.233 105.726 128.433 105.873 128.58C106.033 128.727 106.233 128.8 106.473 128.8C106.713 128.8 106.906 128.727 107.053 128.58C107.199 128.433 107.273 128.233 107.273 127.98C107.273 127.74 107.199 127.547 107.053 127.4C106.906 127.253 106.713 127.18 106.473 127.18ZM117.173 124.28C116.88 124.28 116.62 124.36 116.393 124.52C116.18 124.68 116.066 124.887 116.053 125.14C117.68 125.287 118.973 125.6 119.933 126.08C120.893 126.547 121.373 127.12 121.373 127.8V131.86C121.373 132.553 121.14 133.12 120.673 133.56C120.22 133.987 119.626 134.2 118.893 134.2C118.2 134.2 117.633 134 117.193 133.6C116.753 133.187 116.533 132.667 116.533 132.04C116.533 131.4 116.733 130.887 117.133 130.5C117.533 130.1 118.06 129.9 118.713 129.9H118.813V128.22C118.813 127.833 118.24 127.5 117.093 127.22C115.96 126.927 114.713 126.747 113.353 126.68C113.366 125.293 113.673 124.213 114.273 123.44C114.873 122.667 115.686 122.28 116.713 122.28C117.073 122.28 117.386 122.313 117.653 122.38C117.933 122.433 118.233 122.513 118.553 122.62C118.74 122.687 118.926 122.747 119.113 122.8C119.313 122.84 119.493 122.86 119.653 122.86C119.866 122.86 120.053 122.8 120.213 122.68C120.373 122.547 120.486 122.38 120.553 122.18L122.313 122.72C122.14 123.413 121.853 123.953 121.453 124.34C121.066 124.727 120.62 124.92 120.113 124.92C119.886 124.92 119.673 124.893 119.473 124.84C119.273 124.787 119.006 124.707 118.673 124.6C118.033 124.387 117.533 124.28 117.173 124.28ZM118.693 132.94C118.96 132.94 119.173 132.86 119.333 132.7C119.506 132.527 119.593 132.307 119.593 132.04C119.593 131.773 119.506 131.56 119.333 131.4C119.173 131.227 118.96 131.14 118.693 131.14C118.44 131.14 118.226 131.227 118.053 131.4C117.893 131.56 117.813 131.773 117.813 132.04C117.813 132.307 117.893 132.527 118.053 132.7C118.226 132.86 118.44 132.94 118.693 132.94ZM128.714 122.28C129.661 122.28 130.501 122.453 131.234 122.8C131.967 123.147 132.534 123.633 132.934 124.26C133.334 124.873 133.534 125.587 133.534 126.4V134H130.974V126.68C130.974 125.973 130.747 125.4 130.294 124.96C129.854 124.507 129.267 124.28 128.534 124.28C127.907 124.28 127.341 124.413 126.834 124.68C126.341 124.947 126.007 125.293 125.834 125.72C126.274 125.813 126.701 125.933 127.114 126.08C127.541 126.227 127.887 126.387 128.154 126.56V127.28C127.687 127.453 127.327 127.707 127.074 128.04C126.834 128.373 126.714 128.773 126.714 129.24V129.9H126.814C127.454 129.9 127.974 130.1 128.374 130.5C128.787 130.9 128.994 131.413 128.994 132.04C128.994 132.68 128.774 133.2 128.334 133.6C127.894 134 127.327 134.2 126.634 134.2C125.901 134.2 125.301 133.987 124.834 133.56C124.381 133.12 124.154 132.553 124.154 131.86V129.36C124.154 128.88 124.274 128.447 124.514 128.06C124.767 127.673 125.114 127.38 125.554 127.18C125.127 127.06 124.441 126.94 123.494 126.82C123.507 125.927 123.734 125.14 124.174 124.46C124.614 123.767 125.227 123.233 126.014 122.86C126.801 122.473 127.701 122.28 128.714 122.28ZM126.814 131.16C126.547 131.16 126.327 131.247 126.154 131.42C125.994 131.58 125.914 131.787 125.914 132.04C125.914 132.307 125.994 132.527 126.154 132.7C126.327 132.86 126.547 132.94 126.814 132.94C127.081 132.94 127.294 132.86 127.454 132.7C127.627 132.527 127.714 132.307 127.714 132.04C127.714 131.787 127.627 131.58 127.454 131.42C127.294 131.247 127.081 131.16 126.814 131.16Z" fill="white"/>
<defs>
<filter id="filter0_d_3943_35404" x="0" y="0" width="171" height="171" filterUnits="userSpaceOnUse" color-interpolation-filters="sRGB">
<feFlood flood-opacity="0" result="BackgroundImageFix"/>
<feColorMatrix in="SourceAlpha" type="matrix" values="0 0 0 0 0 0 0 0 0 0 0 0 0 0 0 0 0 0 127 0" result="hardAlpha"/>
<feOffset dy="4"/>
<feGaussianBlur stdDeviation="4"/>
<feComposite in2="hardAlpha" operator="out"/>
<feColorMatrix type="matrix" values="0 0 0 0 0 0 0 0 0 0 0 0 0 0 0 0 0 0 0.15 0"/>
<feBlend mode="normal" in2="BackgroundImageFix" result="effect1_dropShadow_3943_35404"/>
<feBlend mode="normal" in="SourceGraphic" in2="effect1_dropShadow_3943_35404" result="shape"/>
</filter>
<linearGradient id="paint0_linear_3943_35404" x1="8" y1="81.5887" x2="163" y2="81.5887" gradientUnits="userSpaceOnUse">
<stop offset="0.0762668" stop-color="#062143"/>
<stop offset="1" stop-color="#194F91"/>
</linearGradient>
<linearGradient id="paint1_linear_3943_35404" x1="45.8345" y1="459.681" x2="209.875" y2="110.935" gradientUnits="userSpaceOnUse">
<stop offset="0.567708" stop-color="white" stop-opacity="0"/>
<stop offset="1" stop-color="#D9D9D9"/>
</linearGradient>
<linearGradient id="paint2_linear_3943_35404" x1="-84.103" y1="-1.92772" x2="220.462" y2="-1.92772" gradientUnits="userSpaceOnUse">
<stop stop-color="#052143"/>
<stop offset="1" stop-color="#01050D"/>
</linearGradient>
<linearGradient id="paint3_linear_3943_35404" x1="19.5147" y1="34.5748" x2="19.5147" y2="-12.6961" gradientUnits="userSpaceOnUse">
<stop stop-color="#052143"/>
<stop offset="1" stop-color="#01050D"/>
</linearGradient>
<linearGradient id="paint4_linear_3943_35404" x1="66.6167" y1="69.5333" x2="80.8488" y2="93.1088" gradientUnits="userSpaceOnUse">
<stop stop-color="#B3DAFE"/>
<stop offset="1" stop-color="#0182FC"/>
</linearGradient>
<linearGradient id="paint5_linear_3943_35404" x1="75.3628" y1="41.7187" x2="106.158" y2="41.7187" gradientUnits="userSpaceOnUse">
<stop stop-color="#5A5A5A"/>
<stop offset="1" stop-color="#444444"/>
</linearGradient>
<linearGradient id="paint6_linear_3943_35404" x1="78.61" y1="41.7192" x2="87.4508" y2="41.7192" gradientUnits="userSpaceOnUse">
<stop stop-color="#433F43" stop-opacity="0"/>
<stop offset="0.4114" stop-color="#373537" stop-opacity="0.269"/>
<stop offset="1" stop-color="#1A1A1A"/>
</linearGradient>
<linearGradient id="paint7_linear_3943_35404" x1="99.1575" y1="8.82478" x2="97.0483" y2="6.61499" gradientUnits="userSpaceOnUse">
<stop stop-color="#5A5A5A"/>
<stop offset="1" stop-color="#444444"/>
</linearGradient>
<linearGradient id="paint8_linear_3943_35404" x1="100.148" y1="22.3859" x2="98.039" y2="19.875" gradientUnits="userSpaceOnUse">
<stop stop-color="#5A5A5A"/>
<stop offset="1" stop-color="#444444"/>
</linearGradient>
<linearGradient id="paint9_linear_3943_35404" x1="99.9719" y1="35.3589" x2="97.5613" y2="32.9483" gradientUnits="userSpaceOnUse">
<stop stop-color="#5A5A5A"/>
<stop offset="1" stop-color="#444444"/>
</linearGradient>
<linearGradient id="paint10_linear_3943_35404" x1="100.136" y1="49.113" x2="97.7254" y2="46.602" gradientUnits="userSpaceOnUse">
<stop stop-color="#5A5A5A"/>
<stop offset="1" stop-color="#444444"/>
</linearGradient>
<linearGradient id="paint11_linear_3943_35404" x1="99.9689" y1="62.3802" x2="97.8597" y2="60.271" gradientUnits="userSpaceOnUse">
<stop stop-color="#5A5A5A"/>
<stop offset="1" stop-color="#444444"/>
</linearGradient>
<linearGradient id="paint12_linear_3943_35404" x1="100.021" y1="76.023" x2="97.8115" y2="73.713" gradientUnits="userSpaceOnUse">
<stop stop-color="#5A5A5A"/>
<stop offset="1" stop-color="#444444"/>
</linearGradient>
<linearGradient id="paint13_linear_3943_35404" x1="92.3711" y1="41.7187" x2="104.277" y2="41.7187" gradientUnits="userSpaceOnUse">
<stop stop-color="#433F43" stop-opacity="0"/>
<stop offset="0.4114" stop-color="#373537" stop-opacity="0.269"/>
<stop offset="1" stop-color="#1A1A1A"/>
</linearGradient>
<linearGradient id="paint14_linear_3943_35404" x1="87.6492" y1="41.7188" x2="85.3045" y2="41.7188" gradientUnits="userSpaceOnUse">
<stop stop-color="#5A5A5A"/>
<stop offset="1" stop-color="#444444"/>
</linearGradient>
<linearGradient id="paint15_linear_3943_35404" x1="73.7833" y1="8.82478" x2="75.8925" y2="6.61499" gradientUnits="userSpaceOnUse">
<stop stop-color="#5A5A5A"/>
<stop offset="1" stop-color="#444444"/>
</linearGradient>
<linearGradient id="paint16_linear_3943_35404" x1="72.7926" y1="22.3859" x2="74.9019" y2="19.875" gradientUnits="userSpaceOnUse">
<stop stop-color="#5A5A5A"/>
<stop offset="1" stop-color="#444444"/>
</linearGradient>
<linearGradient id="paint17_linear_3943_35404" x1="72.9688" y1="35.3589" x2="75.3794" y2="32.9483" gradientUnits="userSpaceOnUse">
<stop stop-color="#5A5A5A"/>
<stop offset="1" stop-color="#444444"/>
</linearGradient>
<linearGradient id="paint18_linear_3943_35404" x1="72.8049" y1="49.113" x2="75.2154" y2="46.602" gradientUnits="userSpaceOnUse">
<stop stop-color="#5A5A5A"/>
<stop offset="1" stop-color="#444444"/>
</linearGradient>
<linearGradient id="paint19_linear_3943_35404" x1="72.9719" y1="62.3802" x2="75.0812" y2="60.271" gradientUnits="userSpaceOnUse">
<stop stop-color="#5A5A5A"/>
<stop offset="1" stop-color="#444444"/>
</linearGradient>
<linearGradient id="paint20_linear_3943_35404" x1="72.9196" y1="76.023" x2="75.1292" y2="73.713" gradientUnits="userSpaceOnUse">
<stop stop-color="#5A5A5A"/>
<stop offset="1" stop-color="#444444"/>
</linearGradient>
<linearGradient id="paint21_linear_3943_35404" x1="86.4705" y1="73.3939" x2="86.4705" y2="85.0448" gradientUnits="userSpaceOnUse">
<stop stop-color="#433F43" stop-opacity="0"/>
<stop offset="0.4114" stop-color="#373537" stop-opacity="0.269"/>
<stop offset="1" stop-color="#1A1A1A"/>
</linearGradient>
<linearGradient id="paint22_linear_3943_35404" x1="80.317" y1="78.2782" x2="87.5961" y2="67.3052" gradientUnits="userSpaceOnUse">
<stop stop-color="#433F43" stop-opacity="0"/>
<stop offset="0.4114" stop-color="#373537" stop-opacity="0.269"/>
<stop offset="1" stop-color="#1A1A1A"/>
</linearGradient>
<linearGradient id="paint23_linear_3943_35404" x1="85.0128" y1="58.4282" x2="99.2451" y2="82.0037" gradientUnits="userSpaceOnUse">
<stop stop-color="#B3DAFE"/>
<stop offset="1" stop-color="#0182FC"/>
</linearGradient>
<linearGradient id="paint24_linear_3943_35404" x1="106.576" y1="62.955" x2="110.977" y2="62.955" gradientUnits="userSpaceOnUse">
<stop stop-color="#0182FC" stop-opacity="0"/>
<stop offset="0.2315" stop-color="#0180F7" stop-opacity="0.032"/>
<stop offset="0.4221" stop-color="#017AE8" stop-opacity="0.131"/>
<stop offset="0.5982" stop-color="#0171CF" stop-opacity="0.298"/>
<stop offset="0.7656" stop-color="#0165AC" stop-opacity="0.533"/>
<stop offset="0.9253" stop-color="#01557F" stop-opacity="0.833"/>
<stop offset="1" stop-color="#024C67"/>
</linearGradient>
<linearGradient id="paint25_linear_3943_35404" x1="108.996" y1="56.2225" x2="108.996" y2="51.9036" gradientUnits="userSpaceOnUse">
<stop stop-color="#0182FC" stop-opacity="0"/>
<stop offset="0.2315" stop-color="#0180F7" stop-opacity="0.032"/>
<stop offset="0.4221" stop-color="#017AE8" stop-opacity="0.131"/>
<stop offset="0.5982" stop-color="#0171CF" stop-opacity="0.298"/>
<stop offset="0.7656" stop-color="#0165AC" stop-opacity="0.533"/>
<stop offset="0.9253" stop-color="#01557F" stop-opacity="0.833"/>
<stop offset="1" stop-color="#024C67"/>
</linearGradient>
<linearGradient id="paint26_linear_3943_35404" x1="106.96" y1="49.8771" x2="111.141" y2="49.8771" gradientUnits="userSpaceOnUse">
<stop stop-color="#FE0364"/>
<stop offset="0.2552" stop-color="#F3025F"/>
<stop offset="0.6968" stop-color="#D70152"/>
<stop offset="1" stop-color="#C00148"/>
</linearGradient>
<linearGradient id="paint27_linear_3943_35404" x1="108.996" y1="49.5246" x2="108.996" y2="52.9715" gradientUnits="userSpaceOnUse">
<stop stop-color="#972437" stop-opacity="0"/>
<stop offset="0.229" stop-color="#902333" stop-opacity="0.072"/>
<stop offset="0.4928" stop-color="#7E232A" stop-opacity="0.283"/>
<stop offset="0.7726" stop-color="#61221B" stop-opacity="0.632"/>
<stop offset="1" stop-color="#42210B"/>
</linearGradient>
<linearGradient id="paint28_linear_3943_35404" x1="108.996" y1="49.8869" x2="108.996" y2="46.928" gradientUnits="userSpaceOnUse">
<stop stop-color="#972437" stop-opacity="0"/>
<stop offset="0.229" stop-color="#902333" stop-opacity="0.072"/>
<stop offset="0.4928" stop-color="#7E232A" stop-opacity="0.283"/>
<stop offset="0.7726" stop-color="#61221B" stop-opacity="0.632"/>
<stop offset="1" stop-color="#42210B"/>
</linearGradient>
<linearGradient id="paint29_linear_3943_35404" x1="110.764" y1="49.8771" x2="114.599" y2="49.8771" gradientUnits="userSpaceOnUse">
<stop stop-color="#972437" stop-opacity="0"/>
<stop offset="0.229" stop-color="#902333" stop-opacity="0.072"/>
<stop offset="0.4928" stop-color="#7E232A" stop-opacity="0.283"/>
<stop offset="0.7726" stop-color="#61221B" stop-opacity="0.632"/>
<stop offset="1" stop-color="#42210B"/>
</linearGradient>
<linearGradient id="paint30_linear_3943_35404" x1="97.5992" y1="19.8224" x2="118.977" y2="38.1202" gradientUnits="userSpaceOnUse">
<stop stop-color="#FE0364"/>
<stop offset="0.2057" stop-color="#F3075E"/>
<stop offset="0.563" stop-color="#D7134F"/>
<stop offset="1" stop-color="#AC2538"/>
</linearGradient>
<linearGradient id="paint31_linear_3943_35404" x1="117.716" y1="36.5935" x2="99.9889" y2="18.8663" gradientUnits="userSpaceOnUse">
<stop stop-color="#FE0364"/>
<stop offset="0.2057" stop-color="#F3075E"/>
<stop offset="0.563" stop-color="#D7134F"/>
<stop offset="1" stop-color="#AC2538"/>
</linearGradient>
<linearGradient id="paint32_linear_3943_35404" x1="113.564" y1="32.3793" x2="122.864" y2="37.0896" gradientUnits="userSpaceOnUse">
<stop stop-color="#972437" stop-opacity="0"/>
<stop offset="0.229" stop-color="#902333" stop-opacity="0.072"/>
<stop offset="0.4928" stop-color="#7E232A" stop-opacity="0.283"/>
<stop offset="0.7726" stop-color="#61221B" stop-opacity="0.632"/>
<stop offset="1" stop-color="#42210B"/>
</linearGradient>
<linearGradient id="paint33_linear_3943_35404" x1="108.995" y1="42.7009" x2="108.995" y2="48.0183" gradientUnits="userSpaceOnUse">
<stop stop-color="#972437" stop-opacity="0"/>
<stop offset="0.229" stop-color="#902333" stop-opacity="0.072"/>
<stop offset="0.4928" stop-color="#7E232A" stop-opacity="0.283"/>
<stop offset="0.7726" stop-color="#61221B" stop-opacity="0.632"/>
<stop offset="1" stop-color="#42210B"/>
</linearGradient>
<linearGradient id="paint34_linear_3943_35404" x1="102.03" y1="20.9078" x2="115.082" y2="33.9596" gradientUnits="userSpaceOnUse">
<stop stop-color="#EAF6FF"/>
<stop offset="1" stop-color="#B3DAFE"/>
</linearGradient>
<linearGradient id="paint35_linear_3943_35404" x1="101.615" y1="27.8729" x2="95.9051" y2="27.8729" gradientUnits="userSpaceOnUse">
<stop stop-color="#7BACDF" stop-opacity="0"/>
<stop offset="0.1269" stop-color="#7BACDF" stop-opacity="0.019"/>
<stop offset="0.2606" stop-color="#7BACDF" stop-opacity="0.076"/>
<stop offset="0.3974" stop-color="#7BACDF" stop-opacity="0.17"/>
<stop offset="0.5365" stop-color="#7BACDF" stop-opacity="0.303"/>
<stop offset="0.6772" stop-color="#7BACDF" stop-opacity="0.474"/>
<stop offset="0.8194" stop-color="#7BACDF" stop-opacity="0.683"/>
<stop offset="0.9602" stop-color="#7BACDF" stop-opacity="0.925"/>
<stop offset="1" stop-color="#7BACDF"/>
</linearGradient>
<linearGradient id="paint36_linear_3943_35404" x1="103.754" y1="22.6498" x2="99.7169" y2="18.6131" gradientUnits="userSpaceOnUse">
<stop stop-color="#7BACDF" stop-opacity="0"/>
<stop offset="0.1269" stop-color="#7BACDF" stop-opacity="0.019"/>
<stop offset="0.2606" stop-color="#7BACDF" stop-opacity="0.076"/>
<stop offset="0.3974" stop-color="#7BACDF" stop-opacity="0.17"/>
<stop offset="0.5365" stop-color="#7BACDF" stop-opacity="0.303"/>
<stop offset="0.6772" stop-color="#7BACDF" stop-opacity="0.474"/>
<stop offset="0.8194" stop-color="#7BACDF" stop-opacity="0.683"/>
<stop offset="0.9602" stop-color="#7BACDF" stop-opacity="0.925"/>
<stop offset="1" stop-color="#7BACDF"/>
</linearGradient>
<linearGradient id="paint37_linear_3943_35404" x1="108.995" y1="20.4921" x2="108.995" y2="14.7825" gradientUnits="userSpaceOnUse">
<stop stop-color="#7BACDF" stop-opacity="0"/>
<stop offset="0.1269" stop-color="#7BACDF" stop-opacity="0.019"/>
<stop offset="0.2606" stop-color="#7BACDF" stop-opacity="0.076"/>
<stop offset="0.3974" stop-color="#7BACDF" stop-opacity="0.17"/>
<stop offset="0.5365" stop-color="#7BACDF" stop-opacity="0.303"/>
<stop offset="0.6772" stop-color="#7BACDF" stop-opacity="0.474"/>
<stop offset="0.8194" stop-color="#7BACDF" stop-opacity="0.683"/>
<stop offset="0.9602" stop-color="#7BACDF" stop-opacity="0.925"/>
<stop offset="1" stop-color="#7BACDF"/>
</linearGradient>
<linearGradient id="paint38_linear_3943_35404" x1="112.105" y1="27.9466" x2="108.074" y2="26.95" gradientUnits="userSpaceOnUse">
<stop stop-color="#7BACDF" stop-opacity="0"/>
<stop offset="0.1269" stop-color="#7BACDF" stop-opacity="0.019"/>
<stop offset="0.2606" stop-color="#7BACDF" stop-opacity="0.076"/>
<stop offset="0.3974" stop-color="#7BACDF" stop-opacity="0.17"/>
<stop offset="0.5365" stop-color="#7BACDF" stop-opacity="0.303"/>
<stop offset="0.6772" stop-color="#7BACDF" stop-opacity="0.474"/>
<stop offset="0.8194" stop-color="#7BACDF" stop-opacity="0.683"/>
<stop offset="0.9602" stop-color="#7BACDF" stop-opacity="0.925"/>
<stop offset="1" stop-color="#7BACDF"/>
</linearGradient>
<linearGradient id="paint39_linear_3943_35404" x1="109.066" y1="26.577" x2="109.066" y2="39.5838" gradientUnits="userSpaceOnUse">
<stop stop-color="#7BACDF" stop-opacity="0"/>
<stop offset="0.1269" stop-color="#7BACDF" stop-opacity="0.019"/>
<stop offset="0.2606" stop-color="#7BACDF" stop-opacity="0.076"/>
<stop offset="0.3974" stop-color="#7BACDF" stop-opacity="0.17"/>
<stop offset="0.5365" stop-color="#7BACDF" stop-opacity="0.303"/>
<stop offset="0.6772" stop-color="#7BACDF" stop-opacity="0.474"/>
<stop offset="0.8194" stop-color="#7BACDF" stop-opacity="0.683"/>
<stop offset="0.9602" stop-color="#7BACDF" stop-opacity="0.925"/>
<stop offset="1" stop-color="#7BACDF"/>
</linearGradient>
<linearGradient id="paint40_linear_3943_35404" x1="109.103" y1="17.3373" x2="109.103" y2="22.693" gradientUnits="userSpaceOnUse">
<stop stop-color="#AEFFD1"/>
<stop offset="0.1151" stop-color="#A8FBC6"/>
<stop offset="0.3152" stop-color="#98F1A9"/>
<stop offset="0.5764" stop-color="#7FE07B"/>
<stop offset="0.8853" stop-color="#5CCA3C"/>
<stop offset="1" stop-color="#4FC123"/>
</linearGradient>
<linearGradient id="paint41_linear_3943_35404" x1="110.793" y1="19.6592" x2="109.601" y2="20.2933" gradientUnits="userSpaceOnUse">
<stop stop-color="#47A920" stop-opacity="0"/>
<stop offset="0.1907" stop-color="#44A721" stop-opacity="0.03"/>
<stop offset="0.3698" stop-color="#3EA325" stop-opacity="0.123"/>
<stop offset="0.5442" stop-color="#339C2C" stop-opacity="0.277"/>
<stop offset="0.7158" stop-color="#249236" stop-opacity="0.494"/>
<stop offset="0.8837" stop-color="#118543" stop-opacity="0.77"/>
<stop offset="1" stop-color="#017B4E"/>
</linearGradient>
<linearGradient id="paint42_linear_3943_35404" x1="100.107" y1="24.0745" x2="103.851" y2="26.3089" gradientUnits="userSpaceOnUse">
<stop stop-color="#FEE45A"/>
<stop offset="1" stop-color="#FEA613"/>
</linearGradient>
<linearGradient id="paint43_linear_3943_35404" x1="113.658" y1="24.6349" x2="119.062" y2="24.6349" gradientUnits="userSpaceOnUse">
<stop stop-color="#FE0364"/>
<stop offset="0.2552" stop-color="#F3025F"/>
<stop offset="0.6968" stop-color="#D70152"/>
<stop offset="1" stop-color="#C00148"/>
</linearGradient>
<linearGradient id="paint44_linear_3943_35404" x1="108.347" y1="24.7643" x2="109.467" y2="24.7643" gradientUnits="userSpaceOnUse">
<stop stop-color="#E1D3CE"/>
<stop offset="1" stop-color="#9E9797"/>
</linearGradient>
<linearGradient id="paint45_linear_3943_35404" x1="108.918" y1="25.2532" x2="109.19" y2="23.502" gradientUnits="userSpaceOnUse">
<stop stop-color="#433F43" stop-opacity="0"/>
<stop offset="0.4114" stop-color="#373537" stop-opacity="0.269"/>
<stop offset="1" stop-color="#1A1A1A"/>
</linearGradient>
<linearGradient id="paint46_linear_3943_35404" x1="108.994" y1="26.034" x2="108.994" y2="28.5702" gradientUnits="userSpaceOnUse">
<stop stop-color="#433F43" stop-opacity="0"/>
<stop offset="0.4114" stop-color="#373537" stop-opacity="0.269"/>
<stop offset="1" stop-color="#1A1A1A"/>
</linearGradient>
<linearGradient id="paint47_linear_3943_35404" x1="107.994" y1="20.8285" x2="110.03" y2="22.865" gradientUnits="userSpaceOnUse">
<stop stop-color="#E1D3CE"/>
<stop offset="1" stop-color="#9E9797"/>
</linearGradient>
<linearGradient id="paint48_linear_3943_35404" x1="108.994" y1="22.0698" x2="108.994" y2="24.7059" gradientUnits="userSpaceOnUse">
<stop stop-color="#433F43" stop-opacity="0"/>
<stop offset="0.4114" stop-color="#373537" stop-opacity="0.269"/>
<stop offset="1" stop-color="#1A1A1A"/>
</linearGradient>
<linearGradient id="paint49_linear_3943_35404" x1="108.982" y1="21.5279" x2="111.011" y2="21.0473" gradientUnits="userSpaceOnUse">
<stop stop-color="#433F43" stop-opacity="0"/>
<stop offset="0.4114" stop-color="#373537" stop-opacity="0.269"/>
<stop offset="1" stop-color="#1A1A1A"/>
</linearGradient>
<linearGradient id="paint50_linear_3943_35404" x1="109.82" y1="22.865" x2="110.901" y2="23.9464" gradientUnits="userSpaceOnUse">
<stop stop-color="#E1D3CE" stop-opacity="0"/>
<stop offset="0.1071" stop-color="#E1D3CE" stop-opacity="0.024"/>
<stop offset="0.2405" stop-color="#E1D3CE" stop-opacity="0.092"/>
<stop offset="0.3878" stop-color="#E1D3CE" stop-opacity="0.205"/>
<stop offset="0.5452" stop-color="#E1D3CE" stop-opacity="0.362"/>
<stop offset="0.7107" stop-color="#E1D3CE" stop-opacity="0.565"/>
<stop offset="0.8803" stop-color="#E1D3CE" stop-opacity="0.808"/>
<stop offset="1" stop-color="#E1D3CE"/>
</linearGradient>
<linearGradient id="paint51_linear_3943_35404" x1="108.443" y1="27.322" x2="109.675" y2="28.554" gradientUnits="userSpaceOnUse">
<stop stop-color="#E1D3CE"/>
<stop offset="1" stop-color="#9E9797"/>
</linearGradient>
<linearGradient id="paint52_linear_3943_35404" x1="108.994" y1="28.4197" x2="108.994" y2="29.4604" gradientUnits="userSpaceOnUse">
<stop stop-color="#433F43" stop-opacity="0"/>
<stop offset="0.4114" stop-color="#373537" stop-opacity="0.269"/>
<stop offset="1" stop-color="#1A1A1A"/>
</linearGradient>
<linearGradient id="paint53_linear_3943_35404" x1="109.132" y1="27.9963" x2="110.355" y2="29.0832" gradientUnits="userSpaceOnUse">
<stop stop-color="#433F43" stop-opacity="0"/>
<stop offset="0.4114" stop-color="#373537" stop-opacity="0.269"/>
<stop offset="1" stop-color="#1A1A1A"/>
</linearGradient>
<linearGradient id="paint54_linear_3943_35404" x1="66.5679" y1="71.4058" x2="71.009" y2="71.4058" gradientUnits="userSpaceOnUse">
<stop stop-color="#0182FC" stop-opacity="0"/>
<stop offset="0.2315" stop-color="#0180F7" stop-opacity="0.032"/>
<stop offset="0.4221" stop-color="#017AE8" stop-opacity="0.131"/>
<stop offset="0.5982" stop-color="#0171CF" stop-opacity="0.298"/>
<stop offset="0.7656" stop-color="#0165AC" stop-opacity="0.533"/>
<stop offset="0.9253" stop-color="#01557F" stop-opacity="0.833"/>
<stop offset="1" stop-color="#024C67"/>
</linearGradient>
<linearGradient id="paint55_linear_3943_35404" x1="66.8122" y1="71.7392" x2="65.5899" y2="75.7318" gradientUnits="userSpaceOnUse">
<stop stop-color="#0182FC" stop-opacity="0"/>
<stop offset="0.2315" stop-color="#0180F7" stop-opacity="0.032"/>
<stop offset="0.4221" stop-color="#017AE8" stop-opacity="0.131"/>
<stop offset="0.5982" stop-color="#0171CF" stop-opacity="0.298"/>
<stop offset="0.7656" stop-color="#0165AC" stop-opacity="0.533"/>
<stop offset="0.9253" stop-color="#01557F" stop-opacity="0.833"/>
<stop offset="1" stop-color="#024C67"/>
</linearGradient>
<linearGradient id="paint56_linear_3943_35404" x1="90.6308" y1="68.3621" x2="88.0553" y2="72.2002" gradientUnits="userSpaceOnUse">
<stop stop-color="#0182FC" stop-opacity="0"/>
<stop offset="0.2315" stop-color="#0180F7" stop-opacity="0.032"/>
<stop offset="0.4221" stop-color="#017AE8" stop-opacity="0.131"/>
<stop offset="0.5982" stop-color="#0171CF" stop-opacity="0.298"/>
<stop offset="0.7656" stop-color="#0165AC" stop-opacity="0.533"/>
<stop offset="0.9253" stop-color="#01557F" stop-opacity="0.833"/>
<stop offset="1" stop-color="#024C67"/>
</linearGradient>
<linearGradient id="paint57_linear_3943_35404" x1="93.289" y1="71.3782" x2="93.289" y2="76.725" gradientUnits="userSpaceOnUse">
<stop stop-color="#0182FC" stop-opacity="0"/>
<stop offset="0.2315" stop-color="#0180F7" stop-opacity="0.032"/>
<stop offset="0.4221" stop-color="#017AE8" stop-opacity="0.131"/>
<stop offset="0.5982" stop-color="#0171CF" stop-opacity="0.298"/>
<stop offset="0.7656" stop-color="#0165AC" stop-opacity="0.533"/>
<stop offset="0.9253" stop-color="#01557F" stop-opacity="0.833"/>
<stop offset="1" stop-color="#024C67"/>
</linearGradient>
<linearGradient id="paint58_linear_3943_35404" x1="102.391" y1="71.0472" x2="105.406" y2="74.5509" gradientUnits="userSpaceOnUse">
<stop stop-color="#0182FC" stop-opacity="0"/>
<stop offset="0.2315" stop-color="#0180F7" stop-opacity="0.032"/>
<stop offset="0.4221" stop-color="#017AE8" stop-opacity="0.131"/>
<stop offset="0.5982" stop-color="#0171CF" stop-opacity="0.298"/>
<stop offset="0.7656" stop-color="#0165AC" stop-opacity="0.533"/>
<stop offset="0.9253" stop-color="#01557F" stop-opacity="0.833"/>
<stop offset="1" stop-color="#024C67"/>
</linearGradient>
<clipPath id="clip0_3943_35404">
<rect x="8" y="4" width="155" height="155" rx="20" fill="white"/>
</clipPath>
<clipPath id="clip1_3943_35404">
<rect width="83.4375" height="83.4375" fill="white" transform="translate(52.0312)"/>
</clipPath>
</defs>
</svg>
