<svg width="346" height="141" viewBox="0 0 346 141" fill="none" xmlns="http://www.w3.org/2000/svg">
<g filter="url(#filter0_d_3916_35860)">
<g clip-path="url(#clip0_3916_35860)">
<rect x="8" y="4" width="330" height="125" rx="20" fill="url(#paint0_linear_3916_35860)"/>
<path d="M48.1 71.9C48.74 71.9 49.26 72.1 49.66 72.5C50.0733 72.9 50.28 73.4133 50.28 74.04C50.28 74.68 50.06 75.2 49.62 75.6C49.18 76 48.6133 76.2 47.92 76.2C47.1867 76.2 46.5867 75.9867 46.12 75.56C45.6667 75.12 45.44 74.5533 45.44 73.86V64.48H48V71.9H48.1ZM48.1 74.94C48.3667 74.94 48.58 74.86 48.74 74.7C48.9133 74.5267 49 74.3067 49 74.04C49 73.7733 48.9133 73.56 48.74 73.4C48.58 73.2267 48.3667 73.14 48.1 73.14C47.8467 73.14 47.6333 73.2267 47.46 73.4C47.2867 73.56 47.2 73.7733 47.2 74.04C47.2 74.2933 47.2867 74.5067 47.46 74.68C47.6333 74.8533 47.8467 74.94 48.1 74.94ZM53.9 71.9C54.54 71.9 55.06 72.1 55.46 72.5C55.8733 72.9 56.08 73.4133 56.08 74.04C56.08 74.68 55.86 75.2 55.42 75.6C54.98 76 54.4133 76.2 53.72 76.2C52.9867 76.2 52.3867 75.9867 51.92 75.56C51.4667 75.12 51.24 74.5533 51.24 73.86V64.48H53.8V71.9H53.9ZM53.9 74.94C54.1667 74.94 54.38 74.86 54.54 74.7C54.7133 74.5267 54.8 74.3067 54.8 74.04C54.8 73.7733 54.7133 73.56 54.54 73.4C54.38 73.2267 54.1667 73.14 53.9 73.14C53.6467 73.14 53.4333 73.2267 53.26 73.4C53.0867 73.56 53 73.7733 53 74.04C53 74.2933 53.0867 74.5067 53.26 74.68C53.4333 74.8533 53.6467 74.94 53.9 74.94ZM63.3442 76.2C62.5309 76.2 61.8776 76.04 61.3842 75.72C60.8909 75.4 60.5842 74.9267 60.4642 74.3L60.1842 72.72C60.0509 72.7467 59.9309 72.76 59.8242 72.76C59.1709 72.76 58.6376 72.5733 58.2242 72.2C57.8109 71.8133 57.6042 71.32 57.6042 70.72C57.6042 70.0933 57.8176 69.6 58.2442 69.24C58.6842 68.88 59.2176 68.7 59.8442 68.7C60.3642 68.7 60.8176 68.84 61.2042 69.12C61.6042 69.4 61.8509 69.78 61.9442 70.26L62.5842 73.7C62.6109 73.8733 62.6842 74.0067 62.8042 74.1C62.9376 74.1933 63.0976 74.24 63.2842 74.24C63.7109 74.24 63.9242 74.04 63.9242 73.64V67.9C63.9242 67.4067 63.7176 67.0133 63.3042 66.72C62.9042 66.4267 62.3709 66.28 61.7042 66.28C61.0509 66.28 60.4976 66.4267 60.0442 66.72C59.5909 67.0133 59.3176 67.3933 59.2242 67.86H56.7042C56.7842 66.78 57.2709 65.9133 58.1642 65.26C59.0709 64.6067 60.2709 64.28 61.7642 64.28C62.6976 64.28 63.5176 64.42 64.2242 64.7C64.9442 64.9667 65.4976 65.3533 65.8842 65.86C66.2842 66.3667 66.4842 66.9467 66.4842 67.6V73.7C66.4842 74.5133 66.2176 75.1333 65.6842 75.56C65.1509 75.9867 64.3709 76.2 63.3442 76.2ZM59.7242 71.54C59.9776 71.54 60.1776 71.4667 60.3242 71.32C60.4842 71.16 60.5642 70.9533 60.5642 70.7C60.5642 70.4467 60.4842 70.2467 60.3242 70.1C60.1776 69.94 59.9776 69.86 59.7242 69.86C59.4709 69.86 59.2642 69.94 59.1042 70.1C58.9442 70.2467 58.8642 70.4467 58.8642 70.7C58.8642 70.9533 58.9442 71.16 59.1042 71.32C59.2642 71.4667 59.4709 71.54 59.7242 71.54ZM68.2747 56.82C68.1947 57.9133 67.8414 58.88 67.2147 59.72C66.5747 60.5467 65.7347 61.1867 64.6947 61.64C63.6414 62.0933 62.4747 62.32 61.1947 62.32H60.1947V61.26C60.888 60.98 61.4814 60.6133 61.9747 60.16H61.9147C61.368 60.16 60.9347 60 60.6147 59.68C60.2814 59.36 60.1147 58.92 60.1147 58.36C60.1147 57.84 60.3014 57.4133 60.6747 57.08C61.0347 56.7467 61.4947 56.58 62.0547 56.58C62.628 56.58 63.0947 56.76 63.4547 57.12C63.8147 57.4667 63.9947 57.9333 63.9947 58.52C63.9947 58.8533 63.9347 59.2133 63.8147 59.6C63.6814 59.9867 63.4747 60.3333 63.1947 60.64C63.7547 60.4933 64.2614 60.2133 64.7147 59.8C65.1547 59.3867 65.5014 58.9133 65.7547 58.38C66.008 57.8467 66.1547 57.3267 66.1947 56.82H68.2747ZM61.3347 58.4C61.3347 58.6133 61.4014 58.7867 61.5347 58.92C61.668 59.04 61.8414 59.1 62.0547 59.1C62.2547 59.1 62.4214 59.04 62.5547 58.92C62.688 58.7867 62.7547 58.6133 62.7547 58.4C62.7547 58.1867 62.688 58.0133 62.5547 57.88C62.4214 57.7467 62.2547 57.68 62.0547 57.68C61.8414 57.68 61.668 57.7467 61.5347 57.88C61.4014 58.0133 61.3347 58.1867 61.3347 58.4ZM73.63 64.28C74.3633 64.28 74.9567 64.5 75.41 64.94C75.8767 65.3667 76.11 65.92 76.11 66.6V76H73.57L68.01 70.1L69.39 68.66L73.57 73.16V68.58H73.47C72.8167 68.58 72.2833 68.3867 71.87 68C71.47 67.6 71.27 67.08 71.27 66.44C71.27 65.8133 71.49 65.3 71.93 64.9C72.37 64.4867 72.9367 64.28 73.63 64.28ZM73.45 67.34C73.7167 67.34 73.93 67.26 74.09 67.1C74.2633 66.9267 74.35 66.7067 74.35 66.44C74.35 66.1733 74.2633 65.96 74.09 65.8C73.93 65.6267 73.7167 65.54 73.45 65.54C73.1967 65.54 72.9833 65.6267 72.81 65.8C72.6367 65.96 72.55 66.1733 72.55 66.44C72.55 66.6933 72.6367 66.9067 72.81 67.08C72.9833 67.2533 73.1967 67.34 73.45 67.34ZM78.7184 71.36C78.7184 70.88 78.8384 70.4467 79.0784 70.06C79.3318 69.6733 79.6784 69.38 80.1184 69.18C79.6918 69.06 79.0051 68.94 78.0584 68.82C78.0718 67.9267 78.2984 67.14 78.7384 66.46C79.1784 65.7667 79.7918 65.2333 80.5784 64.86C81.3651 64.4733 82.2651 64.28 83.2784 64.28C84.2251 64.28 85.0584 64.4533 85.7784 64.8C86.5118 65.1467 87.0784 65.6333 87.4784 66.26C87.8784 66.8733 88.0784 67.5867 88.0784 68.4V76H85.5184V68.68C85.5184 67.9733 85.2918 67.4 84.8384 66.96C84.3984 66.5067 83.8118 66.28 83.0784 66.28C82.4651 66.28 81.9051 66.4133 81.3984 66.68C80.9051 66.9467 80.5718 67.2933 80.3984 67.72C80.8384 67.8133 81.2651 67.9333 81.6784 68.08C82.1051 68.2267 82.4518 68.3867 82.7184 68.56V69.28C82.2518 69.4533 81.8918 69.7067 81.6384 70.04C81.3984 70.3733 81.2784 70.7733 81.2784 71.24V76H78.7184V71.36ZM86.5762 62.82C85.8029 62.82 85.1762 62.5933 84.6962 62.14C84.2162 61.6733 83.9762 61.0733 83.9762 60.34C83.9762 59.6067 84.2162 59.0133 84.6962 58.56C85.1762 58.0933 85.8029 57.86 86.5762 57.86C87.3496 57.86 87.9829 58.0933 88.4762 58.56C88.9562 59.0133 89.1963 59.6067 89.1963 60.34C89.1963 61.0733 88.9562 61.6733 88.4762 62.14C87.9829 62.5933 87.3496 62.82 86.5762 62.82ZM86.5762 61.48C86.9096 61.48 87.1829 61.3733 87.3962 61.16C87.6096 60.9467 87.7162 60.6733 87.7162 60.34C87.7162 60.0067 87.6096 59.74 87.3962 59.54C87.1829 59.3267 86.9096 59.22 86.5762 59.22C86.2429 59.22 85.9762 59.3267 85.7762 59.54C85.5629 59.74 85.4562 60.0067 85.4562 60.34C85.4562 60.6733 85.5629 60.9467 85.7762 61.16C85.9762 61.3733 86.2429 61.48 86.5762 61.48ZM95.712 67.84C95.712 67.3467 95.5587 66.9667 95.252 66.7C94.9454 66.42 94.5254 66.28 93.992 66.28C93.392 66.28 92.9254 66.4533 92.592 66.8C92.2587 67.1333 92.092 67.6 92.092 68.2H89.632C89.632 66.9733 90.0187 66.0133 90.792 65.32C91.5654 64.6267 92.632 64.28 93.992 64.28C95.3254 64.28 96.3654 64.58 97.112 65.18C97.872 65.78 98.252 66.6133 98.252 67.68V76H95.712V67.84ZM105.267 64.28C106.267 64.28 107.141 64.4267 107.887 64.72C108.647 65.0133 109.234 65.4333 109.647 65.98C110.061 66.5133 110.267 67.1333 110.267 67.84V76H107.707V71.6C107.707 71.1067 107.487 70.7133 107.047 70.42C106.621 70.1267 106.094 69.98 105.467 69.98C104.827 69.98 104.314 70.12 103.927 70.4C103.554 70.6667 103.367 71.0267 103.367 71.48V71.9H103.467C104.107 71.9 104.627 72.1 105.027 72.5C105.441 72.8867 105.647 73.4 105.647 74.04C105.647 74.6667 105.427 75.1867 104.987 75.6C104.547 76 103.981 76.2 103.287 76.2C102.554 76.2 101.954 75.9867 101.487 75.56C101.034 75.12 100.807 74.5533 100.807 73.86V71.5C100.807 70.8333 100.994 70.2467 101.367 69.74C101.741 69.2333 102.254 68.8467 102.907 68.58C103.561 68.3 104.287 68.16 105.087 68.16C105.621 68.16 106.114 68.24 106.567 68.4C107.021 68.5467 107.401 68.76 107.707 69.04V67.78C107.707 67.3267 107.487 66.9667 107.047 66.7C106.607 66.42 106.014 66.28 105.267 66.28C104.534 66.28 103.921 66.4267 103.427 66.72C102.947 67 102.661 67.38 102.567 67.86H100.087C100.154 66.7667 100.641 65.9 101.547 65.26C102.467 64.6067 103.707 64.28 105.267 64.28ZM104.367 74.04C104.367 73.7733 104.281 73.56 104.107 73.4C103.947 73.2267 103.734 73.14 103.467 73.14C103.214 73.14 103.001 73.2267 102.827 73.4C102.654 73.56 102.567 73.7733 102.567 74.04C102.567 74.2933 102.654 74.5067 102.827 74.68C103.001 74.8533 103.214 74.94 103.467 74.94C103.734 74.94 103.947 74.86 104.107 74.7C104.281 74.5267 104.367 74.3067 104.367 74.04ZM113.004 57.46C113.004 58.5133 112.757 59.42 112.264 60.18C111.784 60.94 111.13 61.52 110.304 61.92C109.464 62.32 108.524 62.52 107.484 62.52C106.177 62.52 105.157 62.2667 104.424 61.76C103.69 61.2533 103.324 60.58 103.324 59.74C103.324 59.1133 103.53 58.6133 103.944 58.24C104.344 57.8667 104.864 57.68 105.504 57.68C106.144 57.68 106.67 57.8733 107.084 58.26C107.497 58.6333 107.704 59.1333 107.704 59.76C107.704 60.2533 107.577 60.68 107.324 61.04C108.484 61.04 109.377 60.7 110.004 60.02C110.617 59.3267 110.93 58.4733 110.944 57.46H113.004ZM104.604 59.72C104.604 59.9867 104.69 60.2067 104.864 60.38C105.024 60.54 105.237 60.62 105.504 60.62C105.757 60.62 105.97 60.5333 106.144 60.36C106.317 60.1867 106.404 59.9733 106.404 59.72C106.404 59.4667 106.324 59.26 106.164 59.1C105.99 58.94 105.77 58.86 105.504 58.86C105.237 58.86 105.024 58.94 104.864 59.1C104.69 59.26 104.604 59.4667 104.604 59.72ZM117.4 64.28C118.133 64.28 118.726 64.5 119.18 64.94C119.646 65.3667 119.88 65.92 119.88 66.6V76H117.34L111.78 70.1L113.16 68.66L117.34 73.16V68.58H117.24C116.586 68.58 116.053 68.3867 115.64 68C115.24 67.6 115.04 67.08 115.04 66.44C115.04 65.8133 115.26 65.3 115.7 64.9C116.14 64.4867 116.706 64.28 117.4 64.28ZM117.22 67.34C117.486 67.34 117.7 67.26 117.86 67.1C118.033 66.9267 118.12 66.7067 118.12 66.44C118.12 66.1733 118.033 65.96 117.86 65.8C117.7 65.6267 117.486 65.54 117.22 65.54C116.966 65.54 116.753 65.6267 116.58 65.8C116.406 65.96 116.32 66.1733 116.32 66.44C116.32 66.6933 116.406 66.9067 116.58 67.08C116.753 67.2533 116.966 67.34 117.22 67.34ZM125.468 66.28C125.175 66.28 124.915 66.36 124.688 66.52C124.475 66.68 124.361 66.8867 124.348 67.14C125.975 67.2867 127.268 67.6 128.228 68.08C129.188 68.5467 129.668 69.12 129.668 69.8V73.86C129.668 74.5533 129.435 75.12 128.968 75.56C128.515 75.9867 127.921 76.2 127.188 76.2C126.495 76.2 125.928 76 125.488 75.6C125.048 75.1867 124.828 74.6667 124.828 74.04C124.828 73.4 125.028 72.8867 125.428 72.5C125.828 72.1 126.355 71.9 127.008 71.9H127.108V70.22C127.108 69.8333 126.535 69.5 125.388 69.22C124.255 68.9267 123.008 68.7467 121.648 68.68C121.661 67.2933 121.968 66.2133 122.568 65.44C123.168 64.6667 123.981 64.28 125.008 64.28C125.368 64.28 125.681 64.3133 125.948 64.38C126.228 64.4333 126.528 64.5133 126.848 64.62C127.035 64.6867 127.221 64.7467 127.408 64.8C127.608 64.84 127.788 64.86 127.948 64.86C128.161 64.86 128.348 64.8 128.508 64.68C128.668 64.5467 128.781 64.38 128.848 64.18L130.608 64.72C130.435 65.4133 130.148 65.9533 129.748 66.34C129.361 66.7267 128.915 66.92 128.408 66.92C128.181 66.92 127.968 66.8933 127.768 66.84C127.568 66.7867 127.301 66.7067 126.968 66.6C126.328 66.3867 125.828 66.28 125.468 66.28ZM126.988 74.94C127.255 74.94 127.468 74.86 127.628 74.7C127.801 74.5267 127.888 74.3067 127.888 74.04C127.888 73.7733 127.801 73.56 127.628 73.4C127.468 73.2267 127.255 73.14 126.988 73.14C126.735 73.14 126.521 73.2267 126.348 73.4C126.188 73.56 126.108 73.7733 126.108 74.04C126.108 74.3067 126.188 74.5267 126.348 74.7C126.521 74.86 126.735 74.94 126.988 74.94ZM137.009 64.28C137.956 64.28 138.796 64.4533 139.529 64.8C140.262 65.1467 140.829 65.6333 141.229 66.26C141.629 66.8733 141.829 67.5867 141.829 68.4V76H139.269V68.68C139.269 67.9733 139.042 67.4 138.589 66.96C138.149 66.5067 137.562 66.28 136.829 66.28C136.202 66.28 135.636 66.4133 135.129 66.68C134.636 66.9467 134.302 67.2933 134.129 67.72C134.569 67.8133 134.996 67.9333 135.409 68.08C135.836 68.2267 136.182 68.3867 136.449 68.56V69.28C135.982 69.4533 135.622 69.7067 135.369 70.04C135.129 70.3733 135.009 70.7733 135.009 71.24V71.9H135.109C135.749 71.9 136.269 72.1 136.669 72.5C137.082 72.9 137.289 73.4133 137.289 74.04C137.289 74.68 137.069 75.2 136.629 75.6C136.189 76 135.622 76.2 134.929 76.2C134.196 76.2 133.596 75.9867 133.129 75.56C132.676 75.12 132.449 74.5533 132.449 73.86V71.36C132.449 70.88 132.569 70.4467 132.809 70.06C133.062 69.6733 133.409 69.38 133.849 69.18C133.422 69.06 132.736 68.94 131.789 68.82C131.802 67.9267 132.029 67.14 132.469 66.46C132.909 65.7667 133.522 65.2333 134.309 64.86C135.096 64.4733 135.996 64.28 137.009 64.28ZM135.109 73.16C134.842 73.16 134.622 73.2467 134.449 73.42C134.289 73.58 134.209 73.7867 134.209 74.04C134.209 74.3067 134.289 74.5267 134.449 74.7C134.622 74.86 134.842 74.94 135.109 74.94C135.376 74.94 135.589 74.86 135.749 74.7C135.922 74.5267 136.009 74.3067 136.009 74.04C136.009 73.7867 135.922 73.58 135.749 73.42C135.589 73.2467 135.376 73.16 135.109 73.16Z" fill="white"/>
<path d="M192.748 32.2363H184.716C183.968 32.2363 183.594 31.5782 184.123 31.1927L228.82 -1.36474C230.062 -2.2693 231.746 -2.77734 233.502 -2.77734H241.534C242.282 -2.77734 242.656 -2.11785 242.127 -1.73234L197.43 30.8251C196.188 31.7297 194.504 32.2377 192.748 32.2377V32.2363Z" fill="url(#paint1_linear_3916_35860)"/>
<path d="M167.688 38.262H163.671C163.296 38.262 163.109 37.9318 163.374 37.7383L226.596 -8.46885C227.216 -8.92209 228.059 -9.17773 228.937 -9.17773H232.954C233.329 -9.17773 233.516 -8.84748 233.251 -8.65402L170.029 37.5531C169.409 38.0064 168.566 38.262 167.688 38.262Z" fill="url(#paint2_linear_3916_35860)"/>
<path d="M-4.75 101.517H91.8566C98.6526 101.517 102.056 109.475 97.2506 114.13L36.4266 173.051H-0.15544L-4.75 101.515V101.517Z" fill="url(#paint3_linear_3916_35860)"/>
<path style="mix-blend-mode:overlay" d="M67.06 111.117L72.2725 106.157C72.7582 105.694 72.4147 104.904 71.7278 104.904H61.6116C60.0002 104.904 58.4546 105.513 57.315 106.597L52.1025 111.558C51.6168 112.02 51.9603 112.81 52.6472 112.81H62.7634C64.3748 112.81 65.9204 112.201 67.06 111.117Z" fill="url(#paint4_linear_3916_35860)"/>
<path style="mix-blend-mode:overlay" d="M47.9564 120.529L53.1484 115.569C53.6322 115.107 53.2901 114.316 52.6059 114.316H-5.17665C-6.78177 114.316 -8.32123 114.925 -9.45639 116.01L-14.6484 120.97C-15.1322 121.432 -14.7901 122.223 -14.1059 122.223H43.6749C45.28 122.223 46.8195 121.614 47.9547 120.529H47.9564Z" fill="url(#paint5_linear_3916_35860)"/>
<path style="mix-blend-mode:overlay" d="M77.5813 116.388L82.7734 111.428C83.2572 110.965 82.9151 110.175 82.2309 110.175H24.4486C22.8434 110.175 21.3039 110.784 20.1687 111.868L14.9766 116.829C14.4928 117.291 14.8349 118.081 15.5191 118.081H73.3014C74.9066 118.081 76.4461 117.472 77.5813 116.388Z" fill="url(#paint6_linear_3916_35860)"/>
<g style="mix-blend-mode:screen" opacity="0.5">
<path d="M242.298 -27.7544L141.565 33.0127C135.993 36.3735 128.436 38.262 120.556 38.262H-8.125V-40.4277H251C251 -35.675 247.869 -31.1162 242.298 -27.7544Z" fill="url(#paint7_linear_3916_35860)"/>
</g>
<g style="mix-blend-mode:screen" opacity="0.5">
<path d="M1.25 -35.5332V32.6144H62.7586C70.6453 32.6144 78.21 30.709 83.7886 27.3183L184.621 -33.9888C185.427 -34.4788 186.173 -34.9962 186.875 -35.5332H1.25Z" fill="url(#paint8_linear_3916_35860)"/>
</g>
<ellipse cx="247.181" cy="96.9821" rx="58.181" ry="3.985" fill="#063063"/>
<g clip-path="url(#clip1_3916_35860)">
<path d="M288.324 86.9427H236.84V47.8125C236.84 45.8814 238.396 44.3159 240.316 44.3159H288.324C289.543 44.3159 290.531 45.3099 290.531 46.536V84.7227C290.531 85.9487 289.543 86.9427 288.324 86.9427Z" fill="url(#paint9_linear_3916_35860)"/>
<path d="M290.531 54.3286V84.7224C290.531 85.9488 289.543 86.9428 288.324 86.9428H236.84V54.3286H290.531Z" fill="url(#paint10_linear_3916_35860)"/>
<path d="M290.531 63.7705V84.7225C290.531 85.9489 289.543 86.9429 288.324 86.9429H236.84V63.7705H290.531Z" fill="url(#paint11_linear_3916_35860)"/>
<path d="M288.324 86.943H236.84V73.2124H290.531V84.7226C290.531 85.9489 289.543 86.943 288.324 86.943Z" fill="url(#paint12_linear_3916_35860)"/>
<path d="M288.324 44.3159H275.361V86.9427H288.324C289.543 86.9427 290.531 85.9487 290.531 84.7227V46.536C290.531 45.3099 289.543 44.3159 288.324 44.3159Z" fill="url(#paint13_linear_3916_35860)"/>
<path d="M236.84 49.875V86.9428H273.687L236.84 49.875Z" fill="url(#paint14_linear_3916_35860)"/>
<path d="M237.482 82.2754V86.9427H288.325C289.543 86.9427 290.531 85.9487 290.531 84.7227V82.2754H237.482Z" fill="url(#paint15_linear_3916_35860)"/>
<path d="M233.771 48.2568H224.265C220.359 48.2568 216.731 50.2917 214.677 53.6345L210.105 61.0777C209.294 62.3983 208.761 63.8654 208.532 65.3886C208.358 66.5494 207.775 67.6082 206.865 68.343C205.782 69.217 205.152 70.5376 205.152 71.9339V83.6154C205.152 85.4528 206.633 86.9424 208.46 86.9424H212.115H216.506H237.481V51.9893C237.481 49.928 235.82 48.2568 233.771 48.2568Z" fill="url(#paint16_linear_3916_35860)"/>
<path d="M233.772 48.2568H228.539V86.9424H237.482V51.9891C237.482 49.9277 235.82 48.2568 233.772 48.2568Z" fill="url(#paint17_linear_3916_35860)"/>
<path d="M205.154 74.4897V83.6157C205.154 85.4531 206.635 86.9427 208.461 86.9427H212.116H216.507H237.483V74.4897H205.154Z" fill="url(#paint18_linear_3916_35860)"/>
<path d="M227.023 66.3343C229 66.3343 230.603 64.7219 230.603 62.7329V55.263C230.603 53.274 229 51.6616 227.023 51.6616H222.722C220.687 51.6616 218.797 52.7216 217.727 54.4631L213.664 61.0781C213.02 62.1255 212.552 63.2655 212.272 64.4524C212.046 65.4125 212.77 66.3345 213.75 66.3345H227.023V66.3343Z" fill="url(#paint19_linear_3916_35860)"/>
<path d="M228.214 73.2834H223.162C222.405 73.2834 221.791 72.6658 221.791 71.9037V70.3729C221.791 69.611 222.405 68.9932 223.162 68.9932H228.214C228.972 68.9932 229.586 69.6108 229.586 70.3729V71.9037C229.586 72.6658 228.972 73.2834 228.214 73.2834Z" fill="url(#paint20_linear_3916_35860)"/>
<path d="M228.539 71.1381C228.539 70.3717 227.922 69.7505 227.16 69.7505H224.217C223.456 69.7505 222.838 70.3717 222.838 71.1381C222.838 71.9046 223.455 72.5258 224.217 72.5258H227.16C227.922 72.5258 228.539 71.9044 228.539 71.1381Z" fill="url(#paint21_linear_3916_35860)"/>
<path d="M206.958 88.1368H208.662C209.487 88.1368 210.156 87.464 210.156 86.634V80.181C210.156 79.351 209.487 78.6782 208.662 78.6782H206.958C205.774 78.6782 204.814 79.6435 204.814 80.8342V85.9807C204.814 87.1715 205.774 88.1368 206.958 88.1368Z" fill="url(#paint22_linear_3916_35860)"/>
<path d="M212.385 68.9934C213.404 68.9934 214.231 68.1619 214.231 67.1359V63.4073C214.231 62.3815 213.405 61.5498 212.385 61.5498C211.083 61.5498 210.027 62.6116 210.027 63.9213V66.6217C210.027 67.9316 211.083 68.9934 212.385 68.9934Z" fill="url(#paint23_linear_3916_35860)"/>
<path d="M223.769 97.4293C228.916 97.4293 233.088 93.2317 233.088 88.0538C233.088 82.8758 228.916 78.6782 223.769 78.6782C218.622 78.6782 214.449 82.8758 214.449 88.0538C214.449 93.2317 218.622 97.4293 223.769 97.4293Z" fill="url(#paint24_linear_3916_35860)"/>
<path d="M223.769 94.6416C227.386 94.6416 230.318 91.6921 230.318 88.0537C230.318 84.4153 227.386 81.4658 223.769 81.4658C220.153 81.4658 217.221 84.4153 217.221 88.0537C217.221 91.6921 220.153 94.6416 223.769 94.6416Z" fill="url(#paint25_linear_3916_35860)"/>
<path d="M223.77 91.9917C225.931 91.9917 227.684 90.2287 227.684 88.0539C227.684 85.8792 225.931 84.1162 223.77 84.1162C221.608 84.1162 219.855 85.8792 219.855 88.0539C219.855 90.2287 221.608 91.9917 223.77 91.9917Z" fill="url(#paint26_linear_3916_35860)"/>
<path d="M279.236 97.4293C284.383 97.4293 288.555 93.2317 288.555 88.0538C288.555 82.8758 284.383 78.6782 279.236 78.6782C274.089 78.6782 269.916 82.8758 269.916 88.0538C269.916 93.2317 274.089 97.4293 279.236 97.4293Z" fill="url(#paint27_linear_3916_35860)"/>
<path d="M279.236 94.6416C282.853 94.6416 285.785 91.6921 285.785 88.0537C285.785 84.4153 282.853 81.4658 279.236 81.4658C275.619 81.4658 272.688 84.4153 272.688 88.0537C272.688 91.6921 275.619 94.6416 279.236 94.6416Z" fill="url(#paint28_linear_3916_35860)"/>
<path d="M279.237 91.9917C281.398 91.9917 283.151 90.2287 283.151 88.0539C283.151 85.8792 281.398 84.1162 279.237 84.1162C277.075 84.1162 275.322 85.8792 275.322 88.0539C275.322 90.2287 277.075 91.9917 279.237 91.9917Z" fill="url(#paint29_linear_3916_35860)"/>
<path d="M289.341 57.0151H275.35V60.7616L290.408 78.8537V58.2971C290.408 57.5891 289.93 57.0151 289.341 57.0151Z" fill="url(#paint30_linear_3916_35860)"/>
<path d="M286.495 65.309C295.638 65.309 303.05 57.8525 303.05 48.6545C303.05 39.4565 295.638 32 286.495 32C277.351 32 269.939 39.4565 269.939 48.6545C269.939 57.8525 277.351 65.309 286.495 65.309Z" fill="url(#paint31_linear_3916_35860)"/>
<path d="M269.939 48.6547C269.939 57.8527 277.351 65.3092 286.495 65.3092C295.638 65.3092 303.05 57.8527 303.05 48.6547C303.05 48.2942 303.037 47.9368 303.015 47.582H269.975C269.952 47.9368 269.939 48.2942 269.939 48.6547Z" fill="url(#paint32_linear_3916_35860)"/>
<path d="M277.721 51.6979L290.705 64.7596C293.451 64.0359 296.049 62.596 298.201 60.4307C300.351 58.2682 301.781 55.6581 302.501 52.8994L289.514 39.834L277.721 51.6979Z" fill="url(#paint33_linear_3916_35860)"/>
<path d="M294.559 45.3159H289.813V40.5409C289.813 39.8763 289.277 39.3374 288.616 39.3374H284.372C283.711 39.3374 283.175 39.8763 283.175 40.5409V45.3159H278.429C277.768 45.3159 277.232 45.8548 277.232 46.5195V50.7898C277.232 51.4544 277.768 51.9933 278.429 51.9933H283.175V56.7683C283.175 57.433 283.711 57.9718 284.372 57.9718H288.616C289.277 57.9718 289.813 57.433 289.813 56.7683V51.9933H294.559C295.22 51.9933 295.756 51.4544 295.756 50.7898V46.5195C295.756 45.8548 295.22 45.3159 294.559 45.3159Z" fill="url(#paint34_linear_3916_35860)"/>
<path d="M277.232 46.5198V50.7901C277.232 51.4547 277.768 51.9936 278.429 51.9936H283.175V45.3164H278.429C277.768 45.3162 277.232 45.8551 277.232 46.5198Z" fill="url(#paint35_linear_3916_35860)"/>
<path d="M294.559 45.3159H289.812V51.9931H294.559C295.22 51.9931 295.755 51.4542 295.755 50.7896V46.5193C295.755 45.8548 295.22 45.3159 294.559 45.3159Z" fill="url(#paint36_linear_3916_35860)"/>
<path d="M294.559 45.3159H289.812V51.9931H294.559C295.22 51.9931 295.755 51.4542 295.755 50.7896V46.5193C295.755 45.8548 295.22 45.3159 294.559 45.3159Z" fill="url(#paint37_linear_3916_35860)"/>
<path d="M284.372 57.9717H288.617C289.277 57.9717 289.813 57.4328 289.813 56.7682V51.9932H283.176V56.7682C283.176 57.4328 283.711 57.9717 284.372 57.9717Z" fill="url(#paint38_linear_3916_35860)"/>
</g>
</g>
</g>
<defs>
<filter id="filter0_d_3916_35860" x="0" y="0" width="346" height="141" filterUnits="userSpaceOnUse" color-interpolation-filters="sRGB">
<feFlood flood-opacity="0" result="BackgroundImageFix"/>
<feColorMatrix in="SourceAlpha" type="matrix" values="0 0 0 0 0 0 0 0 0 0 0 0 0 0 0 0 0 0 127 0" result="hardAlpha"/>
<feOffset dy="4"/>
<feGaussianBlur stdDeviation="4"/>
<feComposite in2="hardAlpha" operator="out"/>
<feColorMatrix type="matrix" values="0 0 0 0 0 0 0 0 0 0 0 0 0 0 0 0 0 0 0.15 0"/>
<feBlend mode="normal" in2="BackgroundImageFix" result="effect1_dropShadow_3916_35860"/>
<feBlend mode="normal" in="SourceGraphic" in2="effect1_dropShadow_3916_35860" result="shape"/>
</filter>
<linearGradient id="paint0_linear_3916_35860" x1="8" y1="66.5716" x2="338" y2="66.5716" gradientUnits="userSpaceOnUse">
<stop offset="0.0762668" stop-color="#062143"/>
<stop offset="1" stop-color="#194F91"/>
</linearGradient>
<linearGradient id="paint1_linear_3916_35860" x1="221.414" y1="20.759" x2="205.246" y2="-1.43745" gradientUnits="userSpaceOnUse">
<stop offset="0.08" stop-color="#720000"/>
<stop offset="1" stop-color="#EC1C24"/>
</linearGradient>
<linearGradient id="paint2_linear_3916_35860" x1="202.462" y1="17.5674" x2="194.34" y2="6.45485" gradientUnits="userSpaceOnUse">
<stop offset="0.08" stop-color="#720000"/>
<stop offset="1" stop-color="#EC1C24"/>
</linearGradient>
<linearGradient id="paint3_linear_3916_35860" x1="47.3752" y1="187.887" x2="47.3752" y2="78.2424" gradientUnits="userSpaceOnUse">
<stop offset="0.08" stop-color="#720000"/>
<stop offset="1" stop-color="#EC1C24"/>
</linearGradient>
<linearGradient id="paint4_linear_3916_35860" x1="62.1875" y1="119.083" x2="62.1875" y2="90.284" gradientUnits="userSpaceOnUse">
<stop stop-color="white"/>
<stop offset="1" stop-color="white" stop-opacity="0"/>
</linearGradient>
<linearGradient id="paint5_linear_3916_35860" x1="19.2509" y1="128.497" x2="19.2509" y2="99.6966" gradientUnits="userSpaceOnUse">
<stop stop-color="white"/>
<stop offset="1" stop-color="white" stop-opacity="0"/>
</linearGradient>
<linearGradient id="paint6_linear_3916_35860" x1="48.875" y1="124.356" x2="48.875" y2="95.555" gradientUnits="userSpaceOnUse">
<stop stop-color="white"/>
<stop offset="1" stop-color="white" stop-opacity="0"/>
</linearGradient>
<linearGradient id="paint7_linear_3916_35860" x1="-12.2297" y1="-1.08286" x2="300.195" y2="-1.08286" gradientUnits="userSpaceOnUse">
<stop stop-color="#052143"/>
<stop offset="1" stop-color="#01050D"/>
</linearGradient>
<linearGradient id="paint8_linear_3916_35860" x1="94.0625" y1="30.2168" x2="94.0625" y2="-10.3162" gradientUnits="userSpaceOnUse">
<stop stop-color="#052143"/>
<stop offset="1" stop-color="#01050D"/>
</linearGradient>
<linearGradient id="paint9_linear_3916_35860" x1="252.328" y1="44.0716" x2="265.354" y2="69.4576" gradientUnits="userSpaceOnUse">
<stop stop-color="#EAF6FF"/>
<stop offset="1" stop-color="#B3DAFE"/>
</linearGradient>
<linearGradient id="paint10_linear_3916_35860" x1="260.499" y1="74.3366" x2="291.871" y2="31.0176" gradientUnits="userSpaceOnUse">
<stop stop-color="#7BACDF" stop-opacity="0"/>
<stop offset="1" stop-color="#7BACDF"/>
</linearGradient>
<linearGradient id="paint11_linear_3916_35860" x1="257.763" y1="86.0943" x2="281.872" y2="39.5265" gradientUnits="userSpaceOnUse">
<stop stop-color="#7BACDF" stop-opacity="0"/>
<stop offset="1" stop-color="#7BACDF"/>
</linearGradient>
<linearGradient id="paint12_linear_3916_35860" x1="258.17" y1="86.6873" x2="278.927" y2="59.365" gradientUnits="userSpaceOnUse">
<stop stop-color="#7BACDF" stop-opacity="0"/>
<stop offset="1" stop-color="#7BACDF"/>
</linearGradient>
<linearGradient id="paint13_linear_3916_35860" x1="284.398" y1="65.6294" x2="291.876" y2="65.6294" gradientUnits="userSpaceOnUse">
<stop stop-color="#7BACDF" stop-opacity="0"/>
<stop offset="1" stop-color="#7BACDF"/>
</linearGradient>
<linearGradient id="paint14_linear_3916_35860" x1="251.638" y1="68.409" x2="216.167" y2="68.409" gradientUnits="userSpaceOnUse">
<stop stop-color="#7BACDF" stop-opacity="0"/>
<stop offset="1" stop-color="#7BACDF"/>
</linearGradient>
<linearGradient id="paint15_linear_3916_35860" x1="264.007" y1="82.6163" x2="264.007" y2="85.693" gradientUnits="userSpaceOnUse">
<stop stop-color="#5A5A5A"/>
<stop offset="1" stop-color="#444444"/>
</linearGradient>
<linearGradient id="paint16_linear_3916_35860" x1="213.169" y1="58.6119" x2="233.089" y2="80.6256" gradientUnits="userSpaceOnUse">
<stop stop-color="#FEE45A"/>
<stop offset="1" stop-color="#FEA613"/>
</linearGradient>
<linearGradient id="paint17_linear_3916_35860" x1="232.918" y1="67.5995" x2="239.922" y2="67.5995" gradientUnits="userSpaceOnUse">
<stop stop-color="#FEA613" stop-opacity="0"/>
<stop offset="1" stop-color="#E94444"/>
</linearGradient>
<linearGradient id="paint18_linear_3916_35860" x1="221.319" y1="81.0254" x2="221.319" y2="88.9822" gradientUnits="userSpaceOnUse">
<stop stop-color="#FEA613" stop-opacity="0"/>
<stop offset="1" stop-color="#E94444"/>
</linearGradient>
<linearGradient id="paint19_linear_3916_35860" x1="217.686" y1="55.8518" x2="227.144" y2="65.2539" gradientUnits="userSpaceOnUse">
<stop stop-color="#B3DAFE"/>
<stop offset="1" stop-color="#0182FC"/>
</linearGradient>
<linearGradient id="paint20_linear_3916_35860" x1="228.032" y1="73.4965" x2="223.434" y2="68.9258" gradientUnits="userSpaceOnUse">
<stop stop-color="#FEE45A"/>
<stop offset="1" stop-color="#FEA613"/>
</linearGradient>
<linearGradient id="paint21_linear_3916_35860" x1="272.703" y1="23.96" x2="215.763" y2="80.4187" gradientUnits="userSpaceOnUse">
<stop stop-color="#5A5A5A"/>
<stop offset="1" stop-color="#444444"/>
</linearGradient>
<linearGradient id="paint22_linear_3916_35860" x1="205.524" y1="81.0303" x2="207.457" y2="83.1496" gradientUnits="userSpaceOnUse">
<stop stop-color="#5A5A5A"/>
<stop offset="1" stop-color="#444444"/>
</linearGradient>
<linearGradient id="paint23_linear_3916_35860" x1="210.717" y1="63.5468" x2="212.12" y2="65.0851" gradientUnits="userSpaceOnUse">
<stop stop-color="#5A5A5A"/>
<stop offset="1" stop-color="#444444"/>
</linearGradient>
<linearGradient id="paint24_linear_3916_35860" x1="219.894" y1="84.1561" x2="228.993" y2="93.2001" gradientUnits="userSpaceOnUse">
<stop stop-color="#5A5A5A"/>
<stop offset="1" stop-color="#444444"/>
</linearGradient>
<linearGradient id="paint25_linear_3916_35860" x1="228.932" y1="93.2474" x2="219.808" y2="84.178" gradientUnits="userSpaceOnUse">
<stop stop-color="#5A5A5A"/>
<stop offset="1" stop-color="#444444"/>
</linearGradient>
<linearGradient id="paint26_linear_3916_35860" x1="222.036" y1="86.3104" x2="225.864" y2="90.115" gradientUnits="userSpaceOnUse">
<stop stop-color="#EAF9FA"/>
<stop offset="1" stop-color="#B3DAFE"/>
</linearGradient>
<linearGradient id="paint27_linear_3916_35860" x1="275.361" y1="84.1561" x2="284.459" y2="93.2001" gradientUnits="userSpaceOnUse">
<stop stop-color="#5A5A5A"/>
<stop offset="1" stop-color="#444444"/>
</linearGradient>
<linearGradient id="paint28_linear_3916_35860" x1="284.399" y1="93.2474" x2="275.275" y2="84.178" gradientUnits="userSpaceOnUse">
<stop stop-color="#5A5A5A"/>
<stop offset="1" stop-color="#444444"/>
</linearGradient>
<linearGradient id="paint29_linear_3916_35860" x1="277.503" y1="86.3104" x2="281.331" y2="90.115" gradientUnits="userSpaceOnUse">
<stop stop-color="#EAF9FA"/>
<stop offset="1" stop-color="#B3DAFE"/>
</linearGradient>
<linearGradient id="paint30_linear_3916_35860" x1="284.786" y1="61.5555" x2="277.091" y2="55.1508" gradientUnits="userSpaceOnUse">
<stop stop-color="#7BACDF" stop-opacity="0"/>
<stop offset="1" stop-color="#7BACDF"/>
</linearGradient>
<linearGradient id="paint31_linear_3916_35860" x1="277.951" y1="40.0596" x2="294.296" y2="56.3067" gradientUnits="userSpaceOnUse">
<stop stop-color="#BBEC6C"/>
<stop offset="1" stop-color="#81B823"/>
</linearGradient>
<linearGradient id="paint32_linear_3916_35860" x1="286.495" y1="56.1788" x2="286.495" y2="66.206" gradientUnits="userSpaceOnUse">
<stop stop-color="#78A91F" stop-opacity="0"/>
<stop offset="1" stop-color="#026841"/>
</linearGradient>
<linearGradient id="paint33_linear_3916_35860" x1="305.719" y1="68.0002" x2="274.659" y2="37.1256" gradientUnits="userSpaceOnUse">
<stop stop-color="#78A91F" stop-opacity="0"/>
<stop offset="1" stop-color="#026841"/>
</linearGradient>
<linearGradient id="paint34_linear_3916_35860" x1="280.834" y1="42.9608" x2="291.029" y2="53.0949" gradientUnits="userSpaceOnUse">
<stop stop-color="#EAF9FA"/>
<stop offset="1" stop-color="#B3DAFE"/>
</linearGradient>
<linearGradient id="paint35_linear_3916_35860" x1="280.204" y1="47.9044" x2="280.204" y2="52.771" gradientUnits="userSpaceOnUse">
<stop stop-color="#7BACDF" stop-opacity="0"/>
<stop offset="1" stop-color="#7BACDF"/>
</linearGradient>
<linearGradient id="paint36_linear_3916_35860" x1="293.015" y1="48.6546" x2="296.224" y2="48.6546" gradientUnits="userSpaceOnUse">
<stop stop-color="#7BACDF" stop-opacity="0"/>
<stop offset="1" stop-color="#7BACDF"/>
</linearGradient>
<linearGradient id="paint37_linear_3916_35860" x1="292.784" y1="47.904" x2="292.784" y2="52.7707" gradientUnits="userSpaceOnUse">
<stop stop-color="#7BACDF" stop-opacity="0"/>
<stop offset="1" stop-color="#7BACDF"/>
</linearGradient>
<linearGradient id="paint38_linear_3916_35860" x1="286.494" y1="55.8754" x2="286.494" y2="57.9328" gradientUnits="userSpaceOnUse">
<stop stop-color="#7BACDF" stop-opacity="0"/>
<stop offset="1" stop-color="#7BACDF"/>
</linearGradient>
<clipPath id="clip0_3916_35860">
<rect x="8" y="4" width="330" height="125" rx="20" fill="white"/>
</clipPath>
<clipPath id="clip1_3916_35860">
<rect width="98.2734" height="65.5156" fill="white" transform="translate(204.814 32)"/>
</clipPath>
</defs>
</svg>
