<svg width="171" height="171" viewBox="0 0 171 171" fill="none" xmlns="http://www.w3.org/2000/svg">
<g filter="url(#filter0_d_3943_35536)">
<g clip-path="url(#clip0_3943_35536)">
<rect x="8" y="4" width="155" height="155" rx="20" fill="url(#paint0_linear_3943_35536)"/>
<g style="mix-blend-mode:soft-light">
<path fill-rule="evenodd" clip-rule="evenodd" d="M-6.99808 173.15C-133.472 199.191 -214.89 322.828 -188.85 449.303C-162.81 575.777 -39.1718 657.195 87.3025 631.155C213.777 605.114 295.195 481.477 269.154 355.002C243.114 228.528 119.476 147.11 -6.99808 173.15ZM3.24711 222.911C-95.745 243.293 -159.471 340.065 -139.089 439.057C-118.707 538.05 -21.9355 601.776 77.0567 581.394C176.049 561.012 239.775 464.24 219.393 365.248C199.011 266.256 102.239 202.53 3.24711 222.911Z" fill="url(#paint1_linear_3943_35536)" fill-opacity="0.5"/>
</g>
<g style="mix-blend-mode:screen" opacity="0.5">
<path d="M164.022 -33.0329L65.8223 37.8356C60.3913 41.7551 53.0244 43.9576 45.3422 43.9576H-80.1016V-47.813H172.505C172.505 -42.2701 169.453 -36.9536 164.022 -33.0329Z" fill="url(#paint2_linear_3943_35536)"/>
</g>
<g style="mix-blend-mode:screen" opacity="0.5">
<path d="M-70.9629 -42.105V37.3709H-11.0017C-3.31339 37.3709 4.06098 35.1489 9.49924 31.1945L107.795 -40.3038C108.581 -40.8753 109.308 -41.4787 109.992 -42.105H-70.9629Z" fill="url(#paint3_linear_3943_35536)"/>
</g>
<ellipse cx="86.0299" cy="84.2943" rx="55.1471" ry="4.85294" fill="#020202" fill-opacity="0.3"/>
<path d="M133.272 82.4351H46.6133C44.8323 82.4351 43.3887 80.9999 43.3887 79.2291V38.2935C43.3887 36.5227 44.8323 35.0874 46.6133 35.0874H133.272C135.053 35.0874 136.496 36.5227 136.496 38.2935V79.2291C136.496 80.9999 135.053 82.4351 133.272 82.4351Z" fill="url(#paint4_linear_3943_35536)"/>
<path d="M43.3887 72.9653V79.1902C43.3887 80.9823 44.8323 82.4349 46.6143 82.4349H133.272C135.053 82.4349 136.496 80.9823 136.496 79.1902V72.9653H43.3887Z" fill="url(#paint5_linear_3943_35536)"/>
<path d="M133.272 78.1305H46.6133C44.8323 78.1305 43.3887 76.6952 43.3887 74.9244V33.9888C43.3887 32.218 44.8323 30.7827 46.6133 30.7827H133.272C135.053 30.7827 136.496 32.218 136.496 33.9888V74.9244C136.496 76.6952 135.053 78.1305 133.272 78.1305Z" fill="url(#paint6_linear_3943_35536)"/>
<path d="M43.3887 68.6611V74.886C43.3887 76.6781 44.8323 78.1307 46.6143 78.1307H133.272C135.053 78.1307 136.496 76.6781 136.496 74.886V68.6611H43.3887Z" fill="url(#paint7_linear_3943_35536)"/>
<path d="M133.272 72.6785H46.6133C44.8323 72.6785 43.3887 71.2519 43.3887 69.4919V28.8052C43.3887 27.0451 44.8323 25.6177 46.6133 25.6177H133.272C135.053 25.6177 136.496 27.0451 136.496 28.8052V69.4919C136.496 71.251 135.053 72.6785 133.272 72.6785Z" fill="url(#paint8_linear_3943_35536)"/>
<path d="M43.3887 63.209V69.4342C43.3887 71.2252 44.8323 72.6785 46.6143 72.6785H133.272C135.053 72.6785 136.496 71.2261 136.496 69.4342V63.209H43.3887Z" fill="url(#paint9_linear_3943_35536)"/>
<path d="M132.215 34.6586C129.376 34.6586 127.074 32.3463 127.074 29.4942C127.074 29.4914 127.074 29.4876 127.074 29.4838C127.075 28.9375 126.645 28.4873 126.095 28.4873H53.7885C53.2379 28.4873 52.8086 28.9375 52.8095 29.4838V29.4942C52.8095 32.3472 50.5076 34.6586 47.6683 34.6586C47.6323 34.6586 47.5954 34.6586 47.5593 34.6577C47.0097 34.6454 46.5586 35.0834 46.5586 35.6288V62.3806C46.5586 62.9259 47.0097 63.3639 47.5593 63.3517C47.5954 63.3507 47.6323 63.3507 47.6683 63.3507C50.5076 63.3507 52.8095 65.6631 52.8095 68.5151V68.5255C52.8086 69.0718 53.2379 69.522 53.7885 69.522H126.095C126.645 69.522 127.075 69.0718 127.074 68.5255C127.074 68.5227 127.074 68.5189 127.074 68.5151C127.074 65.6631 129.376 63.3507 132.215 63.3507C132.251 63.3507 132.288 63.3517 132.324 63.3517C132.873 63.3639 133.325 62.9269 133.325 62.3806V35.6297C133.325 35.0834 132.873 34.6464 132.324 34.6577C132.288 34.6586 132.251 34.6586 132.215 34.6586Z" fill="url(#paint10_linear_3943_35536)"/>
<path d="M66.4483 49.4354C66.4483 52.6043 63.8672 55.174 60.6831 55.174C57.4991 55.174 54.918 52.6043 54.918 49.4354C54.918 46.2655 57.4991 43.6958 60.6831 43.6958C63.8672 43.6958 66.4483 46.2655 66.4483 49.4354Z" fill="url(#paint11_linear_3943_35536)"/>
<path d="M124.964 49.4354C124.964 52.6043 122.383 55.174 119.199 55.174C116.015 55.174 113.434 52.6043 113.434 49.4354C113.434 46.2655 116.015 43.6958 119.199 43.6958C122.383 43.6958 124.964 46.2655 124.964 49.4354Z" fill="url(#paint12_linear_3943_35536)"/>
<path d="M100.462 49.0057C100.462 56.3735 95.6869 62.348 89.7964 62.348C83.906 62.348 79.1309 56.3735 79.1309 49.0057C79.1309 41.6357 83.906 35.6611 89.7964 35.6611C95.6869 35.6611 100.462 41.6357 100.462 49.0057Z" fill="url(#paint13_linear_3943_35536)"/>
<path d="M72.2532 50.7554C72.2436 50.745 72.2351 50.7347 72.2265 50.7243C72.1732 50.6668 72.1132 50.6102 72.0495 50.5536C72.0361 50.5414 72.0209 50.5291 72.0066 50.5168C71.9495 50.4678 71.8877 50.4197 71.8229 50.3726C71.821 50.3697 71.8201 50.3669 71.8182 50.3641C71.8153 50.3603 71.8115 50.3556 71.8087 50.3509C71.7677 50.2934 71.7211 50.2358 71.6707 50.1783C71.6611 50.1679 71.6526 50.1585 71.644 50.1481C71.5907 50.0906 71.5307 50.0331 71.467 49.9775C71.4527 49.9643 71.4384 49.952 71.4241 49.9397C71.3575 49.8832 71.2871 49.8266 71.21 49.7709C71.1986 49.7634 71.1871 49.7559 71.1757 49.7483C71.1024 49.6955 71.0244 49.6446 70.9416 49.5937C70.9263 49.5842 70.9121 49.5748 70.8968 49.5654C70.8083 49.5116 70.715 49.4588 70.617 49.4069C70.5932 49.3937 70.5694 49.3815 70.5447 49.3683C70.4457 49.3174 70.3429 49.2655 70.2353 49.2155C70.2125 49.2051 70.1887 49.1948 70.1659 49.1844C70.0659 49.1391 69.9622 49.0939 69.8546 49.0486C69.8327 49.0401 69.8118 49.0307 69.7899 49.0213C69.6719 48.9732 69.5481 48.926 69.4216 48.8789C69.3863 48.8657 69.3511 48.8525 69.315 48.8393C69.1884 48.794 69.0599 48.7487 68.9266 48.7044C68.8895 48.6922 68.8514 48.6799 68.8143 48.6676C68.6906 48.628 68.5649 48.5884 68.4345 48.5488C68.405 48.5394 68.3765 48.5309 68.347 48.5215C68.2052 48.48 68.0586 48.4385 67.9101 48.398C67.8635 48.3857 67.8159 48.3725 67.7683 48.3602C67.6198 48.3197 67.4675 48.281 67.3114 48.2424C67.261 48.2301 67.2086 48.2169 67.1572 48.2046C67.0116 48.1698 66.8641 48.1349 66.7127 48.1009C66.6633 48.0896 66.6138 48.0792 66.5643 48.0679C66.4148 48.0349 66.2635 48.0028 66.1093 47.9717C66.0532 47.9604 65.997 47.9482 65.9399 47.9368C65.7686 47.9029 65.5953 47.8699 65.4183 47.8369C65.3574 47.8256 65.2946 47.8142 65.2327 47.8029C65.0538 47.7709 64.8739 47.7388 64.6902 47.7077C64.4275 47.6643 64.1591 47.6219 63.8859 47.5813C63.8145 47.57 63.7412 47.5606 63.6689 47.5502C63.4795 47.5229 63.2891 47.4955 63.094 47.4701C62.9808 47.455 62.8646 47.4408 62.7495 47.4257C62.5915 47.4059 62.4325 47.3861 62.2707 47.3673C62.1432 47.3522 62.0137 47.338 61.8852 47.3239C61.7301 47.306 61.5759 47.2899 61.4189 47.273C61.2837 47.2598 61.1486 47.2456 61.0124 47.2324C60.8535 47.2173 60.6936 47.2032 60.5318 47.1881C60.3976 47.1768 60.2615 47.1645 60.1254 47.1532C59.954 47.1391 59.7799 47.1259 59.6066 47.1127C59.4772 47.1032 59.3478 47.0929 59.2174 47.0834C59.0146 47.0702 58.81 47.057 58.6044 47.0448C58.4997 47.0382 58.396 47.0306 58.2894 47.025C57.9772 47.0071 57.6621 46.991 57.3433 46.9769C57.3385 46.9769 57.3338 46.9769 57.328 46.9769C57.2433 46.9731 57.1567 46.9703 57.0711 46.9665C55.9641 46.9222 54.8229 46.8986 53.6541 46.9005C52.4882 46.9024 51.3479 46.9297 50.2419 46.9788C50.1553 46.9825 50.0677 46.9854 49.9811 46.9891C49.9764 46.9891 49.9707 46.9891 49.9659 46.9901C49.6471 47.0052 49.333 47.0221 49.0208 47.041C48.9142 47.0467 48.8104 47.0542 48.7048 47.0617C48.4992 47.0749 48.2945 47.0881 48.0918 47.1023C47.9614 47.1117 47.8339 47.123 47.7054 47.1325C47.5303 47.1466 47.357 47.1608 47.1848 47.1749C47.0486 47.1872 46.9135 47.1994 46.7783 47.2117C46.6175 47.2268 46.4566 47.2419 46.2977 47.2579C46.1616 47.2711 46.0264 47.2852 45.8922 47.2994C45.7361 47.3164 45.5819 47.3333 45.4277 47.3512C45.2973 47.3663 45.1669 47.3814 45.0385 47.3965C44.8776 47.4163 44.7206 47.4361 44.5626 47.4569C44.4474 47.4719 44.3313 47.4861 44.2171 47.5021C44.0229 47.5285 43.8335 47.5559 43.6441 47.5842C43.5717 47.5945 43.4965 47.6049 43.4252 47.6162C43.1529 47.6577 42.8864 47.7001 42.6247 47.7454C42.4391 47.7765 42.2573 47.8095 42.0784 47.8425C42.0175 47.8539 41.9556 47.8652 41.8947 47.8765C41.7176 47.9095 41.5435 47.9444 41.3731 47.9793C41.316 47.9906 41.2598 48.0019 41.2037 48.0142C41.0504 48.0462 40.8981 48.0783 40.7487 48.1122C40.6992 48.1235 40.6497 48.1349 40.6002 48.1462C40.4489 48.1801 40.3014 48.215 40.1557 48.2508C40.1053 48.2641 40.0539 48.2763 40.0025 48.2886C39.8474 48.3282 39.6951 48.3678 39.5466 48.4083C39.4981 48.4215 39.4514 48.4347 39.4038 48.4479C39.2563 48.4885 39.1116 48.53 38.9708 48.5724C38.9393 48.5818 38.9089 48.5913 38.8784 48.5998C38.7499 48.6394 38.6243 48.6799 38.5015 48.7195C38.4644 48.7318 38.4263 48.744 38.3892 48.7572C38.256 48.8016 38.1265 48.8468 38.0018 48.893C37.9647 48.9062 37.9295 48.9194 37.8933 48.9336C37.7677 48.9807 37.6449 49.0288 37.5269 49.0769C37.505 49.0863 37.4841 49.0958 37.4622 49.1052C37.3546 49.1495 37.2518 49.1948 37.1519 49.241C37.129 49.2523 37.1043 49.2627 37.0814 49.273C36.9739 49.324 36.872 49.3749 36.7731 49.4268C36.7483 49.44 36.7245 49.4532 36.7007 49.4654C36.6027 49.5182 36.5094 49.571 36.4218 49.6248C36.4066 49.6342 36.3923 49.6436 36.3771 49.6531C36.2953 49.7049 36.2172 49.7559 36.1439 49.8087C36.1335 49.8162 36.1211 49.8247 36.1097 49.8322C36.0326 49.8888 35.9621 49.9454 35.8955 50.002C35.8812 50.0142 35.867 50.0265 35.8536 50.0387C35.7889 50.0953 35.7308 50.1528 35.6775 50.2104C35.668 50.2207 35.6595 50.2311 35.6499 50.2415C35.5995 50.299 35.5529 50.3565 35.5129 50.4141C35.51 50.4188 35.5062 50.4235 35.5034 50.4282C35.4624 50.4886 35.4291 50.5489 35.4006 50.6102C35.3949 50.6225 35.3882 50.6347 35.3834 50.646C35.3577 50.7064 35.3368 50.7667 35.3225 50.8271C35.3197 50.8384 35.3178 50.8497 35.3159 50.861C35.3025 50.9242 35.2949 50.9874 35.2949 51.0525C35.2949 51.0638 35.3035 55.9371 35.3044 56.5463V56.6085C35.3044 56.6736 35.313 56.7368 35.3263 56.7999C35.3273 56.8065 35.3273 56.8141 35.3282 56.8207C35.3273 56.8273 35.3273 56.8339 35.3263 56.8405C35.313 56.9046 35.3054 56.9678 35.3054 57.0329C35.3054 57.0442 35.314 61.9175 35.3149 62.5267V62.5889C35.3149 62.6531 35.3235 62.7172 35.3368 62.7804C35.3387 62.787 35.3378 62.7945 35.3387 62.8011C35.3378 62.8077 35.3378 62.8143 35.3368 62.8209C35.3235 62.8841 35.3159 62.9482 35.3159 63.0123C35.3159 63.0246 35.3244 67.8979 35.3254 68.5071V68.5693C35.3254 68.6335 35.3339 68.6976 35.3473 68.7608C35.3492 68.7674 35.3482 68.774 35.3492 68.7806C35.3482 68.7872 35.3482 68.7947 35.3473 68.8013C35.3339 68.8645 35.3263 68.9286 35.3263 68.9927C35.3263 68.9965 35.3273 69.6123 35.3282 70.4308H92.0819L72.2532 50.7554Z" fill="url(#paint14_linear_3943_35536)"/>
<path d="M71.8934 74.8848C71.8896 72.5659 63.6937 70.7006 53.587 70.7179C43.4804 70.7362 35.2911 72.6303 35.2949 74.9492C35.2949 74.9617 35.3044 80.6125 35.3044 80.6125C35.3082 82.9314 43.505 84.7967 53.6107 84.7785C63.7174 84.7612 71.9076 82.8661 71.9038 80.5471C71.9038 80.5346 71.8943 74.8973 71.8934 74.8848Z" fill="url(#paint15_linear_3943_35536)"/>
<path d="M43.0548 71.8657L43.0779 83.9179C38.3594 83.1798 35.308 81.9974 35.305 80.6607C35.305 80.6607 35.2949 75.1603 35.2949 75.1482C35.2919 73.8114 38.3393 72.6197 43.0548 71.8657Z" fill="url(#paint16_linear_3943_35536)"/>
<path d="M50.2604 70.7183L50.2846 84.4922C47.6293 84.3712 45.1871 84.1158 43.0995 83.7557L43.0781 71.4805C45.1648 71.1127 47.606 70.8488 50.2604 70.7183Z" fill="url(#paint17_linear_3943_35536)"/>
<path d="M56.8918 70.7957L56.9132 84.6881C55.8457 84.7448 54.7406 84.7765 53.6097 84.7784C52.4781 84.7813 51.3729 84.7534 50.3055 84.7015L50.2832 70.8082C51.3507 70.7525 52.4558 70.7207 53.5875 70.7179C54.7192 70.7159 55.8234 70.7438 56.8918 70.7957Z" fill="url(#paint18_linear_3943_35536)"/>
<path d="M64.6739 71.4543L64.6971 83.7294C62.4435 84.0982 59.8069 84.3621 56.9392 84.4917L56.9141 70.7178C59.7818 70.8378 62.4193 71.0941 64.6739 71.4543Z" fill="url(#paint19_linear_3943_35536)"/>
<path d="M71.8935 75.0456L71.9037 80.4264C71.9056 81.7323 69.0839 82.8958 64.7187 83.6309L64.6973 71.8657C69.0662 72.5863 71.8916 73.7406 71.8935 75.0456Z" fill="url(#paint20_linear_3943_35536)"/>
<path d="M71.9038 74.8463C71.9076 77.1442 63.716 79.0213 53.6065 79.0394C43.4969 79.0575 35.2987 77.209 35.2949 74.911C35.2911 72.613 43.4827 70.735 53.5922 70.7179C63.7018 70.6998 71.9 72.5483 71.9038 74.8463Z" fill="url(#paint21_linear_3943_35536)"/>
<path d="M66.4254 74.8577C66.4273 75.8875 60.7505 76.7318 53.7453 76.7435C46.7402 76.7543 41.0605 75.929 41.0586 74.8991C41.0567 73.8693 46.7334 73.025 53.7386 73.0133C60.7438 73.0016 66.4235 73.8269 66.4254 74.8577Z" fill="url(#paint22_linear_3943_35536)"/>
<path d="M71.8934 68.858C71.8896 66.5391 63.6937 64.6738 53.587 64.692C43.4804 64.7103 35.2911 66.6044 35.2949 68.9234C35.2949 68.9359 35.3044 74.5857 35.3044 74.5857C35.3082 76.9046 43.505 78.7709 53.6107 78.7526C63.7174 78.7343 71.9076 76.8402 71.9038 74.5213C71.9038 74.5088 71.8934 68.8705 71.8934 68.858Z" fill="url(#paint23_linear_3943_35536)"/>
<path d="M43.0558 65.8394L43.0779 77.8915C38.3598 77.1534 35.308 75.9718 35.305 74.6341C35.305 74.6341 35.2949 69.1342 35.2949 69.1221C35.2919 67.7852 38.3397 66.5934 43.0558 65.8394Z" fill="url(#paint24_linear_3943_35536)"/>
<path d="M50.2604 64.9785L50.2846 78.7524C47.6293 78.6324 45.1871 78.377 43.0986 78.0159L43.0781 65.7408C45.1648 65.373 47.606 65.1081 50.2604 64.9785Z" fill="url(#paint25_linear_3943_35536)"/>
<path d="M56.8918 64.7699L56.9132 78.6623C55.8457 78.7181 54.7406 78.7498 53.6097 78.7526C52.4781 78.7546 51.3729 78.7267 50.3055 78.6748L50.2832 64.7824C51.3507 64.7257 52.4558 64.694 53.5875 64.6921C54.7192 64.6892 55.8234 64.7171 56.8918 64.7699Z" fill="url(#paint26_linear_3943_35536)"/>
<path d="M64.6739 65.4428L64.6971 77.9746C62.4428 78.3501 59.8066 78.6205 56.9402 78.7527L56.9141 64.6919C59.7824 64.8135 62.4196 65.0751 64.6739 65.4428Z" fill="url(#paint27_linear_3943_35536)"/>
<path d="M71.8935 69.0965L71.9037 74.6091C71.9056 75.9458 69.0839 77.1375 64.7187 77.8915L64.6973 65.8394C69.0653 66.5783 71.8916 67.7598 71.8935 69.0965Z" fill="url(#paint28_linear_3943_35536)"/>
<path d="M71.9038 68.8204C71.9076 71.1184 63.716 72.9963 53.6065 73.0135C43.4969 73.0316 35.2987 71.1831 35.2949 68.8851C35.2911 66.5872 43.4827 64.7101 53.5922 64.692C63.7018 64.6739 71.9 66.5224 71.9038 68.8204Z" fill="url(#paint29_linear_3943_35536)"/>
<path d="M66.1371 68.687C66.139 69.7961 60.5268 70.7053 53.6012 70.7179C46.6756 70.7305 41.0605 69.8408 41.0586 68.7317C41.0567 67.6226 46.669 66.7134 53.5945 66.7008C60.5201 66.6892 66.1352 67.578 66.1371 68.687Z" fill="url(#paint30_linear_3943_35536)"/>
<path d="M71.8943 62.9491C71.8905 60.7249 63.6944 58.9348 53.5875 58.9523C43.4806 58.9698 35.2911 60.7866 35.2949 63.0109C35.2949 63.0229 35.3044 68.443 35.3044 68.443C35.3082 70.6673 43.5052 72.4565 53.6112 72.439C63.7181 72.4214 71.9085 70.6046 71.9038 68.3803C71.9038 68.3683 71.8943 62.9611 71.8943 62.9491Z" fill="url(#paint31_linear_3943_35536)"/>
<path d="M43.0558 59.5264L43.0779 71.8655C38.3598 71.1089 35.307 69.8993 35.305 68.5307C35.305 68.5307 35.2949 62.8994 35.2949 62.887C35.2919 61.5184 38.3397 60.2983 43.0558 59.5264Z" fill="url(#paint32_linear_3943_35536)"/>
<path d="M50.2604 58.9521L50.2846 72.4391C47.6293 72.3206 45.1871 72.0706 43.0986 71.718L43.0781 59.6985C45.1648 59.3384 47.606 59.08 50.2604 58.9521Z" fill="url(#paint33_linear_3943_35536)"/>
<path d="M56.8918 59.0269L56.9132 72.3522C55.8457 72.4066 54.7406 72.437 53.6097 72.4389C52.4781 72.4417 51.3729 72.4149 50.3055 72.3651L50.2832 59.0389C51.3507 58.9854 52.4558 58.955 53.5875 58.9522C54.7192 58.9504 55.8234 58.9771 56.8918 59.0269Z" fill="url(#paint34_linear_3943_35536)"/>
<path d="M64.6739 59.6738L64.6971 71.6932C62.4428 72.0533 59.8066 72.3127 56.9402 72.4396L56.9141 58.9526C59.7824 59.0702 62.4186 59.3202 64.6739 59.6738Z" fill="url(#paint35_linear_3943_35536)"/>
<path d="M71.8944 62.8614L71.9037 68.5046C71.9065 69.8733 69.0845 71.0945 64.7187 71.8655L64.6973 59.5264C69.0659 60.2821 71.8926 61.4927 71.8944 62.8614Z" fill="url(#paint36_linear_3943_35536)"/>
<path d="M71.9038 63.0811C71.9076 65.3788 63.716 67.2556 53.6065 67.2737C43.4969 67.2918 35.2987 65.4426 35.2949 63.1449C35.2911 60.8472 43.4827 58.9704 53.5922 58.9523C63.7018 58.9342 71.9 60.7834 71.9038 63.0811Z" fill="url(#paint37_linear_3943_35536)"/>
<path d="M66.1371 62.9473C66.139 64.0576 60.5268 64.967 53.6012 64.9787C46.6756 64.9913 41.0605 64.1023 41.0586 62.9929C41.0567 61.8836 46.669 60.9732 53.5945 60.9616C60.5192 60.9489 66.1352 61.838 66.1371 62.9473Z" fill="url(#paint38_linear_3943_35536)"/>
<path d="M71.8943 56.7207C71.8905 54.4492 63.6935 52.6219 53.5875 52.6398C43.4806 52.6567 35.2902 54.5132 35.2949 56.7848C35.2949 56.797 35.3044 62.3315 35.3044 62.3315C35.3082 64.604 43.5052 66.4313 53.6112 66.4134C63.7181 66.3955 71.9085 64.54 71.9038 62.2684C71.9038 62.2562 71.8943 56.733 71.8943 56.7207Z" fill="url(#paint39_linear_3943_35536)"/>
<path d="M43.0558 53.5005L43.0779 65.8396C38.3598 65.0839 35.307 63.8733 35.305 62.5046C35.305 62.5046 35.2949 56.8738 35.2949 56.8613C35.2919 55.4927 38.3397 54.2715 43.0558 53.5005Z" fill="url(#paint40_linear_3943_35536)"/>
<path d="M50.2604 53.2134L50.2846 66.4134C47.6293 66.2983 45.1871 66.0527 43.0986 65.7075L43.0781 53.9439C45.1648 53.5914 47.606 53.3376 50.2604 53.2134Z" fill="url(#paint41_linear_3943_35536)"/>
<path d="M56.8909 52.7152L56.9132 66.325C55.8457 66.3796 54.7406 66.4116 53.6089 66.4134C52.4781 66.4153 51.3729 66.388 50.3055 66.3372L50.2832 52.7283C51.3507 52.6728 52.4558 52.6417 53.5875 52.6398C54.7183 52.637 55.8234 52.6643 56.8909 52.7152Z" fill="url(#paint42_linear_3943_35536)"/>
<path d="M64.6749 53.9192L64.6971 65.6829C62.4435 66.0354 59.8069 66.2883 56.9402 66.4134L56.9141 53.2134C59.7818 53.3284 62.4193 53.574 64.6749 53.9192Z" fill="url(#paint43_linear_3943_35536)"/>
<path d="M71.8944 56.8352L71.9037 62.479C71.9065 63.8476 69.0845 65.0677 64.7178 65.8396L64.6973 53.5005C69.0659 54.2561 71.8926 55.4667 71.8944 56.8352Z" fill="url(#paint44_linear_3943_35536)"/>
<path d="M71.9038 56.7681C71.9076 59.0661 63.716 60.9441 53.6065 60.9612C43.4969 60.9793 35.2987 59.1309 35.2949 56.8329C35.2902 54.5349 43.4827 52.6569 53.5922 52.6398C63.7008 52.6217 71.9 54.4702 71.9038 56.7681Z" fill="url(#paint45_linear_3943_35536)"/>
<path d="M66.1371 56.9214C66.139 58.0305 60.5268 58.9397 53.6012 58.9523C46.6756 58.9649 41.0605 58.0751 41.0586 56.9661C41.0567 55.857 46.669 54.9478 53.5945 54.9352C60.5192 54.9226 66.1352 55.8124 66.1371 56.9214Z" fill="url(#paint46_linear_3943_35536)"/>
<path d="M71.8943 50.9815C71.8905 48.7099 63.6935 46.8826 53.5875 46.9005C43.4806 46.9184 35.2902 48.7739 35.2949 51.0455C35.2949 51.0577 35.3044 56.5932 35.3044 56.5932C35.3082 58.8648 43.5043 60.692 53.6112 60.6742C63.7181 60.6563 71.9076 58.8008 71.9038 56.5292C71.9038 56.5169 71.8943 50.9947 71.8943 50.9815Z" fill="url(#paint47_linear_3943_35536)"/>
<path d="M43.0548 47.7612L43.0779 60.1003C38.3598 59.3438 35.307 58.1342 35.305 56.7656C35.305 56.7656 35.2949 51.1343 35.2949 51.1218C35.2919 49.7533 38.3397 48.5331 43.0548 47.7612Z" fill="url(#paint48_linear_3943_35536)"/>
<path d="M50.2579 46.9004L50.283 60.3873C47.4153 60.2698 44.7777 60.0197 42.5231 59.6671L42.5 47.6468C44.7546 47.2866 47.3911 47.0273 50.2579 46.9004Z" fill="url(#paint49_linear_3943_35536)"/>
<path d="M56.8909 46.9767L56.9132 60.5857C55.8457 60.6412 54.7406 60.6723 53.6089 60.6742C52.4772 60.6761 51.3729 60.6497 50.3046 60.5979L50.2832 46.989C51.3507 46.9344 52.4558 46.9024 53.5866 46.9005C54.7183 46.8986 55.8234 46.9259 56.8909 46.9767Z" fill="url(#paint50_linear_3943_35536)"/>
<path d="M64.6749 47.6216L64.6971 59.641C62.4435 60.0011 59.8069 60.2604 56.9402 60.3873L56.9141 46.9004C59.7818 47.0179 62.4193 47.268 64.6749 47.6216Z" fill="url(#paint51_linear_3943_35536)"/>
<path d="M71.8944 50.9402L71.9037 56.3219C71.9065 57.6269 69.0845 58.7904 64.7178 59.5264L64.6973 47.7612C69.0659 48.4818 71.8926 49.6361 71.8944 50.9402Z" fill="url(#paint52_linear_3943_35536)"/>
<path d="M71.9038 51.0284C71.9076 53.3261 63.716 55.2039 53.6065 55.222C43.4969 55.2391 35.2987 53.3909 35.2949 51.0932C35.2902 48.7954 43.4827 46.9186 53.5922 46.9005C63.7018 46.8834 71.9 48.7307 71.9038 51.0284Z" fill="url(#paint53_linear_3943_35536)"/>
<path d="M66.1371 51.1817C66.139 52.291 60.5268 53.2004 53.6012 53.2131C46.6756 53.2257 41.0605 52.3366 41.0586 51.2273C41.0567 50.117 46.669 49.2076 53.5945 49.1959C60.5192 49.1833 66.1352 50.0723 66.1371 51.1817Z" fill="url(#paint54_linear_3943_35536)"/>
<path d="M99.8553 80.8248C99.8515 78.5532 91.6546 76.7259 81.548 76.7438C71.4423 76.7617 63.2521 78.6172 63.2559 80.8888C63.2559 80.901 63.2653 86.4364 63.2653 86.4364C63.2691 88.708 71.466 90.5353 81.5726 90.5174C91.6793 90.4995 99.8685 88.644 99.8647 86.3724C99.8647 86.3602 99.8553 80.837 99.8553 80.8248Z" fill="url(#paint55_linear_3943_35536)"/>
<path d="M70.4409 77.6045L70.4623 89.6566C66.0943 88.9185 63.268 87.737 63.2661 86.4001C63.2661 86.4001 63.2559 80.8994 63.2559 80.8872C63.254 79.5503 66.0757 78.3585 70.4409 77.6045Z" fill="url(#paint56_linear_3943_35536)"/>
<path d="M77.9334 76.7437L77.9576 90.5175C75.1961 90.3975 72.6562 90.1421 70.4852 89.781L70.4629 77.5059C72.633 77.1381 75.1719 76.8732 77.9334 76.7437Z" fill="url(#paint57_linear_3943_35536)"/>
<path d="M85.1405 76.82L85.1647 90.429C83.9578 90.4836 82.7093 90.5156 81.4299 90.5175C80.1504 90.5193 78.9019 90.492 77.6941 90.4412L77.6699 76.8322C78.8768 76.7767 80.1253 76.7456 81.4047 76.7437C82.6842 76.7419 83.9336 76.7682 85.1405 76.82Z" fill="url(#paint58_linear_3943_35536)"/>
<path d="M92.3481 77.4792L92.3686 89.7553C90.2819 90.1231 87.8407 90.388 85.1854 90.5175L85.1621 76.7437C87.8174 76.8637 90.2596 77.1191 92.3481 77.4792Z" fill="url(#paint59_linear_3943_35536)"/>
<path d="M99.8561 80.8617L99.8658 86.3742C99.8678 87.7109 96.9332 88.9027 92.3934 89.6566L92.3711 77.6045C96.9148 78.3435 99.8532 79.5249 99.8561 80.8617Z" fill="url(#paint60_linear_3943_35536)"/>
<path d="M99.8647 80.7293C99.8685 82.9478 91.6762 84.7608 81.5669 84.7783C71.4577 84.7949 63.2597 83.0103 63.2559 80.7918C63.2521 78.5734 71.4434 76.7612 81.5527 76.7438C91.662 76.7272 99.8609 78.5108 99.8647 80.7293Z" fill="url(#paint61_linear_3943_35536)"/>
<path d="M94.1 80.8807C94.1019 82.069 88.4889 83.0431 81.5645 83.0566C74.6392 83.0702 69.0234 82.1179 69.0215 80.9285C69.0196 79.7402 74.6326 78.7661 81.5569 78.7526C88.4823 78.7401 94.0981 79.6924 94.1 80.8807Z" fill="url(#paint62_linear_3943_35536)"/>
<path d="M99.8553 74.8848C99.8505 72.5659 91.6546 70.7006 81.548 70.7179C71.4413 70.7362 63.2521 72.6303 63.2559 74.9492C63.2559 74.9617 63.2653 80.6125 63.2653 80.6125C63.2691 82.9314 71.466 84.7967 81.5726 84.7785C91.6793 84.7612 99.8685 82.8661 99.8647 80.5471C99.8647 80.5346 99.8553 74.8973 99.8553 74.8848Z" fill="url(#paint63_linear_3943_35536)"/>
<path d="M70.4409 71.8657L70.4623 83.9179C66.0934 83.1798 63.268 81.9974 63.2652 80.6607C63.2652 80.6607 63.2559 75.1603 63.2559 75.1482C63.2531 73.8114 66.0747 72.6197 70.4409 71.8657Z" fill="url(#paint64_linear_3943_35536)"/>
<path d="M77.9334 70.7183L77.9576 84.4922C75.1961 84.3712 72.6562 84.1158 70.4852 83.7557L70.4629 71.4805C72.633 71.1127 75.1719 70.8488 77.9334 70.7183Z" fill="url(#paint65_linear_3943_35536)"/>
<path d="M85.1405 70.7957L85.1647 84.6881C83.9578 84.7448 82.7093 84.7765 81.4299 84.7784C80.1504 84.7813 78.901 84.7534 77.6941 84.7015L77.6699 70.8082C78.8768 70.7525 80.1253 70.7207 81.4047 70.7179C82.6842 70.7159 83.9336 70.7438 85.1405 70.7957Z" fill="url(#paint66_linear_3943_35536)"/>
<path d="M92.3472 71.4548L92.3686 83.7299C90.2819 84.0986 87.8407 84.3626 85.1854 84.4922L85.1621 70.7183C87.8174 70.8383 90.2596 71.0946 92.3472 71.4548Z" fill="url(#paint67_linear_3943_35536)"/>
<path d="M99.8561 75.0456L99.8658 80.4264C99.8678 81.7323 96.9332 82.8958 92.3934 83.6309L92.3711 71.8657C96.9148 72.5863 99.8532 73.7406 99.8561 75.0456Z" fill="url(#paint68_linear_3943_35536)"/>
<path d="M99.8647 74.8463C99.8685 77.1442 91.6762 79.0213 81.5669 79.0394C71.4577 79.0575 63.2597 77.209 63.2559 74.911C63.2521 72.613 71.4434 70.735 81.5527 70.7179C91.662 70.6998 99.86 72.5483 99.8647 74.8463Z" fill="url(#paint69_linear_3943_35536)"/>
<path d="M94.1 74.8577C94.1019 75.8875 88.4889 76.7318 81.5645 76.7435C74.6392 76.7543 69.0234 75.929 69.0215 74.8991C69.0196 73.8693 74.6326 73.025 81.5569 73.0133C88.4823 73.0016 94.0972 73.8269 94.1 74.8577Z" fill="url(#paint70_linear_3943_35536)"/>
<path d="M99.8553 68.858C99.8505 66.5391 91.6546 64.6738 81.548 64.692C71.4413 64.7103 63.2521 66.6044 63.2559 68.9234C63.2559 68.9359 63.2653 74.5857 63.2653 74.5857C63.2691 76.9046 71.466 78.7709 81.5726 78.7526C91.6783 78.7343 99.8685 76.8402 99.8647 74.5213C99.8647 74.5088 99.8553 68.8705 99.8553 68.858Z" fill="url(#paint71_linear_3943_35536)"/>
<path d="M70.4409 65.8394L70.4623 77.8915C66.0934 77.1534 63.268 75.9718 63.2652 74.6341C63.2652 74.6341 63.2559 69.1342 63.2559 69.1221C63.2531 67.7852 66.0747 66.5934 70.4409 65.8394Z" fill="url(#paint72_linear_3943_35536)"/>
<path d="M77.6461 64.9785L77.6694 78.7524C75.0141 78.6324 72.5719 78.377 70.4843 78.0159L70.4629 65.7408C72.5495 65.373 74.9908 65.1081 77.6461 64.9785Z" fill="url(#paint73_linear_3943_35536)"/>
<path d="M85.1405 64.7699L85.1647 78.6623C83.9578 78.7181 82.7093 78.7498 81.4299 78.7526C80.1504 78.7546 78.901 78.7267 77.6941 78.6748L77.6699 64.7824C78.8768 64.7257 80.1253 64.694 81.4047 64.6921C82.6842 64.6892 83.9336 64.7171 85.1405 64.7699Z" fill="url(#paint74_linear_3943_35536)"/>
<path d="M92.3472 65.4428L92.3686 77.9746C90.281 78.3501 87.8407 78.6205 85.1854 78.7527L85.1621 64.6919C87.8174 64.8135 90.2596 65.0751 92.3472 65.4428Z" fill="url(#paint75_linear_3943_35536)"/>
<path d="M99.8561 69.0965L99.8658 74.6091C99.8678 75.9458 96.9332 77.1375 92.3934 77.8915L92.3711 65.8394C96.9148 66.5783 99.8532 67.7598 99.8561 69.0965Z" fill="url(#paint76_linear_3943_35536)"/>
<path d="M99.8647 68.8204C99.8685 71.1184 91.6762 72.9963 81.5669 73.0135C71.4577 73.0316 63.2597 71.1831 63.2559 68.8851C63.2521 66.5872 71.4434 64.7101 81.5527 64.692C91.662 64.6739 99.86 66.5224 99.8647 68.8204Z" fill="url(#paint77_linear_3943_35536)"/>
<path d="M94.1 68.6866C94.1028 69.7956 88.4896 70.7048 81.5641 70.7174C74.6394 70.7301 69.0234 69.8403 69.0215 68.7312C69.0196 67.6221 74.6328 66.7129 81.5574 66.7003C88.483 66.6887 94.0981 67.5775 94.1 68.6866Z" fill="url(#paint78_linear_3943_35536)"/>
</g>
</g>
<path d="M38.1859 117.64V131.4C38.1859 132.267 37.7659 132.953 36.9259 133.46C36.0859 133.953 34.9193 134.2 33.4259 134.2C31.9459 134.2 30.7793 133.953 29.9259 133.46C29.0726 132.953 28.6459 132.267 28.6459 131.4V126.58H28.5459C27.8926 126.58 27.3593 126.387 26.9459 126C26.5459 125.6 26.3459 125.08 26.3459 124.44C26.3459 123.813 26.5659 123.3 27.0059 122.9C27.4459 122.487 28.0126 122.28 28.7059 122.28C29.4393 122.28 30.0326 122.5 30.4859 122.94C30.9526 123.367 31.1859 123.92 31.1859 124.6V131C31.1859 131.373 31.3859 131.667 31.7859 131.88C32.1859 132.093 32.7326 132.2 33.4259 132.2C34.1193 132.2 34.6593 132.093 35.0459 131.88C35.4326 131.667 35.6259 131.373 35.6259 131V117.64H38.1859ZM28.5259 125.34C28.7926 125.34 29.0059 125.26 29.1659 125.1C29.3393 124.927 29.4259 124.707 29.4259 124.44C29.4259 124.173 29.3393 123.96 29.1659 123.8C29.0059 123.627 28.7926 123.54 28.5259 123.54C28.2726 123.54 28.0593 123.627 27.8859 123.8C27.7126 123.96 27.6259 124.173 27.6259 124.44C27.6259 124.693 27.7126 124.907 27.8859 125.08C28.0593 125.253 28.2726 125.34 28.5259 125.34ZM43.7648 124.28C43.4715 124.28 43.2115 124.36 42.9848 124.52C42.7715 124.68 42.6582 124.887 42.6448 125.14C44.2715 125.287 45.5648 125.6 46.5248 126.08C47.4848 126.547 47.9648 127.12 47.9648 127.8V131.86C47.9648 132.553 47.7315 133.12 47.2648 133.56C46.8115 133.987 46.2182 134.2 45.4848 134.2C44.7915 134.2 44.2248 134 43.7848 133.6C43.3448 133.187 43.1248 132.667 43.1248 132.04C43.1248 131.4 43.3248 130.887 43.7248 130.5C44.1248 130.1 44.6515 129.9 45.3048 129.9H45.4048V128.22C45.4048 127.833 44.8315 127.5 43.6848 127.22C42.5515 126.927 41.3048 126.747 39.9448 126.68C39.9582 125.293 40.2648 124.213 40.8648 123.44C41.4648 122.667 42.2782 122.28 43.3048 122.28C43.6648 122.28 43.9782 122.313 44.2448 122.38C44.5248 122.433 44.8248 122.513 45.1448 122.62C45.3315 122.687 45.5182 122.747 45.7048 122.8C45.9048 122.84 46.0848 122.86 46.2448 122.86C46.4582 122.86 46.6448 122.8 46.8048 122.68C46.9648 122.547 47.0782 122.38 47.1448 122.18L48.9048 122.72C48.7315 123.413 48.4448 123.953 48.0448 124.34C47.6582 124.727 47.2115 124.92 46.7048 124.92C46.4782 124.92 46.2648 124.893 46.0648 124.84C45.8648 124.787 45.5982 124.707 45.2648 124.6C44.6248 124.387 44.1248 124.28 43.7648 124.28ZM45.2848 132.94C45.5515 132.94 45.7648 132.86 45.9248 132.7C46.0982 132.527 46.1848 132.307 46.1848 132.04C46.1848 131.773 46.0982 131.56 45.9248 131.4C45.7648 131.227 45.5515 131.14 45.2848 131.14C45.0315 131.14 44.8182 131.227 44.6448 131.4C44.4848 131.56 44.4048 131.773 44.4048 132.04C44.4048 132.307 44.4848 132.527 44.6448 132.7C44.8182 132.86 45.0315 132.94 45.2848 132.94ZM54.3858 127.72C53.5991 127.72 52.8858 127.607 52.2458 127.38C51.6191 127.14 51.1258 126.807 50.7658 126.38C50.4191 125.953 50.2458 125.467 50.2458 124.92C50.2458 124.28 50.4724 123.747 50.9258 123.32C51.3924 122.88 51.9724 122.66 52.6658 122.66C53.3458 122.66 53.9124 122.88 54.3658 123.32C54.8191 123.747 55.0458 124.28 55.0458 124.92C55.0458 125.293 54.9524 125.613 54.7658 125.88C55.5391 125.747 56.1124 125.42 56.4858 124.9C56.8724 124.367 57.0724 123.6 57.0858 122.6H59.6258C59.6258 123.587 59.4058 124.473 58.9658 125.26C58.5258 126.033 57.9058 126.64 57.1058 127.08C56.3191 127.507 55.4124 127.72 54.3858 127.72ZM52.6458 123.98C52.3924 123.98 52.1791 124.06 52.0058 124.22C51.8458 124.38 51.7658 124.593 51.7658 124.86C51.7658 125.113 51.8458 125.327 52.0058 125.5C52.1791 125.66 52.3924 125.74 52.6458 125.74C52.9124 125.74 53.1258 125.66 53.2858 125.5C53.4591 125.34 53.5458 125.127 53.5458 124.86C53.5458 124.593 53.4591 124.38 53.2858 124.22C53.1258 124.06 52.9124 123.98 52.6458 123.98ZM54.7658 131.9C55.5391 131.753 56.1124 131.42 56.4858 130.9C56.8724 130.38 57.0724 129.62 57.0858 128.62H59.6258C59.6258 129.62 59.4058 130.513 58.9658 131.3C58.5258 132.073 57.9058 132.68 57.1058 133.12C56.3191 133.547 55.4124 133.76 54.3858 133.76C53.5858 133.76 52.8724 133.64 52.2458 133.4C51.6191 133.16 51.1258 132.827 50.7658 132.4C50.4191 131.973 50.2458 131.487 50.2458 130.94C50.2458 130.3 50.4724 129.767 50.9258 129.34C51.3924 128.9 51.9724 128.68 52.6658 128.68C53.3458 128.68 53.9124 128.9 54.3658 129.34C54.8191 129.767 55.0458 130.3 55.0458 130.94C55.0458 131.287 54.9524 131.607 54.7658 131.9ZM52.6458 131.78C52.9124 131.78 53.1258 131.7 53.2858 131.54C53.4591 131.367 53.5458 131.147 53.5458 130.88C53.5458 130.613 53.4591 130.4 53.2858 130.24C53.1258 130.08 52.9124 130 52.6458 130C52.3924 130 52.1791 130.08 52.0058 130.24C51.8458 130.4 51.7658 130.613 51.7658 130.88C51.7658 131.147 51.8458 131.367 52.0058 131.54C52.1658 131.7 52.3791 131.78 52.6458 131.78ZM65.3628 122.28C66.7761 122.28 67.8695 122.6 68.6428 123.24C69.4161 123.867 69.8028 124.747 69.8028 125.88V131.86C69.8028 132.553 69.5695 133.12 69.1028 133.56C68.6495 133.987 68.0561 134.2 67.3228 134.2C66.6295 134.2 66.0628 134 65.6228 133.6C65.1828 133.187 64.9628 132.667 64.9628 132.04C64.9628 131.4 65.1628 130.887 65.5628 130.5C65.9761 130.1 66.5028 129.9 67.1428 129.9H67.2428V126.02C67.2428 125.46 67.0761 125.033 66.7428 124.74C66.4228 124.433 65.9495 124.28 65.3228 124.28C64.7361 124.28 64.2561 124.453 63.8828 124.8C63.5228 125.133 63.3028 125.6 63.2228 126.2H60.6828C60.7361 124.973 61.1761 124.013 62.0028 123.32C62.8428 122.627 63.9628 122.28 65.3628 122.28ZM67.1428 132.94C67.4095 132.94 67.6228 132.853 67.7828 132.68C67.9561 132.507 68.0428 132.293 68.0428 132.04C68.0428 131.773 67.9561 131.56 67.7828 131.4C67.6228 131.227 67.4095 131.14 67.1428 131.14C66.8761 131.14 66.6561 131.227 66.4828 131.4C66.3228 131.56 66.2428 131.773 66.2428 132.04C66.2428 132.307 66.3228 132.527 66.4828 132.7C66.6561 132.86 66.8761 132.94 67.1428 132.94ZM72.5506 115.46C72.5506 116.513 72.304 117.42 71.8106 118.18C71.3306 118.94 70.6773 119.52 69.8506 119.92C69.0106 120.32 68.0706 120.52 67.0306 120.52C65.724 120.52 64.704 120.267 63.9706 119.76C63.2373 119.253 62.8706 118.58 62.8706 117.74C62.8706 117.113 63.0773 116.613 63.4906 116.24C63.8906 115.867 64.4106 115.68 65.0506 115.68C65.6906 115.68 66.2173 115.873 66.6306 116.26C67.044 116.633 67.2506 117.133 67.2506 117.76C67.2506 118.253 67.124 118.68 66.8706 119.04C68.0306 119.04 68.924 118.7 69.5506 118.02C70.164 117.327 70.4773 116.473 70.4906 115.46H72.5506ZM64.1506 117.72C64.1506 117.987 64.2373 118.207 64.4106 118.38C64.5706 118.54 64.784 118.62 65.0506 118.62C65.304 118.62 65.5173 118.533 65.6906 118.36C65.864 118.187 65.9506 117.973 65.9506 117.72C65.9506 117.467 65.8706 117.26 65.7106 117.1C65.5373 116.94 65.3173 116.86 65.0506 116.86C64.784 116.86 64.5706 116.94 64.4106 117.1C64.2373 117.26 64.1506 117.467 64.1506 117.72ZM79.2859 122.28C80.2326 122.413 80.9859 122.84 81.5459 123.56C82.1059 124.28 82.3859 125.173 82.3859 126.24V134H79.8259V126.24C79.8259 125.747 79.7659 125.353 79.6459 125.06C79.5393 124.753 79.3526 124.507 79.0859 124.32L77.1859 125.48L75.1059 124.22C74.7726 124.447 74.5259 124.747 74.3659 125.12C74.2193 125.493 74.1459 125.98 74.1459 126.58C74.1459 126.887 74.1793 127.2 74.2459 127.52C74.3126 127.84 74.4126 128.24 74.5459 128.72C74.6793 129.2 74.7793 129.587 74.8459 129.88C74.9126 130.173 74.9459 130.46 74.9459 130.74V130.94C75.1059 130.753 75.4193 130.467 75.8859 130.08L76.4059 129.64C76.0326 129.587 75.7259 129.413 75.4859 129.12C75.2593 128.827 75.1459 128.467 75.1459 128.04C75.1459 127.507 75.3326 127.073 75.7059 126.74C76.0793 126.393 76.5526 126.22 77.1259 126.22C77.6993 126.22 78.1593 126.393 78.5059 126.74C78.8659 127.087 79.0459 127.54 79.0459 128.1C79.0459 128.593 78.8993 129.027 78.6059 129.4C78.3126 129.76 77.8526 130.207 77.2259 130.74C76.5459 131.313 76.0193 131.84 75.6459 132.32C75.2859 132.787 75.0859 133.347 75.0459 134H72.5659V131.04C72.5659 130.813 72.5126 130.487 72.4059 130.06C72.2993 129.633 72.2326 129.373 72.2059 129.28C72.0326 128.627 71.8993 128.107 71.8059 127.72C71.7259 127.32 71.6859 126.96 71.6859 126.64C71.6859 125.547 71.9726 124.607 72.5459 123.82C73.1326 123.033 74.0126 122.52 75.1859 122.28L77.2059 123.66L79.2859 122.28ZM76.2659 128.04C76.2659 128.28 76.3393 128.473 76.4859 128.62C76.6326 128.767 76.8326 128.84 77.0859 128.84C77.3259 128.84 77.5193 128.767 77.6659 128.62C77.8126 128.473 77.8859 128.28 77.8859 128.04C77.8859 127.8 77.8126 127.607 77.6659 127.46C77.5193 127.3 77.3259 127.22 77.0859 127.22C76.8326 127.22 76.6326 127.3 76.4859 127.46C76.3393 127.607 76.2659 127.8 76.2659 128.04ZM82.3287 120.96C81.4887 120.6 80.3287 120.3 78.8487 120.06C77.3554 119.82 75.9487 119.7 74.6287 119.7C73.8554 119.7 73.1487 119.753 72.5087 119.86C72.5221 119.047 72.7221 118.333 73.1087 117.72C73.4954 117.107 74.0421 116.633 74.7487 116.3C75.4554 115.953 76.2687 115.78 77.1887 115.78C78.7487 115.78 79.9821 116.24 80.8887 117.16C81.7821 118.067 82.2621 119.333 82.3287 120.96ZM80.2087 119.08C79.9421 118.48 79.5554 118.027 79.0487 117.72C78.5421 117.413 77.9487 117.26 77.2687 117.26C76.6554 117.26 76.1287 117.373 75.6887 117.6C75.2354 117.813 74.9354 118.113 74.7887 118.5C74.9887 118.487 75.2954 118.48 75.7087 118.48C76.4821 118.48 77.2754 118.533 78.0887 118.64C78.8887 118.747 79.5954 118.893 80.2087 119.08ZM84.9645 129.36C84.9645 128.88 85.0845 128.447 85.3245 128.06C85.5779 127.673 85.9245 127.38 86.3645 127.18C85.9379 127.06 85.2512 126.94 84.3045 126.82C84.3179 125.927 84.5445 125.14 84.9845 124.46C85.4245 123.767 86.0379 123.233 86.8245 122.86C87.6112 122.473 88.5112 122.28 89.5245 122.28C90.4712 122.28 91.3045 122.453 92.0245 122.8C92.7579 123.147 93.3245 123.633 93.7245 124.26C94.1245 124.873 94.3245 125.587 94.3245 126.4V134H91.7645V126.68C91.7645 125.973 91.5379 125.4 91.0845 124.96C90.6445 124.507 90.0579 124.28 89.3245 124.28C88.7112 124.28 88.1512 124.413 87.6445 124.68C87.1512 124.947 86.8179 125.293 86.6445 125.72C87.0845 125.813 87.5112 125.933 87.9245 126.08C88.3512 126.227 88.6979 126.387 88.9645 126.56V127.28C88.4979 127.453 88.1379 127.707 87.8845 128.04C87.6445 128.373 87.5245 128.773 87.5245 129.24V134H84.9645V129.36ZM101.958 125.84C101.958 125.347 101.805 124.967 101.498 124.7C101.191 124.42 100.771 124.28 100.238 124.28C99.6381 124.28 99.1715 124.453 98.8381 124.8C98.5048 125.133 98.3381 125.6 98.3381 126.2H95.8781C95.8781 124.973 96.2648 124.013 97.0381 123.32C97.8115 122.627 98.8781 122.28 100.238 122.28C101.571 122.28 102.611 122.58 103.358 123.18C104.118 123.78 104.498 124.613 104.498 125.68V134H101.958V125.84ZM110.073 124.28C109.78 124.28 109.52 124.36 109.293 124.52C109.08 124.68 108.967 124.887 108.953 125.14C110.58 125.287 111.873 125.6 112.833 126.08C113.793 126.547 114.273 127.12 114.273 127.8V131.86C114.273 132.553 114.04 133.12 113.573 133.56C113.12 133.987 112.527 134.2 111.793 134.2C111.1 134.2 110.533 134 110.093 133.6C109.653 133.187 109.433 132.667 109.433 132.04C109.433 131.4 109.633 130.887 110.033 130.5C110.433 130.1 110.96 129.9 111.613 129.9H111.713V128.22C111.713 127.833 111.14 127.5 109.993 127.22C108.86 126.927 107.613 126.747 106.253 126.68C106.267 125.293 106.573 124.213 107.173 123.44C107.773 122.667 108.587 122.28 109.613 122.28C109.973 122.28 110.287 122.313 110.553 122.38C110.833 122.433 111.133 122.513 111.453 122.62C111.64 122.687 111.827 122.747 112.013 122.8C112.213 122.84 112.393 122.86 112.553 122.86C112.767 122.86 112.953 122.8 113.113 122.68C113.273 122.547 113.387 122.38 113.453 122.18L115.213 122.72C115.04 123.413 114.753 123.953 114.353 124.34C113.967 124.727 113.52 124.92 113.013 124.92C112.787 124.92 112.573 124.893 112.373 124.84C112.173 124.787 111.907 124.707 111.573 124.6C110.933 124.387 110.433 124.28 110.073 124.28ZM111.593 132.94C111.86 132.94 112.073 132.86 112.233 132.7C112.407 132.527 112.493 132.307 112.493 132.04C112.493 131.773 112.407 131.56 112.233 131.4C112.073 131.227 111.86 131.14 111.593 131.14C111.34 131.14 111.127 131.227 110.953 131.4C110.793 131.56 110.713 131.773 110.713 132.04C110.713 132.307 110.793 132.527 110.953 132.7C111.127 132.86 111.34 132.94 111.593 132.94ZM119.834 129.9C120.474 129.9 120.994 130.1 121.394 130.5C121.808 130.9 122.014 131.413 122.014 132.04C122.014 132.68 121.794 133.2 121.354 133.6C120.914 134 120.348 134.2 119.654 134.2C118.921 134.2 118.321 133.987 117.854 133.56C117.401 133.12 117.174 132.553 117.174 131.86V122.48H119.734V129.9H119.834ZM119.834 132.94C120.101 132.94 120.314 132.86 120.474 132.7C120.648 132.527 120.734 132.307 120.734 132.04C120.734 131.773 120.648 131.56 120.474 131.4C120.314 131.227 120.101 131.14 119.834 131.14C119.581 131.14 119.368 131.227 119.194 131.4C119.021 131.56 118.934 131.773 118.934 132.04C118.934 132.293 119.021 132.507 119.194 132.68C119.368 132.853 119.581 132.94 119.834 132.94ZM128.138 122.28C128.871 122.28 129.464 122.5 129.918 122.94C130.384 123.367 130.618 123.92 130.618 124.6V134H128.078L122.518 128.1L123.898 126.66L128.078 131.16V126.58H127.978C127.324 126.58 126.791 126.387 126.378 126C125.978 125.6 125.778 125.08 125.778 124.44C125.778 123.813 125.998 123.3 126.438 122.9C126.878 122.487 127.444 122.28 128.138 122.28ZM127.958 125.34C128.224 125.34 128.438 125.26 128.598 125.1C128.771 124.927 128.858 124.707 128.858 124.44C128.858 124.173 128.771 123.96 128.598 123.8C128.438 123.627 128.224 123.54 127.958 123.54C127.704 123.54 127.491 123.627 127.318 123.8C127.144 123.96 127.058 124.173 127.058 124.44C127.058 124.693 127.144 124.907 127.318 125.08C127.491 125.253 127.704 125.34 127.958 125.34ZM130.551 120.96C129.711 120.6 128.551 120.3 127.071 120.06C125.578 119.82 124.171 119.7 122.851 119.7C122.078 119.7 121.371 119.753 120.731 119.86C120.745 119.047 120.945 118.333 121.331 117.72C121.718 117.107 122.265 116.633 122.971 116.3C123.678 115.953 124.491 115.78 125.411 115.78C126.971 115.78 128.205 116.24 129.111 117.16C130.005 118.067 130.485 119.333 130.551 120.96ZM128.431 119.08C128.165 118.48 127.778 118.027 127.271 117.72C126.765 117.413 126.171 117.26 125.491 117.26C124.878 117.26 124.351 117.373 123.911 117.6C123.458 117.813 123.158 118.113 123.011 118.5C123.211 118.487 123.518 118.48 123.931 118.48C124.705 118.48 125.498 118.533 126.311 118.64C127.111 118.747 127.818 118.893 128.431 119.08ZM142.666 129.96C143.093 130.147 143.42 130.407 143.646 130.74C143.886 131.073 144.006 131.447 144.006 131.86C144.006 132.58 143.793 133.153 143.366 133.58C142.953 133.993 142.393 134.2 141.686 134.2C140.993 134.2 140.433 134 140.006 133.6C139.593 133.2 139.38 132.66 139.366 131.98C138.846 132.207 138.366 132.5 137.926 132.86C137.486 133.207 137.14 133.587 136.886 134H134.466V126.58H134.366C133.713 126.58 133.18 126.387 132.766 126C132.366 125.6 132.166 125.08 132.166 124.44C132.166 123.813 132.386 123.3 132.826 122.9C133.266 122.487 133.833 122.28 134.526 122.28C135.26 122.28 135.853 122.5 136.306 122.94C136.773 123.367 137.006 123.92 137.006 124.6V131.44C137.273 131.053 137.973 130.6 139.106 130.08C139.746 129.8 140.206 129.533 140.486 129.28C140.78 129.013 140.926 128.68 140.926 128.28V122.46H143.486V128.22C143.486 128.607 143.413 128.953 143.266 129.26C143.12 129.567 142.92 129.8 142.666 129.96ZM134.346 125.34C134.613 125.34 134.826 125.26 134.986 125.1C135.16 124.927 135.246 124.707 135.246 124.44C135.246 124.173 135.16 123.96 134.986 123.8C134.826 123.627 134.613 123.54 134.346 123.54C134.093 123.54 133.88 123.627 133.706 123.8C133.533 123.96 133.446 124.173 133.446 124.44C133.446 124.693 133.533 124.907 133.706 125.08C133.88 125.253 134.093 125.34 134.346 125.34ZM141.686 132.94C141.953 132.94 142.166 132.853 142.326 132.68C142.5 132.507 142.586 132.293 142.586 132.04C142.586 131.773 142.5 131.56 142.326 131.4C142.166 131.227 141.953 131.14 141.686 131.14C141.433 131.14 141.22 131.227 141.046 131.4C140.873 131.56 140.786 131.773 140.786 132.04C140.786 132.293 140.873 132.507 141.046 132.68C141.22 132.853 141.433 132.94 141.686 132.94Z" fill="white"/>
<defs>
<filter id="filter0_d_3943_35536" x="0" y="0" width="171" height="171" filterUnits="userSpaceOnUse" color-interpolation-filters="sRGB">
<feFlood flood-opacity="0" result="BackgroundImageFix"/>
<feColorMatrix in="SourceAlpha" type="matrix" values="0 0 0 0 0 0 0 0 0 0 0 0 0 0 0 0 0 0 127 0" result="hardAlpha"/>
<feOffset dy="4"/>
<feGaussianBlur stdDeviation="4"/>
<feComposite in2="hardAlpha" operator="out"/>
<feColorMatrix type="matrix" values="0 0 0 0 0 0 0 0 0 0 0 0 0 0 0 0 0 0 0.15 0"/>
<feBlend mode="normal" in2="BackgroundImageFix" result="effect1_dropShadow_3943_35536"/>
<feBlend mode="normal" in="SourceGraphic" in2="effect1_dropShadow_3943_35536" result="shape"/>
</filter>
<linearGradient id="paint0_linear_3943_35536" x1="8" y1="81.5887" x2="163" y2="81.5887" gradientUnits="userSpaceOnUse">
<stop offset="0.0762668" stop-color="#062143"/>
<stop offset="1" stop-color="#194F91"/>
</linearGradient>
<linearGradient id="paint1_linear_3943_35536" x1="45.8345" y1="459.681" x2="209.875" y2="110.935" gradientUnits="userSpaceOnUse">
<stop offset="0.567708" stop-color="white" stop-opacity="0"/>
<stop offset="1" stop-color="#D9D9D9"/>
</linearGradient>
<linearGradient id="paint2_linear_3943_35536" x1="-84.103" y1="-1.92772" x2="220.462" y2="-1.92772" gradientUnits="userSpaceOnUse">
<stop stop-color="#052143"/>
<stop offset="1" stop-color="#01050D"/>
</linearGradient>
<linearGradient id="paint3_linear_3943_35536" x1="19.5147" y1="34.5748" x2="19.5147" y2="-12.6961" gradientUnits="userSpaceOnUse">
<stop stop-color="#052143"/>
<stop offset="1" stop-color="#01050D"/>
</linearGradient>
<linearGradient id="paint4_linear_3943_35536" x1="43.3888" y1="58.7616" x2="136.496" y2="58.7616" gradientUnits="userSpaceOnUse">
<stop stop-color="#00E7B2"/>
<stop offset="0.2459" stop-color="#05E5B1"/>
<stop offset="0.5301" stop-color="#13DDAC"/>
<stop offset="0.8322" stop-color="#2AD1A5"/>
<stop offset="1" stop-color="#3AC9A0"/>
</linearGradient>
<linearGradient id="paint5_linear_3943_35536" x1="89.9426" y1="77.4185" x2="89.9426" y2="81.9898" gradientUnits="userSpaceOnUse">
<stop stop-color="#3AC9A0" stop-opacity="0"/>
<stop offset="0.0351" stop-color="#38C69D" stop-opacity="0.035294"/>
<stop offset="0.4167" stop-color="#23AA82" stop-opacity="0.415686"/>
<stop offset="0.7511" stop-color="#169971" stop-opacity="0.752941"/>
<stop offset="1" stop-color="#11936B"/>
</linearGradient>
<linearGradient id="paint6_linear_3943_35536" x1="43.3888" y1="54.4564" x2="136.496" y2="54.4564" gradientUnits="userSpaceOnUse">
<stop stop-color="#00E7B2"/>
<stop offset="0.2459" stop-color="#05E5B1"/>
<stop offset="0.5301" stop-color="#13DDAC"/>
<stop offset="0.8322" stop-color="#2AD1A5"/>
<stop offset="1" stop-color="#3AC9A0"/>
</linearGradient>
<linearGradient id="paint7_linear_3943_35536" x1="89.9426" y1="73.1138" x2="89.9426" y2="77.6851" gradientUnits="userSpaceOnUse">
<stop stop-color="#3AC9A0" stop-opacity="0"/>
<stop offset="0.0351" stop-color="#38C69D" stop-opacity="0.035294"/>
<stop offset="0.4167" stop-color="#23AA82" stop-opacity="0.415686"/>
<stop offset="0.7511" stop-color="#169971" stop-opacity="0.752941"/>
<stop offset="1" stop-color="#11936B"/>
</linearGradient>
<linearGradient id="paint8_linear_3943_35536" x1="43.3888" y1="49.1483" x2="136.496" y2="49.1483" gradientUnits="userSpaceOnUse">
<stop stop-color="#00E7B2"/>
<stop offset="0.2459" stop-color="#05E5B1"/>
<stop offset="0.5301" stop-color="#13DDAC"/>
<stop offset="0.8322" stop-color="#2AD1A5"/>
<stop offset="1" stop-color="#3AC9A0"/>
</linearGradient>
<linearGradient id="paint9_linear_3943_35536" x1="89.9426" y1="67.662" x2="89.9426" y2="72.2329" gradientUnits="userSpaceOnUse">
<stop stop-color="#3AC9A0" stop-opacity="0"/>
<stop offset="0.0351" stop-color="#38C69D" stop-opacity="0.035294"/>
<stop offset="0.4167" stop-color="#23AA82" stop-opacity="0.415686"/>
<stop offset="0.7511" stop-color="#169971" stop-opacity="0.752941"/>
<stop offset="1" stop-color="#11936B"/>
</linearGradient>
<linearGradient id="paint10_linear_3943_35536" x1="85.94" y1="41.42" x2="110.627" y2="88.7866" gradientUnits="userSpaceOnUse">
<stop stop-color="#44A069"/>
<stop offset="0.3216" stop-color="#419B60"/>
<stop offset="0.6926" stop-color="#368D4E"/>
<stop offset="1" stop-color="#2A7C55"/>
</linearGradient>
<linearGradient id="paint11_linear_3943_35536" x1="60.0274" y1="48.1901" x2="64.084" y2="55.9603" gradientUnits="userSpaceOnUse">
<stop stop-color="#00E7B2"/>
<stop offset="0.2459" stop-color="#05E5B1"/>
<stop offset="0.5301" stop-color="#13DDAC"/>
<stop offset="0.8322" stop-color="#2AD1A5"/>
<stop offset="1" stop-color="#3AC9A0"/>
</linearGradient>
<linearGradient id="paint12_linear_3943_35536" x1="118.543" y1="48.1901" x2="122.6" y2="55.9603" gradientUnits="userSpaceOnUse">
<stop stop-color="#00E7B2"/>
<stop offset="0.2459" stop-color="#05E5B1"/>
<stop offset="0.5301" stop-color="#13DDAC"/>
<stop offset="0.8322" stop-color="#2AD1A5"/>
<stop offset="1" stop-color="#3AC9A0"/>
</linearGradient>
<linearGradient id="paint13_linear_3943_35536" x1="88.5833" y1="46.1103" x2="99.1277" y2="62.1816" gradientUnits="userSpaceOnUse">
<stop stop-color="#00E7B2"/>
<stop offset="0.2459" stop-color="#05E5B1"/>
<stop offset="0.5301" stop-color="#13DDAC"/>
<stop offset="0.8322" stop-color="#2AD1A5"/>
<stop offset="1" stop-color="#3AC9A0"/>
</linearGradient>
<linearGradient id="paint14_linear_3943_35536" x1="77.0633" y1="79.2903" x2="49.825" y2="56.9068" gradientUnits="userSpaceOnUse">
<stop stop-color="#2A3D7C" stop-opacity="0"/>
<stop offset="0.4789" stop-color="#21336E" stop-opacity="0.478431"/>
<stop offset="1" stop-color="#1A2B63"/>
</linearGradient>
<linearGradient id="paint15_linear_3943_35536" x1="53.6094" y1="80.9608" x2="53.6172" y2="85.2806" gradientUnits="userSpaceOnUse">
<stop stop-color="#FFD00D"/>
<stop offset="0.2378" stop-color="#FFCB0E"/>
<stop offset="0.5353" stop-color="#FFBB11"/>
<stop offset="0.8632" stop-color="#FFA215"/>
<stop offset="1" stop-color="#FF9517"/>
</linearGradient>
<linearGradient id="paint16_linear_3943_35536" x1="42.509" y1="77.8918" x2="24.4355" y2="77.9268" gradientUnits="userSpaceOnUse">
<stop stop-color="#FF9517" stop-opacity="0"/>
<stop offset="0.3074" stop-color="#EE8421" stop-opacity="0.305882"/>
<stop offset="0.6784" stop-color="#E07728" stop-opacity="0.678431"/>
<stop offset="1" stop-color="#DB722B"/>
</linearGradient>
<linearGradient id="paint17_linear_3943_35536" x1="48.9555" y1="77.6063" x2="36.9232" y2="77.6274" gradientUnits="userSpaceOnUse">
<stop stop-color="#FF9517" stop-opacity="0"/>
<stop offset="0.3074" stop-color="#EE8421" stop-opacity="0.305882"/>
<stop offset="0.6784" stop-color="#E07728" stop-opacity="0.678431"/>
<stop offset="1" stop-color="#DB722B"/>
</linearGradient>
<linearGradient id="paint18_linear_3943_35536" x1="55.7324" y1="77.7425" x2="43.2648" y2="77.7625" gradientUnits="userSpaceOnUse">
<stop stop-color="#FF9517" stop-opacity="0"/>
<stop offset="0.3074" stop-color="#EE8421" stop-opacity="0.305882"/>
<stop offset="0.6784" stop-color="#E07728" stop-opacity="0.678431"/>
<stop offset="1" stop-color="#DB722B"/>
</linearGradient>
<linearGradient id="paint19_linear_3943_35536" x1="63.3605" y1="77.592" x2="46.7025" y2="77.6237" gradientUnits="userSpaceOnUse">
<stop stop-color="#FF9517" stop-opacity="0"/>
<stop offset="0.3074" stop-color="#EE8421" stop-opacity="0.305882"/>
<stop offset="0.6784" stop-color="#E07728" stop-opacity="0.678431"/>
<stop offset="1" stop-color="#DB722B"/>
</linearGradient>
<linearGradient id="paint20_linear_3943_35536" x1="66.8153" y1="77.7426" x2="52.9426" y2="77.7681" gradientUnits="userSpaceOnUse">
<stop stop-color="#FF9517" stop-opacity="0"/>
<stop offset="0.3074" stop-color="#EE8421" stop-opacity="0.305882"/>
<stop offset="0.6784" stop-color="#E07728" stop-opacity="0.678431"/>
<stop offset="1" stop-color="#DB722B"/>
</linearGradient>
<linearGradient id="paint21_linear_3943_35536" x1="50.1739" y1="64.9859" x2="56.4675" y2="82.9902" gradientUnits="userSpaceOnUse">
<stop stop-color="#FFD00D"/>
<stop offset="0.2378" stop-color="#FFCB0E"/>
<stop offset="0.5353" stop-color="#FFBB11"/>
<stop offset="0.8632" stop-color="#FFA215"/>
<stop offset="1" stop-color="#FF9517"/>
</linearGradient>
<linearGradient id="paint22_linear_3943_35536" x1="53.7555" y1="79.5515" x2="53.7296" y2="64.1878" gradientUnits="userSpaceOnUse">
<stop stop-color="#FF9517" stop-opacity="0"/>
<stop offset="0.3074" stop-color="#EE8421" stop-opacity="0.305882"/>
<stop offset="0.6784" stop-color="#E07728" stop-opacity="0.678431"/>
<stop offset="1" stop-color="#DB722B"/>
</linearGradient>
<linearGradient id="paint23_linear_3943_35536" x1="53.609" y1="74.9343" x2="53.6169" y2="79.2541" gradientUnits="userSpaceOnUse">
<stop stop-color="#FFD00D"/>
<stop offset="0.2378" stop-color="#FFCB0E"/>
<stop offset="0.5353" stop-color="#FFBB11"/>
<stop offset="0.8632" stop-color="#FFA215"/>
<stop offset="1" stop-color="#FF9517"/>
</linearGradient>
<linearGradient id="paint24_linear_3943_35536" x1="42.5095" y1="71.8653" x2="24.4337" y2="71.9003" gradientUnits="userSpaceOnUse">
<stop stop-color="#FF9517" stop-opacity="0"/>
<stop offset="0.3074" stop-color="#EE8421" stop-opacity="0.305882"/>
<stop offset="0.6784" stop-color="#E07728" stop-opacity="0.678431"/>
<stop offset="1" stop-color="#DB722B"/>
</linearGradient>
<linearGradient id="paint25_linear_3943_35536" x1="48.9551" y1="71.8665" x2="36.9228" y2="71.8876" gradientUnits="userSpaceOnUse">
<stop stop-color="#FF9517" stop-opacity="0"/>
<stop offset="0.3074" stop-color="#EE8421" stop-opacity="0.305882"/>
<stop offset="0.6784" stop-color="#E07728" stop-opacity="0.678431"/>
<stop offset="1" stop-color="#DB722B"/>
</linearGradient>
<linearGradient id="paint26_linear_3943_35536" x1="55.732" y1="71.7162" x2="43.2644" y2="71.7362" gradientUnits="userSpaceOnUse">
<stop stop-color="#FF9517" stop-opacity="0"/>
<stop offset="0.3074" stop-color="#EE8421" stop-opacity="0.305882"/>
<stop offset="0.6784" stop-color="#E07728" stop-opacity="0.678431"/>
<stop offset="1" stop-color="#DB722B"/>
</linearGradient>
<linearGradient id="paint27_linear_3943_35536" x1="63.3602" y1="71.7088" x2="46.7044" y2="71.7398" gradientUnits="userSpaceOnUse">
<stop stop-color="#FF9517" stop-opacity="0"/>
<stop offset="0.3074" stop-color="#EE8421" stop-opacity="0.305882"/>
<stop offset="0.6784" stop-color="#E07728" stop-opacity="0.678431"/>
<stop offset="1" stop-color="#DB722B"/>
</linearGradient>
<linearGradient id="paint28_linear_3943_35536" x1="66.8149" y1="71.8595" x2="52.9422" y2="71.8844" gradientUnits="userSpaceOnUse">
<stop stop-color="#FF9517" stop-opacity="0"/>
<stop offset="0.3074" stop-color="#EE8421" stop-opacity="0.305882"/>
<stop offset="0.6784" stop-color="#E07728" stop-opacity="0.678431"/>
<stop offset="1" stop-color="#DB722B"/>
</linearGradient>
<linearGradient id="paint29_linear_3943_35536" x1="50.1735" y1="58.9604" x2="56.4671" y2="76.9647" gradientUnits="userSpaceOnUse">
<stop stop-color="#FFD00D"/>
<stop offset="0.2378" stop-color="#FFCB0E"/>
<stop offset="0.5353" stop-color="#FFBB11"/>
<stop offset="0.8632" stop-color="#FFA215"/>
<stop offset="1" stop-color="#FF9517"/>
</linearGradient>
<linearGradient id="paint30_linear_3943_35536" x1="53.6108" y1="73.7423" x2="53.5804" y2="57.1968" gradientUnits="userSpaceOnUse">
<stop stop-color="#FF9517" stop-opacity="0"/>
<stop offset="0.3074" stop-color="#EE8421" stop-opacity="0.305882"/>
<stop offset="0.6784" stop-color="#E07728" stop-opacity="0.678431"/>
<stop offset="1" stop-color="#DB722B"/>
</linearGradient>
<linearGradient id="paint31_linear_3943_35536" x1="53.6091" y1="68.7769" x2="53.6163" y2="72.9204" gradientUnits="userSpaceOnUse">
<stop stop-color="#FFD00D"/>
<stop offset="0.2378" stop-color="#FFCB0E"/>
<stop offset="0.5353" stop-color="#FFBB11"/>
<stop offset="0.8632" stop-color="#FFA215"/>
<stop offset="1" stop-color="#FF9517"/>
</linearGradient>
<linearGradient id="paint32_linear_3943_35536" x1="42.5091" y1="65.6958" x2="24.4332" y2="65.73" gradientUnits="userSpaceOnUse">
<stop stop-color="#FF9517" stop-opacity="0"/>
<stop offset="0.3074" stop-color="#EE8421" stop-opacity="0.305882"/>
<stop offset="0.6784" stop-color="#E07728" stop-opacity="0.678431"/>
<stop offset="1" stop-color="#DB722B"/>
</linearGradient>
<linearGradient id="paint33_linear_3943_35536" x1="48.9547" y1="65.6965" x2="36.9224" y2="65.7181" gradientUnits="userSpaceOnUse">
<stop stop-color="#FF9517" stop-opacity="0"/>
<stop offset="0.3074" stop-color="#EE8421" stop-opacity="0.305882"/>
<stop offset="0.6784" stop-color="#E07728" stop-opacity="0.678431"/>
<stop offset="1" stop-color="#DB722B"/>
</linearGradient>
<linearGradient id="paint34_linear_3943_35536" x1="55.7317" y1="65.6901" x2="43.2641" y2="65.7109" gradientUnits="userSpaceOnUse">
<stop stop-color="#FF9517" stop-opacity="0"/>
<stop offset="0.3074" stop-color="#EE8421" stop-opacity="0.305882"/>
<stop offset="0.6784" stop-color="#E07728" stop-opacity="0.678431"/>
<stop offset="1" stop-color="#DB722B"/>
</linearGradient>
<linearGradient id="paint35_linear_3943_35536" x1="63.3598" y1="65.6835" x2="46.704" y2="65.7158" gradientUnits="userSpaceOnUse">
<stop stop-color="#FF9517" stop-opacity="0"/>
<stop offset="0.3074" stop-color="#EE8421" stop-opacity="0.305882"/>
<stop offset="0.6784" stop-color="#E07728" stop-opacity="0.678431"/>
<stop offset="1" stop-color="#DB722B"/>
</linearGradient>
<linearGradient id="paint36_linear_3943_35536" x1="66.8148" y1="65.6898" x2="52.9403" y2="65.7141" gradientUnits="userSpaceOnUse">
<stop stop-color="#FF9517" stop-opacity="0"/>
<stop offset="0.3074" stop-color="#EE8421" stop-opacity="0.305882"/>
<stop offset="0.6784" stop-color="#E07728" stop-opacity="0.678431"/>
<stop offset="1" stop-color="#DB722B"/>
</linearGradient>
<linearGradient id="paint37_linear_3943_35536" x1="50.1731" y1="53.2218" x2="56.4654" y2="71.2244" gradientUnits="userSpaceOnUse">
<stop stop-color="#FFD00D"/>
<stop offset="0.2378" stop-color="#FFCB0E"/>
<stop offset="0.5353" stop-color="#FFBB11"/>
<stop offset="0.8632" stop-color="#FFA215"/>
<stop offset="1" stop-color="#FF9517"/>
</linearGradient>
<linearGradient id="paint38_linear_3943_35536" x1="53.6104" y1="68.0042" x2="53.58" y2="51.4547" gradientUnits="userSpaceOnUse">
<stop stop-color="#FF9517" stop-opacity="0"/>
<stop offset="0.3074" stop-color="#EE8421" stop-opacity="0.305882"/>
<stop offset="0.6784" stop-color="#E07728" stop-opacity="0.678431"/>
<stop offset="1" stop-color="#DB722B"/>
</linearGradient>
<linearGradient id="paint39_linear_3943_35536" x1="53.6087" y1="62.6729" x2="53.6162" y2="66.9046" gradientUnits="userSpaceOnUse">
<stop stop-color="#FFD00D"/>
<stop offset="0.2378" stop-color="#FFCB0E"/>
<stop offset="0.5353" stop-color="#FFBB11"/>
<stop offset="0.8632" stop-color="#FFA215"/>
<stop offset="1" stop-color="#FF9517"/>
</linearGradient>
<linearGradient id="paint40_linear_3943_35536" x1="42.5087" y1="59.6698" x2="24.4328" y2="59.704" gradientUnits="userSpaceOnUse">
<stop stop-color="#FF9517" stop-opacity="0"/>
<stop offset="0.3074" stop-color="#EE8421" stop-opacity="0.305882"/>
<stop offset="0.6784" stop-color="#E07728" stop-opacity="0.678431"/>
<stop offset="1" stop-color="#DB722B"/>
</linearGradient>
<linearGradient id="paint41_linear_3943_35536" x1="48.9543" y1="59.8142" x2="36.922" y2="59.8363" gradientUnits="userSpaceOnUse">
<stop stop-color="#FF9517" stop-opacity="0"/>
<stop offset="0.3074" stop-color="#EE8421" stop-opacity="0.305882"/>
<stop offset="0.6784" stop-color="#E07728" stop-opacity="0.678431"/>
<stop offset="1" stop-color="#DB722B"/>
</linearGradient>
<linearGradient id="paint42_linear_3943_35536" x1="55.7313" y1="59.5205" x2="43.2637" y2="59.5409" gradientUnits="userSpaceOnUse">
<stop stop-color="#FF9517" stop-opacity="0"/>
<stop offset="0.3074" stop-color="#EE8421" stop-opacity="0.305882"/>
<stop offset="0.6784" stop-color="#E07728" stop-opacity="0.678431"/>
<stop offset="1" stop-color="#DB722B"/>
</linearGradient>
<linearGradient id="paint43_linear_3943_35536" x1="63.3602" y1="59.801" x2="46.7023" y2="59.834" gradientUnits="userSpaceOnUse">
<stop stop-color="#FF9517" stop-opacity="0"/>
<stop offset="0.3074" stop-color="#EE8421" stop-opacity="0.305882"/>
<stop offset="0.6784" stop-color="#E07728" stop-opacity="0.678431"/>
<stop offset="1" stop-color="#DB722B"/>
</linearGradient>
<linearGradient id="paint44_linear_3943_35536" x1="66.8144" y1="59.6638" x2="52.9399" y2="59.6881" gradientUnits="userSpaceOnUse">
<stop stop-color="#FF9517" stop-opacity="0"/>
<stop offset="0.3074" stop-color="#EE8421" stop-opacity="0.305882"/>
<stop offset="0.6784" stop-color="#E07728" stop-opacity="0.678431"/>
<stop offset="1" stop-color="#DB722B"/>
</linearGradient>
<linearGradient id="paint45_linear_3943_35536" x1="50.1727" y1="46.9081" x2="56.4663" y2="64.9123" gradientUnits="userSpaceOnUse">
<stop stop-color="#FFD00D"/>
<stop offset="0.2378" stop-color="#FFCB0E"/>
<stop offset="0.5353" stop-color="#FFBB11"/>
<stop offset="0.8632" stop-color="#FFA215"/>
<stop offset="1" stop-color="#FF9517"/>
</linearGradient>
<linearGradient id="paint46_linear_3943_35536" x1="53.61" y1="61.9765" x2="53.5796" y2="45.4311" gradientUnits="userSpaceOnUse">
<stop stop-color="#FF9517" stop-opacity="0"/>
<stop offset="0.3074" stop-color="#EE8421" stop-opacity="0.305882"/>
<stop offset="0.6784" stop-color="#E07728" stop-opacity="0.678431"/>
<stop offset="1" stop-color="#DB722B"/>
</linearGradient>
<linearGradient id="paint47_linear_3943_35536" x1="53.6083" y1="56.9341" x2="53.6158" y2="61.1657" gradientUnits="userSpaceOnUse">
<stop stop-color="#FFD00D"/>
<stop offset="0.2378" stop-color="#FFCB0E"/>
<stop offset="0.5353" stop-color="#FFBB11"/>
<stop offset="0.8632" stop-color="#FFA215"/>
<stop offset="1" stop-color="#FF9517"/>
</linearGradient>
<linearGradient id="paint48_linear_3943_35536" x1="42.5083" y1="53.9305" x2="24.4324" y2="53.9647" gradientUnits="userSpaceOnUse">
<stop stop-color="#FF9517" stop-opacity="0"/>
<stop offset="0.3074" stop-color="#EE8421" stop-opacity="0.305882"/>
<stop offset="0.6784" stop-color="#E07728" stop-opacity="0.678431"/>
<stop offset="1" stop-color="#DB722B"/>
</linearGradient>
<linearGradient id="paint49_linear_3943_35536" x1="48.8469" y1="53.6451" x2="35.852" y2="53.6703" gradientUnits="userSpaceOnUse">
<stop stop-color="#FF9517" stop-opacity="0"/>
<stop offset="0.3074" stop-color="#EE8421" stop-opacity="0.305882"/>
<stop offset="0.6784" stop-color="#E07728" stop-opacity="0.678431"/>
<stop offset="1" stop-color="#DB722B"/>
</linearGradient>
<linearGradient id="paint50_linear_3943_35536" x1="55.7309" y1="53.7816" x2="43.2634" y2="53.802" gradientUnits="userSpaceOnUse">
<stop stop-color="#FF9517" stop-opacity="0"/>
<stop offset="0.3074" stop-color="#EE8421" stop-opacity="0.305882"/>
<stop offset="0.6784" stop-color="#E07728" stop-opacity="0.678431"/>
<stop offset="1" stop-color="#DB722B"/>
</linearGradient>
<linearGradient id="paint51_linear_3943_35536" x1="63.3598" y1="53.6311" x2="46.7019" y2="53.6635" gradientUnits="userSpaceOnUse">
<stop stop-color="#FF9517" stop-opacity="0"/>
<stop offset="0.3074" stop-color="#EE8421" stop-opacity="0.305882"/>
<stop offset="0.6784" stop-color="#E07728" stop-opacity="0.678431"/>
<stop offset="1" stop-color="#DB722B"/>
</linearGradient>
<linearGradient id="paint52_linear_3943_35536" x1="66.814" y1="53.6378" x2="52.9396" y2="53.6633" gradientUnits="userSpaceOnUse">
<stop stop-color="#FF9517" stop-opacity="0"/>
<stop offset="0.3074" stop-color="#EE8421" stop-opacity="0.305882"/>
<stop offset="0.6784" stop-color="#E07728" stop-opacity="0.678431"/>
<stop offset="1" stop-color="#DB722B"/>
</linearGradient>
<linearGradient id="paint53_linear_3943_35536" x1="50.1723" y1="41.1698" x2="56.4647" y2="59.1725" gradientUnits="userSpaceOnUse">
<stop stop-color="#FFD00D"/>
<stop offset="0.2378" stop-color="#FFCB0E"/>
<stop offset="0.5353" stop-color="#FFBB11"/>
<stop offset="0.8632" stop-color="#FFA215"/>
<stop offset="1" stop-color="#FF9517"/>
</linearGradient>
<linearGradient id="paint54_linear_3943_35536" x1="53.6096" y1="56.2384" x2="53.5792" y2="39.689" gradientUnits="userSpaceOnUse">
<stop stop-color="#FF9517" stop-opacity="0"/>
<stop offset="0.3074" stop-color="#EE8421" stop-opacity="0.305882"/>
<stop offset="0.6784" stop-color="#E07728" stop-opacity="0.678431"/>
<stop offset="1" stop-color="#DB722B"/>
</linearGradient>
<linearGradient id="paint55_linear_3943_35536" x1="81.5709" y1="86.7759" x2="81.5785" y2="91.0075" gradientUnits="userSpaceOnUse">
<stop stop-color="#FFD00D"/>
<stop offset="0.2378" stop-color="#FFCB0E"/>
<stop offset="0.5353" stop-color="#FFBB11"/>
<stop offset="0.8632" stop-color="#FFA215"/>
<stop offset="1" stop-color="#FF9517"/>
</linearGradient>
<linearGradient id="paint56_linear_3943_35536" x1="69.9362" y1="83.6293" x2="53.2014" y2="83.6593" gradientUnits="userSpaceOnUse">
<stop stop-color="#FF9517" stop-opacity="0"/>
<stop offset="0.3074" stop-color="#EE8421" stop-opacity="0.305882"/>
<stop offset="0.6784" stop-color="#E07728" stop-opacity="0.678431"/>
<stop offset="1" stop-color="#DB722B"/>
</linearGradient>
<linearGradient id="paint57_linear_3943_35536" x1="76.5759" y1="83.6304" x2="64.0624" y2="83.6533" gradientUnits="userSpaceOnUse">
<stop stop-color="#FF9517" stop-opacity="0"/>
<stop offset="0.3074" stop-color="#EE8421" stop-opacity="0.305882"/>
<stop offset="0.6784" stop-color="#E07728" stop-opacity="0.678431"/>
<stop offset="1" stop-color="#DB722B"/>
</linearGradient>
<linearGradient id="paint58_linear_3943_35536" x1="83.8303" y1="83.6234" x2="69.7347" y2="83.6495" gradientUnits="userSpaceOnUse">
<stop stop-color="#FF9517" stop-opacity="0"/>
<stop offset="0.3074" stop-color="#EE8421" stop-opacity="0.305882"/>
<stop offset="0.6784" stop-color="#E07728" stop-opacity="0.678431"/>
<stop offset="1" stop-color="#DB722B"/>
</linearGradient>
<linearGradient id="paint59_linear_3943_35536" x1="91.1316" y1="83.6162" x2="75.7075" y2="83.6433" gradientUnits="userSpaceOnUse">
<stop stop-color="#FF9517" stop-opacity="0"/>
<stop offset="0.3074" stop-color="#EE8421" stop-opacity="0.305882"/>
<stop offset="0.6784" stop-color="#E07728" stop-opacity="0.678431"/>
<stop offset="1" stop-color="#DB722B"/>
</linearGradient>
<linearGradient id="paint60_linear_3943_35536" x1="94.5745" y1="83.6235" x2="80.1469" y2="83.6504" gradientUnits="userSpaceOnUse">
<stop stop-color="#FF9517" stop-opacity="0"/>
<stop offset="0.3074" stop-color="#EE8421" stop-opacity="0.305882"/>
<stop offset="0.6784" stop-color="#E07728" stop-opacity="0.678431"/>
<stop offset="1" stop-color="#DB722B"/>
</linearGradient>
<linearGradient id="paint61_linear_3943_35536" x1="78.135" y1="71.2093" x2="84.0446" y2="88.7203" gradientUnits="userSpaceOnUse">
<stop stop-color="#FFD00D"/>
<stop offset="0.2378" stop-color="#FFCB0E"/>
<stop offset="0.5353" stop-color="#FFBB11"/>
<stop offset="0.8632" stop-color="#FFA215"/>
<stop offset="1" stop-color="#FF9517"/>
</linearGradient>
<linearGradient id="paint62_linear_3943_35536" x1="81.5742" y1="86.2957" x2="81.5393" y2="68.5684" gradientUnits="userSpaceOnUse">
<stop stop-color="#FF9517" stop-opacity="0"/>
<stop offset="0.3074" stop-color="#EE8421" stop-opacity="0.305882"/>
<stop offset="0.6784" stop-color="#E07728" stop-opacity="0.678431"/>
<stop offset="1" stop-color="#DB722B"/>
</linearGradient>
<linearGradient id="paint63_linear_3943_35536" x1="81.5705" y1="80.9594" x2="81.5784" y2="85.2792" gradientUnits="userSpaceOnUse">
<stop stop-color="#FFD00D"/>
<stop offset="0.2378" stop-color="#FFCB0E"/>
<stop offset="0.5353" stop-color="#FFBB11"/>
<stop offset="0.8632" stop-color="#FFA215"/>
<stop offset="1" stop-color="#FF9517"/>
</linearGradient>
<linearGradient id="paint64_linear_3943_35536" x1="69.9358" y1="77.8905" x2="53.201" y2="77.9205" gradientUnits="userSpaceOnUse">
<stop stop-color="#FF9517" stop-opacity="0"/>
<stop offset="0.3074" stop-color="#EE8421" stop-opacity="0.305882"/>
<stop offset="0.6784" stop-color="#E07728" stop-opacity="0.678431"/>
<stop offset="1" stop-color="#DB722B"/>
</linearGradient>
<linearGradient id="paint65_linear_3943_35536" x1="76.5755" y1="77.605" x2="64.062" y2="77.6278" gradientUnits="userSpaceOnUse">
<stop stop-color="#FF9517" stop-opacity="0"/>
<stop offset="0.3074" stop-color="#EE8421" stop-opacity="0.305882"/>
<stop offset="0.6784" stop-color="#E07728" stop-opacity="0.678431"/>
<stop offset="1" stop-color="#DB722B"/>
</linearGradient>
<linearGradient id="paint66_linear_3943_35536" x1="83.8299" y1="77.7412" x2="69.7343" y2="77.7667" gradientUnits="userSpaceOnUse">
<stop stop-color="#FF9517" stop-opacity="0"/>
<stop offset="0.3074" stop-color="#EE8421" stop-opacity="0.305882"/>
<stop offset="0.6784" stop-color="#E07728" stop-opacity="0.678431"/>
<stop offset="1" stop-color="#DB722B"/>
</linearGradient>
<linearGradient id="paint67_linear_3943_35536" x1="91.1312" y1="77.5912" x2="75.7072" y2="77.6183" gradientUnits="userSpaceOnUse">
<stop stop-color="#FF9517" stop-opacity="0"/>
<stop offset="0.3074" stop-color="#EE8421" stop-opacity="0.305882"/>
<stop offset="0.6784" stop-color="#E07728" stop-opacity="0.678431"/>
<stop offset="1" stop-color="#DB722B"/>
</linearGradient>
<linearGradient id="paint68_linear_3943_35536" x1="94.5741" y1="77.7413" x2="80.1465" y2="77.7689" gradientUnits="userSpaceOnUse">
<stop stop-color="#FF9517" stop-opacity="0"/>
<stop offset="0.3074" stop-color="#EE8421" stop-opacity="0.305882"/>
<stop offset="0.6784" stop-color="#E07728" stop-opacity="0.678431"/>
<stop offset="1" stop-color="#DB722B"/>
</linearGradient>
<linearGradient id="paint69_linear_3943_35536" x1="78.1346" y1="64.9846" x2="84.4284" y2="82.9888" gradientUnits="userSpaceOnUse">
<stop stop-color="#FFD00D"/>
<stop offset="0.2378" stop-color="#FFCB0E"/>
<stop offset="0.5353" stop-color="#FFBB11"/>
<stop offset="0.8632" stop-color="#FFA215"/>
<stop offset="1" stop-color="#FF9517"/>
</linearGradient>
<linearGradient id="paint70_linear_3943_35536" x1="81.5738" y1="79.5502" x2="81.5476" y2="64.1865" gradientUnits="userSpaceOnUse">
<stop stop-color="#FF9517" stop-opacity="0"/>
<stop offset="0.3074" stop-color="#EE8421" stop-opacity="0.305882"/>
<stop offset="0.6784" stop-color="#E07728" stop-opacity="0.678431"/>
<stop offset="1" stop-color="#DB722B"/>
</linearGradient>
<linearGradient id="paint71_linear_3943_35536" x1="81.5701" y1="74.933" x2="81.578" y2="79.2528" gradientUnits="userSpaceOnUse">
<stop stop-color="#FFD00D"/>
<stop offset="0.2378" stop-color="#FFCB0E"/>
<stop offset="0.5353" stop-color="#FFBB11"/>
<stop offset="0.8632" stop-color="#FFA215"/>
<stop offset="1" stop-color="#FF9517"/>
</linearGradient>
<linearGradient id="paint72_linear_3943_35536" x1="69.9354" y1="71.864" x2="53.2006" y2="71.894" gradientUnits="userSpaceOnUse">
<stop stop-color="#FF9517" stop-opacity="0"/>
<stop offset="0.3074" stop-color="#EE8421" stop-opacity="0.305882"/>
<stop offset="0.6784" stop-color="#E07728" stop-opacity="0.678431"/>
<stop offset="1" stop-color="#DB722B"/>
</linearGradient>
<linearGradient id="paint73_linear_3943_35536" x1="76.34" y1="71.8651" x2="64.3078" y2="71.8863" gradientUnits="userSpaceOnUse">
<stop stop-color="#FF9517" stop-opacity="0"/>
<stop offset="0.3074" stop-color="#EE8421" stop-opacity="0.305882"/>
<stop offset="0.6784" stop-color="#E07728" stop-opacity="0.678431"/>
<stop offset="1" stop-color="#DB722B"/>
</linearGradient>
<linearGradient id="paint74_linear_3943_35536" x1="83.8295" y1="71.7149" x2="69.7339" y2="71.7404" gradientUnits="userSpaceOnUse">
<stop stop-color="#FF9517" stop-opacity="0"/>
<stop offset="0.3074" stop-color="#EE8421" stop-opacity="0.305882"/>
<stop offset="0.6784" stop-color="#E07728" stop-opacity="0.678431"/>
<stop offset="1" stop-color="#DB722B"/>
</linearGradient>
<linearGradient id="paint75_linear_3943_35536" x1="91.1308" y1="71.7074" x2="75.7068" y2="71.734" gradientUnits="userSpaceOnUse">
<stop stop-color="#FF9517" stop-opacity="0"/>
<stop offset="0.3074" stop-color="#EE8421" stop-opacity="0.305882"/>
<stop offset="0.6784" stop-color="#E07728" stop-opacity="0.678431"/>
<stop offset="1" stop-color="#DB722B"/>
</linearGradient>
<linearGradient id="paint76_linear_3943_35536" x1="94.5737" y1="71.8582" x2="80.1461" y2="71.8851" gradientUnits="userSpaceOnUse">
<stop stop-color="#FF9517" stop-opacity="0"/>
<stop offset="0.3074" stop-color="#EE8421" stop-opacity="0.305882"/>
<stop offset="0.6784" stop-color="#E07728" stop-opacity="0.678431"/>
<stop offset="1" stop-color="#DB722B"/>
</linearGradient>
<linearGradient id="paint77_linear_3943_35536" x1="78.1342" y1="58.9591" x2="84.428" y2="76.9633" gradientUnits="userSpaceOnUse">
<stop stop-color="#FFD00D"/>
<stop offset="0.2378" stop-color="#FFCB0E"/>
<stop offset="0.5353" stop-color="#FFBB11"/>
<stop offset="0.8632" stop-color="#FFA215"/>
<stop offset="1" stop-color="#FF9517"/>
</linearGradient>
<linearGradient id="paint78_linear_3943_35536" x1="81.5739" y1="73.7405" x2="81.5435" y2="57.1949" gradientUnits="userSpaceOnUse">
<stop stop-color="#FF9517" stop-opacity="0"/>
<stop offset="0.3074" stop-color="#EE8421" stop-opacity="0.305882"/>
<stop offset="0.6784" stop-color="#E07728" stop-opacity="0.678431"/>
<stop offset="1" stop-color="#DB722B"/>
</linearGradient>
<clipPath id="clip0_3943_35536">
<rect x="8" y="4" width="155" height="155" rx="20" fill="white"/>
</clipPath>
</defs>
</svg>
