<svg width="171" height="171" viewBox="0 0 171 171" fill="none" xmlns="http://www.w3.org/2000/svg">
<g filter="url(#filter0_d_3920_36329)">
<g clip-path="url(#clip0_3920_36329)">
<rect x="8" y="4" width="155" height="155" rx="20" fill="url(#paint0_linear_3920_36329)"/>
<g style="mix-blend-mode:soft-light">
<path fill-rule="evenodd" clip-rule="evenodd" d="M-6.99808 173.15C-133.472 199.191 -214.89 322.828 -188.85 449.303C-162.81 575.777 -39.1718 657.195 87.3025 631.155C213.777 605.114 295.195 481.477 269.154 355.002C243.114 228.528 119.476 147.11 -6.99808 173.15ZM3.24711 222.911C-95.745 243.293 -159.471 340.065 -139.089 439.057C-118.707 538.05 -21.9355 601.776 77.0567 581.394C176.049 561.012 239.775 464.24 219.393 365.248C199.011 266.256 102.239 202.53 3.24711 222.911Z" fill="url(#paint1_linear_3920_36329)" fill-opacity="0.5"/>
</g>
<g style="mix-blend-mode:screen" opacity="0.5">
<path d="M164.022 -33.0329L65.8223 37.8356C60.3913 41.7551 53.0244 43.9576 45.3422 43.9576H-80.1016V-47.813H172.505C172.505 -42.2701 169.453 -36.9536 164.022 -33.0329Z" fill="url(#paint2_linear_3920_36329)"/>
</g>
<g style="mix-blend-mode:screen" opacity="0.5">
<path d="M-70.9629 -42.105V37.3709H-11.0017C-3.31339 37.3709 4.06098 35.1489 9.49924 31.1945L107.795 -40.3038C108.581 -40.8753 109.308 -41.4787 109.992 -42.105H-70.9629Z" fill="url(#paint3_linear_3920_36329)"/>
</g>
<path d="M36.5141 129.9C37.1541 129.9 37.6741 130.1 38.0741 130.5C38.4874 130.9 38.6941 131.413 38.6941 132.04C38.6941 132.68 38.4741 133.2 38.0341 133.6C37.5941 134 37.0274 134.2 36.3341 134.2C35.6007 134.2 35.0007 133.987 34.5341 133.56C34.0807 133.12 33.8541 132.553 33.8541 131.86V122.48H36.4141V129.9H36.5141ZM36.5141 132.94C36.7807 132.94 36.9941 132.86 37.1541 132.7C37.3274 132.527 37.4141 132.307 37.4141 132.04C37.4141 131.773 37.3274 131.56 37.1541 131.4C36.9941 131.227 36.7807 131.14 36.5141 131.14C36.2607 131.14 36.0474 131.227 35.8741 131.4C35.7007 131.56 35.6141 131.773 35.6141 132.04C35.6141 132.293 35.7007 132.507 35.8741 132.68C36.0474 132.853 36.2607 132.94 36.5141 132.94ZM47.1375 122.28C48.0842 122.413 48.8375 122.84 49.3975 123.56C49.9575 124.28 50.2375 125.173 50.2375 126.24V134H47.6775V126.24C47.6775 125.747 47.6175 125.353 47.4975 125.06C47.3908 124.753 47.2042 124.507 46.9375 124.32L45.0375 125.48L42.9575 124.22C42.6242 124.447 42.3775 124.747 42.2175 125.12C42.0708 125.493 41.9975 125.98 41.9975 126.58C41.9975 126.887 42.0308 127.2 42.0975 127.52C42.1642 127.84 42.2642 128.24 42.3975 128.72C42.5308 129.2 42.6308 129.587 42.6975 129.88C42.7642 130.173 42.7975 130.46 42.7975 130.74V130.94C42.9575 130.753 43.2708 130.467 43.7375 130.08L44.2575 129.64C43.8842 129.587 43.5775 129.413 43.3375 129.12C43.1108 128.827 42.9975 128.467 42.9975 128.04C42.9975 127.507 43.1842 127.073 43.5575 126.74C43.9308 126.393 44.4042 126.22 44.9775 126.22C45.5508 126.22 46.0108 126.393 46.3575 126.74C46.7175 127.087 46.8975 127.54 46.8975 128.1C46.8975 128.593 46.7508 129.027 46.4575 129.4C46.1642 129.76 45.7042 130.207 45.0775 130.74C44.3975 131.313 43.8708 131.84 43.4975 132.32C43.1375 132.787 42.9375 133.347 42.8975 134H40.4175V131.04C40.4175 130.813 40.3642 130.487 40.2575 130.06C40.1508 129.633 40.0842 129.373 40.0575 129.28C39.8842 128.627 39.7508 128.107 39.6575 127.72C39.5775 127.32 39.5375 126.96 39.5375 126.64C39.5375 125.547 39.8242 124.607 40.3975 123.82C40.9842 123.033 41.8642 122.52 43.0375 122.28L45.0575 123.66L47.1375 122.28ZM44.1175 128.04C44.1175 128.28 44.1908 128.473 44.3375 128.62C44.4842 128.767 44.6842 128.84 44.9375 128.84C45.1775 128.84 45.3708 128.767 45.5175 128.62C45.6642 128.473 45.7375 128.28 45.7375 128.04C45.7375 127.8 45.6642 127.607 45.5175 127.46C45.3708 127.3 45.1775 127.22 44.9375 127.22C44.6842 127.22 44.4842 127.3 44.3375 127.46C44.1908 127.607 44.1175 127.8 44.1175 128.04ZM50.1803 120.96C49.3403 120.6 48.1803 120.3 46.7003 120.06C45.207 119.82 43.8003 119.7 42.4803 119.7C41.707 119.7 41.0003 119.753 40.3603 119.86C40.3736 119.047 40.5736 118.333 40.9603 117.72C41.347 117.107 41.8936 116.633 42.6003 116.3C43.307 115.953 44.1203 115.78 45.0403 115.78C46.6003 115.78 47.8336 116.24 48.7403 117.16C49.6336 118.067 50.1136 119.333 50.1803 120.96ZM48.0603 119.08C47.7936 118.48 47.407 118.027 46.9003 117.72C46.3936 117.413 45.8003 117.26 45.1203 117.26C44.507 117.26 43.9803 117.373 43.5403 117.6C43.087 117.813 42.787 118.113 42.6403 118.5C42.8403 118.487 43.147 118.48 43.5603 118.48C44.3336 118.48 45.127 118.533 45.9403 118.64C46.7403 118.747 47.447 118.893 48.0603 119.08ZM62.8161 122.46V134.02H60.5961C60.1428 133.607 59.6161 133.233 59.0161 132.9C58.4161 132.553 57.8228 132.273 57.2361 132.06C57.1828 132.687 56.9094 133.2 56.4161 133.6C55.9361 134 55.3428 134.2 54.6361 134.2C53.9028 134.2 53.3028 133.98 52.8361 133.54C52.3828 133.1 52.1561 132.54 52.1561 131.86C52.1561 131.22 52.3561 130.7 52.7561 130.3C53.1694 129.887 53.7228 129.653 54.4161 129.6V126.58H54.3161C53.6761 126.58 53.1494 126.387 52.7361 126C52.3361 125.6 52.1361 125.08 52.1361 124.44C52.1361 123.813 52.3561 123.3 52.7961 122.9C53.2361 122.487 53.8028 122.28 54.4961 122.28C55.2294 122.28 55.8228 122.5 56.2761 122.94C56.7428 123.367 56.9761 123.92 56.9761 124.6V129.88C57.5894 130.093 58.1961 130.333 58.7961 130.6C59.3961 130.853 59.8894 131.1 60.2761 131.34V122.46H62.8161ZM54.2961 125.34C54.5628 125.34 54.7761 125.26 54.9361 125.1C55.1094 124.927 55.1961 124.707 55.1961 124.44C55.1961 124.173 55.1094 123.96 54.9361 123.8C54.7761 123.627 54.5628 123.54 54.2961 123.54C54.0428 123.54 53.8294 123.627 53.6561 123.8C53.4961 123.96 53.4161 124.173 53.4161 124.44C53.4161 124.707 53.4961 124.927 53.6561 125.1C53.8294 125.26 54.0428 125.34 54.2961 125.34ZM54.5161 132.8C54.7828 132.8 54.9961 132.72 55.1561 132.56C55.3294 132.387 55.4161 132.167 55.4161 131.9C55.4161 131.633 55.3294 131.42 55.1561 131.26C54.9961 131.087 54.7828 131 54.5161 131C54.2494 131 54.0294 131.087 53.8561 131.26C53.6961 131.42 53.6161 131.633 53.6161 131.9C53.6161 132.167 53.6961 132.387 53.8561 132.56C54.0294 132.72 54.2494 132.8 54.5161 132.8ZM68.1938 129.9C68.8338 129.9 69.3538 130.1 69.7538 130.5C70.1671 130.9 70.3738 131.413 70.3738 132.04C70.3738 132.68 70.1538 133.2 69.7138 133.6C69.2738 134 68.7071 134.2 68.0138 134.2C67.2804 134.2 66.6804 133.987 66.2138 133.56C65.7604 133.12 65.5338 132.553 65.5338 131.86V122.48H68.0938V129.9H68.1938ZM68.1938 132.94C68.4604 132.94 68.6738 132.86 68.8338 132.7C69.0071 132.527 69.0938 132.307 69.0938 132.04C69.0938 131.773 69.0071 131.56 68.8338 131.4C68.6738 131.227 68.4604 131.14 68.1938 131.14C67.9404 131.14 67.7271 131.227 67.5538 131.4C67.3804 131.56 67.2938 131.773 67.2938 132.04C67.2938 132.293 67.3804 132.507 67.5538 132.68C67.7271 132.853 67.9404 132.94 68.1938 132.94ZM81.0772 124.86C81.4772 125.02 81.7839 125.267 81.9972 125.6C82.2239 125.933 82.3372 126.347 82.3372 126.84V131.16C82.3372 132.12 81.9905 132.867 81.2972 133.4C80.6039 133.933 79.6439 134.2 78.4172 134.2C77.1905 134.2 76.2305 133.933 75.5372 133.4C74.8572 132.867 74.5172 132.12 74.5172 131.16V129.8C74.5172 129.4 74.5839 129.053 74.7172 128.76C74.8505 128.467 75.0572 128.113 75.3372 127.7C75.6305 127.26 75.8439 126.88 75.9772 126.56C76.1239 126.24 76.1972 125.853 76.1972 125.4C76.1972 124.92 76.0572 124.56 75.7772 124.32C75.4972 124.067 75.1105 123.94 74.6172 123.94C74.1772 123.94 73.8239 124 73.5572 124.12C74.0639 124.147 74.4905 124.333 74.8372 124.68C75.1972 125.013 75.3772 125.487 75.3772 126.1C75.3772 126.687 75.1839 127.187 74.7972 127.6C74.4105 128.013 73.8705 128.22 73.1772 128.22C72.4572 128.22 71.8905 127.993 71.4772 127.54C71.0639 127.087 70.8572 126.447 70.8572 125.62C70.8572 124.62 71.2039 123.813 71.8972 123.2C72.5905 122.587 73.5372 122.28 74.7372 122.28C75.8972 122.28 76.7839 122.533 77.3972 123.04C78.0239 123.533 78.3372 124.24 78.3372 125.16C78.3372 125.707 78.2772 126.173 78.1572 126.56C78.0372 126.933 77.8572 127.353 77.6172 127.82C77.4305 128.167 77.2905 128.473 77.1972 128.74C77.1039 129.007 77.0572 129.3 77.0572 129.62V131.18C77.0572 131.5 77.1772 131.753 77.4172 131.94C77.6705 132.113 78.0105 132.2 78.4372 132.2C78.8639 132.2 79.1905 132.113 79.4172 131.94C79.6572 131.753 79.7772 131.5 79.7772 131.18V126.98C79.7772 126.567 79.6972 126.253 79.5372 126.04C79.3905 125.827 79.1239 125.667 78.7372 125.56V124.32C79.2572 124.093 79.6372 123.787 79.8772 123.4C80.1172 123.013 80.2505 122.473 80.2772 121.78H82.8972C82.8439 122.473 82.6305 123.107 82.2572 123.68C81.8839 124.24 81.4905 124.633 81.0772 124.86ZM74.0572 126.14C74.0572 125.873 73.9772 125.66 73.8172 125.5C73.6572 125.34 73.4439 125.26 73.1772 125.26C72.9105 125.26 72.6905 125.34 72.5172 125.5C72.3572 125.66 72.2772 125.873 72.2772 126.14C72.2772 126.407 72.3572 126.62 72.5172 126.78C72.6905 126.94 72.9105 127.02 73.1772 127.02C73.4439 127.02 73.6572 126.94 73.8172 126.78C73.9772 126.62 74.0572 126.407 74.0572 126.14ZM82.345 119.78C82.4117 120.1 82.4583 120.493 82.485 120.96C81.645 120.6 80.485 120.3 79.005 120.06C77.5117 119.82 76.105 119.7 74.785 119.7C74.0117 119.7 73.305 119.753 72.665 119.86C72.6783 119.047 72.8783 118.333 73.265 117.72C73.6517 117.107 74.1983 116.633 74.905 116.3C75.6117 115.953 76.425 115.78 77.345 115.78C77.4917 115.78 77.7117 115.793 78.005 115.82V114.92H79.625V116.2C80.065 116.4 80.4317 116.627 80.725 116.88V114.92H82.345V119.78ZM75.865 118.48C76.6383 118.48 77.4317 118.533 78.245 118.64C79.045 118.747 79.7517 118.893 80.365 119.08C80.0983 118.48 79.7117 118.027 79.205 117.72C78.6983 117.413 78.105 117.26 77.425 117.26C76.8117 117.26 76.285 117.373 75.845 117.6C75.3917 117.813 75.0917 118.113 74.945 118.5C75.145 118.487 75.4517 118.48 75.865 118.48ZM83.6117 108.7C83.5451 109.673 83.2117 110.54 82.6117 111.3C82.0117 112.047 81.2317 112.627 80.2717 113.04C79.2984 113.453 78.2317 113.66 77.0717 113.66H76.1117V112.7C76.6984 112.513 77.2517 112.18 77.7717 111.7H77.6917C77.1851 111.7 76.7851 111.56 76.4917 111.28C76.1984 110.987 76.0517 110.587 76.0517 110.08C76.0517 109.6 76.2184 109.213 76.5517 108.92C76.8851 108.613 77.3051 108.46 77.8117 108.46C78.3317 108.46 78.7584 108.62 79.0917 108.94C79.4251 109.26 79.5917 109.68 79.5917 110.2C79.5917 110.507 79.5317 110.847 79.4117 111.22C79.2917 111.593 79.1051 111.92 78.8517 112.2C79.4117 112.04 79.9117 111.773 80.3517 111.4C80.7784 111.013 81.1184 110.58 81.3717 110.1C81.6117 109.62 81.7451 109.153 81.7717 108.7H83.6117ZM77.1717 110.1C77.1717 110.287 77.2317 110.447 77.3517 110.58C77.4717 110.7 77.6251 110.76 77.8117 110.76C77.9984 110.76 78.1517 110.7 78.2717 110.58C78.3917 110.447 78.4517 110.287 78.4517 110.1C78.4517 109.913 78.3917 109.76 78.2717 109.64C78.1384 109.52 77.9851 109.46 77.8117 109.46C77.6251 109.46 77.4717 109.52 77.3517 109.64C77.2317 109.76 77.1717 109.913 77.1717 110.1ZM89.485 122.28C90.4583 122.28 91.3117 122.433 92.045 122.74C92.7917 123.033 93.365 123.447 93.765 123.98C94.1783 124.513 94.385 125.133 94.385 125.84V131.2C94.385 132.133 93.9717 132.867 93.145 133.4C92.3317 133.933 91.225 134.2 89.825 134.2C88.4117 134.2 87.305 133.933 86.505 133.4C85.705 132.853 85.305 132.12 85.305 131.2V128.6C85.305 127.907 85.5317 127.353 85.985 126.94C86.4383 126.513 87.025 126.3 87.745 126.3C88.4517 126.3 89.0183 126.5 89.445 126.9C89.8717 127.287 90.085 127.793 90.085 128.42C90.085 129.047 89.8783 129.553 89.465 129.94C89.065 130.313 88.5517 130.5 87.925 130.5H87.825V131.06C87.825 131.42 88.0117 131.7 88.385 131.9C88.7717 132.1 89.265 132.2 89.865 132.2C90.5183 132.2 91.005 132.087 91.325 131.86C91.6583 131.62 91.825 131.3 91.825 130.9V125.94C91.825 125.447 91.605 125.047 91.165 124.74C90.7383 124.433 90.165 124.28 89.445 124.28C88.7517 124.28 88.1517 124.427 87.645 124.72C87.1517 125 86.8583 125.38 86.765 125.86H84.285C84.3383 125.14 84.5917 124.513 85.045 123.98C85.4983 123.433 86.105 123.013 86.865 122.72C87.6383 122.427 88.5117 122.28 89.485 122.28ZM87.945 127.54C87.6783 127.54 87.465 127.62 87.305 127.78C87.145 127.94 87.065 128.147 87.065 128.4C87.065 128.667 87.145 128.88 87.305 129.04C87.465 129.2 87.6783 129.28 87.945 129.28C88.1983 129.28 88.405 129.2 88.565 129.04C88.7383 128.88 88.825 128.667 88.825 128.4C88.825 128.147 88.7383 127.94 88.565 127.78C88.405 127.62 88.1983 127.54 87.945 127.54ZM99.7367 129.9C100.377 129.9 100.897 130.1 101.297 130.5C101.71 130.9 101.917 131.413 101.917 132.04C101.917 132.68 101.697 133.2 101.257 133.6C100.817 134 100.25 134.2 99.5567 134.2C98.8234 134.2 98.2234 133.987 97.7567 133.56C97.3034 133.12 97.0767 132.553 97.0767 131.86V122.48H99.6367V129.9H99.7367ZM99.7367 132.94C100.003 132.94 100.217 132.86 100.377 132.7C100.55 132.527 100.637 132.307 100.637 132.04C100.637 131.773 100.55 131.56 100.377 131.4C100.217 131.227 100.003 131.14 99.7367 131.14C99.4834 131.14 99.2701 131.227 99.0967 131.4C98.9234 131.56 98.8367 131.773 98.8367 132.04C98.8367 132.293 98.9234 132.507 99.0967 132.68C99.2701 132.853 99.4834 132.94 99.7367 132.94ZM115.66 122.48V134H112.86L110.2 125.46L107.56 134H104.74V126.58H104.62C103.967 126.58 103.433 126.387 103.02 126C102.62 125.6 102.42 125.08 102.42 124.44C102.42 123.813 102.64 123.3 103.08 122.9C103.52 122.487 104.087 122.28 104.78 122.28C105.513 122.28 106.107 122.5 106.56 122.94C107.027 123.367 107.26 123.92 107.26 124.6V128.82C107.26 129.153 107.227 129.7 107.16 130.46L107.58 128.74L109.28 122.56H111.14L112.82 128.74L113.24 130.46C113.173 129.7 113.14 129.153 113.14 128.82V122.48H115.66ZM104.6 125.34C104.867 125.34 105.08 125.26 105.24 125.1C105.413 124.927 105.5 124.707 105.5 124.44C105.5 124.173 105.413 123.96 105.24 123.8C105.08 123.627 104.867 123.54 104.6 123.54C104.347 123.54 104.133 123.627 103.96 123.8C103.787 123.96 103.7 124.173 103.7 124.44C103.7 124.693 103.787 124.907 103.96 125.08C104.133 125.253 104.347 125.34 104.6 125.34ZM122.685 122.28C123.685 122.28 124.559 122.427 125.305 122.72C126.065 123.013 126.652 123.433 127.065 123.98C127.479 124.513 127.685 125.133 127.685 125.84V134H125.125V129.6C125.125 129.107 124.905 128.713 124.465 128.42C124.039 128.127 123.512 127.98 122.885 127.98C122.245 127.98 121.732 128.12 121.345 128.4C120.972 128.667 120.785 129.027 120.785 129.48V129.9H120.885C121.525 129.9 122.045 130.1 122.445 130.5C122.859 130.887 123.065 131.4 123.065 132.04C123.065 132.667 122.845 133.187 122.405 133.6C121.965 134 121.399 134.2 120.705 134.2C119.972 134.2 119.372 133.987 118.905 133.56C118.452 133.12 118.225 132.553 118.225 131.86V129.5C118.225 128.833 118.412 128.247 118.785 127.74C119.159 127.233 119.672 126.847 120.325 126.58C120.979 126.3 121.705 126.16 122.505 126.16C123.039 126.16 123.532 126.24 123.985 126.4C124.439 126.547 124.819 126.76 125.125 127.04V125.78C125.125 125.327 124.905 124.967 124.465 124.7C124.025 124.42 123.432 124.28 122.685 124.28C121.952 124.28 121.339 124.427 120.845 124.72C120.365 125 120.079 125.38 119.985 125.86H117.505C117.572 124.767 118.059 123.9 118.965 123.26C119.885 122.607 121.125 122.28 122.685 122.28ZM121.785 132.04C121.785 131.773 121.699 131.56 121.525 131.4C121.365 131.227 121.152 131.14 120.885 131.14C120.632 131.14 120.419 131.227 120.245 131.4C120.072 131.56 119.985 131.773 119.985 132.04C119.985 132.293 120.072 132.507 120.245 132.68C120.419 132.853 120.632 132.94 120.885 132.94C121.152 132.94 121.365 132.86 121.525 132.7C121.699 132.527 121.785 132.307 121.785 132.04ZM127.622 120.96C126.782 120.6 125.622 120.3 124.142 120.06C122.648 119.82 121.242 119.7 119.922 119.7C119.148 119.7 118.442 119.753 117.802 119.86C117.815 119.047 118.015 118.333 118.402 117.72C118.788 117.107 119.335 116.633 120.042 116.3C120.748 115.953 121.562 115.78 122.482 115.78C124.042 115.78 125.275 116.24 126.182 117.16C127.075 118.067 127.555 119.333 127.622 120.96ZM125.502 119.08C125.235 118.48 124.848 118.027 124.342 117.72C123.835 117.413 123.242 117.26 122.562 117.26C121.948 117.26 121.422 117.373 120.982 117.6C120.528 117.813 120.228 118.113 120.082 118.5C120.282 118.487 120.588 118.48 121.002 118.48C121.775 118.48 122.568 118.533 123.382 118.64C124.182 118.747 124.888 118.893 125.502 119.08ZM134.817 122.28C135.551 122.28 136.144 122.5 136.598 122.94C137.064 123.367 137.298 123.92 137.298 124.6V134H134.758L129.198 128.1L130.578 126.66L134.758 131.16V126.58H134.658C134.004 126.58 133.471 126.387 133.058 126C132.658 125.6 132.458 125.08 132.458 124.44C132.458 123.813 132.678 123.3 133.118 122.9C133.558 122.487 134.124 122.28 134.817 122.28ZM134.638 125.34C134.904 125.34 135.118 125.26 135.278 125.1C135.451 124.927 135.538 124.707 135.538 124.44C135.538 124.173 135.451 123.96 135.278 123.8C135.118 123.627 134.904 123.54 134.638 123.54C134.384 123.54 134.171 123.627 133.998 123.8C133.824 123.96 133.738 124.173 133.738 124.44C133.738 124.693 133.824 124.907 133.998 125.08C134.171 125.253 134.384 125.34 134.638 125.34Z" fill="white"/>
</g>
</g>
<ellipse cx="85.5938" cy="84.8438" rx="58.5938" ry="5.15625" fill="#020202" fill-opacity="0.3"/>
<g clip-path="url(#clip1_3920_36329)">
<path d="M121.86 79.3461C118.709 79.3461 116.145 76.7826 116.145 73.6316V54.1584C116.145 52.8116 115.049 51.716 113.703 51.716H111.324C110.42 51.716 109.688 50.9835 109.688 50.08C109.688 49.1764 110.42 48.4439 111.324 48.4439H113.703C116.854 48.4439 119.417 51.0074 119.417 54.1584V73.6316C119.417 74.9784 120.513 76.074 121.86 76.074C123.206 76.074 124.302 74.9784 124.302 73.6316V22.2498C124.302 21.3462 125.035 20.6138 125.938 20.6138C126.841 20.6138 127.574 21.3462 127.574 22.2498V73.6316C127.574 76.7826 125.011 79.3461 121.86 79.3461Z" fill="url(#paint4_linear_3920_36329)"/>
<path d="M62.8551 24.0316L52.8078 22.8109C51.2732 22.6244 50.1191 21.3218 50.1191 19.7759V12.8035C50.1191 11.2576 51.2732 9.95484 52.8078 9.76849L62.8551 8.54785V24.0316Z" fill="url(#paint5_linear_3920_36329)"/>
<path d="M62.8551 24.0316L52.8078 22.8109C51.2732 22.6244 50.1191 21.3218 50.1191 19.7759V12.8035C50.1191 11.2576 51.2732 9.95484 52.8078 9.76849L62.8551 8.54785V24.0316Z" fill="url(#paint6_linear_3920_36329)"/>
<path d="M102.621 42.3691L112.668 43.5898C114.203 43.7763 115.357 45.0789 115.357 46.6248V53.597C115.357 55.1429 114.203 56.4457 112.668 56.632L102.621 57.8527V42.3691Z" fill="url(#paint7_linear_3920_36329)"/>
<path d="M102.621 42.3691L112.668 43.5898C114.203 43.7763 115.357 45.0789 115.357 46.6248V53.597C115.357 55.1429 114.203 56.4457 112.668 56.632L102.621 57.8527V42.3691Z" fill="url(#paint8_linear_3920_36329)"/>
<path d="M62.8551 56.1751L55.184 54.5453C52.2309 53.9179 50.1191 51.3104 50.1191 48.2914V36.9818C50.1191 33.9629 52.2309 31.3554 55.184 30.728L62.8551 29.0981V56.1751Z" fill="url(#paint9_linear_3920_36329)"/>
<path d="M50.1191 40.2461V48.2913C50.1191 51.3102 52.2309 53.9177 55.184 54.5452L62.8551 56.175V40.2461H50.1191Z" fill="url(#paint10_linear_3920_36329)"/>
<path d="M110.528 77.4899H55.6289V7.59232C55.6289 3.39918 59.0281 0 63.2212 0H102.935C107.128 0 110.528 3.39918 110.528 7.59232V77.4899Z" fill="url(#paint11_linear_3920_36329)"/>
<path d="M101.594 36.7057H64.5591C63.0076 36.7057 61.75 35.4481 61.75 33.8966V8.07713C61.75 6.52568 63.0076 5.26807 64.5591 5.26807H101.594C103.146 5.26807 104.403 6.52568 104.403 8.07713V33.8966C104.403 35.4481 103.146 36.7057 101.594 36.7057Z" fill="url(#paint12_linear_3920_36329)"/>
<path d="M102.934 0H75.1582V77.4899H110.526V7.59232C110.526 3.39918 107.127 0 102.934 0Z" fill="url(#paint13_linear_3920_36329)"/>
<path d="M116.542 12.3903L109.702 5.54938C108.77 4.61766 107.259 4.61766 106.328 5.54938C105.396 6.48109 105.396 7.99164 106.328 8.92336L113.168 15.7641C114.1 16.6958 115.611 16.6958 116.542 15.7641C117.474 14.8324 117.474 13.322 116.542 12.3903Z" fill="url(#paint14_linear_3920_36329)"/>
<path d="M116.542 12.3903L109.702 5.54938C108.77 4.61766 107.259 4.61766 106.328 5.54938C105.396 6.48109 105.396 7.99164 106.328 8.92336L113.168 15.7641C114.1 16.6958 115.611 16.6958 116.542 15.7641C117.474 14.8324 117.474 13.322 116.542 12.3903Z" fill="url(#paint15_linear_3920_36329)"/>
<path d="M126.928 41.3918H123.82C122.509 41.3918 121.447 40.3297 121.447 39.0196V34.5205H129.3V39.0196C129.3 40.3297 128.238 41.3918 126.928 41.3918Z" fill="url(#paint16_linear_3920_36329)"/>
<path d="M129.625 20.4221L119.435 12.5351C116.585 10.3297 112.445 12.3607 112.445 15.9637V31.9867C112.445 34.3812 114.386 36.3223 116.781 36.3223H126.971C129.366 36.3223 131.307 34.3812 131.307 31.9867V23.8509C131.307 22.5092 130.686 21.2432 129.625 20.4221ZM121.14 30.3652C121.14 31.3401 120.35 32.1305 119.375 32.1305H117.721C116.746 32.1305 115.955 31.3401 115.955 30.3652V25.2899C115.955 24.315 116.746 23.5246 117.721 23.5246H119.375C120.35 23.5246 121.14 24.315 121.14 25.2899V30.3652Z" fill="url(#paint17_linear_3920_36329)"/>
<path d="M129.317 26.1531H124.213C123.844 26.1531 123.545 25.8539 123.545 25.4848C123.545 24.8662 124.046 24.3647 124.665 24.3647H128.865C129.484 24.3647 129.985 24.8662 129.985 25.4848C129.985 25.8539 129.686 26.1531 129.317 26.1531Z" fill="url(#paint18_linear_3920_36329)"/>
<path d="M129.317 29.3162H124.213C123.844 29.3162 123.545 29.0169 123.545 28.6479C123.545 28.0293 124.046 27.5278 124.665 27.5278H128.865C129.484 27.5278 129.985 28.0293 129.985 28.6479C129.985 29.0169 129.686 29.3162 129.317 29.3162Z" fill="url(#paint19_linear_3920_36329)"/>
<path d="M119.829 21.1523H117.264C115.751 21.1523 114.525 22.3777 114.525 23.8911V31.7636C114.525 33.277 115.751 34.5023 117.264 34.5023H119.829C121.343 34.5023 122.568 33.277 122.568 31.7636V23.8911C122.568 22.3777 121.343 21.1523 119.829 21.1523ZM121.14 30.3648C121.14 31.3399 120.35 32.1301 119.375 32.1301H117.721C116.745 32.1301 115.955 31.3399 115.955 30.3648V25.2899C115.955 24.3148 116.745 23.5246 117.721 23.5246H119.375C120.35 23.5246 121.14 24.3148 121.14 25.2899V30.3648Z" fill="url(#paint20_linear_3920_36329)"/>
<path d="M129.625 20.4222L122.428 14.8521V36.3225H126.971C129.365 36.3225 131.307 34.3813 131.307 31.9868V23.851C131.307 22.5093 130.686 21.2434 129.625 20.4222Z" fill="url(#paint21_linear_3920_36329)"/>
<path d="M120.932 24.459C121.064 24.7067 121.14 24.9895 121.14 25.2901V30.3654C121.14 31.3403 120.35 32.1307 119.375 32.1307H117.721C116.746 32.1307 115.955 31.3403 115.955 30.3654V25.2901C115.955 24.9895 116.031 24.7067 116.163 24.459H112.445V31.9868C112.445 34.3813 114.386 36.3225 116.781 36.3225H126.971C129.366 36.3225 131.307 34.3813 131.307 31.9868V24.459H120.932Z" fill="url(#paint22_linear_3920_36329)"/>
<path d="M55.6289 45.9248H110.528V77.4899H55.6289V45.9248Z" fill="url(#paint23_linear_3920_36329)"/>
<path d="M110.526 69.2869L84.9602 43.7212L76.5781 65.1548L88.9131 77.4898H110.526V69.2869Z" fill="url(#paint24_linear_3920_36329)"/>
<path d="M114.761 83.4375H51.3943C49.9471 83.4375 48.9177 82.0303 49.3558 80.651L50.0271 78.5384C50.9117 75.754 53.4969 73.8628 56.4184 73.8628H109.737C112.658 73.8628 115.243 75.754 116.128 78.5384L116.799 80.651C117.237 82.0303 116.208 83.4375 114.761 83.4375Z" fill="url(#paint25_linear_3920_36329)"/>
<path d="M98.6463 33.1364H67.5079C66.2609 33.1364 65.25 32.1255 65.25 30.8785V11.0958C65.25 9.84879 66.2609 8.83789 67.5079 8.83789H98.6463C99.8933 8.83789 100.904 9.84879 100.904 11.0958V30.8785C100.904 32.1255 99.8933 33.1364 98.6463 33.1364Z" fill="url(#paint26_linear_3920_36329)"/>
<path d="M98.6461 8.83789H67.5079C66.2609 8.83789 65.25 9.84879 65.25 11.0958V26.0483H100.904V11.0958C100.904 9.84879 99.8933 8.83789 98.6461 8.83789Z" fill="url(#paint27_linear_3920_36329)"/>
<path d="M84.7286 8.83789H67.5079C66.2609 8.83789 65.25 9.84879 65.25 11.0958V30.8785C65.25 32.1255 66.2609 33.1364 67.5079 33.1364H84.7286V8.83789Z" fill="url(#paint28_linear_3920_36329)"/>
<path d="M81.1936 43.7213L75.1408 54.1479C71.5893 60.2658 76.0033 67.9319 83.0772 67.9319C90.1512 67.9319 94.5652 60.2656 91.0136 54.1479L84.9608 43.7213C84.1213 42.2752 82.0331 42.2752 81.1936 43.7213Z" fill="url(#paint29_linear_3920_36329)"/>
<path d="M91.0144 54.148L86.9411 47.1313L73.9883 60.0841C74.6249 64.3245 78.2254 67.932 83.0779 67.932C90.1519 67.932 94.5659 60.2659 91.0144 54.148Z" fill="url(#paint30_linear_3920_36329)"/>
<path d="M75.1408 54.1478C71.5894 60.2657 76.0032 67.9318 83.0772 67.9318C90.1513 67.9318 94.5653 60.2656 91.0136 54.1478L89.6551 51.8076H76.4992L75.1408 54.1478Z" fill="url(#paint31_linear_3920_36329)"/>
<path d="M116.128 78.5384C115.244 75.754 112.659 73.8628 109.737 73.8628H85.373V83.4373H114.761C116.208 83.4373 117.238 82.0302 116.8 80.6508L116.128 78.5384Z" fill="url(#paint32_linear_3920_36329)"/>
</g>
<defs>
<filter id="filter0_d_3920_36329" x="0" y="0" width="171" height="171" filterUnits="userSpaceOnUse" color-interpolation-filters="sRGB">
<feFlood flood-opacity="0" result="BackgroundImageFix"/>
<feColorMatrix in="SourceAlpha" type="matrix" values="0 0 0 0 0 0 0 0 0 0 0 0 0 0 0 0 0 0 127 0" result="hardAlpha"/>
<feOffset dy="4"/>
<feGaussianBlur stdDeviation="4"/>
<feComposite in2="hardAlpha" operator="out"/>
<feColorMatrix type="matrix" values="0 0 0 0 0 0 0 0 0 0 0 0 0 0 0 0 0 0 0.15 0"/>
<feBlend mode="normal" in2="BackgroundImageFix" result="effect1_dropShadow_3920_36329"/>
<feBlend mode="normal" in="SourceGraphic" in2="effect1_dropShadow_3920_36329" result="shape"/>
</filter>
<linearGradient id="paint0_linear_3920_36329" x1="8" y1="81.5887" x2="163" y2="81.5887" gradientUnits="userSpaceOnUse">
<stop offset="0.0762668" stop-color="#062143"/>
<stop offset="1" stop-color="#194F91"/>
</linearGradient>
<linearGradient id="paint1_linear_3920_36329" x1="45.8345" y1="459.681" x2="209.875" y2="110.935" gradientUnits="userSpaceOnUse">
<stop offset="0.567708" stop-color="white" stop-opacity="0"/>
<stop offset="1" stop-color="#D9D9D9"/>
</linearGradient>
<linearGradient id="paint2_linear_3920_36329" x1="-84.103" y1="-1.92772" x2="220.462" y2="-1.92772" gradientUnits="userSpaceOnUse">
<stop stop-color="#052143"/>
<stop offset="1" stop-color="#01050D"/>
</linearGradient>
<linearGradient id="paint3_linear_3920_36329" x1="19.5147" y1="34.5748" x2="19.5147" y2="-12.6961" gradientUnits="userSpaceOnUse">
<stop stop-color="#052143"/>
<stop offset="1" stop-color="#01050D"/>
</linearGradient>
<linearGradient id="paint4_linear_3920_36329" x1="124.39" y1="51.2607" x2="136.17" y2="62.7129" gradientUnits="userSpaceOnUse">
<stop stop-color="#5A5A5A"/>
<stop offset="1" stop-color="#444444"/>
</linearGradient>
<linearGradient id="paint5_linear_3920_36329" x1="51.0703" y1="16.2897" x2="56.0219" y2="16.2897" gradientUnits="userSpaceOnUse">
<stop stop-color="#B9ACAC"/>
<stop offset="1" stop-color="#766E6E"/>
</linearGradient>
<linearGradient id="paint6_linear_3920_36329" x1="56.4872" y1="18.9779" x2="56.4872" y2="24.4312" gradientUnits="userSpaceOnUse">
<stop stop-color="#433F43" stop-opacity="0"/>
<stop offset="0.3174" stop-color="#3B373B" stop-opacity="0.317"/>
<stop offset="0.8224" stop-color="#242324" stop-opacity="0.822"/>
<stop offset="1" stop-color="#1A1A1A"/>
</linearGradient>
<linearGradient id="paint7_linear_3920_36329" x1="114.44" y1="50.111" x2="108.114" y2="50.111" gradientUnits="userSpaceOnUse">
<stop stop-color="#B9ACAC"/>
<stop offset="1" stop-color="#766E6E"/>
</linearGradient>
<linearGradient id="paint8_linear_3920_36329" x1="108.989" y1="51.1533" x2="108.989" y2="58.0255" gradientUnits="userSpaceOnUse">
<stop stop-color="#433F43" stop-opacity="0"/>
<stop offset="0.3174" stop-color="#3B373B" stop-opacity="0.317"/>
<stop offset="0.8224" stop-color="#242324" stop-opacity="0.822"/>
<stop offset="1" stop-color="#1A1A1A"/>
</linearGradient>
<linearGradient id="paint9_linear_3920_36329" x1="51.6158" y1="42.6366" x2="57.9096" y2="42.6366" gradientUnits="userSpaceOnUse">
<stop stop-color="#B9ACAC"/>
<stop offset="1" stop-color="#766E6E"/>
</linearGradient>
<linearGradient id="paint10_linear_3920_36329" x1="56.4872" y1="49.2827" x2="56.4872" y2="56.3525" gradientUnits="userSpaceOnUse">
<stop stop-color="#433F43" stop-opacity="0"/>
<stop offset="0.3174" stop-color="#3B373B" stop-opacity="0.317"/>
<stop offset="0.8224" stop-color="#242324" stop-opacity="0.822"/>
<stop offset="1" stop-color="#1A1A1A"/>
</linearGradient>
<linearGradient id="paint11_linear_3920_36329" x1="63.0637" y1="18.2614" x2="95.9462" y2="55.8063" gradientUnits="userSpaceOnUse">
<stop stop-color="#FFA1AE"/>
<stop offset="1" stop-color="#E41F2D"/>
</linearGradient>
<linearGradient id="paint12_linear_3920_36329" x1="101.223" y1="38.1042" x2="53.6168" y2="-6.80256" gradientUnits="userSpaceOnUse">
<stop stop-color="#FFA1AE"/>
<stop offset="1" stop-color="#E41F2D"/>
</linearGradient>
<linearGradient id="paint13_linear_3920_36329" x1="97.7344" y1="38.7449" x2="111.13" y2="38.7449" gradientUnits="userSpaceOnUse">
<stop stop-color="#C41926" stop-opacity="0"/>
<stop offset="0.1758" stop-color="#C01A27" stop-opacity="0.176"/>
<stop offset="0.3761" stop-color="#B21E29" stop-opacity="0.376"/>
<stop offset="0.5886" stop-color="#9B242C" stop-opacity="0.589"/>
<stop offset="0.8079" stop-color="#7B2D31" stop-opacity="0.808"/>
<stop offset="1" stop-color="#593636"/>
</linearGradient>
<linearGradient id="paint14_linear_3920_36329" x1="112.66" y1="9.41884" x2="109.838" y2="12.2416" gradientUnits="userSpaceOnUse">
<stop stop-color="#FFFAF8"/>
<stop offset="1" stop-color="#FFDFCF"/>
</linearGradient>
<linearGradient id="paint15_linear_3920_36329" x1="111.019" y1="9.57335" x2="112.819" y2="14.2634" gradientUnits="userSpaceOnUse">
<stop stop-color="#FFA78F" stop-opacity="0"/>
<stop offset="0.9385" stop-color="#FFA78F" stop-opacity="0.939"/>
<stop offset="1" stop-color="#FFA78F"/>
</linearGradient>
<linearGradient id="paint16_linear_3920_36329" x1="124.23" y1="35.1253" x2="127.42" y2="40.606" gradientUnits="userSpaceOnUse">
<stop stop-color="#FFA1AE"/>
<stop offset="1" stop-color="#E41F2D"/>
</linearGradient>
<linearGradient id="paint17_linear_3920_36329" x1="112.039" y1="14.207" x2="128.236" y2="36.7842" gradientUnits="userSpaceOnUse">
<stop stop-color="#FFA1AE"/>
<stop offset="1" stop-color="#E41F2D"/>
</linearGradient>
<linearGradient id="paint18_linear_3920_36329" x1="126.765" y1="26.1441" x2="126.765" y2="23.69" gradientUnits="userSpaceOnUse">
<stop stop-color="#FFA1AE"/>
<stop offset="1" stop-color="#E41F2D"/>
</linearGradient>
<linearGradient id="paint19_linear_3920_36329" x1="126.765" y1="29.3072" x2="126.765" y2="26.8531" gradientUnits="userSpaceOnUse">
<stop stop-color="#FFA1AE"/>
<stop offset="1" stop-color="#E41F2D"/>
</linearGradient>
<linearGradient id="paint20_linear_3920_36329" x1="123.85" y1="30.4241" x2="111.989" y2="24.6162" gradientUnits="userSpaceOnUse">
<stop stop-color="#FFA1AE"/>
<stop offset="1" stop-color="#E41F2D"/>
</linearGradient>
<linearGradient id="paint21_linear_3920_36329" x1="126.191" y1="25.5872" x2="131.62" y2="25.5872" gradientUnits="userSpaceOnUse">
<stop stop-color="#C41926" stop-opacity="0"/>
<stop offset="0.1758" stop-color="#C01A27" stop-opacity="0.176"/>
<stop offset="0.3761" stop-color="#B21E29" stop-opacity="0.376"/>
<stop offset="0.5886" stop-color="#9B242C" stop-opacity="0.589"/>
<stop offset="0.8079" stop-color="#7B2D31" stop-opacity="0.808"/>
<stop offset="1" stop-color="#593636"/>
</linearGradient>
<linearGradient id="paint22_linear_3920_36329" x1="121.876" y1="31.8211" x2="121.876" y2="36.6474" gradientUnits="userSpaceOnUse">
<stop stop-color="#C41926" stop-opacity="0"/>
<stop offset="0.1758" stop-color="#C01A27" stop-opacity="0.176"/>
<stop offset="0.3761" stop-color="#B21E29" stop-opacity="0.376"/>
<stop offset="0.5886" stop-color="#9B242C" stop-opacity="0.589"/>
<stop offset="0.8079" stop-color="#7B2D31" stop-opacity="0.808"/>
<stop offset="1" stop-color="#593636"/>
</linearGradient>
<linearGradient id="paint23_linear_3920_36329" x1="83.0782" y1="63.5931" x2="83.0782" y2="76.4381" gradientUnits="userSpaceOnUse">
<stop stop-color="#C41926" stop-opacity="0"/>
<stop offset="0.1758" stop-color="#C01A27" stop-opacity="0.176"/>
<stop offset="0.3761" stop-color="#B21E29" stop-opacity="0.376"/>
<stop offset="0.5886" stop-color="#9B242C" stop-opacity="0.589"/>
<stop offset="0.8079" stop-color="#7B2D31" stop-opacity="0.808"/>
<stop offset="1" stop-color="#593636"/>
</linearGradient>
<linearGradient id="paint24_linear_3920_36329" x1="102.066" y1="66.2266" x2="78.5075" y2="57.4738" gradientUnits="userSpaceOnUse">
<stop stop-color="#C41926" stop-opacity="0"/>
<stop offset="0.1758" stop-color="#C01A27" stop-opacity="0.176"/>
<stop offset="0.3761" stop-color="#B21E29" stop-opacity="0.376"/>
<stop offset="0.5886" stop-color="#9B242C" stop-opacity="0.589"/>
<stop offset="0.8079" stop-color="#7B2D31" stop-opacity="0.808"/>
<stop offset="1" stop-color="#593636"/>
</linearGradient>
<linearGradient id="paint25_linear_3920_36329" x1="83.0775" y1="76.5662" x2="83.0775" y2="84.0991" gradientUnits="userSpaceOnUse">
<stop stop-color="#5A5A5A"/>
<stop offset="1" stop-color="#444444"/>
</linearGradient>
<linearGradient id="paint26_linear_3920_36329" x1="76.9198" y1="7.74895" x2="91.6432" y2="39.4047" gradientUnits="userSpaceOnUse">
<stop stop-color="#AEFFD1"/>
<stop offset="1" stop-color="#60B7FF"/>
</linearGradient>
<linearGradient id="paint27_linear_3920_36329" x1="83.077" y1="16.7234" x2="83.077" y2="5.92461" gradientUnits="userSpaceOnUse">
<stop stop-color="#1F3596" stop-opacity="0"/>
<stop offset="0.4068" stop-color="#1D3290" stop-opacity="0.407"/>
<stop offset="0.9508" stop-color="#192B7F" stop-opacity="0.951"/>
<stop offset="1" stop-color="#192A7D"/>
</linearGradient>
<linearGradient id="paint28_linear_3920_36329" x1="73.4405" y1="20.987" x2="60.4139" y2="20.987" gradientUnits="userSpaceOnUse">
<stop stop-color="#1F3596" stop-opacity="0"/>
<stop offset="0.4068" stop-color="#1D3290" stop-opacity="0.407"/>
<stop offset="0.9508" stop-color="#192B7F" stop-opacity="0.951"/>
<stop offset="1" stop-color="#192A7D"/>
</linearGradient>
<linearGradient id="paint29_linear_3920_36329" x1="78.5703" y1="52.2293" x2="86.3761" y2="60.0351" gradientUnits="userSpaceOnUse">
<stop stop-color="#FEF0AE"/>
<stop offset="1" stop-color="#FFBF51"/>
</linearGradient>
<linearGradient id="paint30_linear_3920_36329" x1="81.4589" y1="55.8856" x2="90.3442" y2="64.7709" gradientUnits="userSpaceOnUse">
<stop stop-color="#FEA613" stop-opacity="0"/>
<stop offset="0.1766" stop-color="#FDA116" stop-opacity="0.177"/>
<stop offset="0.3939" stop-color="#FA921D" stop-opacity="0.394"/>
<stop offset="0.6325" stop-color="#F4792A" stop-opacity="0.633"/>
<stop offset="0.8846" stop-color="#ED573B" stop-opacity="0.885"/>
<stop offset="1" stop-color="#E94444"/>
</linearGradient>
<linearGradient id="paint31_linear_3920_36329" x1="83.0772" y1="58.3517" x2="83.0772" y2="68.3937" gradientUnits="userSpaceOnUse">
<stop stop-color="#FEA613" stop-opacity="0"/>
<stop offset="0.1766" stop-color="#FDA116" stop-opacity="0.177"/>
<stop offset="0.3939" stop-color="#FA921D" stop-opacity="0.394"/>
<stop offset="0.6325" stop-color="#F4792A" stop-opacity="0.633"/>
<stop offset="0.8846" stop-color="#ED573B" stop-opacity="0.885"/>
<stop offset="1" stop-color="#E94444"/>
</linearGradient>
<linearGradient id="paint32_linear_3920_36329" x1="100.588" y1="78.6501" x2="114.719" y2="78.6501" gradientUnits="userSpaceOnUse">
<stop stop-color="#433F43" stop-opacity="0"/>
<stop offset="0.3174" stop-color="#3B373B" stop-opacity="0.317"/>
<stop offset="0.8224" stop-color="#242324" stop-opacity="0.822"/>
<stop offset="1" stop-color="#1A1A1A"/>
</linearGradient>
<clipPath id="clip0_3920_36329">
<rect x="8" y="4" width="155" height="155" rx="20" fill="white"/>
</clipPath>
<clipPath id="clip1_3920_36329">
<rect width="83.4375" height="83.4375" fill="white" transform="translate(48.5625)"/>
</clipPath>
</defs>
</svg>
