<svg width="171" height="110" viewBox="0 0 171 110" fill="none" xmlns="http://www.w3.org/2000/svg">
<g filter="url(#filter0_d_3943_35781)">
<rect x="7.99219" y="7" width="155.859" height="96" rx="20" fill="url(#paint0_linear_3943_35781)"/>
</g>
<g filter="url(#filter1_d_3943_35781)">
<path d="M54.4262 75.9C55.0662 75.9 55.5862 76.1 55.9862 76.5C56.3995 76.9 56.6062 77.4133 56.6062 78.04C56.6062 78.68 56.3862 79.2 55.9462 79.6C55.5062 80 54.9395 80.2 54.2462 80.2C53.5128 80.2 52.9128 79.9867 52.4462 79.56C51.9928 79.12 51.7662 78.5533 51.7662 77.86V68.48H54.3262V75.9H54.4262ZM54.4262 78.94C54.6928 78.94 54.9062 78.86 55.0662 78.7C55.2395 78.5267 55.3262 78.3067 55.3262 78.04C55.3262 77.7733 55.2395 77.56 55.0662 77.4C54.9062 77.2267 54.6928 77.14 54.4262 77.14C54.1728 77.14 53.9595 77.2267 53.7862 77.4C53.6128 77.56 53.5262 77.7733 53.5262 78.04C53.5262 78.2933 53.6128 78.5067 53.7862 78.68C53.9595 78.8533 54.1728 78.94 54.4262 78.94ZM60.2262 75.9C60.8662 75.9 61.3862 76.1 61.7862 76.5C62.1995 76.9 62.4062 77.4133 62.4062 78.04C62.4062 78.68 62.1862 79.2 61.7462 79.6C61.3062 80 60.7395 80.2 60.0462 80.2C59.3128 80.2 58.7128 79.9867 58.2462 79.56C57.7928 79.12 57.5662 78.5533 57.5662 77.86V68.48H60.1262V75.9H60.2262ZM60.2262 78.94C60.4928 78.94 60.7062 78.86 60.8662 78.7C61.0395 78.5267 61.1262 78.3067 61.1262 78.04C61.1262 77.7733 61.0395 77.56 60.8662 77.4C60.7062 77.2267 60.4928 77.14 60.2262 77.14C59.9728 77.14 59.7595 77.2267 59.5862 77.4C59.4128 77.56 59.3262 77.7733 59.3262 78.04C59.3262 78.2933 59.4128 78.5067 59.5862 78.68C59.7595 78.8533 59.9728 78.94 60.2262 78.94ZM69.6704 80.2C68.8571 80.2 68.2037 80.04 67.7104 79.72C67.2171 79.4 66.9104 78.9267 66.7904 78.3L66.5104 76.72C66.3771 76.7467 66.2571 76.76 66.1504 76.76C65.4971 76.76 64.9637 76.5733 64.5504 76.2C64.1371 75.8133 63.9304 75.32 63.9304 74.72C63.9304 74.0933 64.1437 73.6 64.5704 73.24C65.0104 72.88 65.5437 72.7 66.1704 72.7C66.6904 72.7 67.1437 72.84 67.5304 73.12C67.9304 73.4 68.1771 73.78 68.2704 74.26L68.9104 77.7C68.9371 77.8733 69.0104 78.0067 69.1304 78.1C69.2637 78.1933 69.4237 78.24 69.6104 78.24C70.0371 78.24 70.2504 78.04 70.2504 77.64V71.9C70.2504 71.4067 70.0437 71.0133 69.6304 70.72C69.2304 70.4267 68.6971 70.28 68.0304 70.28C67.3771 70.28 66.8237 70.4267 66.3704 70.72C65.9171 71.0133 65.6437 71.3933 65.5504 71.86H63.0304C63.1104 70.78 63.5971 69.9133 64.4904 69.26C65.3971 68.6067 66.5971 68.28 68.0904 68.28C69.0237 68.28 69.8437 68.42 70.5504 68.7C71.2704 68.9667 71.8237 69.3533 72.2104 69.86C72.6104 70.3667 72.8104 70.9467 72.8104 71.6V77.7C72.8104 78.5133 72.5437 79.1333 72.0104 79.56C71.4771 79.9867 70.6971 80.2 69.6704 80.2ZM66.0504 75.54C66.3037 75.54 66.5037 75.4667 66.6504 75.32C66.8104 75.16 66.8904 74.9533 66.8904 74.7C66.8904 74.4467 66.8104 74.2467 66.6504 74.1C66.5037 73.94 66.3037 73.86 66.0504 73.86C65.7971 73.86 65.5904 73.94 65.4304 74.1C65.2704 74.2467 65.1904 74.4467 65.1904 74.7C65.1904 74.9533 65.2704 75.16 65.4304 75.32C65.5904 75.4667 65.7971 75.54 66.0504 75.54ZM74.6009 60.82C74.5209 61.9133 74.1675 62.88 73.5409 63.72C72.9009 64.5467 72.0609 65.1867 71.0209 65.64C69.9675 66.0933 68.8009 66.32 67.5209 66.32H66.5209V65.26C67.2142 64.98 67.8075 64.6133 68.3009 64.16H68.2409C67.6942 64.16 67.2609 64 66.9409 63.68C66.6075 63.36 66.4409 62.92 66.4409 62.36C66.4409 61.84 66.6275 61.4133 67.0009 61.08C67.3609 60.7467 67.8209 60.58 68.3809 60.58C68.9542 60.58 69.4209 60.76 69.7809 61.12C70.1409 61.4667 70.3209 61.9333 70.3209 62.52C70.3209 62.8533 70.2609 63.2133 70.1409 63.6C70.0075 63.9867 69.8009 64.3333 69.5209 64.64C70.0809 64.4933 70.5875 64.2133 71.0409 63.8C71.4809 63.3867 71.8275 62.9133 72.0809 62.38C72.3342 61.8467 72.4809 61.3267 72.5209 60.82H74.6009ZM67.6609 62.4C67.6609 62.6133 67.7275 62.7867 67.8609 62.92C67.9942 63.04 68.1675 63.1 68.3809 63.1C68.5809 63.1 68.7475 63.04 68.8809 62.92C69.0142 62.7867 69.0809 62.6133 69.0809 62.4C69.0809 62.1867 69.0142 62.0133 68.8809 61.88C68.7475 61.7467 68.5809 61.68 68.3809 61.68C68.1675 61.68 67.9942 61.7467 67.8609 61.88C67.7275 62.0133 67.6609 62.1867 67.6609 62.4ZM79.9562 68.28C80.6895 68.28 81.2828 68.5 81.7362 68.94C82.2028 69.3667 82.4362 69.92 82.4362 70.6V80H79.8962L74.3362 74.1L75.7162 72.66L79.8962 77.16V72.58H79.7962C79.1428 72.58 78.6095 72.3867 78.1962 72C77.7962 71.6 77.5962 71.08 77.5962 70.44C77.5962 69.8133 77.8162 69.3 78.2562 68.9C78.6962 68.4867 79.2628 68.28 79.9562 68.28ZM79.7762 71.34C80.0428 71.34 80.2562 71.26 80.4162 71.1C80.5895 70.9267 80.6762 70.7067 80.6762 70.44C80.6762 70.1733 80.5895 69.96 80.4162 69.8C80.2562 69.6267 80.0428 69.54 79.7762 69.54C79.5228 69.54 79.3095 69.6267 79.1362 69.8C78.9628 69.96 78.8762 70.1733 78.8762 70.44C78.8762 70.6933 78.9628 70.9067 79.1362 71.08C79.3095 71.2533 79.5228 71.34 79.7762 71.34ZM94.5246 70.86C94.9246 71.02 95.2379 71.2667 95.4646 71.6C95.6913 71.9333 95.8046 72.3467 95.8046 72.84V77.16C95.8046 78.1333 95.4713 78.8867 94.8046 79.42C94.1379 79.94 93.1846 80.2 91.9446 80.2C90.7179 80.2 89.7713 79.9333 89.1046 79.4C88.4379 78.8667 88.1046 78.12 88.1046 77.16V75.96C88.1046 75.5467 88.1713 75.1867 88.3046 74.88C88.4379 74.5733 88.6446 74.2 88.9246 73.76C89.2179 73.32 89.4379 72.9333 89.5846 72.6C89.7313 72.2533 89.8046 71.8533 89.8046 71.4C89.8046 70.7467 89.5979 70.28 89.1846 70L88.0846 70.86L86.8846 70.02C86.5913 70.2067 86.3846 70.48 86.2646 70.84H86.3646C86.9646 70.84 87.4579 71.0333 87.8446 71.42C88.2313 71.8067 88.4246 72.3 88.4246 72.9C88.4246 73.5133 88.2179 74.0067 87.8046 74.38C87.4046 74.7533 86.8913 74.94 86.2646 74.94C85.5846 74.94 85.0313 74.6867 84.6046 74.18C84.1779 73.66 83.9646 72.98 83.9646 72.14C83.9646 71.1933 84.2313 70.36 84.7646 69.64C85.2979 68.92 85.9979 68.4667 86.8646 68.28L88.0846 69.3L89.3246 68.28C90.1246 68.4267 90.7779 68.74 91.2846 69.22C91.7913 69.6867 92.0446 70.3133 92.0446 71.1C92.0446 71.6733 91.9713 72.16 91.8246 72.56C91.6913 72.96 91.4979 73.4067 91.2446 73.9C91.0446 74.2867 90.8913 74.6133 90.7846 74.88C90.6913 75.1467 90.6446 75.44 90.6446 75.76V77.18C90.6446 77.5 90.7646 77.7533 91.0046 77.94C91.2446 78.1133 91.5646 78.2 91.9646 78.2C92.8179 78.2 93.2446 77.86 93.2446 77.18V72.98C93.2446 72.54 93.1846 72.22 93.0646 72.02C92.9579 71.82 92.7246 71.6667 92.3646 71.56V70.32C92.8713 70.1067 93.2179 69.8133 93.4046 69.44C93.6046 69.0533 93.7179 68.5 93.7446 67.78H96.3646C96.3113 68.4733 96.0979 69.1067 95.7246 69.68C95.3513 70.24 94.9513 70.6333 94.5246 70.86ZM87.1646 72.88C87.1646 72.6133 87.0779 72.4 86.9046 72.24C86.7446 72.08 86.5313 72 86.2646 72C86.0113 72 85.7979 72.08 85.6246 72.24C85.4646 72.4 85.3846 72.6133 85.3846 72.88C85.3846 73.1467 85.4646 73.3667 85.6246 73.54C85.7846 73.7 85.9979 73.78 86.2646 73.78C86.5313 73.78 86.7446 73.7 86.9046 73.54C87.0779 73.3667 87.1646 73.1467 87.1646 72.88ZM93.364 61.94H95.724V66.32H93.364V61.94ZM102.924 68.28C103.898 68.28 104.751 68.4333 105.484 68.74C106.231 69.0333 106.804 69.4467 107.204 69.98C107.618 70.5133 107.824 71.1333 107.824 71.84V77.2C107.824 78.1333 107.411 78.8667 106.584 79.4C105.771 79.9333 104.664 80.2 103.264 80.2C101.851 80.2 100.744 79.9333 99.9445 79.4C99.1445 78.8533 98.7445 78.12 98.7445 77.2V74.6C98.7445 73.9067 98.9711 73.3533 99.4245 72.94C99.8778 72.5133 100.464 72.3 101.184 72.3C101.891 72.3 102.458 72.5 102.884 72.9C103.311 73.2867 103.524 73.7933 103.524 74.42C103.524 75.0467 103.318 75.5533 102.904 75.94C102.504 76.3133 101.991 76.5 101.364 76.5H101.264V77.06C101.264 77.42 101.451 77.7 101.824 77.9C102.211 78.1 102.704 78.2 103.304 78.2C103.958 78.2 104.444 78.0867 104.764 77.86C105.098 77.62 105.264 77.3 105.264 76.9V71.94C105.264 71.4467 105.044 71.0467 104.604 70.74C104.178 70.4333 103.604 70.28 102.884 70.28C102.191 70.28 101.591 70.4267 101.084 70.72C100.591 71 100.298 71.38 100.204 71.86H97.7245C97.7778 71.14 98.0311 70.5133 98.4845 69.98C98.9378 69.4333 99.5445 69.0133 100.304 68.72C101.078 68.4267 101.951 68.28 102.924 68.28ZM101.384 73.54C101.118 73.54 100.904 73.62 100.744 73.78C100.584 73.94 100.504 74.1467 100.504 74.4C100.504 74.6667 100.584 74.88 100.744 75.04C100.904 75.2 101.118 75.28 101.384 75.28C101.638 75.28 101.844 75.2 102.004 75.04C102.178 74.88 102.264 74.6667 102.264 74.4C102.264 74.1467 102.178 73.94 102.004 73.78C101.844 73.62 101.638 73.54 101.384 73.54ZM120.396 68.46V80.02H118.176C117.723 79.6067 117.196 79.2333 116.596 78.9C115.996 78.5533 115.403 78.2733 114.816 78.06C114.763 78.6867 114.49 79.2 113.996 79.6C113.516 80 112.923 80.2 112.216 80.2C111.483 80.2 110.883 79.98 110.416 79.54C109.963 79.1 109.736 78.54 109.736 77.86C109.736 77.22 109.936 76.7 110.336 76.3C110.75 75.8867 111.303 75.6533 111.996 75.6V72.58H111.896C111.256 72.58 110.73 72.3867 110.316 72C109.916 71.6 109.716 71.08 109.716 70.44C109.716 69.8133 109.936 69.3 110.376 68.9C110.816 68.4867 111.383 68.28 112.076 68.28C112.81 68.28 113.403 68.5 113.856 68.94C114.323 69.3667 114.556 69.92 114.556 70.6V75.88C115.17 76.0933 115.776 76.3333 116.376 76.6C116.976 76.8533 117.47 77.1 117.856 77.34V68.46H120.396ZM111.876 71.34C112.143 71.34 112.356 71.26 112.516 71.1C112.69 70.9267 112.776 70.7067 112.776 70.44C112.776 70.1733 112.69 69.96 112.516 69.8C112.356 69.6267 112.143 69.54 111.876 69.54C111.623 69.54 111.41 69.6267 111.236 69.8C111.076 69.96 110.996 70.1733 110.996 70.44C110.996 70.7067 111.076 70.9267 111.236 71.1C111.41 71.26 111.623 71.34 111.876 71.34ZM112.096 78.8C112.363 78.8 112.576 78.72 112.736 78.56C112.91 78.3867 112.996 78.1667 112.996 77.9C112.996 77.6333 112.91 77.42 112.736 77.26C112.576 77.0867 112.363 77 112.096 77C111.83 77 111.61 77.0867 111.436 77.26C111.276 77.42 111.196 77.6333 111.196 77.9C111.196 78.1667 111.276 78.3867 111.436 78.56C111.61 78.72 111.83 78.8 112.096 78.8Z" fill="white"/>
</g>
<g filter="url(#filter2_d_3943_35781)">
<path d="M88.4134 34.1113C88.0227 34.1113 87.6321 34.1602 87.2415 34.2578L83.1887 30.2051C83.1887 29.8145 83.1887 29.4238 83.2376 29.0332C83.677 26.2988 85.7766 24.0039 88.511 23.3691C89.6829 23.0762 90.8059 23.0762 91.8313 23.3203C92.3684 23.4668 92.5637 24.1504 92.1731 24.541L88.804 27.9102V31.5234H92.4661L95.8352 28.2031C96.2259 27.8125 96.9094 27.959 97.0559 28.4961C97.3001 29.5215 97.3001 30.6934 97.0071 31.8652C96.5188 33.9648 95.0051 35.6738 93.052 36.5527L92.0755 35.625C91.0989 34.6484 89.8294 34.1113 88.4134 34.1113ZM91.0012 36.748L96.7141 42.3633C97.3977 43.0957 97.3977 44.2676 96.7141 44.9512L94.1262 47.5391C93.3938 48.2227 92.2708 48.2227 91.5384 47.5391L85.8255 41.8262C84.7024 40.7031 84.5071 38.9941 85.1419 37.627L79.9661 32.4512H76.9387L72.2512 26.25L75.3762 23.125L81.5774 27.8125V30.8398L86.802 36.0645C88.1692 35.4297 89.8294 35.625 91.0012 36.748ZM83.3352 38.1152C83.0911 39.2383 83.2376 40.3613 83.677 41.3867L77.8665 47.1973C77.2317 47.832 76.3528 48.125 75.5227 48.125C74.6926 48.125 73.8137 47.832 73.179 47.1973C71.9094 45.8789 71.9094 43.8281 73.179 42.5098L80.4544 35.2344L83.3352 38.1152ZM75.3762 46.1719C76.011 46.1719 76.5481 45.6836 76.5481 45C76.5481 44.3652 76.011 43.8281 75.3762 43.8281C74.6926 43.8281 74.2044 44.3652 74.2044 45C74.2044 45.6836 74.6926 46.1719 75.3762 46.1719Z" fill="white"/>
</g>
<defs>
<filter id="filter0_d_3943_35781" x="0.992188" y="0" width="169.859" height="110" filterUnits="userSpaceOnUse" color-interpolation-filters="sRGB">
<feFlood flood-opacity="0" result="BackgroundImageFix"/>
<feColorMatrix in="SourceAlpha" type="matrix" values="0 0 0 0 0 0 0 0 0 0 0 0 0 0 0 0 0 0 127 0" result="hardAlpha"/>
<feOffset/>
<feGaussianBlur stdDeviation="3.5"/>
<feComposite in2="hardAlpha" operator="out"/>
<feColorMatrix type="matrix" values="0 0 0 0 0 0 0 0 0 0 0 0 0 0 0 0 0 0 0.06 0"/>
<feBlend mode="normal" in2="BackgroundImageFix" result="effect1_dropShadow_3943_35781"/>
<feBlend mode="normal" in="SourceGraphic" in2="effect1_dropShadow_3943_35781" result="shape"/>
</filter>
<filter id="filter1_d_3943_35781" x="47.7656" y="58.5801" width="76.6309" height="27.6201" filterUnits="userSpaceOnUse" color-interpolation-filters="sRGB">
<feFlood flood-opacity="0" result="BackgroundImageFix"/>
<feColorMatrix in="SourceAlpha" type="matrix" values="0 0 0 0 0 0 0 0 0 0 0 0 0 0 0 0 0 0 127 0" result="hardAlpha"/>
<feOffset dy="2"/>
<feGaussianBlur stdDeviation="2"/>
<feComposite in2="hardAlpha" operator="out"/>
<feColorMatrix type="matrix" values="0 0 0 0 0 0 0 0 0 0 0 0 0 0 0 0 0 0 0.15 0"/>
<feBlend mode="normal" in2="BackgroundImageFix" result="effect1_dropShadow_3943_35781"/>
<feBlend mode="normal" in="SourceGraphic" in2="effect1_dropShadow_3943_35781" result="shape"/>
</filter>
<filter id="filter2_d_3943_35781" x="67.9102" y="21.0762" width="33.4883" height="33.1465" filterUnits="userSpaceOnUse" color-interpolation-filters="sRGB">
<feFlood flood-opacity="0" result="BackgroundImageFix"/>
<feColorMatrix in="SourceAlpha" type="matrix" values="0 0 0 0 0 0 0 0 0 0 0 0 0 0 0 0 0 0 127 0" result="hardAlpha"/>
<feOffset dy="2"/>
<feGaussianBlur stdDeviation="2"/>
<feComposite in2="hardAlpha" operator="out"/>
<feColorMatrix type="matrix" values="0 0 0 0 0 0 0 0 0 0 0 0 0 0 0 0 0 0 0.15 0"/>
<feBlend mode="normal" in2="BackgroundImageFix" result="effect1_dropShadow_3943_35781"/>
<feBlend mode="normal" in="SourceGraphic" in2="effect1_dropShadow_3943_35781" result="shape"/>
</filter>
<linearGradient id="paint0_linear_3943_35781" x1="85.9215" y1="7" x2="85.9215" y2="103" gradientUnits="userSpaceOnUse">
<stop stop-color="#FFC701"/>
<stop offset="1" stop-color="#D48D01"/>
</linearGradient>
</defs>
</svg>
