<svg width="171" height="110" viewBox="0 0 171 110" fill="none" xmlns="http://www.w3.org/2000/svg">
<g filter="url(#filter0_d_3920_36378)">
<rect x="7.99219" y="7" width="155.859" height="96" rx="20" fill="url(#paint0_linear_3920_36378)"/>
</g>
<g filter="url(#filter1_d_3920_36378)">
<path d="M57.4846 76.9C58.1246 76.9 58.6446 77.1 59.0446 77.5C59.4579 77.9 59.6646 78.4133 59.6646 79.04C59.6646 79.68 59.4446 80.2 59.0046 80.6C58.5646 81 57.9979 81.2 57.3046 81.2C56.5712 81.2 55.9712 80.9867 55.5046 80.56C55.0512 80.12 54.8246 79.5533 54.8246 78.86V69.48H57.3846V76.9H57.4846ZM57.4846 79.94C57.7512 79.94 57.9646 79.86 58.1246 79.7C58.2979 79.5267 58.3846 79.3067 58.3846 79.04C58.3846 78.7733 58.2979 78.56 58.1246 78.4C57.9646 78.2267 57.7512 78.14 57.4846 78.14C57.2312 78.14 57.0179 78.2267 56.8446 78.4C56.6712 78.56 56.5846 78.7733 56.5846 79.04C56.5846 79.2933 56.6712 79.5067 56.8446 79.68C57.0179 79.8533 57.2312 79.94 57.4846 79.94ZM63.2846 76.9C63.9246 76.9 64.4446 77.1 64.8446 77.5C65.2579 77.9 65.4646 78.4133 65.4646 79.04C65.4646 79.68 65.2446 80.2 64.8046 80.6C64.3646 81 63.7979 81.2 63.1046 81.2C62.3712 81.2 61.7712 80.9867 61.3046 80.56C60.8512 80.12 60.6246 79.5533 60.6246 78.86V69.48H63.1846V76.9H63.2846ZM63.2846 79.94C63.5512 79.94 63.7646 79.86 63.9246 79.7C64.0979 79.5267 64.1846 79.3067 64.1846 79.04C64.1846 78.7733 64.0979 78.56 63.9246 78.4C63.7646 78.2267 63.5512 78.14 63.2846 78.14C63.0312 78.14 62.8179 78.2267 62.6446 78.4C62.4712 78.56 62.3846 78.7733 62.3846 79.04C62.3846 79.2933 62.4712 79.5067 62.6446 79.68C62.8179 79.8533 63.0312 79.94 63.2846 79.94ZM72.7288 81.2C71.9154 81.2 71.2621 81.04 70.7688 80.72C70.2754 80.4 69.9688 79.9267 69.8488 79.3L69.5688 77.72C69.4354 77.7467 69.3154 77.76 69.2088 77.76C68.5554 77.76 68.0221 77.5733 67.6088 77.2C67.1954 76.8133 66.9888 76.32 66.9888 75.72C66.9888 75.0933 67.2021 74.6 67.6288 74.24C68.0688 73.88 68.6021 73.7 69.2288 73.7C69.7488 73.7 70.2021 73.84 70.5888 74.12C70.9888 74.4 71.2354 74.78 71.3288 75.26L71.9688 78.7C71.9954 78.8733 72.0688 79.0067 72.1888 79.1C72.3221 79.1933 72.4821 79.24 72.6688 79.24C73.0954 79.24 73.3088 79.04 73.3088 78.64V72.9C73.3088 72.4067 73.1021 72.0133 72.6888 71.72C72.2888 71.4267 71.7554 71.28 71.0888 71.28C70.4354 71.28 69.8821 71.4267 69.4288 71.72C68.9754 72.0133 68.7021 72.3933 68.6088 72.86H66.0888C66.1688 71.78 66.6554 70.9133 67.5488 70.26C68.4554 69.6067 69.6554 69.28 71.1488 69.28C72.0821 69.28 72.9021 69.42 73.6088 69.7C74.3288 69.9667 74.8821 70.3533 75.2688 70.86C75.6688 71.3667 75.8688 71.9467 75.8688 72.6V78.7C75.8688 79.5133 75.6021 80.1333 75.0688 80.56C74.5354 80.9867 73.7554 81.2 72.7288 81.2ZM69.1088 76.54C69.3621 76.54 69.5621 76.4667 69.7088 76.32C69.8688 76.16 69.9488 75.9533 69.9488 75.7C69.9488 75.4467 69.8688 75.2467 69.7088 75.1C69.5621 74.94 69.3621 74.86 69.1088 74.86C68.8554 74.86 68.6488 74.94 68.4888 75.1C68.3288 75.2467 68.2488 75.4467 68.2488 75.7C68.2488 75.9533 68.3288 76.16 68.4888 76.32C68.6488 76.4667 68.8554 76.54 69.1088 76.54ZM77.6593 61.82C77.5793 62.9133 77.2259 63.88 76.5993 64.72C75.9593 65.5467 75.1193 66.1867 74.0793 66.64C73.0259 67.0933 71.8593 67.32 70.5793 67.32H69.5793V66.26C70.2726 65.98 70.8659 65.6133 71.3593 65.16H71.2993C70.7526 65.16 70.3193 65 69.9993 64.68C69.6659 64.36 69.4993 63.92 69.4993 63.36C69.4993 62.84 69.6859 62.4133 70.0593 62.08C70.4193 61.7467 70.8793 61.58 71.4393 61.58C72.0126 61.58 72.4793 61.76 72.8393 62.12C73.1993 62.4667 73.3793 62.9333 73.3793 63.52C73.3793 63.8533 73.3193 64.2133 73.1993 64.6C73.0659 64.9867 72.8593 65.3333 72.5793 65.64C73.1393 65.4933 73.6459 65.2133 74.0993 64.8C74.5393 64.3867 74.8859 63.9133 75.1393 63.38C75.3926 62.8467 75.5393 62.3267 75.5793 61.82H77.6593ZM70.7193 63.4C70.7193 63.6133 70.7859 63.7867 70.9193 63.92C71.0526 64.04 71.2259 64.1 71.4393 64.1C71.6393 64.1 71.8059 64.04 71.9393 63.92C72.0726 63.7867 72.1393 63.6133 72.1393 63.4C72.1393 63.1867 72.0726 63.0133 71.9393 62.88C71.8059 62.7467 71.6393 62.68 71.4393 62.68C71.2259 62.68 71.0526 62.7467 70.9193 62.88C70.7859 63.0133 70.7193 63.1867 70.7193 63.4ZM83.0146 69.28C83.7479 69.28 84.3412 69.5 84.7946 69.94C85.2612 70.3667 85.4946 70.92 85.4946 71.6V81H82.9546L77.3946 75.1L78.7746 73.66L82.9546 78.16V73.58H82.8546C82.2012 73.58 81.6679 73.3867 81.2546 73C80.8546 72.6 80.6546 72.08 80.6546 71.44C80.6546 70.8133 80.8746 70.3 81.3146 69.9C81.7546 69.4867 82.3212 69.28 83.0146 69.28ZM82.8346 72.34C83.1012 72.34 83.3146 72.26 83.4746 72.1C83.6479 71.9267 83.7346 71.7067 83.7346 71.44C83.7346 71.1733 83.6479 70.96 83.4746 70.8C83.3146 70.6267 83.1012 70.54 82.8346 70.54C82.5812 70.54 82.3679 70.6267 82.1946 70.8C82.0212 70.96 81.9346 71.1733 81.9346 71.44C81.9346 71.6933 82.0212 71.9067 82.1946 72.08C82.3679 72.2533 82.5812 72.34 82.8346 72.34ZM90.883 76.9C91.523 76.9 92.043 77.1 92.443 77.5C92.8563 77.9 93.063 78.4133 93.063 79.04C93.063 79.68 92.843 80.2 92.403 80.6C91.963 81 91.3963 81.2 90.703 81.2C89.9697 81.2 89.3697 80.9867 88.903 80.56C88.4497 80.12 88.223 79.5533 88.223 78.86V69.48H90.783V76.9H90.883ZM90.883 79.94C91.1497 79.94 91.363 79.86 91.523 79.7C91.6963 79.5267 91.783 79.3067 91.783 79.04C91.783 78.7733 91.6963 78.56 91.523 78.4C91.363 78.2267 91.1497 78.14 90.883 78.14C90.6297 78.14 90.4163 78.2267 90.243 78.4C90.0697 78.56 89.983 78.7733 89.983 79.04C89.983 79.2933 90.0697 79.5067 90.243 79.68C90.4163 79.8533 90.6297 79.94 90.883 79.94ZM104.306 73.06C104.733 73.46 104.946 74.0133 104.946 74.72V81H102.386V75.04C102.386 74.6267 102.26 74.42 102.006 74.42C101.82 74.42 101.633 74.5867 101.446 74.92L98.1264 81H95.8664V73.58H95.7664C95.1131 73.58 94.5798 73.3867 94.1664 73C93.7664 72.6 93.5664 72.08 93.5664 71.44C93.5664 70.8133 93.7864 70.3 94.2264 69.9C94.6664 69.4867 95.2331 69.28 95.9264 69.28C96.6598 69.28 97.2531 69.5 97.7064 69.94C98.1731 70.3667 98.4064 70.92 98.4064 71.6V75.7C98.4064 76.42 98.3464 77.0933 98.2264 77.72L100.266 73.96C100.533 73.4533 100.873 73.0933 101.286 72.88C100.926 72.48 100.746 71.9867 100.746 71.4C100.746 70.7867 100.946 70.28 101.346 69.88C101.76 69.48 102.28 69.28 102.906 69.28C103.533 69.28 104.053 69.48 104.466 69.88C104.88 70.28 105.086 70.7867 105.086 71.4C105.086 71.7467 105.013 72.06 104.866 72.34C104.733 72.62 104.546 72.86 104.306 73.06ZM95.7464 72.34C96.0131 72.34 96.2264 72.26 96.3864 72.1C96.5598 71.9267 96.6464 71.7067 96.6464 71.44C96.6464 71.1733 96.5598 70.96 96.3864 70.8C96.2264 70.6267 96.0131 70.54 95.7464 70.54C95.4931 70.54 95.2798 70.6267 95.1064 70.8C94.9331 70.96 94.8464 71.1733 94.8464 71.44C94.8464 71.6933 94.9331 71.9067 95.1064 72.08C95.2798 72.2533 95.4931 72.34 95.7464 72.34ZM102.906 70.54C102.653 70.54 102.44 70.6267 102.266 70.8C102.106 70.96 102.026 71.1733 102.026 71.44C102.026 71.7067 102.106 71.9267 102.266 72.1C102.44 72.26 102.653 72.34 102.906 72.34C103.173 72.34 103.386 72.26 103.546 72.1C103.72 71.9267 103.806 71.7067 103.806 71.44C103.806 71.1733 103.72 70.96 103.546 70.8C103.386 70.6267 103.173 70.54 102.906 70.54ZM114.397 69.28C115.344 69.4133 116.097 69.84 116.657 70.56C117.217 71.28 117.497 72.1733 117.497 73.24V81H114.937V73.24C114.937 72.7467 114.877 72.3533 114.757 72.06C114.65 71.7533 114.464 71.5067 114.197 71.32L112.297 72.48L110.217 71.22C109.884 71.4467 109.637 71.7467 109.477 72.12C109.33 72.4933 109.257 72.98 109.257 73.58C109.257 73.8867 109.29 74.2 109.357 74.52C109.424 74.84 109.524 75.24 109.657 75.72C109.79 76.2 109.89 76.5867 109.957 76.88C110.024 77.1733 110.057 77.46 110.057 77.74V77.94C110.217 77.7533 110.53 77.4667 110.997 77.08L111.517 76.64C111.144 76.5867 110.837 76.4133 110.597 76.12C110.37 75.8267 110.257 75.4667 110.257 75.04C110.257 74.5067 110.444 74.0733 110.817 73.74C111.19 73.3933 111.664 73.22 112.237 73.22C112.81 73.22 113.27 73.3933 113.617 73.74C113.977 74.0867 114.157 74.54 114.157 75.1C114.157 75.5933 114.01 76.0267 113.717 76.4C113.424 76.76 112.964 77.2067 112.337 77.74C111.657 78.3133 111.13 78.84 110.757 79.32C110.397 79.7867 110.197 80.3467 110.157 81H107.677V78.04C107.677 77.8133 107.624 77.4867 107.517 77.06C107.41 76.6333 107.344 76.3733 107.317 76.28C107.144 75.6267 107.01 75.1067 106.917 74.72C106.837 74.32 106.797 73.96 106.797 73.64C106.797 72.5467 107.084 71.6067 107.657 70.82C108.244 70.0333 109.124 69.52 110.297 69.28L112.317 70.66L114.397 69.28ZM111.377 75.04C111.377 75.28 111.45 75.4733 111.597 75.62C111.744 75.7667 111.944 75.84 112.197 75.84C112.437 75.84 112.63 75.7667 112.777 75.62C112.924 75.4733 112.997 75.28 112.997 75.04C112.997 74.8 112.924 74.6067 112.777 74.46C112.63 74.3 112.437 74.22 112.197 74.22C111.944 74.22 111.744 74.3 111.597 74.46C111.45 74.6067 111.377 74.8 111.377 75.04ZM115.455 85.96C115.349 86 115.155 86.02 114.875 86.02C114.329 86.02 113.889 85.84 113.555 85.48C113.209 85.1333 113.035 84.68 113.035 84.12C113.035 83.5467 113.235 83.08 113.635 82.72C114.022 82.3733 114.542 82.2 115.195 82.2C115.902 82.2 116.462 82.3733 116.875 82.72C117.289 83.0667 117.495 83.52 117.495 84.08V88.06H115.455V85.96ZM114.935 84.9C115.162 84.9 115.355 84.8267 115.515 84.68C115.662 84.5333 115.735 84.3467 115.735 84.12C115.735 83.88 115.662 83.6867 115.515 83.54C115.355 83.3933 115.162 83.32 114.935 83.32C114.709 83.32 114.522 83.3933 114.375 83.54C114.215 83.6867 114.135 83.88 114.135 84.12C114.135 84.3467 114.215 84.5333 114.375 84.68C114.522 84.8267 114.709 84.9 114.935 84.9Z" fill="white"/>
</g>
<g filter="url(#filter2_d_3920_36378)">
<path d="M96.9583 43.4863C97.7395 44.8535 96.763 46.5625 95.1516 46.5625H74.302C72.6907 46.5625 71.7141 44.8535 72.4954 43.4863L82.9446 25.7129C83.7259 24.3457 85.7278 24.3457 86.5579 25.7129L96.9583 43.4863ZM83.5794 31.3281V37.5781C83.5794 38.2617 84.1653 38.75 84.7512 38.75C85.386 38.75 85.9231 38.2617 85.9231 37.5781V31.3281C85.9231 30.6934 85.386 30.1562 84.7512 30.1562C84.0676 30.1562 83.5794 30.6934 83.5794 31.3281ZM84.7512 43.4375C85.5813 43.4375 86.2649 42.7539 86.2649 41.9238C86.2649 41.0938 85.5813 40.4102 84.7512 40.4102C83.8723 40.4102 83.1887 41.0938 83.1887 41.9238C83.1887 42.7539 83.8723 43.4375 84.7512 43.4375Z" fill="white"/>
</g>
<defs>
<filter id="filter0_d_3920_36378" x="0.992188" y="0" width="169.859" height="110" filterUnits="userSpaceOnUse" color-interpolation-filters="sRGB">
<feFlood flood-opacity="0" result="BackgroundImageFix"/>
<feColorMatrix in="SourceAlpha" type="matrix" values="0 0 0 0 0 0 0 0 0 0 0 0 0 0 0 0 0 0 127 0" result="hardAlpha"/>
<feOffset/>
<feGaussianBlur stdDeviation="3.5"/>
<feComposite in2="hardAlpha" operator="out"/>
<feColorMatrix type="matrix" values="0 0 0 0 0 0 0 0 0 0 0 0 0 0 0 0 0 0 0.06 0"/>
<feBlend mode="normal" in2="BackgroundImageFix" result="effect1_dropShadow_3920_36378"/>
<feBlend mode="normal" in="SourceGraphic" in2="effect1_dropShadow_3920_36378" result="shape"/>
</filter>
<filter id="filter1_d_3920_36378" x="50.8242" y="59.5801" width="70.6719" height="34.48" filterUnits="userSpaceOnUse" color-interpolation-filters="sRGB">
<feFlood flood-opacity="0" result="BackgroundImageFix"/>
<feColorMatrix in="SourceAlpha" type="matrix" values="0 0 0 0 0 0 0 0 0 0 0 0 0 0 0 0 0 0 127 0" result="hardAlpha"/>
<feOffset dy="2"/>
<feGaussianBlur stdDeviation="2"/>
<feComposite in2="hardAlpha" operator="out"/>
<feColorMatrix type="matrix" values="0 0 0 0 0 0 0 0 0 0 0 0 0 0 0 0 0 0 0.15 0"/>
<feBlend mode="normal" in2="BackgroundImageFix" result="effect1_dropShadow_3920_36378"/>
<feBlend mode="normal" in="SourceGraphic" in2="effect1_dropShadow_3920_36378" result="shape"/>
</filter>
<filter id="filter2_d_3920_36378" x="67.7148" y="22.3457" width="34.0254" height="30.2168" filterUnits="userSpaceOnUse" color-interpolation-filters="sRGB">
<feFlood flood-opacity="0" result="BackgroundImageFix"/>
<feColorMatrix in="SourceAlpha" type="matrix" values="0 0 0 0 0 0 0 0 0 0 0 0 0 0 0 0 0 0 127 0" result="hardAlpha"/>
<feOffset dy="2"/>
<feGaussianBlur stdDeviation="2"/>
<feComposite in2="hardAlpha" operator="out"/>
<feColorMatrix type="matrix" values="0 0 0 0 0 0 0 0 0 0 0 0 0 0 0 0 0 0 0.15 0"/>
<feBlend mode="normal" in2="BackgroundImageFix" result="effect1_dropShadow_3920_36378"/>
<feBlend mode="normal" in="SourceGraphic" in2="effect1_dropShadow_3920_36378" result="shape"/>
</filter>
<linearGradient id="paint0_linear_3920_36378" x1="85.9215" y1="7" x2="85.9215" y2="103" gradientUnits="userSpaceOnUse">
<stop stop-color="#C01818"/>
<stop offset="1" stop-color="#821414"/>
</linearGradient>
</defs>
</svg>
