<svg width="171" height="171" viewBox="0 0 171 171" fill="none" xmlns="http://www.w3.org/2000/svg">
<g filter="url(#filter0_d_3943_35487)">
<g clip-path="url(#clip0_3943_35487)">
<rect x="8" y="4" width="155" height="155" rx="20" fill="url(#paint0_linear_3943_35487)"/>
<g style="mix-blend-mode:soft-light">
<path fill-rule="evenodd" clip-rule="evenodd" d="M-6.99808 173.15C-133.472 199.191 -214.89 322.828 -188.85 449.303C-162.81 575.777 -39.1718 657.195 87.3025 631.155C213.777 605.114 295.195 481.477 269.154 355.002C243.114 228.528 119.476 147.11 -6.99808 173.15ZM3.24711 222.911C-95.745 243.293 -159.471 340.065 -139.089 439.057C-118.707 538.05 -21.9355 601.776 77.0567 581.394C176.049 561.012 239.775 464.24 219.393 365.248C199.011 266.256 102.239 202.53 3.24711 222.911Z" fill="url(#paint1_linear_3943_35487)" fill-opacity="0.5"/>
</g>
<g style="mix-blend-mode:screen" opacity="0.5">
<path d="M164.022 -33.0329L65.8223 37.8356C60.3913 41.7551 53.0244 43.9576 45.3422 43.9576H-80.1016V-47.813H172.505C172.505 -42.2701 169.453 -36.9536 164.022 -33.0329Z" fill="url(#paint2_linear_3943_35487)"/>
</g>
<g style="mix-blend-mode:screen" opacity="0.5">
<path d="M-70.9629 -42.105V37.3709H-11.0017C-3.31339 37.3709 4.06098 35.1489 9.49924 31.1945L107.795 -40.3038C108.581 -40.8753 109.308 -41.4787 109.992 -42.105H-70.9629Z" fill="url(#paint3_linear_3943_35487)"/>
</g>
<path d="M52.3949 117.64V131.4C52.3949 132.267 51.9749 132.953 51.1349 133.46C50.2949 133.953 49.1283 134.2 47.6349 134.2C46.1549 134.2 44.9883 133.953 44.1349 133.46C43.2816 132.953 42.8549 132.267 42.8549 131.4V126.58H42.7549C42.1016 126.58 41.5683 126.387 41.1549 126C40.7549 125.6 40.5549 125.08 40.5549 124.44C40.5549 123.813 40.7749 123.3 41.2149 122.9C41.6549 122.487 42.2216 122.28 42.9149 122.28C43.6483 122.28 44.2416 122.5 44.6949 122.94C45.1616 123.367 45.3949 123.92 45.3949 124.6V131C45.3949 131.373 45.5949 131.667 45.9949 131.88C46.3949 132.093 46.9416 132.2 47.6349 132.2C48.3283 132.2 48.8683 132.093 49.2549 131.88C49.6416 131.667 49.8349 131.373 49.8349 131V117.64H52.3949ZM42.7349 125.34C43.0016 125.34 43.2149 125.26 43.3749 125.1C43.5483 124.927 43.6349 124.707 43.6349 124.44C43.6349 124.173 43.5483 123.96 43.3749 123.8C43.2149 123.627 43.0016 123.54 42.7349 123.54C42.4816 123.54 42.2683 123.627 42.0949 123.8C41.9216 123.96 41.8349 124.173 41.8349 124.44C41.8349 124.693 41.9216 124.907 42.0949 125.08C42.2683 125.253 42.4816 125.34 42.7349 125.34ZM57.9738 124.28C57.6805 124.28 57.4205 124.36 57.1938 124.52C56.9805 124.68 56.8672 124.887 56.8538 125.14C58.4805 125.287 59.7738 125.6 60.7338 126.08C61.6938 126.547 62.1738 127.12 62.1738 127.8V131.86C62.1738 132.553 61.9405 133.12 61.4738 133.56C61.0205 133.987 60.4272 134.2 59.6938 134.2C59.0005 134.2 58.4338 134 57.9938 133.6C57.5538 133.187 57.3338 132.667 57.3338 132.04C57.3338 131.4 57.5338 130.887 57.9338 130.5C58.3338 130.1 58.8605 129.9 59.5138 129.9H59.6138V128.22C59.6138 127.833 59.0405 127.5 57.8938 127.22C56.7605 126.927 55.5138 126.747 54.1538 126.68C54.1672 125.293 54.4738 124.213 55.0738 123.44C55.6738 122.667 56.4872 122.28 57.5138 122.28C57.8738 122.28 58.1872 122.313 58.4538 122.38C58.7338 122.433 59.0338 122.513 59.3538 122.62C59.5405 122.687 59.7272 122.747 59.9138 122.8C60.1138 122.84 60.2938 122.86 60.4538 122.86C60.6672 122.86 60.8538 122.8 61.0138 122.68C61.1738 122.547 61.2872 122.38 61.3538 122.18L63.1138 122.72C62.9405 123.413 62.6538 123.953 62.2538 124.34C61.8672 124.727 61.4205 124.92 60.9138 124.92C60.6872 124.92 60.4738 124.893 60.2738 124.84C60.0738 124.787 59.8072 124.707 59.4738 124.6C58.8338 124.387 58.3338 124.28 57.9738 124.28ZM59.4938 132.94C59.7605 132.94 59.9738 132.86 60.1338 132.7C60.3072 132.527 60.3938 132.307 60.3938 132.04C60.3938 131.773 60.3072 131.56 60.1338 131.4C59.9738 131.227 59.7605 131.14 59.4938 131.14C59.2405 131.14 59.0272 131.227 58.8538 131.4C58.6938 131.56 58.6138 131.773 58.6138 132.04C58.6138 132.307 58.6938 132.527 58.8538 132.7C59.0272 132.86 59.2405 132.94 59.4938 132.94ZM68.5948 127.72C67.8081 127.72 67.0948 127.607 66.4548 127.38C65.8281 127.14 65.3348 126.807 64.9748 126.38C64.6281 125.953 64.4548 125.467 64.4548 124.92C64.4548 124.28 64.6814 123.747 65.1348 123.32C65.6014 122.88 66.1814 122.66 66.8748 122.66C67.5548 122.66 68.1214 122.88 68.5748 123.32C69.0281 123.747 69.2548 124.28 69.2548 124.92C69.2548 125.293 69.1614 125.613 68.9748 125.88C69.7481 125.747 70.3214 125.42 70.6948 124.9C71.0814 124.367 71.2814 123.6 71.2948 122.6H73.8348C73.8348 123.587 73.6148 124.473 73.1748 125.26C72.7348 126.033 72.1148 126.64 71.3148 127.08C70.5281 127.507 69.6214 127.72 68.5948 127.72ZM66.8548 123.98C66.6014 123.98 66.3881 124.06 66.2148 124.22C66.0548 124.38 65.9748 124.593 65.9748 124.86C65.9748 125.113 66.0548 125.327 66.2148 125.5C66.3881 125.66 66.6014 125.74 66.8548 125.74C67.1214 125.74 67.3348 125.66 67.4948 125.5C67.6681 125.34 67.7548 125.127 67.7548 124.86C67.7548 124.593 67.6681 124.38 67.4948 124.22C67.3348 124.06 67.1214 123.98 66.8548 123.98ZM68.9748 131.9C69.7481 131.753 70.3214 131.42 70.6948 130.9C71.0814 130.38 71.2814 129.62 71.2948 128.62H73.8348C73.8348 129.62 73.6148 130.513 73.1748 131.3C72.7348 132.073 72.1148 132.68 71.3148 133.12C70.5281 133.547 69.6214 133.76 68.5948 133.76C67.7948 133.76 67.0814 133.64 66.4548 133.4C65.8281 133.16 65.3348 132.827 64.9748 132.4C64.6281 131.973 64.4548 131.487 64.4548 130.94C64.4548 130.3 64.6814 129.767 65.1348 129.34C65.6014 128.9 66.1814 128.68 66.8748 128.68C67.5548 128.68 68.1214 128.9 68.5748 129.34C69.0281 129.767 69.2548 130.3 69.2548 130.94C69.2548 131.287 69.1614 131.607 68.9748 131.9ZM66.8548 131.78C67.1214 131.78 67.3348 131.7 67.4948 131.54C67.6681 131.367 67.7548 131.147 67.7548 130.88C67.7548 130.613 67.6681 130.4 67.4948 130.24C67.3348 130.08 67.1214 130 66.8548 130C66.6014 130 66.3881 130.08 66.2148 130.24C66.0548 130.4 65.9748 130.613 65.9748 130.88C65.9748 131.147 66.0548 131.367 66.2148 131.54C66.3748 131.7 66.5881 131.78 66.8548 131.78ZM79.5718 122.28C80.9851 122.28 82.0785 122.6 82.8518 123.24C83.6251 123.867 84.0118 124.747 84.0118 125.88V131.86C84.0118 132.553 83.7785 133.12 83.3118 133.56C82.8585 133.987 82.2651 134.2 81.5318 134.2C80.8385 134.2 80.2718 134 79.8318 133.6C79.3918 133.187 79.1718 132.667 79.1718 132.04C79.1718 131.4 79.3718 130.887 79.7718 130.5C80.1851 130.1 80.7118 129.9 81.3518 129.9H81.4518V126.02C81.4518 125.46 81.2851 125.033 80.9518 124.74C80.6318 124.433 80.1585 124.28 79.5318 124.28C78.9451 124.28 78.4651 124.453 78.0918 124.8C77.7318 125.133 77.5118 125.6 77.4318 126.2H74.8918C74.9451 124.973 75.3851 124.013 76.2118 123.32C77.0518 122.627 78.1718 122.28 79.5718 122.28ZM81.3518 132.94C81.6185 132.94 81.8318 132.853 81.9918 132.68C82.1651 132.507 82.2518 132.293 82.2518 132.04C82.2518 131.773 82.1651 131.56 81.9918 131.4C81.8318 131.227 81.6185 131.14 81.3518 131.14C81.0851 131.14 80.8651 131.227 80.6918 131.4C80.5318 131.56 80.4518 131.773 80.4518 132.04C80.4518 132.307 80.5318 132.527 80.6918 132.7C80.8651 132.86 81.0851 132.94 81.3518 132.94ZM86.7596 115.46C86.7596 116.513 86.5129 117.42 86.0196 118.18C85.5396 118.94 84.8863 119.52 84.0596 119.92C83.2196 120.32 82.2796 120.52 81.2396 120.52C79.9329 120.52 78.9129 120.267 78.1796 119.76C77.4463 119.253 77.0796 118.58 77.0796 117.74C77.0796 117.113 77.2863 116.613 77.6996 116.24C78.0996 115.867 78.6196 115.68 79.2596 115.68C79.8996 115.68 80.4263 115.873 80.8396 116.26C81.2529 116.633 81.4596 117.133 81.4596 117.76C81.4596 118.253 81.3329 118.68 81.0796 119.04C82.2396 119.04 83.1329 118.7 83.7596 118.02C84.3729 117.327 84.6863 116.473 84.6996 115.46H86.7596ZM78.3596 117.72C78.3596 117.987 78.4463 118.207 78.6196 118.38C78.7796 118.54 78.9929 118.62 79.2596 118.62C79.5129 118.62 79.7263 118.533 79.8996 118.36C80.0729 118.187 80.1596 117.973 80.1596 117.72C80.1596 117.467 80.0796 117.26 79.9196 117.1C79.7463 116.94 79.5263 116.86 79.2596 116.86C78.9929 116.86 78.7796 116.94 78.6196 117.1C78.4463 117.26 78.3596 117.467 78.3596 117.72ZM93.4949 122.28C94.4416 122.413 95.1949 122.84 95.7549 123.56C96.3149 124.28 96.5949 125.173 96.5949 126.24V134H94.0349V126.24C94.0349 125.747 93.9749 125.353 93.8549 125.06C93.7483 124.753 93.5616 124.507 93.2949 124.32L91.3949 125.48L89.3149 124.22C88.9816 124.447 88.7349 124.747 88.5749 125.12C88.4283 125.493 88.3549 125.98 88.3549 126.58C88.3549 126.887 88.3883 127.2 88.4549 127.52C88.5216 127.84 88.6216 128.24 88.7549 128.72C88.8883 129.2 88.9883 129.587 89.0549 129.88C89.1216 130.173 89.1549 130.46 89.1549 130.74V130.94C89.3149 130.753 89.6283 130.467 90.0949 130.08L90.6149 129.64C90.2416 129.587 89.9349 129.413 89.6949 129.12C89.4683 128.827 89.3549 128.467 89.3549 128.04C89.3549 127.507 89.5416 127.073 89.9149 126.74C90.2883 126.393 90.7616 126.22 91.3349 126.22C91.9083 126.22 92.3683 126.393 92.7149 126.74C93.0749 127.087 93.2549 127.54 93.2549 128.1C93.2549 128.593 93.1083 129.027 92.8149 129.4C92.5216 129.76 92.0616 130.207 91.4349 130.74C90.7549 131.313 90.2283 131.84 89.8549 132.32C89.4949 132.787 89.2949 133.347 89.2549 134H86.7749V131.04C86.7749 130.813 86.7216 130.487 86.6149 130.06C86.5083 129.633 86.4416 129.373 86.4149 129.28C86.2416 128.627 86.1083 128.107 86.0149 127.72C85.9349 127.32 85.8949 126.96 85.8949 126.64C85.8949 125.547 86.1816 124.607 86.7549 123.82C87.3416 123.033 88.2216 122.52 89.3949 122.28L91.4149 123.66L93.4949 122.28ZM90.4749 128.04C90.4749 128.28 90.5483 128.473 90.6949 128.62C90.8416 128.767 91.0416 128.84 91.2949 128.84C91.5349 128.84 91.7283 128.767 91.8749 128.62C92.0216 128.473 92.0949 128.28 92.0949 128.04C92.0949 127.8 92.0216 127.607 91.8749 127.46C91.7283 127.3 91.5349 127.22 91.2949 127.22C91.0416 127.22 90.8416 127.3 90.6949 127.46C90.5483 127.607 90.4749 127.8 90.4749 128.04ZM96.5377 120.96C95.6977 120.6 94.5377 120.3 93.0577 120.06C91.5644 119.82 90.1577 119.7 88.8377 119.7C88.0644 119.7 87.3577 119.753 86.7177 119.86C86.7311 119.047 86.9311 118.333 87.3177 117.72C87.7044 117.107 88.2511 116.633 88.9577 116.3C89.6644 115.953 90.4777 115.78 91.3977 115.78C92.9577 115.78 94.1911 116.24 95.0977 117.16C95.9911 118.067 96.4711 119.333 96.5377 120.96ZM94.4177 119.08C94.1511 118.48 93.7644 118.027 93.2577 117.72C92.7511 117.413 92.1577 117.26 91.4777 117.26C90.8644 117.26 90.3377 117.373 89.8977 117.6C89.4444 117.813 89.1444 118.113 88.9977 118.5C89.1977 118.487 89.5044 118.48 89.9177 118.48C90.6911 118.48 91.4844 118.533 92.2977 118.64C93.0977 118.747 93.8044 118.893 94.4177 119.08ZM103.734 122.28C104.467 122.28 105.06 122.5 105.514 122.94C105.98 123.367 106.214 123.92 106.214 124.6V134H103.674L98.1135 128.1L99.4935 126.66L103.674 131.16V126.58H103.574C102.92 126.58 102.387 126.387 101.974 126C101.574 125.6 101.374 125.08 101.374 124.44C101.374 123.813 101.594 123.3 102.034 122.9C102.474 122.487 103.04 122.28 103.734 122.28ZM103.554 125.34C103.82 125.34 104.034 125.26 104.194 125.1C104.367 124.927 104.454 124.707 104.454 124.44C104.454 124.173 104.367 123.96 104.194 123.8C104.034 123.627 103.82 123.54 103.554 123.54C103.3 123.54 103.087 123.627 102.914 123.8C102.74 123.96 102.654 124.173 102.654 124.44C102.654 124.693 102.74 124.907 102.914 125.08C103.087 125.253 103.3 125.34 103.554 125.34ZM113.882 125.84C113.882 125.347 113.729 124.967 113.422 124.7C113.115 124.42 112.695 124.28 112.162 124.28C111.562 124.28 111.095 124.453 110.762 124.8C110.429 125.133 110.262 125.6 110.262 126.2H107.802C107.802 124.973 108.189 124.013 108.962 123.32C109.735 122.627 110.802 122.28 112.162 122.28C113.495 122.28 114.535 122.58 115.282 123.18C116.042 123.78 116.422 124.613 116.422 125.68V134H113.882V125.84ZM128.457 129.96C128.884 130.147 129.211 130.407 129.437 130.74C129.677 131.073 129.797 131.447 129.797 131.86C129.797 132.58 129.584 133.153 129.157 133.58C128.744 133.993 128.184 134.2 127.477 134.2C126.784 134.2 126.224 134 125.797 133.6C125.384 133.2 125.171 132.66 125.157 131.98C124.637 132.207 124.157 132.5 123.717 132.86C123.277 133.207 122.931 133.587 122.677 134H120.257V126.58H120.157C119.504 126.58 118.971 126.387 118.557 126C118.157 125.6 117.957 125.08 117.957 124.44C117.957 123.813 118.177 123.3 118.617 122.9C119.057 122.487 119.624 122.28 120.317 122.28C121.051 122.28 121.644 122.5 122.097 122.94C122.564 123.367 122.797 123.92 122.797 124.6V131.44C123.064 131.053 123.764 130.6 124.897 130.08C125.537 129.8 125.997 129.533 126.277 129.28C126.571 129.013 126.717 128.68 126.717 128.28V122.46H129.277V128.22C129.277 128.607 129.204 128.953 129.057 129.26C128.911 129.567 128.711 129.8 128.457 129.96ZM120.137 125.34C120.404 125.34 120.617 125.26 120.777 125.1C120.951 124.927 121.037 124.707 121.037 124.44C121.037 124.173 120.951 123.96 120.777 123.8C120.617 123.627 120.404 123.54 120.137 123.54C119.884 123.54 119.671 123.627 119.497 123.8C119.324 123.96 119.237 124.173 119.237 124.44C119.237 124.693 119.324 124.907 119.497 125.08C119.671 125.253 119.884 125.34 120.137 125.34ZM127.477 132.94C127.744 132.94 127.957 132.853 128.117 132.68C128.291 132.507 128.377 132.293 128.377 132.04C128.377 131.773 128.291 131.56 128.117 131.4C127.957 131.227 127.744 131.14 127.477 131.14C127.224 131.14 127.011 131.227 126.837 131.4C126.664 131.56 126.577 131.773 126.577 132.04C126.577 132.293 126.664 132.507 126.837 132.68C127.011 132.853 127.224 132.94 127.477 132.94Z" fill="white"/>
</g>
</g>
<ellipse cx="86.2902" cy="84.8703" rx="58.2902" ry="5.12953" fill="#020202" fill-opacity="0.3"/>
<g clip-path="url(#clip1_3943_35487)">
<path d="M104.07 0C106.464 0 108.404 1.94069 108.404 4.33482V71.1094C108.404 74.3954 107.073 77.369 104.92 79.5206C102.768 81.6738 99.7931 83.0052 96.5087 83.0052H56.8718C54.2621 83.0052 52.1465 80.8897 52.1465 78.2799V4.33482C52.1465 1.94069 54.0872 0 56.4813 0L104.07 0Z" fill="url(#paint4_linear_3943_35487)"/>
<path d="M108.403 71.1094V50.4541H52.1445V78.2799C52.1445 80.8897 54.2602 83.0052 56.8698 83.0052H96.5075C99.792 83.0052 102.767 81.6738 104.919 79.5206C107.072 77.3689 108.403 74.3954 108.403 71.1094Z" fill="url(#paint5_linear_3943_35487)"/>
<path d="M83.8223 68.6421V71.2587C83.8223 77.7461 89.0814 83.0052 95.5688 83.0052H96.5094C97.0419 83.0052 97.5652 82.9667 98.0791 82.899L83.8223 68.6421Z" fill="url(#paint6_linear_3943_35487)"/>
<path d="M84.6135 71.1099C84.6135 77.6793 89.9392 83.005 96.5086 83.005H56.6822C50.1128 83.005 44.7871 77.6793 44.7871 71.1099C44.7871 68.6111 46.8128 66.5854 49.3115 66.5854H80.0892C82.5878 66.5854 84.6135 68.6111 84.6135 71.1099Z" fill="url(#paint7_linear_3943_35487)"/>
<path d="M126.316 83.0048H89.9931C89.1772 83.0048 88.5156 82.3434 88.5156 81.5273V51.2749C88.5156 50.459 89.1771 49.7974 89.9931 49.7974H126.316C127.132 49.7974 127.793 50.4588 127.793 51.2749V81.5273C127.793 82.3434 127.132 83.0048 126.316 83.0048Z" fill="url(#paint8_linear_3943_35487)"/>
<path d="M127.793 51.2745V81.5273C127.793 82.3429 127.131 83.0045 126.316 83.0045H121.494L97.6992 59.2093V49.7974H126.316C127.131 49.7974 127.793 50.459 127.793 51.2745Z" fill="url(#paint9_linear_3943_35487)"/>
<path d="M126.316 49.7974H115.996C116.812 49.7974 117.474 50.4588 117.474 51.2749V81.5273C117.474 82.3432 116.812 83.0048 115.996 83.0048H126.316C127.132 83.0048 127.794 82.3434 127.794 81.5273V51.2747C127.794 50.4588 127.132 49.7974 126.316 49.7974Z" fill="url(#paint10_linear_3943_35487)"/>
<path d="M88.5156 74.9951V81.5271C88.5156 82.343 89.1771 83.0046 89.9931 83.0046H126.316C127.132 83.0046 127.793 82.3432 127.793 81.5271V74.9951H88.5156Z" fill="url(#paint11_linear_3943_35487)"/>
<path d="M99.2161 59.4627L99.2451 59.4803C99.9091 59.8835 100.744 59.8768 101.402 59.4627C102.073 59.057 102.915 59.057 103.587 59.4627C104.259 59.8685 105.1 59.8685 105.772 59.4627H105.772C106.083 59.2824 106.428 59.2785 106.775 59.3436C107.171 59.4178 107.538 59.1211 107.538 58.7185V50.098C107.538 49.8109 107.306 49.5781 107.018 49.5781H97.9691C97.682 49.5781 97.4492 49.8109 97.4492 50.098V58.7063C97.4492 59.1065 97.8133 59.4061 98.2067 59.3325C98.5574 59.2668 98.9051 59.2739 99.2161 59.4627Z" fill="url(#paint12_linear_3943_35487)"/>
<path d="M103.882 17.2C103.882 18.2195 103.055 19.0459 102.036 19.0459H76.4807C75.4612 19.0459 74.6348 18.2195 74.6348 17.2C74.6348 16.1805 75.4612 15.354 76.4807 15.354H102.036C103.055 15.3542 103.882 16.1806 103.882 17.2Z" fill="#A2AEE6"/>
<path d="M67.4861 22.5983H63.349C61.5131 22.5983 60.0195 21.1047 60.0195 19.2688V15.1317C60.0195 13.2959 61.5131 11.8022 63.349 11.8022H67.4861C69.322 11.8022 70.8156 13.2959 70.8156 15.1317V19.2688C70.8156 21.1047 69.322 22.5983 67.4861 22.5983ZM63.3489 14.2436C62.8591 14.2436 62.4607 14.642 62.4607 15.1317V19.2688C62.4607 19.7585 62.8591 20.157 63.3489 20.157H67.4859C67.9757 20.157 68.3741 19.7585 68.3741 19.2688V15.1317C68.3741 14.642 67.9757 14.2436 67.4859 14.2436H63.3489Z" fill="url(#paint13_linear_3943_35487)"/>
<path d="M65.5124 20.1427C64.9918 20.1427 64.4711 19.9439 64.0739 19.5468L59.6388 15.1117C58.8444 14.3172 58.8444 13.0291 59.6388 12.2345C60.4333 11.4401 61.7214 11.4401 62.516 12.2345L65.5124 15.231L71.7234 9.02012C72.5179 8.22571 73.806 8.22571 74.6005 9.02012C75.395 9.81469 75.395 11.1027 74.6005 11.8973L66.951 19.5468C66.5538 19.9441 66.0331 20.1427 65.5124 20.1427Z" fill="url(#paint14_linear_3943_35487)"/>
<path d="M65.499 52.2393H59.3535C59.182 52.2393 59.043 52.1003 59.043 51.9288V50.1084C59.043 49.9368 59.182 49.7979 59.3535 49.7979H65.499C65.6705 49.7979 65.8095 49.9368 65.8095 50.1084V51.9288C65.8094 52.1003 65.6704 52.2393 65.499 52.2393Z" fill="#A2AEE6"/>
<path d="M73.3112 56.9591H59.3535C59.182 56.9591 59.043 56.8201 59.043 56.6485V54.8281C59.043 54.6566 59.182 54.5176 59.3535 54.5176H73.3112C73.4828 54.5176 73.6218 54.6566 73.6218 54.8281V56.6485C73.6216 56.8201 73.4826 56.9591 73.3112 56.9591Z" fill="#A2AEE6"/>
<path d="M69.0796 61.6793H59.3535C59.182 61.6793 59.043 61.5403 59.043 61.3687V59.5483C59.043 59.3768 59.182 59.2378 59.3535 59.2378H69.0796C69.2511 59.2378 69.3901 59.3768 69.3901 59.5483V61.3687C69.39 61.5403 69.251 61.6793 69.0796 61.6793Z" fill="#A2AEE6"/>
<path d="M103.882 35.9983C103.882 37.0178 103.055 37.8443 102.036 37.8443H76.4807C75.4612 37.8443 74.6348 37.0178 74.6348 35.9983C74.6348 34.9788 75.4612 34.1523 76.4807 34.1523H102.036C103.055 34.1523 103.882 34.9788 103.882 35.9983Z" fill="#A2AEE6"/>
<path d="M67.4861 41.3961H63.349C61.5131 41.3961 60.0195 39.9025 60.0195 38.0667V33.9296C60.0195 32.0937 61.5131 30.6001 63.349 30.6001H67.4861C69.322 30.6001 70.8156 32.0937 70.8156 33.9296V38.0667C70.8156 39.9025 69.322 41.3961 67.4861 41.3961ZM63.3489 33.0414C62.8591 33.0414 62.4607 33.4399 62.4607 33.9296V38.0667C62.4607 38.5564 62.8591 38.9548 63.3489 38.9548H67.4859C67.9757 38.9548 68.3741 38.5564 68.3741 38.0667V33.9296C68.3741 33.4399 67.9757 33.0414 67.4859 33.0414H63.3489Z" fill="url(#paint15_linear_3943_35487)"/>
<path d="M65.5124 38.9405C64.9918 38.9405 64.4711 38.7418 64.0739 38.3447L59.6388 33.9096C58.8444 33.115 58.8444 31.827 59.6388 31.0324C60.4333 30.238 61.7214 30.238 62.516 31.0324L65.5124 34.0289L71.7234 27.818C72.5179 27.0236 73.806 27.0236 74.6005 27.818C75.395 28.6125 75.395 29.9006 74.6005 30.6952L66.951 38.3447C66.5538 38.7419 66.0331 38.9405 65.5124 38.9405Z" fill="url(#paint16_linear_3943_35487)"/>
</g>
<defs>
<filter id="filter0_d_3943_35487" x="0" y="0" width="171" height="171" filterUnits="userSpaceOnUse" color-interpolation-filters="sRGB">
<feFlood flood-opacity="0" result="BackgroundImageFix"/>
<feColorMatrix in="SourceAlpha" type="matrix" values="0 0 0 0 0 0 0 0 0 0 0 0 0 0 0 0 0 0 127 0" result="hardAlpha"/>
<feOffset dy="4"/>
<feGaussianBlur stdDeviation="4"/>
<feComposite in2="hardAlpha" operator="out"/>
<feColorMatrix type="matrix" values="0 0 0 0 0 0 0 0 0 0 0 0 0 0 0 0 0 0 0.15 0"/>
<feBlend mode="normal" in2="BackgroundImageFix" result="effect1_dropShadow_3943_35487"/>
<feBlend mode="normal" in="SourceGraphic" in2="effect1_dropShadow_3943_35487" result="shape"/>
</filter>
<linearGradient id="paint0_linear_3943_35487" x1="8" y1="81.5887" x2="163" y2="81.5887" gradientUnits="userSpaceOnUse">
<stop offset="0.0762668" stop-color="#062143"/>
<stop offset="1" stop-color="#194F91"/>
</linearGradient>
<linearGradient id="paint1_linear_3943_35487" x1="45.8345" y1="459.681" x2="209.875" y2="110.935" gradientUnits="userSpaceOnUse">
<stop offset="0.567708" stop-color="white" stop-opacity="0"/>
<stop offset="1" stop-color="#D9D9D9"/>
</linearGradient>
<linearGradient id="paint2_linear_3943_35487" x1="-84.103" y1="-1.92772" x2="220.462" y2="-1.92772" gradientUnits="userSpaceOnUse">
<stop stop-color="#052143"/>
<stop offset="1" stop-color="#01050D"/>
</linearGradient>
<linearGradient id="paint3_linear_3943_35487" x1="19.5147" y1="34.5748" x2="19.5147" y2="-12.6961" gradientUnits="userSpaceOnUse">
<stop stop-color="#052143"/>
<stop offset="1" stop-color="#01050D"/>
</linearGradient>
<linearGradient id="paint4_linear_3943_35487" x1="62.6527" y1="23.7654" x2="125.892" y2="87.0044" gradientUnits="userSpaceOnUse">
<stop stop-color="#EAF6FF"/>
<stop offset="0.2575" stop-color="#DCE8FA"/>
<stop offset="0.7423" stop-color="#B8C4ED"/>
<stop offset="1" stop-color="#A2AEE6"/>
</linearGradient>
<linearGradient id="paint5_linear_3943_35487" x1="80.274" y1="57.3984" x2="80.274" y2="82.4741" gradientUnits="userSpaceOnUse">
<stop stop-color="#7BACDF" stop-opacity="0"/>
<stop offset="1" stop-color="#7BACDF"/>
</linearGradient>
<linearGradient id="paint6_linear_3943_35487" x1="101.116" y1="89.6771" x2="84.5307" y2="73.0917" gradientUnits="userSpaceOnUse">
<stop stop-color="#8795DE" stop-opacity="0"/>
<stop offset="0.4678" stop-color="#7D8DDC" stop-opacity="0.468"/>
<stop offset="1" stop-color="#6C7FD8"/>
</linearGradient>
<linearGradient id="paint7_linear_3943_35487" x1="70.6479" y1="67.706" x2="70.6479" y2="84.1572" gradientUnits="userSpaceOnUse">
<stop stop-color="#EAF6FF"/>
<stop offset="0.2575" stop-color="#DCE8FA"/>
<stop offset="0.7423" stop-color="#B8C4ED"/>
<stop offset="1" stop-color="#A2AEE6"/>
</linearGradient>
<linearGradient id="paint8_linear_3943_35487" x1="95.1134" y1="53.3602" x2="126.472" y2="84.7183" gradientUnits="userSpaceOnUse">
<stop stop-color="#FEE45A"/>
<stop offset="1" stop-color="#FE860A"/>
</linearGradient>
<linearGradient id="paint9_linear_3943_35487" x1="125.132" y1="67.1051" x2="84.6991" y2="38.3788" gradientUnits="userSpaceOnUse">
<stop stop-color="#FE860A" stop-opacity="0"/>
<stop offset="1" stop-color="#FE7701"/>
</linearGradient>
<linearGradient id="paint10_linear_3943_35487" x1="129.099" y1="58.3591" x2="104.36" y2="84.4501" gradientUnits="userSpaceOnUse">
<stop stop-color="#FE860A" stop-opacity="0"/>
<stop offset="1" stop-color="#FE7701"/>
</linearGradient>
<linearGradient id="paint11_linear_3943_35487" x1="108.154" y1="77.4596" x2="108.154" y2="84.5599" gradientUnits="userSpaceOnUse">
<stop stop-color="#FE860A" stop-opacity="0"/>
<stop offset="1" stop-color="#FE7701"/>
</linearGradient>
<linearGradient id="paint12_linear_3943_35487" x1="98.742" y1="50.6744" x2="109.913" y2="61.8458" gradientUnits="userSpaceOnUse">
<stop stop-color="#EAF6FF"/>
<stop offset="0.2575" stop-color="#DCE8FA"/>
<stop offset="0.7423" stop-color="#B8C4ED"/>
<stop offset="1" stop-color="#A2AEE6"/>
</linearGradient>
<linearGradient id="paint13_linear_3943_35487" x1="65.4175" y1="11.8022" x2="65.4175" y2="22.5983" gradientUnits="userSpaceOnUse">
<stop stop-color="#537983"/>
<stop offset="1" stop-color="#3E5959"/>
</linearGradient>
<linearGradient id="paint14_linear_3943_35487" x1="67.2214" y1="12.1676" x2="71.3472" y2="16.2935" gradientUnits="userSpaceOnUse">
<stop stop-color="#A2E62E"/>
<stop offset="1" stop-color="#02905D"/>
</linearGradient>
<linearGradient id="paint15_linear_3943_35487" x1="65.4175" y1="30.6001" x2="65.4175" y2="41.3961" gradientUnits="userSpaceOnUse">
<stop stop-color="#537983"/>
<stop offset="1" stop-color="#3E5959"/>
</linearGradient>
<linearGradient id="paint16_linear_3943_35487" x1="67.2214" y1="30.9655" x2="71.3472" y2="35.0915" gradientUnits="userSpaceOnUse">
<stop stop-color="#A2E62E"/>
<stop offset="1" stop-color="#02905D"/>
</linearGradient>
<clipPath id="clip0_3943_35487">
<rect x="8" y="4" width="155" height="155" rx="20" fill="white"/>
</clipPath>
<clipPath id="clip1_3943_35487">
<rect width="83.0052" height="83.0052" fill="white" transform="translate(44.7871)"/>
</clipPath>
</defs>
</svg>
