<svg width="23" height="96" viewBox="0 0 23 96" fill="none" xmlns="http://www.w3.org/2000/svg">
<circle cx="10.9619" cy="10.9849" r="10.9619" fill="#04A08B"/>
<circle cx="11.1481" cy="10.799" r="5.57386" fill="#90ECDF"/>
<circle cx="11.1475" cy="31.608" r="2.22955" fill="#C2C2C2"/>
<circle cx="11.1475" cy="43.4991" r="2.22955" fill="#C2C2C2"/>
<circle cx="11.1475" cy="55.3897" r="2.22955" fill="#C2C2C2"/>
<g clip-path="url(#clip0_3943_35935)">
<path d="M8.36364 76.3384C8.36364 77.8962 9.61195 79.1601 11.1506 79.1601C12.6892 79.1601 13.9375 77.8962 13.9375 76.3384C13.9375 74.7805 12.6892 73.5166 11.1506 73.5166C9.61195 73.5166 8.36364 74.7805 8.36364 76.3384Z" fill="#FF8787"/>
<path d="M12.5252 94.3977C15.556 90.6235 22.2969 81.4763 22.2969 76.3383C22.2969 70.1046 17.3059 65.0513 11.1491 65.0513C4.99467 65.0513 0.00142097 70.1046 0.00142097 76.3383C0.00142097 81.4763 6.79457 90.6235 9.7731 94.3977C10.4873 95.2971 11.811 95.2971 12.5252 94.3977ZM11.1491 81.0413C8.58285 81.0413 6.50426 78.9367 6.50426 76.3383C6.50426 73.74 8.58285 71.6354 11.1491 71.6354C13.7154 71.6354 15.794 73.74 15.794 76.3383C15.794 78.9367 13.7154 81.0413 11.1491 81.0413Z" fill="#BA1717"/>
</g>
<defs>
<clipPath id="clip0_3943_35935">
<rect width="22.2955" height="30.0989" fill="white" transform="matrix(-1 0 0 1 22.2969 65.0513)"/>
</clipPath>
</defs>
</svg>
