<svg width="75" height="75" viewBox="0 0 75 75" fill="none" xmlns="http://www.w3.org/2000/svg">
<rect width="75" height="75" rx="37.5" fill="#EEF6FF"/>
<path d="M25.125 24.0938C25.125 23.524 25.5865 23.0625 26.1562 23.0625H30.2812C30.8484 23.0625 31.3125 23.524 31.3125 24.0938V25.125H25.125V24.0938ZM21 47.8125V31.3125H54V47.8125C54 50.0877 52.1502 51.9375 49.875 51.9375H25.125C22.8466 51.9375 21 50.0877 21 47.8125ZM37.5 46.7812C40.916 46.7812 43.6875 44.0098 43.6875 40.5938C43.6875 37.1197 40.916 34.4062 37.5 34.4062C34.026 34.4062 31.3125 37.1197 31.3125 40.5938C31.3125 44.0098 34.026 46.7812 37.5 46.7812Z" fill="#012D61"/>
<path opacity="0.4" d="M25.125 25.125H33.375L36.6299 23.4982C37.2035 23.2114 37.8352 23.0625 38.4732 23.0625H49.875C52.1502 23.0625 54 24.9091 54 27.1875V31.3125H21V29.25C21 26.9716 22.8466 25.125 25.125 25.125Z" fill="#012D61"/>
</svg>
