<svg width="344" height="114" viewBox="0 0 344 114" fill="none" xmlns="http://www.w3.org/2000/svg">
<g filter="url(#filter0_d_4276_42883)">
<path fill-rule="evenodd" clip-rule="evenodd" d="M7 27C7 15.9543 15.9543 7 27 7H317C328.046 7 337 15.9543 337 27V46.0002C330.919 46.0327 326 50.8051 326 56.6875C326 62.5699 330.919 67.3423 337 67.3748V87C337 98.0457 328.046 107 317 107H27C15.9543 107 7 98.0457 7 87V67.3748C7.02082 67.3749 7.04165 67.375 7.0625 67.375C13.1722 67.375 18.125 62.59 18.125 56.6875C18.125 50.785 13.1722 46 7.0625 46C7.04165 46 7.02082 46.0001 7 46.0002V27Z" fill="white"/>
</g>
<defs>
<filter id="filter0_d_4276_42883" x="0" y="0" width="344" height="114" filterUnits="userSpaceOnUse" color-interpolation-filters="sRGB">
<feFlood flood-opacity="0" result="BackgroundImageFix"/>
<feColorMatrix in="SourceAlpha" type="matrix" values="0 0 0 0 0 0 0 0 0 0 0 0 0 0 0 0 0 0 127 0" result="hardAlpha"/>
<feOffset/>
<feGaussianBlur stdDeviation="3.5"/>
<feComposite in2="hardAlpha" operator="out"/>
<feColorMatrix type="matrix" values="0 0 0 0 0 0 0 0 0 0 0 0 0 0 0 0 0 0 0.06 0"/>
<feBlend mode="normal" in2="BackgroundImageFix" result="effect1_dropShadow_4276_42883"/>
<feBlend mode="normal" in="SourceGraphic" in2="effect1_dropShadow_4276_42883" result="shape"/>
</filter>
</defs>
</svg>
