<svg width="265" height="96" viewBox="0 0 265 96" fill="none" xmlns="http://www.w3.org/2000/svg">
<path d="M121.2 70.6283H143.066C148.19 70.6283 152.343 66.475 152.343 61.3518V61.3518C152.343 56.2285 148.19 52.0752 143.066 52.0752H45" stroke="#888787" stroke-width="9"/>
<path d="M226 89.8437H118.221C112.915 89.8437 108.613 85.5421 108.613 80.2358V80.2358C108.613 74.9295 112.915 70.6279 118.221 70.6279H135.539" stroke="#888787" stroke-width="9"/>
<path d="M2.56108 49.4733H38.9785V21.7946C38.9785 20.4287 37.8777 19.3213 36.5199 19.3213H2.56108C1.69891 19.3213 1.0001 20.0244 1.0001 20.8916V47.903C1.0001 48.7702 1.69903 49.4733 2.56108 49.4733Z" fill="url(#paint0_linear_3983_38549)"/>
<path d="M0.999863 26.4038V47.9029C0.999863 48.7703 1.69879 49.4734 2.56107 49.4734H38.9785V26.4038H0.999863Z" fill="url(#paint1_linear_3983_38549)"/>
<path d="M0.999863 33.082V47.9024C0.999863 48.7699 1.69879 49.473 2.56107 49.473H38.9785V33.082H0.999863Z" fill="url(#paint2_linear_3983_38549)"/>
<path d="M2.56107 49.474H38.9785V39.7617H0.999863V47.9034C0.999863 48.7709 1.69879 49.474 2.56107 49.474Z" fill="url(#paint3_linear_3983_38549)"/>
<path d="M2.55919 19.3213H11.7285V49.4733H2.55919C1.69702 49.4733 0.998211 48.7702 0.998211 47.903V20.8916C0.998211 20.0244 1.69714 19.3213 2.55919 19.3213Z" fill="url(#paint4_linear_3983_38549)"/>
<path d="M38.9785 23.2539V49.4738H12.915L38.9785 23.2539Z" fill="url(#paint5_linear_3983_38549)"/>
<path d="M38.5254 46.1719V49.4733H2.56221C1.70005 49.4733 1.00124 48.7702 1.00124 47.903V46.1719H38.5254Z" fill="url(#paint6_linear_3983_38549)"/>
<path d="M41.147 22.1089H47.8715C50.6345 22.1089 53.2007 23.5483 54.6532 25.9127L57.8875 31.1777C58.4613 32.1118 58.8381 33.1496 58.9999 34.227C59.1232 35.0481 59.5358 35.797 60.1795 36.3168C60.9452 36.935 61.3906 37.8692 61.3906 38.8568V47.1197C61.3906 48.4194 60.3432 49.4731 59.0513 49.4731H56.4659H53.3599H38.5226V24.749C38.5228 23.291 39.6977 22.1089 41.147 22.1089Z" fill="url(#paint7_linear_3983_38549)"/>
<path d="M41.1465 22.1094H44.8477V49.4736H38.5222V24.7494C38.5222 23.2913 39.6972 22.1094 41.1465 22.1094Z" fill="url(#paint8_linear_3983_38549)"/>
<path d="M61.3906 40.665V47.1203C61.3906 48.42 60.3432 49.4736 59.0513 49.4736H56.466H53.36H38.5228V40.665H61.3906Z" fill="url(#paint9_linear_3983_38549)"/>
<path d="M45.9214 34.8958C44.5228 34.8958 43.3891 33.7553 43.3891 32.3483V27.0646C43.3891 25.6576 44.5228 24.5171 45.9214 24.5171H48.9637C50.4031 24.5171 51.7399 25.2669 52.4965 26.4987L55.3708 31.1778C55.8261 31.9187 56.157 32.7251 56.3552 33.5647C56.5155 34.2437 56.0034 34.8959 55.3096 34.8959H45.9214V34.8958Z" fill="url(#paint10_linear_3983_38549)"/>
<path d="M45.0776 39.8116H48.651C49.1867 39.8116 49.6211 39.3747 49.6211 38.8356V37.7528C49.6211 37.2139 49.1868 36.7769 48.651 36.7769H45.0776C44.5419 36.7769 44.1075 37.2138 44.1075 37.7528V38.8356C44.1075 39.3747 44.5419 39.8116 45.0776 39.8116Z" fill="url(#paint11_linear_3983_38549)"/>
<path d="M44.85 38.2945C44.85 37.7524 45.2867 37.313 45.8257 37.313H47.9071C48.4459 37.313 48.8828 37.7524 48.8828 38.2945C48.8828 38.8367 48.446 39.2761 47.9071 39.2761H45.8257C45.2867 39.2761 44.85 38.8366 44.85 38.2945Z" fill="url(#paint12_linear_3983_38549)"/>
<path d="M60.1149 50.3184H58.9091C58.3255 50.3184 57.8524 49.8425 57.8524 49.2554V44.6909C57.8524 44.1038 58.3255 43.6279 58.9091 43.6279H60.1149C60.9521 43.6279 61.6309 44.3107 61.6309 45.1529V48.7933C61.6309 49.6356 60.9521 50.3184 60.1149 50.3184Z" fill="url(#paint13_linear_3983_38549)"/>
<path d="M56.2759 36.777C55.5546 36.777 54.9698 36.1888 54.9698 35.463V32.8256C54.9698 32.1 55.5545 31.5117 56.2759 31.5117C57.1968 31.5117 57.9434 32.2628 57.9434 33.1892V35.0993C57.9434 36.0259 57.1969 36.777 56.2759 36.777Z" fill="url(#paint14_linear_3983_38549)"/>
<path d="M48.2261 56.8905C44.5853 56.8905 41.6339 53.9214 41.6339 50.2587C41.6339 46.5961 44.5853 43.627 48.2261 43.627C51.8669 43.627 54.8184 46.5961 54.8184 50.2587C54.8184 53.9214 51.8669 56.8905 48.2261 56.8905Z" fill="url(#paint15_linear_3983_38549)"/>
<path d="M48.2253 54.9185C45.667 54.9185 43.5931 52.8322 43.5931 50.2586C43.5931 47.685 45.667 45.5986 48.2253 45.5986C50.7835 45.5986 52.8574 47.685 52.8574 50.2586C52.8574 52.8322 50.7835 54.9185 48.2253 54.9185Z" fill="url(#paint16_linear_3983_38549)"/>
<path d="M48.2254 53.0443C46.6963 53.0443 45.4567 51.7973 45.4567 50.259C45.4567 48.7207 46.6963 47.4736 48.2254 47.4736C49.7545 47.4736 50.9941 48.7207 50.9941 50.259C50.9941 51.7973 49.7545 53.0443 48.2254 53.0443Z" fill="url(#paint17_linear_3983_38549)"/>
<path d="M8.9937 56.891C5.35291 56.891 2.40147 53.9218 2.40147 50.2592C2.40147 46.5966 5.35291 43.6274 8.9937 43.6274C12.6345 43.6274 15.5859 46.5966 15.5859 50.2592C15.5859 53.9218 12.6345 56.891 8.9937 56.891Z" fill="url(#paint18_linear_3983_38549)"/>
<path d="M8.99479 54.919C6.43652 54.919 4.36263 52.8327 4.36263 50.2591C4.36263 47.6854 6.43652 45.5991 8.99479 45.5991C11.5531 45.5991 13.627 47.6854 13.627 50.2591C13.627 52.8327 11.5531 54.919 8.99479 54.919Z" fill="url(#paint19_linear_3983_38549)"/>
<path d="M8.99298 53.0448C7.46385 53.0448 6.22424 51.7978 6.22424 50.2595C6.22424 48.7212 7.46385 47.4741 8.99298 47.4741C10.5221 47.4741 11.7617 48.7212 11.7617 50.2595C11.7617 51.7978 10.5221 53.0448 8.99298 53.0448Z" fill="url(#paint20_linear_3983_38549)"/>
<path d="M1.84175 28.3042H11.7383V30.9543L1.08701 43.7517V29.211C1.08701 28.7102 1.42495 28.3042 1.84175 28.3042Z" fill="url(#paint21_linear_3983_38549)"/>
<g clip-path="url(#clip0_3983_38549)">
<path d="M230.567 95.9063C238.396 95.9063 244.742 92.4318 244.742 88.1458C244.742 83.8598 238.396 80.3853 230.567 80.3853C222.737 80.3853 216.391 83.8598 216.391 88.1458C216.391 92.4318 222.737 95.9063 230.567 95.9063Z" fill="url(#paint22_linear_3983_38549)"/>
<path d="M244.743 88.1458C244.743 83.8597 238.396 80.3853 230.567 80.3853C229.127 80.3853 227.737 80.5037 226.428 80.7223V89.4911L232.751 95.8145C239.543 95.2391 244.743 92.0251 244.743 88.1458Z" fill="url(#paint23_linear_3983_38549)"/>
<path d="M224.452 87.6788L202.652 54.6482C187.976 32.412 203.923 2.77979 230.566 2.77979C257.208 2.77979 273.155 32.412 258.479 54.6482L236.679 87.6788C233.784 92.0656 227.347 92.0656 224.452 87.6788Z" fill="url(#paint24_linear_3983_38549)"/>
<path d="M202.652 54.6484L224.452 87.679C227.348 92.0658 233.784 92.0658 236.68 87.679L258.48 54.6484C263.149 47.5742 264.714 39.7525 263.826 32.3735H197.306C196.418 39.7525 197.983 47.5742 202.652 54.6484Z" fill="url(#paint25_linear_3983_38549)"/>
<path d="M230.566 65.6917C246.796 65.6917 259.953 52.5349 259.953 36.3051C259.953 20.0753 246.796 6.91846 230.566 6.91846C214.337 6.91846 201.18 20.0753 201.18 36.3051C201.18 52.5349 214.337 65.6917 230.566 65.6917Z" fill="url(#paint26_linear_3983_38549)"/>
<path d="M230.566 61.1393C244.282 61.1393 255.4 50.0208 255.4 36.3055C255.4 22.5902 244.282 11.4717 230.566 11.4717C216.851 11.4717 205.732 22.5902 205.732 36.3055C205.732 50.0208 216.851 61.1393 230.566 61.1393Z" fill="url(#paint27_linear_3983_38549)"/>
</g>
<g clip-path="url(#clip1_3983_38549)">
<path d="M254.549 43.9262H206.877C205.806 43.9262 204.938 43.0587 204.938 41.9886V2.31498C204.938 1.24495 205.806 0.377441 206.877 0.377441H254.549C255.62 0.377441 256.488 1.24483 256.488 2.31498V41.9886C256.488 43.0587 255.62 43.9262 254.549 43.9262Z" fill="url(#paint28_linear_3983_38549)"/>
<path d="M256.489 2.31461V41.9886C256.489 43.0582 255.62 43.9258 254.55 43.9258H248.223L216.992 12.7204V0.377441H254.55C255.621 0.377441 256.489 1.24507 256.489 2.31461Z" fill="url(#paint29_linear_3983_38549)"/>
<path d="M254.549 0.377441H241.004C242.075 0.377441 242.943 1.24495 242.943 2.31498V41.9886C242.943 43.0587 242.075 43.9262 241.004 43.9262H254.549C255.619 43.9262 256.488 43.0587 256.488 41.9886V2.31486C256.488 1.24483 255.619 0.377441 254.549 0.377441Z" fill="url(#paint30_linear_3983_38549)"/>
<path d="M204.938 33.4224V41.9886C204.938 43.0587 205.806 43.9262 206.877 43.9262H254.549C255.62 43.9262 256.488 43.0587 256.488 41.9886V33.4224H204.938Z" fill="url(#paint31_linear_3983_38549)"/>
<path d="M218.981 13.0526L219.019 13.0757C219.89 13.6045 220.986 13.5955 221.849 13.0527C222.731 12.5206 223.835 12.5206 224.717 13.0527C225.599 13.5848 226.703 13.5848 227.585 13.0527L227.585 13.0526C227.994 12.8162 228.446 12.811 228.902 12.8964C229.421 12.9938 229.904 12.6047 229.904 12.0765V0.771486C229.904 0.395009 229.598 0.0898438 229.221 0.0898438H217.344C216.968 0.0898438 216.662 0.395009 216.662 0.771486V12.0606C216.662 12.5855 217.14 12.9785 217.656 12.8818C218.116 12.7957 218.573 12.8049 218.981 13.0526Z" fill="url(#paint32_linear_3983_38549)"/>
<path d="M210.473 32.4095H211.714V36.5524C211.714 36.7178 211.848 36.8517 212.014 36.8517H214.245C214.411 36.8517 214.545 36.7178 214.545 36.5524V32.4095H215.786C216.165 32.4095 216.392 31.9876 216.183 31.6711L213.527 27.6499C213.339 27.3648 212.92 27.3648 212.732 27.6499L210.076 31.6711C209.867 31.9876 210.094 32.4095 210.473 32.4095Z" fill="#C4573A"/>
<path d="M216.979 38.2656H209.279C209.172 38.2656 209.086 38.3519 209.086 38.4583V39.588C209.086 39.6944 209.172 39.7806 209.279 39.7806H216.979C217.086 39.7806 217.172 39.6944 217.172 39.588V38.4583C217.172 38.3519 217.086 38.2656 216.979 38.2656Z" fill="#C4573A"/>
<path d="M249.513 33.9227H245.697C245.59 33.9227 245.504 33.8365 245.504 33.7301V32.6004C245.504 32.494 245.59 32.4077 245.697 32.4077H249.513C249.62 32.4077 249.706 32.494 249.706 32.6004V33.7301C249.706 33.8365 249.62 33.9227 249.513 33.9227Z" fill="#C4573A"/>
<path d="M254.365 36.8519H245.697C245.59 36.8519 245.504 36.7657 245.504 36.6593V35.5296C245.504 35.4232 245.59 35.3369 245.697 35.3369H254.365C254.472 35.3369 254.558 35.4232 254.558 35.5296V36.6593C254.558 36.7656 254.472 36.8519 254.365 36.8519Z" fill="#C4573A"/>
<path d="M251.737 39.7806H245.697C245.59 39.7806 245.504 39.6944 245.504 39.588V38.4583C245.504 38.3519 245.59 38.2656 245.697 38.2656H251.737C251.844 38.2656 251.93 38.3519 251.93 38.4583V39.588C251.93 39.6944 251.844 39.7806 251.737 39.7806Z" fill="#C4573A"/>
</g>
<defs>
<linearGradient id="paint0_linear_3983_38549" x1="28.0232" y1="19.1485" x2="18.809" y2="37.1052" gradientUnits="userSpaceOnUse">
<stop stop-color="#EAF6FF"/>
<stop offset="1" stop-color="#B3DAFE"/>
</linearGradient>
<linearGradient id="paint1_linear_3983_38549" x1="22.2432" y1="40.5565" x2="0.0520126" y2="9.91482" gradientUnits="userSpaceOnUse">
<stop stop-color="#7BACDF" stop-opacity="0"/>
<stop offset="1" stop-color="#7BACDF"/>
</linearGradient>
<linearGradient id="paint2_linear_3983_38549" x1="24.1789" y1="48.8727" x2="7.1253" y2="15.933" gradientUnits="userSpaceOnUse">
<stop stop-color="#7BACDF" stop-opacity="0"/>
<stop offset="1" stop-color="#7BACDF"/>
</linearGradient>
<linearGradient id="paint3_linear_3983_38549" x1="23.8908" y1="49.2932" x2="9.20811" y2="29.9668" gradientUnits="userSpaceOnUse">
<stop stop-color="#7BACDF" stop-opacity="0"/>
<stop offset="1" stop-color="#7BACDF"/>
</linearGradient>
<linearGradient id="paint4_linear_3983_38549" x1="5.33613" y1="34.3974" x2="0.047122" y2="34.3974" gradientUnits="userSpaceOnUse">
<stop stop-color="#7BACDF" stop-opacity="0"/>
<stop offset="1" stop-color="#7BACDF"/>
</linearGradient>
<linearGradient id="paint5_linear_3983_38549" x1="28.5108" y1="36.3639" x2="53.6013" y2="36.3639" gradientUnits="userSpaceOnUse">
<stop stop-color="#7BACDF" stop-opacity="0"/>
<stop offset="1" stop-color="#7BACDF"/>
</linearGradient>
<linearGradient id="paint6_linear_3983_38549" x1="19.7633" y1="46.413" x2="19.7633" y2="48.5893" gradientUnits="userSpaceOnUse">
<stop stop-color="#5A5A5A"/>
<stop offset="1" stop-color="#444444"/>
</linearGradient>
<linearGradient id="paint7_linear_3983_38549" x1="55.7201" y1="29.4335" x2="41.6297" y2="45.0049" gradientUnits="userSpaceOnUse">
<stop stop-color="#FEE45A"/>
<stop offset="1" stop-color="#FEA613"/>
</linearGradient>
<linearGradient id="paint8_linear_3983_38549" x1="41.7501" y1="35.7914" x2="36.7959" y2="35.7914" gradientUnits="userSpaceOnUse">
<stop stop-color="#FEA613" stop-opacity="0"/>
<stop offset="1" stop-color="#E94444"/>
</linearGradient>
<linearGradient id="paint9_linear_3983_38549" x1="49.9568" y1="45.288" x2="49.9568" y2="50.9163" gradientUnits="userSpaceOnUse">
<stop stop-color="#FEA613" stop-opacity="0"/>
<stop offset="1" stop-color="#E94444"/>
</linearGradient>
<linearGradient id="paint10_linear_3983_38549" x1="52.5259" y1="27.481" x2="45.8354" y2="34.1316" gradientUnits="userSpaceOnUse">
<stop stop-color="#B3DAFE"/>
<stop offset="1" stop-color="#0182FC"/>
</linearGradient>
<linearGradient id="paint11_linear_3983_38549" x1="45.2063" y1="39.9623" x2="48.4588" y2="36.7292" gradientUnits="userSpaceOnUse">
<stop stop-color="#FEE45A"/>
<stop offset="1" stop-color="#FEA613"/>
</linearGradient>
<linearGradient id="paint12_linear_3983_38549" x1="13.6108" y1="4.92311" x2="53.8871" y2="44.8591" gradientUnits="userSpaceOnUse">
<stop stop-color="#5A5A5A"/>
<stop offset="1" stop-color="#444444"/>
</linearGradient>
<linearGradient id="paint13_linear_3983_38549" x1="61.1292" y1="45.2917" x2="59.7618" y2="46.7907" gradientUnits="userSpaceOnUse">
<stop stop-color="#5A5A5A"/>
<stop offset="1" stop-color="#444444"/>
</linearGradient>
<linearGradient id="paint14_linear_3983_38549" x1="57.4556" y1="32.9243" x2="56.4631" y2="34.0124" gradientUnits="userSpaceOnUse">
<stop stop-color="#5A5A5A"/>
<stop offset="1" stop-color="#444444"/>
</linearGradient>
<linearGradient id="paint15_linear_3983_38549" x1="50.9668" y1="47.5017" x2="44.531" y2="53.899" gradientUnits="userSpaceOnUse">
<stop stop-color="#5A5A5A"/>
<stop offset="1" stop-color="#444444"/>
</linearGradient>
<linearGradient id="paint16_linear_3983_38549" x1="44.5734" y1="53.9323" x2="51.0271" y2="47.5171" gradientUnits="userSpaceOnUse">
<stop stop-color="#5A5A5A"/>
<stop offset="1" stop-color="#444444"/>
</linearGradient>
<linearGradient id="paint17_linear_3983_38549" x1="49.4515" y1="49.0257" x2="46.744" y2="51.7169" gradientUnits="userSpaceOnUse">
<stop stop-color="#EAF9FA"/>
<stop offset="1" stop-color="#B3DAFE"/>
</linearGradient>
<linearGradient id="paint18_linear_3983_38549" x1="11.7343" y1="47.5022" x2="5.29862" y2="53.8995" gradientUnits="userSpaceOnUse">
<stop stop-color="#5A5A5A"/>
<stop offset="1" stop-color="#444444"/>
</linearGradient>
<linearGradient id="paint19_linear_3983_38549" x1="5.34285" y1="53.9328" x2="11.7965" y2="47.5176" gradientUnits="userSpaceOnUse">
<stop stop-color="#5A5A5A"/>
<stop offset="1" stop-color="#444444"/>
</linearGradient>
<linearGradient id="paint20_linear_3983_38549" x1="10.2189" y1="49.0262" x2="7.51149" y2="51.7173" gradientUnits="userSpaceOnUse">
<stop stop-color="#EAF9FA"/>
<stop offset="1" stop-color="#B3DAFE"/>
</linearGradient>
<linearGradient id="paint21_linear_3983_38549" x1="5.06355" y1="31.5158" x2="10.5067" y2="26.9855" gradientUnits="userSpaceOnUse">
<stop stop-color="#7BACDF" stop-opacity="0"/>
<stop offset="1" stop-color="#7BACDF"/>
</linearGradient>
<linearGradient id="paint22_linear_3983_38549" x1="226.272" y1="83.8515" x2="240.278" y2="97.857" gradientUnits="userSpaceOnUse">
<stop stop-color="#BBEC6C"/>
<stop offset="1" stop-color="#81B823"/>
</linearGradient>
<linearGradient id="paint23_linear_3983_38549" x1="241.712" y1="95.2607" x2="230.123" y2="81.4642" gradientUnits="userSpaceOnUse">
<stop stop-color="#78A91F" stop-opacity="0"/>
<stop offset="1" stop-color="#026841"/>
</linearGradient>
<linearGradient id="paint24_linear_3983_38549" x1="209.376" y1="20.2587" x2="250.209" y2="61.0909" gradientUnits="userSpaceOnUse">
<stop stop-color="#FD4755"/>
<stop offset="1" stop-color="#A72B2B"/>
</linearGradient>
<linearGradient id="paint25_linear_3983_38549" x1="230.566" y1="69.1413" x2="230.566" y2="90.3382" gradientUnits="userSpaceOnUse">
<stop stop-color="#A72B2B" stop-opacity="0"/>
<stop offset="1" stop-color="#42210B"/>
</linearGradient>
<linearGradient id="paint26_linear_3983_38549" x1="257.089" y1="62.8279" x2="195.645" y2="1.38404" gradientUnits="userSpaceOnUse">
<stop stop-color="#FD4755"/>
<stop offset="1" stop-color="#A72B2B"/>
</linearGradient>
<linearGradient id="paint27_linear_3983_38549" x1="218.149" y1="23.8886" x2="242.569" y2="48.3085" gradientUnits="userSpaceOnUse">
<stop stop-color="#EAF9FA"/>
<stop offset="1" stop-color="#B3DAFE"/>
</linearGradient>
<linearGradient id="paint28_linear_3983_38549" x1="213.597" y1="5.04981" x2="254.72" y2="46.2064" gradientUnits="userSpaceOnUse">
<stop stop-color="#FEE45A"/>
<stop offset="1" stop-color="#FE860A"/>
</linearGradient>
<linearGradient id="paint29_linear_3983_38549" x1="252.997" y1="23.075" x2="199.959" y2="-14.6376" gradientUnits="userSpaceOnUse">
<stop stop-color="#FE860A" stop-opacity="0"/>
<stop offset="1" stop-color="#FE7701"/>
</linearGradient>
<linearGradient id="paint30_linear_3983_38549" x1="258.201" y1="11.6054" x2="225.759" y2="45.8478" gradientUnits="userSpaceOnUse">
<stop stop-color="#FE860A" stop-opacity="0"/>
<stop offset="1" stop-color="#FE7701"/>
</linearGradient>
<linearGradient id="paint31_linear_3983_38549" x1="230.713" y1="36.6543" x2="230.713" y2="45.9659" gradientUnits="userSpaceOnUse">
<stop stop-color="#FE860A" stop-opacity="0"/>
<stop offset="1" stop-color="#FE7701"/>
</linearGradient>
<linearGradient id="paint32_linear_3983_38549" x1="218.358" y1="1.52748" x2="233.009" y2="16.1896" gradientUnits="userSpaceOnUse">
<stop stop-color="#EAF6FF"/>
<stop offset="0.2575" stop-color="#DCE8FA"/>
<stop offset="0.7423" stop-color="#B8C4ED"/>
<stop offset="1" stop-color="#A2AEE6"/>
</linearGradient>
<clipPath id="clip0_3983_38549">
<rect width="67.1317" height="93.253" fill="white" transform="translate(197 2.65332)"/>
</clipPath>
<clipPath id="clip1_3983_38549">
<rect width="51.5914" height="43.9264" fill="white" transform="translate(204.938)"/>
</clipPath>
</defs>
</svg>
