<svg width="23" height="31" viewBox="0 0 23 31" fill="none" xmlns="http://www.w3.org/2000/svg">
<g clip-path="url(#clip0_3950_36619)">
<path d="M8.36364 11.3384C8.36364 12.8962 9.61195 14.1601 11.1506 14.1601C12.6892 14.1601 13.9375 12.8962 13.9375 11.3384C13.9375 9.78052 12.6892 8.5166 11.1506 8.5166C9.61195 8.5166 8.36364 9.78052 8.36364 11.3384Z" fill="#FF8787"/>
<path d="M12.5252 29.3977C15.556 25.6235 22.2969 16.4763 22.2969 11.3383C22.2969 5.10459 17.3059 0.0512695 11.1491 0.0512695C4.99467 0.0512695 0.00142097 5.10459 0.00142097 11.3383C0.00142097 16.4763 6.79457 25.6235 9.7731 29.3977C10.4873 30.2971 11.811 30.2971 12.5252 29.3977ZM11.1491 16.0413C8.58285 16.0413 6.50426 13.9367 6.50426 11.3383C6.50426 8.73996 8.58285 6.6354 11.1491 6.6354C13.7154 6.6354 15.794 8.73996 15.794 11.3383C15.794 13.9367 13.7154 16.0413 11.1491 16.0413Z" fill="#BA1717"/>
</g>
<defs>
<clipPath id="clip0_3950_36619">
<rect width="22.2955" height="30.0989" fill="white" transform="matrix(-1 0 0 1 22.2969 0.0512695)"/>
</clipPath>
</defs>
</svg>
