<svg width="22" height="25" viewBox="0 0 22 25" fill="none" xmlns="http://www.w3.org/2000/svg">
<path d="M5.25 3.5H11.5C12.8672 3.5 14 4.63281 14 6V13.5H14.3125C16.1875 13.5 17.75 15.0625 17.75 16.9375V18.1875C17.75 18.7344 18.1406 19.125 18.6875 19.125C19.1953 19.125 19.625 18.7344 19.625 18.1875V12.1719C18.5312 11.8984 17.75 10.9219 17.75 9.75V7.32812L16.4609 6.03906C16.0703 5.6875 16.0703 5.10156 16.4609 4.75C16.8125 4.35938 17.3984 4.35938 17.75 4.75L20.6406 7.60156C21.1875 8.14844 21.5 8.85156 21.5 9.59375V18.1875C21.5 19.75 20.2109 21 18.6875 21C17.125 21 15.875 19.75 15.875 18.1875V16.9375C15.875 16.0781 15.1719 15.375 14.3125 15.375H14V21.625H14.3125C14.8203 21.625 15.25 22.0547 15.25 22.5625C15.25 23.1094 14.8203 23.5 14.3125 23.5H2.4375C1.89062 23.5 1.5 23.1094 1.5 22.5625C1.5 22.0547 1.89062 21.625 2.4375 21.625H2.75V6C2.75 4.63281 3.84375 3.5 5.25 3.5ZM11.5 5.375H5.25C4.89844 5.375 4.625 5.6875 4.625 6V11H12.125V6C12.125 5.6875 11.8125 5.375 11.5 5.375ZM12.125 12.875H4.625V21.625H12.125V12.875Z" fill="#012D61"/>
</svg>
