<svg width="76" height="75" viewBox="0 0 76 75" fill="none" xmlns="http://www.w3.org/2000/svg">
<rect x="0.5" width="75" height="75" rx="37.5" fill="#EEF6FF"/>
<g clip-path="url(#clip0_4248_42930)">
<path d="M51.2947 40.0201L44.4176 29.7076C44.2307 29.424 43.9084 29.25 43.5604 29.25C43.2154 29.25 42.8933 29.4222 42.7025 29.7092L38.6587 35.7749L37.2182 33.8004C37.0248 33.5297 36.7154 33.375 36.3867 33.375C36.058 33.375 35.7486 33.5297 35.5553 33.8004L31.0436 39.9879C30.8115 40.2973 30.7793 40.7162 30.9533 41.0643C31.1338 41.4059 31.4303 41.625 31.875 41.625H50.4375C50.8177 41.625 51.1671 41.4158 51.3469 41.0804C51.5268 40.742 51.5074 40.3359 51.2947 40.0201ZM48.8906 51.9375H27.2344C22.9695 51.9375 19.5 48.4699 19.5 44.2031V28.7344C19.5 27.8836 20.1929 27.1875 21.0469 27.1875C21.9009 27.1875 22.5938 27.8836 22.5938 28.7344V44.2031C22.5938 46.7619 24.6756 48.8438 27.2344 48.8438H48.8906C49.7446 48.8438 50.4375 49.5366 50.4375 50.3906C50.4375 51.2446 49.7479 51.9375 48.8906 51.9375Z" fill="url(#paint0_linear_4248_42930)"/>
<path opacity="0.4" d="M53.4732 23.0625H28.7812C27.0732 23.0625 25.6875 24.4476 25.6875 26.1562V42.6562C25.6875 44.3649 27.0726 45.75 28.7812 45.75H53.4732C55.2393 45.75 56.625 44.3643 56.625 42.6562V26.1562C56.625 24.4476 55.2393 23.0625 53.4732 23.0625ZM33.8795 27.1875C35.019 27.1875 35.942 28.1111 35.942 29.25C35.942 30.3889 35.0783 31.3125 33.8795 31.3125C32.7967 31.3125 31.817 30.3908 31.817 29.25C31.817 28.1092 32.7967 27.1875 33.8795 27.1875ZM51.3463 41.0836C51.1658 41.4188 50.8178 41.625 50.4375 41.625H31.875C31.4303 41.625 31.1338 41.4059 30.9533 41.0643C30.7793 40.7162 30.8115 40.2973 31.0436 39.9879L35.5553 33.8004C35.7486 33.5297 36.058 33.375 36.3867 33.375C36.7154 33.375 37.0248 33.5297 37.2182 33.8004L38.6587 35.7765L42.7025 29.7108C42.8385 29.424 43.1607 29.25 43.5604 29.25C43.905 29.25 44.2268 29.4222 44.4182 29.7092L51.2954 40.0217C51.5074 40.3359 51.5268 40.742 51.3463 41.0836Z" fill="url(#paint1_linear_4248_42930)"/>
</g>
<defs>
<linearGradient id="paint0_linear_4248_42930" x1="19.5" y1="39.5767" x2="51.4692" y2="39.5767" gradientUnits="userSpaceOnUse">
<stop stop-color="#002D62"/>
<stop offset="1" stop-color="#062143"/>
</linearGradient>
<linearGradient id="paint1_linear_4248_42930" x1="25.6875" y1="34.4192" x2="56.625" y2="34.4192" gradientUnits="userSpaceOnUse">
<stop stop-color="#002D62"/>
<stop offset="1" stop-color="#062143"/>
</linearGradient>
<clipPath id="clip0_4248_42930">
<rect width="37.125" height="33" fill="white" transform="translate(19.5 21)"/>
</clipPath>
</defs>
</svg>
