<svg width="20" height="20" viewBox="0 0 20 20" fill="none" xmlns="http://www.w3.org/2000/svg">
<path d="M2.5 10.75C2.5 6.89453 5.61719 3.75 9.5 3.75C13.3555 3.75 16.5 6.89453 16.5 10.75C16.5 14.6328 13.3555 17.75 9.5 17.75C5.61719 17.75 2.5 14.6328 2.5 10.75ZM8.1875 6.375C7.94141 6.375 7.75 6.59375 7.75 6.8125V7.25H6.875C6.38281 7.25 6 7.66016 6 8.125V9H13V8.125C13 7.66016 12.5898 7.25 12.125 7.25H11.25V6.8125C11.25 6.59375 11.0312 6.375 10.8125 6.375C10.5664 6.375 10.375 6.59375 10.375 6.8125V7.25H8.625V6.8125C8.625 6.59375 8.40625 6.375 8.1875 6.375ZM6.875 14.25H12.125C12.5898 14.25 13 13.8672 13 13.375V9.875H6V13.375C6 13.8672 6.38281 14.25 6.875 14.25Z" fill="#0A0A0A"/>
</svg>
