<svg width="130" height="116" viewBox="0 0 130 116" fill="none" xmlns="http://www.w3.org/2000/svg">
<g clip-path="url(#clip0_3983_38360)">
<path d="M99.6673 116H3.89575C1.74358 116 0 114.263 0 112.119V32.6623C0 30.5205 1.74358 28.7817 3.89575 28.7817H99.6673C101.82 28.7817 103.563 30.5185 103.563 32.6623V112.119C103.563 114.263 101.82 116 99.6673 116Z" fill="url(#paint0_linear_3983_38360)"/>
<path d="M103.564 32.6622V112.119C103.564 114.261 101.82 116 99.6682 116H86.9554L24.2168 53.5037V28.7837H99.6702C101.82 28.7837 103.566 30.5205 103.566 32.6643L103.564 32.6622Z" fill="url(#paint1_linear_3983_38360)"/>
<path d="M103.562 32.6622V112.119C103.562 114.263 101.819 116 99.6666 116H72.457C74.6072 116 76.3508 114.263 76.3508 112.119V32.6622C76.3508 32.1968 76.2699 31.7536 76.1181 31.3405C75.5761 29.8495 74.142 28.7837 72.457 28.7837H99.6666C101.352 28.7837 102.788 29.8495 103.33 31.3405C103.479 31.7536 103.562 32.1968 103.562 32.6622Z" fill="url(#paint2_linear_3983_38360)"/>
<path d="M103.563 32.6626V76.9244L76.351 49.8209L74.209 47.6872V31.3408H103.33C103.48 31.7539 103.563 32.1971 103.563 32.6626Z" fill="url(#paint3_linear_3983_38360)"/>
<path d="M0 94.9629V112.119C0 114.263 1.74358 116 3.89575 116H99.6673C101.82 116 103.563 114.263 103.563 112.119V94.9629H0Z" fill="url(#paint4_linear_3983_38360)"/>
<path d="M28.2131 54.1667L28.2899 54.213C30.0416 55.2728 32.2423 55.2547 33.9758 54.1667C35.7477 53.1008 37.9666 53.1008 39.7365 54.1667C41.5064 55.2325 43.7273 55.2325 45.4992 54.1667C46.3204 53.6932 47.2286 53.6831 48.1429 53.8544C49.1866 54.0498 50.1555 53.2701 50.1555 52.2123V29.5716C50.1555 28.8181 49.5426 28.2056 48.7841 28.2056H24.9241C24.1676 28.2056 23.5527 28.8161 23.5527 29.5716V52.1801C23.5527 53.2318 24.5135 54.0176 25.5492 53.8242C26.4735 53.6509 27.3898 53.671 28.2111 54.1667H28.2131Z" fill="url(#paint5_linear_3983_38360)"/>
<path d="M11.1211 92.9344H13.6152V101.232C13.6152 101.562 13.8842 101.83 14.2179 101.83H18.7003C19.032 101.83 19.303 101.562 19.303 101.232V92.9344H21.797C22.5596 92.9344 23.0167 92.0902 22.596 91.4555L17.2601 83.4023C16.8818 82.8321 16.0404 82.8321 15.6621 83.4023L10.3262 91.4555C9.9055 92.0902 10.3626 92.9344 11.1252 92.9344H11.1211Z" fill="#C4573A"/>
<path d="M24.1941 104.663H8.72235C8.50794 104.663 8.33398 104.836 8.33398 105.049V107.312C8.33398 107.526 8.50794 107.697 8.72235 107.697H24.1921C24.4065 107.697 24.5804 107.524 24.5804 107.312V105.049C24.5804 104.836 24.4065 104.663 24.1921 104.663H24.1941Z" fill="#C4573A"/>
<path d="M89.5526 95.9646H81.8845C81.6701 95.9646 81.4961 95.7913 81.4961 95.5777V93.3151C81.4961 93.1015 81.6701 92.9282 81.8845 92.9282H89.5526C89.767 92.9282 89.9409 93.1015 89.9409 93.3151V95.5777C89.9409 95.7913 89.767 95.9646 89.5526 95.9646Z" fill="#C4573A"/>
<path d="M99.3001 101.832H81.8845C81.6701 101.832 81.4961 101.658 81.4961 101.445V99.1823C81.4961 98.9687 81.6701 98.7954 81.8845 98.7954H99.3001C99.5145 98.7954 99.6884 98.9687 99.6884 99.1823V101.445C99.6884 101.658 99.5145 101.832 99.3001 101.832Z" fill="#C4573A"/>
<path d="M94.0207 107.697H81.8864C81.672 107.697 81.498 107.524 81.498 107.31V105.047C81.498 104.834 81.672 104.661 81.8864 104.661H94.0207C94.2351 104.661 94.409 104.834 94.409 105.047V107.31C94.409 107.524 94.2351 107.697 94.0207 107.697Z" fill="#C4573A"/>
<path d="M97.2687 65.2081C115.346 65.2081 130 50.6107 130 32.604C130 14.5973 115.346 0 97.2687 0C79.1915 0 64.5371 14.5973 64.5371 32.604C64.5371 50.6107 79.1915 65.2081 97.2687 65.2081Z" fill="url(#paint6_linear_3983_38360)"/>
<path d="M64.5469 33.001C64.7613 50.8242 79.3248 65.2081 97.2684 65.2081C115.212 65.2081 129.775 50.8242 129.99 33.001H64.5469Z" fill="url(#paint7_linear_3983_38360)"/>
<path d="M88.1484 50.5282L102.469 64.7933C118.075 62.311 130.002 48.8458 130.002 32.6023C130.002 31.2281 129.907 29.8782 129.742 28.5484L119.976 18.8208L88.1505 50.5262L88.1484 50.5282Z" fill="url(#paint8_linear_3983_38360)"/>
<path d="M121.807 23.9623L95.1353 50.5299C93.2056 52.452 90.0765 52.452 88.1468 50.5299L72.7317 35.1748C71.8134 34.2601 71.8134 32.7772 72.7317 31.8625L79.4835 25.1369C80.4018 24.2222 81.8906 24.2222 82.8089 25.1369L91.1182 33.4139C91.4054 33.7 91.8706 33.7 92.1579 33.4139L111.726 13.9224C112.644 13.0076 114.133 13.0076 115.051 13.9224L121.803 20.6479C122.721 21.5626 122.721 23.0455 121.803 23.9603L121.807 23.9623Z" fill="url(#paint9_linear_3983_38360)"/>
</g>
<defs>
<linearGradient id="paint0_linear_3983_38360" x1="17.3286" y1="38.4973" x2="99.368" y2="120.856" gradientUnits="userSpaceOnUse">
<stop stop-color="#FEE45A"/>
<stop offset="1" stop-color="#FE860A"/>
</linearGradient>
<linearGradient id="paint1_linear_3983_38360" x1="96.1709" y1="74.458" x2="-9.74316" y2="-1.08589" gradientUnits="userSpaceOnUse">
<stop stop-color="#FE860A" stop-opacity="0"/>
<stop offset="1" stop-color="#FE7701"/>
</linearGradient>
<linearGradient id="paint2_linear_3983_38360" x1="107.005" y1="93.5122" x2="42.0426" y2="24.7344" gradientUnits="userSpaceOnUse">
<stop stop-color="#FE860A" stop-opacity="0"/>
<stop offset="1" stop-color="#FE7701"/>
</linearGradient>
<linearGradient id="paint3_linear_3983_38360" x1="114.257" y1="66.2962" x2="95.9257" y2="46.8823" gradientUnits="userSpaceOnUse">
<stop stop-color="#FE860A" stop-opacity="0"/>
<stop offset="1" stop-color="#FE7701"/>
</linearGradient>
<linearGradient id="paint4_linear_3983_38360" x1="51.5793" y1="101.545" x2="51.5793" y2="120.122" gradientUnits="userSpaceOnUse">
<stop stop-color="#FE860A" stop-opacity="0"/>
<stop offset="1" stop-color="#FE7701"/>
</linearGradient>
<linearGradient id="paint5_linear_3983_38360" x1="26.8599" y1="31.4716" x2="56.0848" y2="60.8109" gradientUnits="userSpaceOnUse">
<stop stop-color="#EAF6FF"/>
<stop offset="0.26" stop-color="#DCE8FA"/>
<stop offset="0.74" stop-color="#B8C4ED"/>
<stop offset="1" stop-color="#A2AEE6"/>
</linearGradient>
<linearGradient id="paint6_linear_3983_38360" x1="73.6292" y1="9.81426" x2="124.735" y2="61.1181" gradientUnits="userSpaceOnUse">
<stop stop-color="#A2E62E"/>
<stop offset="1" stop-color="#02905D"/>
</linearGradient>
<linearGradient id="paint7_linear_3983_38360" x1="96.8901" y1="41.3001" x2="96.8901" y2="69.816" gradientUnits="userSpaceOnUse">
<stop stop-color="#02905D" stop-opacity="0"/>
<stop offset="0.46" stop-color="#028A58" stop-opacity="0.46"/>
<stop offset="1" stop-color="#017B4E"/>
</linearGradient>
<linearGradient id="paint8_linear_3983_38360" x1="124.683" y1="55.9945" x2="104.281" y2="35.5126" gradientUnits="userSpaceOnUse">
<stop stop-color="#02905D" stop-opacity="0"/>
<stop offset="0.46" stop-color="#028A58" stop-opacity="0.46"/>
<stop offset="1" stop-color="#017B4E"/>
</linearGradient>
<linearGradient id="paint9_linear_3983_38360" x1="85.048" y1="16.5135" x2="114.684" y2="46.2654" gradientUnits="userSpaceOnUse">
<stop stop-color="#EAF6FF"/>
<stop offset="0.26" stop-color="#DCE8FA"/>
<stop offset="0.74" stop-color="#B8C4ED"/>
<stop offset="1" stop-color="#A2AEE6"/>
</linearGradient>
<clipPath id="clip0_3983_38360">
<rect width="130" height="116" fill="white"/>
</clipPath>
</defs>
</svg>
