<svg width="15" height="21" viewBox="0 0 15 21" fill="none" xmlns="http://www.w3.org/2000/svg">
<path d="M12.5 3C13.8672 3 15 4.13281 15 5.5V18C15 19.4062 13.8672 20.5 12.5 20.5H2.5C1.09375 20.5 0 19.4062 0 18V5.5C0 4.13281 1.09375 3 2.5 3H4.41406C4.72656 1.59375 5.97656 0.5 7.5 0.5C8.98438 0.5 10.2344 1.59375 10.5469 3H12.5ZM7.5 2.375C6.95312 2.375 6.5625 2.80469 6.5625 3.3125C6.5625 3.85938 6.95312 4.25 7.5 4.25C8.00781 4.25 8.4375 3.85938 8.4375 3.3125C8.4375 2.80469 8.00781 2.375 7.5 2.375ZM13.125 18V5.5C13.125 5.1875 12.8125 4.875 12.5 4.875H11.7578C11.8359 5.10938 11.875 5.30469 11.875 5.5V6.125C11.875 6.47656 11.5625 6.75 11.25 6.75H3.75C3.39844 6.75 3.125 6.47656 3.125 6.125V5.5C3.125 5.30469 3.125 5.10938 3.20312 4.875H2.5C2.14844 4.875 1.875 5.1875 1.875 5.5V18C1.875 18.3516 2.14844 18.625 2.5 18.625H12.5C12.8125 18.625 13.125 18.3516 13.125 18ZM11.25 10.5C11.5625 10.5 11.875 10.8125 11.875 11.125C11.875 11.4766 11.5625 11.75 11.25 11.75H6.875C6.52344 11.75 6.25 11.4766 6.25 11.125C6.25 10.8125 6.52344 10.5 6.875 10.5H11.25ZM11.25 14.25C11.5625 14.25 11.875 14.5625 11.875 14.875C11.875 15.2266 11.5625 15.5 11.25 15.5H6.875C6.52344 15.5 6.25 15.2266 6.25 14.875C6.25 14.5625 6.52344 14.25 6.875 14.25H11.25ZM4.0625 13.9375C4.57031 13.9375 5 14.3672 5 14.875C5 15.4219 4.57031 15.8125 4.0625 15.8125C3.51562 15.8125 3.125 15.4219 3.125 14.875C3.125 14.3672 3.51562 13.9375 4.0625 13.9375ZM4.21875 11.75C4.02344 11.75 3.86719 11.7109 3.75 11.5938L2.8125 10.6562C2.57812 10.4219 2.57812 9.99219 2.8125 9.75781C3.04688 9.52344 3.47656 9.52344 3.71094 9.75781L4.21875 10.2656L5.625 8.82031C5.85938 8.58594 6.28906 8.58594 6.52344 8.82031C6.75781 9.05469 6.75781 9.48438 6.52344 9.71875L4.64844 11.5938C4.53125 11.7109 4.375 11.75 4.21875 11.75Z" fill="#012D61"/>
</svg>
