<svg width="16" height="21" viewBox="0 0 16 21" fill="none" xmlns="http://www.w3.org/2000/svg">
<path d="M10.8125 9.25C11.3203 9.25 11.75 9.67969 11.75 10.1875C11.75 10.7344 11.3203 11.125 10.8125 11.125H5.1875C4.64062 11.125 4.25 10.7344 4.25 10.1875C4.25 9.67969 4.64062 9.25 5.1875 9.25H10.8125ZM7.0625 13C7.57031 13 8 13.4297 8 13.9375C8 14.4844 7.57031 14.875 7.0625 14.875H5.1875C4.64062 14.875 4.25 14.4844 4.25 13.9375C4.25 13.4297 4.64062 13 5.1875 13H7.0625ZM10.8125 5.5C11.3203 5.5 11.75 5.92969 11.75 6.4375C11.75 6.98438 11.3203 7.375 10.8125 7.375H5.1875C4.64062 7.375 4.25 6.98438 4.25 6.4375C4.25 5.92969 4.64062 5.5 5.1875 5.5H10.8125ZM13 0.5C14.3672 0.5 15.5 1.63281 15.5 3V18C15.5 19.4062 14.3672 20.5 13 20.5H3C1.59375 20.5 0.5 19.4062 0.5 18V3C0.5 1.63281 1.59375 0.5 3 0.5H13ZM13.625 18V3C13.625 2.6875 13.3125 2.375 13 2.375H3C2.64844 2.375 2.375 2.6875 2.375 3V18C2.375 18.3516 2.64844 18.625 3 18.625H13C13.3125 18.625 13.625 18.3516 13.625 18Z" fill="#012D61"/>
</svg>
