<svg width="181" height="181" viewBox="0 0 181 181" fill="none" xmlns="http://www.w3.org/2000/svg">
<g style="mix-blend-mode:luminosity" clip-path="url(#clip0_3916_35796)">
<mask id="mask0_3916_35796" style="mask-type:luminance" maskUnits="userSpaceOnUse" x="0" y="0" width="181" height="181">
<path d="M181 0H0V181H181V0Z" fill="white"/>
</mask>
<g mask="url(#mask0_3916_35796)">
<path d="M90.4996 162.297C130.483 162.297 162.9 129.879 162.9 89.8966C162.9 49.9137 130.483 17.4966 90.4996 17.4966C50.5167 17.4966 18.0996 49.9137 18.0996 89.8966C18.0996 129.879 50.5167 162.297 90.4996 162.297Z" fill="#DBDBDB"/>
<path d="M119.183 38.3477H63.3506C58.0192 38.3477 53.6973 42.6696 53.6973 48.001V122.229C53.6973 127.56 58.0192 131.882 63.3506 131.882H119.183C124.514 131.882 128.836 127.56 128.836 122.229V48.001C128.836 42.6696 124.514 38.3477 119.183 38.3477Z" fill="url(#paint0_linear_3916_35796)"/>
<path d="M87.5443 50.4146H63.2903C61.6576 50.4146 60.334 51.7381 60.334 53.3709C60.334 55.0036 61.6576 56.3272 63.2903 56.3272H87.5443C89.1771 56.3272 90.5006 55.0036 90.5006 53.3709C90.5006 51.7381 89.1771 50.4146 87.5443 50.4146Z" fill="black"/>
<path d="M117.711 67.187H63.2903C61.6576 67.187 60.334 68.5106 60.334 70.1433C60.334 71.7761 61.6576 73.0997 63.2903 73.0997H117.711C119.344 73.0997 120.667 71.7761 120.667 70.1433C120.667 68.5106 119.344 67.187 117.711 67.187Z" fill="#D5D5D5"/>
<path d="M117.711 83.96H63.2903C61.6576 83.96 60.334 85.2836 60.334 86.9163C60.334 88.549 61.6576 89.8726 63.2903 89.8726H117.711C119.344 89.8726 120.667 88.549 120.667 86.9163C120.667 85.2836 119.344 83.96 117.711 83.96Z" fill="#D5D5D5"/>
<path d="M117.711 100.732H63.2903C61.6576 100.732 60.334 102.056 60.334 103.689C60.334 105.321 61.6576 106.645 63.2903 106.645H117.711C119.344 106.645 120.667 105.321 120.667 103.689C120.667 102.056 119.344 100.732 117.711 100.732Z" fill="#D5D5D5"/>
<path d="M63.2903 117.505H117.711C119.346 117.505 120.667 118.826 120.667 120.461C120.667 122.096 119.346 123.418 117.711 123.418H63.2903C61.6553 123.418 60.334 122.096 60.334 120.461C60.334 118.826 61.6553 117.505 63.2903 117.505Z" fill="#D5D5D5"/>
<path d="M173.85 28.0068H137.602C135.913 28.0068 134.543 29.4488 134.543 31.2226V49.1537C134.543 50.9335 135.913 52.3755 137.602 52.3755H173.85C175.539 52.3755 176.909 50.9335 176.909 49.1537V31.2226C176.909 29.4428 175.539 28.0068 173.85 28.0068Z" fill="#E4EDF0"/>
<path d="M143.595 44.0432C145.592 44.0432 147.215 42.4203 147.215 40.4232C147.215 38.4262 145.592 36.8032 143.595 36.8032C141.598 36.8032 139.975 38.4262 139.975 40.4232C139.975 42.4203 141.598 44.0432 143.595 44.0432Z" fill="#DBDBDB"/>
<path d="M155.661 36.8032H167.728C169.725 36.8032 171.348 38.4262 171.348 40.4232C171.348 42.4203 169.725 44.0432 167.728 44.0432H155.661C153.664 44.0432 152.041 42.4203 152.041 40.4232C152.041 38.4262 153.664 36.8032 155.661 36.8032Z" fill="#D5D5D5"/>
<path d="M111.919 130.923C130.079 130.923 144.8 116.335 144.8 98.3432C144.8 80.3518 130.079 65.7632 111.919 65.7632C93.7584 65.7632 79.0371 80.3518 79.0371 98.3432C79.0371 116.335 93.7584 130.923 111.919 130.923Z" fill="white" fill-opacity="0.5"/>
<path fill-rule="evenodd" clip-rule="evenodd" d="M111.683 136.088C119.454 136.088 126.676 133.735 132.679 129.711L157.234 153.15L166.14 142.821L142.447 120.202C146.821 114.042 149.397 106.512 149.397 98.3856C149.397 77.5585 132.516 60.6772 111.689 60.6772C90.8617 60.6772 73.9805 77.5585 73.9805 98.3856C73.9805 119.213 90.8617 136.094 111.689 136.094L111.683 136.088ZM143.846 98.3795C143.846 116.009 129.553 130.302 111.924 130.302C94.2947 130.302 80.0017 116.009 80.0017 98.3795C80.0017 80.7501 94.2947 66.4572 111.924 66.4572C129.553 66.4572 143.846 80.7501 143.846 98.3795Z" fill="#B0B0B0"/>
<path d="M117.602 98.3434L125.56 90.4156C126.308 89.6312 126.712 88.5874 126.7 87.5075C126.688 86.4275 126.248 85.4018 125.482 84.6356C124.715 83.8754 123.678 83.435 122.592 83.4229C121.506 83.4109 120.456 83.8151 119.665 84.5572L111.689 92.485L103.731 84.5572C103.351 84.1529 102.887 83.8332 102.38 83.61C101.867 83.3867 101.318 83.2661 100.763 83.26C100.208 83.254 99.6529 83.3566 99.134 83.5617C98.6151 83.7729 98.1506 84.0805 97.7524 84.4727C97.3602 84.8649 97.0465 85.3294 96.8353 85.8423C96.6241 86.3551 96.5216 86.9042 96.5276 87.4592C96.5336 88.0143 96.6543 88.5573 96.8775 89.0701C97.1008 89.5769 97.4266 90.0355 97.8308 90.4156L105.801 98.3434L97.8308 106.271C97.4266 106.651 97.1008 107.11 96.8775 107.617C96.6543 108.123 96.5336 108.672 96.5276 109.227C96.5216 109.783 96.6241 110.332 96.8353 110.844C97.0465 111.357 97.3542 111.822 97.7524 112.214C98.1445 112.606 98.6151 112.914 99.134 113.125C99.6529 113.336 100.202 113.439 100.763 113.427C101.324 113.415 101.873 113.3 102.38 113.077C102.893 112.854 103.351 112.534 103.731 112.13L111.707 104.202L119.684 112.13C120.48 112.823 121.512 113.197 122.573 113.161C123.635 113.125 124.643 112.691 125.391 111.949C126.139 111.2 126.574 110.199 126.604 109.143C126.634 108.087 126.26 107.062 125.554 106.271L117.596 98.3434H117.602Z" fill="black"/>
<path d="M157.229 153.15L166.134 142.815L167.473 144.094C168.776 145.337 169.555 147.068 169.639 148.921C169.724 150.767 169.108 152.577 167.932 153.946C166.749 155.316 165.102 156.137 163.346 156.227C161.591 156.318 159.871 155.672 158.574 154.429L157.235 153.15H157.229Z" fill="#DBDBDB"/>
<path fill-rule="evenodd" clip-rule="evenodd" d="M33.9742 55.0058C33.9621 54.1431 33.8535 53.2803 33.6423 52.4055C32.8821 49.3406 29.5095 47.3737 25.9136 46.9091C22.3178 46.4446 18.5831 47.5004 17.1412 50.1671C16.3146 51.6936 16.206 53.0088 16.5378 54.1129C16.8757 55.217 17.6661 56.128 18.746 56.84C21.7567 58.8249 27.0238 59.2292 29.4311 58.3966C30.5412 58.0105 31.6272 57.5519 32.6891 57.021C32.0857 60.4902 29.8293 63.7723 26.8247 66.7286C20.2845 73.1601 10.1425 78.0411 4.61596 79.8391C4.32033 79.9356 4.1514 80.2614 4.24793 80.5751C4.33843 80.8828 4.6582 81.0578 4.95383 80.9613C10.589 79.1332 20.9301 74.1436 27.5969 67.5853C31.042 64.1946 33.4975 60.3816 33.9138 56.3754C41.6968 52.0314 48.0922 44.1459 53.5584 37.5152C53.7635 37.2739 53.7333 36.8998 53.498 36.6887C53.2627 36.4775 52.9068 36.5016 52.7016 36.749C47.4587 43.1142 41.371 50.68 33.9742 55.0058ZM32.8399 55.6333C32.8821 54.668 32.7916 53.6845 32.5443 52.6951C31.8866 50.0404 28.882 48.4718 25.7688 48.0736C23.8623 47.8262 21.9015 48.0313 20.363 48.7493C19.3976 49.2018 18.6012 49.8534 18.1186 50.7463C17.4911 51.9108 17.3523 52.9123 17.6118 53.757C17.8712 54.6077 18.5107 55.2955 19.3494 55.8445C22.0945 57.6545 26.891 58.0346 29.0811 57.2804C30.3723 56.834 31.6272 56.2789 32.8459 55.6333H32.8399Z" fill="black"/>
<path d="M171.95 114.633C173.949 114.633 175.57 113.012 175.57 111.013C175.57 109.014 173.949 107.393 171.95 107.393C169.951 107.393 168.33 109.014 168.33 111.013C168.33 113.012 169.951 114.633 171.95 114.633Z" fill="#E3E3E3"/>
<path fill-rule="evenodd" clip-rule="evenodd" d="M35.2234 135.985C35.8689 135.744 36.5507 135.424 37.0756 134.953C37.697 134.398 37.9504 133.686 38.1194 132.938C38.3366 131.973 38.4271 130.947 38.6925 129.982C38.7891 129.62 38.9761 129.487 39.0606 129.427C39.2657 129.276 39.4708 129.234 39.6639 129.252C39.8932 129.27 40.2129 129.361 40.4181 129.771C40.4482 129.831 40.4844 129.916 40.5146 130.042C40.5327 130.133 40.5448 130.41 40.5689 130.525C40.6172 130.809 40.6594 131.092 40.7016 131.376C40.8344 132.323 40.9068 133.125 41.3231 133.994C41.8842 135.177 42.4453 135.895 43.2115 136.214C43.9476 136.522 44.8345 136.468 45.9627 136.22C46.0713 136.19 46.1739 136.172 46.2825 136.148C46.7772 136.058 47.2538 136.401 47.3504 136.92C47.4469 137.439 47.1332 137.946 46.6384 138.061C46.5359 138.085 46.4333 138.109 46.3368 138.127C44.8103 138.525 43.0486 139.943 42.0229 141.18C41.7092 141.56 41.2446 142.634 40.774 143.316C40.4241 143.816 40.0319 144.148 39.7061 144.269C39.4829 144.347 39.3019 144.335 39.145 144.293C38.9218 144.233 38.7348 144.106 38.596 143.907C38.5176 143.798 38.4452 143.648 38.415 143.46C38.3969 143.37 38.3969 143.141 38.3969 143.032C38.3004 142.682 38.1857 142.344 38.0952 141.994C37.8901 141.156 37.4919 140.625 37.0153 139.925C36.5688 139.267 36.0922 138.857 35.3863 138.525C35.2958 138.501 34.5597 138.314 34.3003 138.205C33.9202 138.049 33.7392 137.777 33.6728 137.632C33.5582 137.391 33.5521 137.174 33.5702 136.999C33.6004 136.733 33.715 136.51 33.9141 136.329C34.0348 136.214 34.2218 136.106 34.4692 136.052C34.6623 136.009 35.163 135.985 35.2354 135.985H35.2234ZM39.5493 134.622C39.5855 134.7 39.6217 134.785 39.6579 134.863C40.4784 136.595 41.4015 137.56 42.5177 138.024L42.5539 138.043C41.8057 138.628 41.13 139.279 40.6111 139.907C40.4 140.166 40.1164 140.703 39.8087 141.252C39.5312 140.305 39.0787 139.635 38.5115 138.797C38.0771 138.157 37.6186 137.675 37.0575 137.282C37.4919 137.047 37.9082 136.77 38.2702 136.45C38.8735 135.913 39.2717 135.297 39.5432 134.622H39.5493Z" fill="#B9B9B9"/>
</g>
</g>
<defs>
<linearGradient id="paint0_linear_3916_35796" x1="91.2668" y1="38.3477" x2="91.2668" y2="131.882" gradientUnits="userSpaceOnUse">
<stop stop-color="white"/>
<stop offset="0.72" stop-color="#FAFAFA"/>
</linearGradient>
<clipPath id="clip0_3916_35796">
<rect width="181" height="181" fill="white"/>
</clipPath>
</defs>
</svg>
