<svg width="20" height="21" viewBox="0 0 20 21" fill="none" xmlns="http://www.w3.org/2000/svg">
<path d="M3.75 0.5H10C11.3672 0.5 12.5 1.63281 12.5 3V10.5H12.8125C14.6875 10.5 16.25 12.0625 16.25 13.9375V15.1875C16.25 15.7344 16.6406 16.125 17.1875 16.125C17.6953 16.125 18.125 15.7344 18.125 15.1875V9.17188C17.0312 8.89844 16.25 7.92188 16.25 6.75V4.32812L14.9609 3.03906C14.5703 2.6875 14.5703 2.10156 14.9609 1.75C15.3125 1.35938 15.8984 1.35938 16.25 1.75L19.1406 4.60156C19.6875 5.14844 20 5.85156 20 6.59375V15.1875C20 16.75 18.7109 18 17.1875 18C15.625 18 14.375 16.75 14.375 15.1875V13.9375C14.375 13.0781 13.6719 12.375 12.8125 12.375H12.5V18.625H12.8125C13.3203 18.625 13.75 19.0547 13.75 19.5625C13.75 20.1094 13.3203 20.5 12.8125 20.5H0.9375C0.390625 20.5 0 20.1094 0 19.5625C0 19.0547 0.390625 18.625 0.9375 18.625H1.25V3C1.25 1.63281 2.34375 0.5 3.75 0.5ZM10 2.375H3.75C3.39844 2.375 3.125 2.6875 3.125 3V8H10.625V3C10.625 2.6875 10.3125 2.375 10 2.375ZM10.625 9.875H3.125V18.625H10.625V9.875Z" fill="white"/>
</svg>
