<svg width="41" height="40" viewBox="0 0 41 40" fill="none" xmlns="http://www.w3.org/2000/svg">
<path d="M20.5754 0C31.591 0 40.5754 8.98438 40.5754 20C40.5754 31.0938 31.591 40 20.5754 40C9.48167 40 0.575424 31.0938 0.575424 20C0.575424 8.98438 9.48167 0 20.5754 0ZM20.5754 37.5C30.1848 37.5 38.0754 29.6875 38.0754 20C38.0754 10.3906 30.1848 2.5 20.5754 2.5C10.8879 2.5 3.07542 10.3906 3.07542 20C3.07542 29.6875 10.8879 37.5 20.5754 37.5ZM19.3254 26.875C20.341 26.875 21.2004 27.7344 21.2004 28.75C21.2004 29.8438 20.341 30.625 19.3254 30.625C18.2317 30.625 17.4504 29.8438 17.4504 28.75C17.4504 27.7344 18.2317 26.875 19.3254 26.875ZM22.841 10C25.7317 10 28.0754 12.3438 28.0754 15.2344C28.0754 17.1094 26.9817 18.8281 25.341 19.7656L20.6535 22.1094C20.5754 22.1875 20.5754 22.2656 20.5754 22.3438V23.75C20.5754 24.4531 19.9504 25 19.3254 25C18.6223 25 18.0754 24.4531 18.0754 23.75V22.3438C18.0754 21.3281 18.6223 20.3906 19.4817 19.9219L24.1692 17.5781C25.0285 17.1094 25.5754 16.1719 25.5754 15.2344C25.5754 13.75 24.3254 12.5 22.841 12.5H18.2317C16.7473 12.5 15.5754 13.75 15.5754 15.2344V15.9375C15.5754 16.6406 14.9504 17.1875 14.3254 17.1875C13.6223 17.1875 13.0754 16.6406 13.0754 15.9375V15.2344C13.0754 12.3438 15.341 10 18.2317 10H22.841Z" fill="#616161"/>
</svg>
