<svg width="41" height="40" viewBox="0 0 41 40" fill="none" xmlns="http://www.w3.org/2000/svg">
<path d="M20.5754 0C31.591 0 40.5754 8.98438 40.5754 20C40.5754 31.0938 31.591 40 20.5754 40C9.48167 40 0.575424 31.0938 0.575424 20C0.575424 8.98438 9.48167 0 20.5754 0ZM20.5754 37.5C30.1848 37.5 38.0754 29.6875 38.0754 20C38.0754 10.3906 30.1848 2.5 20.5754 2.5C10.8879 2.5 3.07542 10.3906 3.07542 20C3.07542 29.6875 10.8879 37.5 20.5754 37.5ZM20.5754 23.75C19.8723 23.75 19.3254 23.2031 19.3254 22.5V10C19.3254 9.375 19.8723 8.75 20.5754 8.75C21.2004 8.75 21.8254 9.375 21.8254 10V22.5C21.8254 23.2031 21.2004 23.75 20.5754 23.75ZM20.5754 26.875C21.591 26.875 22.4504 27.7344 22.4504 28.75C22.4504 29.8438 21.591 30.625 20.5754 30.625C19.4817 30.625 18.7004 29.8438 18.7004 28.75C18.7004 27.7344 19.4817 26.875 20.5754 26.875Z" fill="#616161"/>
</svg>
